<?xml version="1.0" encoding="UTF-8" standalone="no"?>
<!DOCTYPE svg PUBLIC "-//W3C//DTD SVG 1.1//EN"
 "http://www.w3.org/Graphics/SVG/1.1/DTD/svg11.dtd">
<!-- Generated by graphviz version 2.43.0 (0)
 -->
<!-- Title: core/src/Arcade.cpp Pages: 1 -->
<svg width="981pt" height="412pt"
 viewBox="0.00 0.00 981.00 412.00" xmlns="http://www.w3.org/2000/svg" xmlns:xlink="http://www.w3.org/1999/xlink">
<g id="graph0" class="graph" transform="scale(1 1) rotate(0) translate(4 408)">
<title>core/src/Arcade.cpp</title>
<!-- Node1 -->
<g id="Node000001" class="node">
<title>Node1</title>
<g id="a_Node000001"><a xlink:title=" ">
<polygon fill="#999999" stroke="#666666" points="771,-404 659,-404 659,-385 771,-385 771,-404"/>
<text text-anchor="middle" x="715" y="-392" font-family="Helvetica,sans-Serif" font-size="10.00">core/src/Arcade.cpp</text>
</a>
</g>
</g>
<!-- Node2 -->
<g id="Node000002" class="node">
<title>Node2</title>
<g id="a_Node000002"><a xlink:href="Arcade_8hpp.html" target="_top" xlink:title=" ">
<polygon fill="white" stroke="#666666" points="622.5,-349 551.5,-349 551.5,-330 622.5,-330 622.5,-349"/>
<text text-anchor="middle" x="587" y="-337" font-family="Helvetica,sans-Serif" font-size="10.00">Arcade.hpp</text>
</a>
</g>
</g>
<!-- Node1&#45;&gt;Node2 -->
<g id="edge1_Node000001_Node000002" class="edge">
<title>Node1&#45;&gt;Node2</title>
<g id="a_edge1_Node000001_Node000002"><a xlink:title=" ">
<path fill="none" stroke="#63b8ff" d="M694.43,-384.98C673.57,-376.34 641.03,-362.87 617.23,-353.02"/>
<polygon fill="#63b8ff" stroke="#63b8ff" points="618.52,-349.76 607.94,-349.17 615.84,-356.23 618.52,-349.76"/>
</a>
</g>
</g>
<!-- Node3 -->
<g id="Node000003" class="node">
<title>Node3</title>
<g id="a_Node000003"><a xlink:href="Display_8hpp.html" target="_top" xlink:title=" ">
<polygon fill="white" stroke="#666666" points="422.5,-294 349.5,-294 349.5,-275 422.5,-275 422.5,-294"/>
<text text-anchor="middle" x="386" y="-282" font-family="Helvetica,sans-Serif" font-size="10.00">Display.hpp</text>
</a>
</g>
</g>
<!-- Node1&#45;&gt;Node3 -->
<g id="edge34_Node000001_Node000003" class="edge">
<title>Node1&#45;&gt;Node3</title>
<g id="a_edge34_Node000001_Node000003"><a xlink:title=" ">
<path fill="none" stroke="#63b8ff" d="M659.4,-384.93C618.47,-377.73 561.86,-365.89 514,-349 475.83,-335.53 434.32,-313.44 409.24,-299.18"/>
<polygon fill="#63b8ff" stroke="#63b8ff" points="410.88,-296.09 400.47,-294.14 407.39,-302.16 410.88,-296.09"/>
</a>
</g>
</g>
<!-- Node5 -->
<g id="Node000005" class="node">
<title>Node5</title>
<g id="a_Node000005"><a xlink:href="gfx_8hpp.html" target="_top" xlink:title=" ">
<polygon fill="white" stroke="#666666" points="611.5,-129 558.5,-129 558.5,-110 611.5,-110 611.5,-129"/>
<text text-anchor="middle" x="585" y="-117" font-family="Helvetica,sans-Serif" font-size="10.00">gfx.hpp</text>
</a>
</g>
</g>
<!-- Node1&#45;&gt;Node5 -->
<g id="edge37_Node000001_Node000005" class="edge">
<title>Node1&#45;&gt;Node5</title>
<g id="a_edge37_Node000001_Node000005"><a xlink:title=" ">
<path fill="none" stroke="#63b8ff" d="M713.56,-384.93C707.92,-353.32 685.13,-241.18 634,-165 626.37,-153.64 615.23,-143.21 605.51,-135.32"/>
<polygon fill="#63b8ff" stroke="#63b8ff" points="607.49,-132.43 597.44,-129.07 603.2,-137.96 607.49,-132.43"/>
</a>
</g>
</g>
<!-- Node15 -->
<g id="Node000015" class="node">
<title>Node15</title>
<g id="a_Node000015"><a xlink:title=" ">
<polygon fill="#e0e0e0" stroke="#999999" points="716,-19 672,-19 672,0 716,0 716,-19"/>
<text text-anchor="middle" x="694" y="-7" font-family="Helvetica,sans-Serif" font-size="10.00">string</text>
</a>
</g>
</g>
<!-- Node1&#45;&gt;Node15 -->
<g id="edge40_Node000001_Node000015" class="edge">
<title>Node1&#45;&gt;Node15</title>
<g id="a_edge40_Node000001_Node000015"><a xlink:title=" ">
<path fill="none" stroke="#63b8ff" d="M736.18,-384.95C769.14,-370.06 829,-336.07 829,-285.5 829,-285.5 829,-285.5 829,-118.5 829,-89.04 830.03,-76.6 810,-55 788.09,-31.37 752.24,-20.16 726.19,-14.93"/>
<polygon fill="#63b8ff" stroke="#63b8ff" points="726.5,-11.43 716.04,-13.09 725.25,-18.32 726.5,-11.43"/>
</a>
</g>
</g>
<!-- Node17 -->
<g id="Node000017" class="node">
<title>Node17</title>
<g id="a_Node000017"><a xlink:title=" ">
<polygon fill="#e0e0e0" stroke="#999999" points="800.5,-74 749.5,-74 749.5,-55 800.5,-55 800.5,-74"/>
<text text-anchor="middle" x="775" y="-62" font-family="Helvetica,sans-Serif" font-size="10.00">variant</text>
</a>
</g>
</g>
<!-- Node1&#45;&gt;Node17 -->
<g id="edge42_Node000001_Node000017" class="edge">
<title>Node1&#45;&gt;Node17</title>
<g id="a_edge42_Node000001_Node000017"><a xlink:title=" ">
<path fill="none" stroke="#63b8ff" d="M726.88,-384.88C748.25,-368.26 791,-329.52 791,-285.5 791,-285.5 791,-285.5 791,-173.5 791,-141.85 784.19,-105.54 779.46,-84.11"/>
<polygon fill="#63b8ff" stroke="#63b8ff" points="782.81,-83.08 777.16,-74.12 775.99,-84.65 782.81,-83.08"/>
</a>
</g>
</g>
<!-- Node18 -->
<g id="Node000018" class="node">
<title>Node18</title>
<g id="a_Node000018"><a xlink:title=" ">
<polygon fill="#e0e0e0" stroke="#999999" points="280.5,-129 233.5,-129 233.5,-110 280.5,-110 280.5,-129"/>
<text text-anchor="middle" x="257" y="-117" font-family="Helvetica,sans-Serif" font-size="10.00">queue</text>
</a>
</g>
</g>
<!-- Node1&#45;&gt;Node18 -->
<g id="edge39_Node000001_Node000018" class="edge">
<title>Node1&#45;&gt;Node18</title>
<g id="a_edge39_Node000001_Node000018"><a xlink:title=" ">
<path fill="none" stroke="#63b8ff" d="M658.86,-393.89C521.76,-393.33 181,-382.21 181,-285.5 181,-285.5 181,-285.5 181,-228.5 181,-189.47 214.61,-154.58 237.13,-135.6"/>
<polygon fill="#63b8ff" stroke="#63b8ff" points="239.56,-138.14 245.12,-129.12 235.15,-132.7 239.56,-138.14"/>
</a>
</g>
</g>
<!-- Node19 -->
<g id="Node000019" class="node">
<title>Node19</title>
<g id="a_Node000019"><a xlink:href="IGame_8hpp.html" target="_top" xlink:title=" ">
<polygon fill="white" stroke="#666666" points="608,-184 538,-184 538,-165 608,-165 608,-184"/>
<text text-anchor="middle" x="573" y="-172" font-family="Helvetica,sans-Serif" font-size="10.00">IGame.hpp</text>
</a>
</g>
</g>
<!-- Node1&#45;&gt;Node19 -->
<g id="edge36_Node000001_Node000019" class="edge">
<title>Node1&#45;&gt;Node19</title>
<g id="a_edge36_Node000001_Node000019"><a xlink:title=" ">
<path fill="none" stroke="#63b8ff" d="M709.43,-384.95C688.32,-352.54 612.92,-236.78 584.21,-192.71"/>
<polygon fill="#63b8ff" stroke="#63b8ff" points="587.07,-190.69 578.68,-184.22 581.21,-194.51 587.07,-190.69"/>
</a>
</g>
</g>
<!-- Node22 -->
<g id="Node000022" class="node">
<title>Node22</title>
<g id="a_Node000022"><a xlink:href="Game_8hpp.html" target="_top" xlink:title=" ">
<polygon fill="white" stroke="#666666" points="507.5,-294 440.5,-294 440.5,-275 507.5,-275 507.5,-294"/>
<text text-anchor="middle" x="474" y="-282" font-family="Helvetica,sans-Serif" font-size="10.00">Game.hpp</text>
</a>
</g>
</g>
<!-- Node1&#45;&gt;Node22 -->
<g id="edge35_Node000001_Node000022" class="edge">
<title>Node1&#45;&gt;Node22</title>
<g id="a_edge35_Node000001_Node000022"><a xlink:title=" ">
<path fill="none" stroke="#63b8ff" d="M658.61,-386.29C623.45,-380.06 578.17,-368.83 542,-349 520.21,-337.06 500.06,-316.54 487.44,-302.07"/>
<polygon fill="#63b8ff" stroke="#63b8ff" points="490.05,-299.73 480.93,-294.35 484.7,-304.25 490.05,-299.73"/>
</a>
</g>
</g>
<!-- Node24 -->
<g id="Node000024" class="node">
<title>Node24</title>
<g id="a_Node000024"><a xlink:title=" ">
<polygon fill="#e0e0e0" stroke="#999999" points="907,-349 857,-349 857,-330 907,-330 907,-349"/>
<text text-anchor="middle" x="882" y="-337" font-family="Helvetica,sans-Serif" font-size="10.00">chrono</text>
</a>
</g>
</g>
<!-- Node1&#45;&gt;Node24 -->
<g id="edge38_Node000001_Node000024" class="edge">
<title>Node1&#45;&gt;Node24</title>
<g id="a_edge38_Node000001_Node000024"><a xlink:title=" ">
<path fill="none" stroke="#63b8ff" d="M741.83,-384.98C770.45,-375.9 815.89,-361.48 847.23,-351.53"/>
<polygon fill="#63b8ff" stroke="#63b8ff" points="848.4,-354.84 856.87,-348.47 846.28,-348.16 848.4,-354.84"/>
</a>
</g>
</g>
<!-- Node25 -->
<g id="Node000025" class="node">
<title>Node25</title>
<g id="a_Node000025"><a xlink:title=" ">
<polygon fill="#e0e0e0" stroke="#999999" points="973,-349 925,-349 925,-330 973,-330 973,-349"/>
<text text-anchor="middle" x="949" y="-337" font-family="Helvetica,sans-Serif" font-size="10.00">thread</text>
</a>
</g>
</g>
<!-- Node1&#45;&gt;Node25 -->
<g id="edge41_Node000001_Node000025" class="edge">
<title>Node1&#45;&gt;Node25</title>
<g id="a_edge41_Node000001_Node000025"><a xlink:title=" ">
<path fill="none" stroke="#63b8ff" d="M755.52,-384.96C794.11,-376.72 854.08,-363.68 915.08,-349.16"/>
<polygon fill="#63b8ff" stroke="#63b8ff" points="915.96,-352.55 924.87,-346.82 914.33,-345.74 915.96,-352.55"/>
</a>
</g>
</g>
<!-- Node2&#45;&gt;Node3 -->
<g id="edge2_Node000002_Node000003" class="edge">
<title>Node2&#45;&gt;Node3</title>
<g id="a_edge2_Node000002_Node000003"><a xlink:title=" ">
<path fill="none" stroke="#63b8ff" d="M554.71,-329.98C520.38,-320.93 465.94,-306.58 428.23,-296.64"/>
<polygon fill="#63b8ff" stroke="#63b8ff" points="429.11,-293.25 418.55,-294.08 427.32,-300.02 429.11,-293.25"/>
</a>
</g>
</g>
<!-- Node2&#45;&gt;Node5 -->
<g id="edge30_Node000002_Node000005" class="edge">
<title>Node2&#45;&gt;Node5</title>
<g id="a_edge30_Node000002_Node000005"><a xlink:title=" ">
<path fill="none" stroke="#63b8ff" d="M591.29,-329.99C603.57,-304.45 636.78,-226.39 617,-165 613.66,-154.62 606.9,-144.62 600.45,-136.74"/>
<polygon fill="#63b8ff" stroke="#63b8ff" points="602.97,-134.31 593.75,-129.1 597.71,-138.92 602.97,-134.31"/>
</a>
</g>
</g>
<!-- Node2&#45;&gt;Node15 -->
<g id="edge32_Node000002_Node000015" class="edge">
<title>Node2&#45;&gt;Node15</title>
<g id="a_edge32_Node000002_Node000015"><a xlink:title=" ">
<path fill="none" stroke="#63b8ff" d="M595.66,-330C603.9,-321.52 616.15,-307.8 624,-294 675.29,-203.83 684.41,-176.24 702,-74 704.59,-58.92 702.08,-41.7 699.21,-29"/>
<polygon fill="#63b8ff" stroke="#63b8ff" points="702.57,-27.99 696.71,-19.16 695.78,-29.72 702.57,-27.99"/>
</a>
</g>
</g>
<!-- Node2&#45;&gt;Node18 -->
<g id="edge31_Node000002_Node000018" class="edge">
<title>Node2&#45;&gt;Node18</title>
<g id="a_edge31_Node000002_Node000018"><a xlink:title=" ">
<path fill="none" stroke="#63b8ff" d="M551.28,-336.91C501.99,-333.64 411.15,-323.76 340,-294 300.87,-277.63 285.14,-274.55 262,-239 242.23,-208.62 247.28,-163.99 252.37,-139.07"/>
<polygon fill="#63b8ff" stroke="#63b8ff" points="255.83,-139.66 254.62,-129.13 249,-138.11 255.83,-139.66"/>
</a>
</g>
</g>
<!-- Node2&#45;&gt;Node19 -->
<g id="edge29_Node000002_Node000019" class="edge">
<title>Node2&#45;&gt;Node19</title>
<g id="a_edge29_Node000002_Node000019"><a xlink:title=" ">
<path fill="none" stroke="#63b8ff" d="M586.25,-329.74C584.06,-304.31 577.69,-230.08 574.65,-194.69"/>
<polygon fill="#63b8ff" stroke="#63b8ff" points="578.1,-193.97 573.76,-184.31 571.13,-194.57 578.1,-193.97"/>
</a>
</g>
</g>
<!-- Node2&#45;&gt;Node22 -->
<g id="edge25_Node000002_Node000022" class="edge">
<title>Node2&#45;&gt;Node22</title>
<g id="a_edge25_Node000002_Node000022"><a xlink:title=" ">
<path fill="none" stroke="#63b8ff" d="M568.84,-329.98C550.75,-321.5 522.72,-308.35 501.81,-298.54"/>
<polygon fill="#63b8ff" stroke="#63b8ff" points="503.03,-295.25 492.49,-294.17 500.05,-301.59 503.03,-295.25"/>
</a>
</g>
</g>
<!-- Node23 -->
<g id="Node000023" class="node">
<title>Node23</title>
<g id="a_Node000023"><a xlink:title=" ">
<polygon fill="#e0e0e0" stroke="#999999" points="572.5,-294 525.5,-294 525.5,-275 572.5,-275 572.5,-294"/>
<text text-anchor="middle" x="549" y="-282" font-family="Helvetica,sans-Serif" font-size="10.00">vector</text>
</a>
</g>
</g>
<!-- Node2&#45;&gt;Node23 -->
<g id="edge33_Node000002_Node000023" class="edge">
<title>Node2&#45;&gt;Node23</title>
<g id="a_edge33_Node000002_Node000023"><a xlink:title=" ">
<path fill="none" stroke="#63b8ff" d="M580.73,-329.75C575.41,-322.34 567.64,-311.5 561.12,-302.41"/>
<polygon fill="#63b8ff" stroke="#63b8ff" points="563.83,-300.18 555.16,-294.09 558.14,-304.26 563.83,-300.18"/>
</a>
</g>
</g>
<!-- Node4 -->
<g id="Node000004" class="node">
<title>Node4</title>
<g id="a_Node000004"><a xlink:href="IDisplay_8hpp.html" target="_top" xlink:title=" ">
<polygon fill="white" stroke="#666666" points="361,-239 285,-239 285,-220 361,-220 361,-239"/>
<text text-anchor="middle" x="323" y="-227" font-family="Helvetica,sans-Serif" font-size="10.00">IDisplay.hpp</text>
</a>
</g>
</g>
<!-- Node3&#45;&gt;Node4 -->
<g id="edge3_Node000003_Node000004" class="edge">
<title>Node3&#45;&gt;Node4</title>
<g id="a_edge3_Node000003_Node000004"><a xlink:title=" ">
<path fill="none" stroke="#63b8ff" d="M375.88,-274.98C366.56,-267.15 352.53,-255.34 341.26,-245.86"/>
<polygon fill="#63b8ff" stroke="#63b8ff" points="343.21,-242.93 333.31,-239.17 338.71,-248.29 343.21,-242.93"/>
</a>
</g>
</g>
<!-- Node3&#45;&gt;Node18 -->
<g id="edge24_Node000003_Node000018" class="edge">
<title>Node3&#45;&gt;Node18</title>
<g id="a_edge24_Node000003_Node000018"><a xlink:title=" ">
<path fill="none" stroke="#63b8ff" d="M349.25,-278.15C324.74,-272.59 293.84,-261.4 276,-239 253.03,-210.17 252.74,-164.6 254.74,-139.19"/>
<polygon fill="#63b8ff" stroke="#63b8ff" points="258.24,-139.37 255.76,-129.07 251.28,-138.67 258.24,-139.37"/>
</a>
</g>
</g>
<!-- Node20 -->
<g id="Node000020" class="node">
<title>Node20</title>
<g id="a_Node000020"><a xlink:href="DlLoader_8hpp.html" target="_top" xlink:title=" ">
<polygon fill="white" stroke="#666666" points="459,-239 379,-239 379,-220 459,-220 459,-239"/>
<text text-anchor="middle" x="419" y="-227" font-family="Helvetica,sans-Serif" font-size="10.00">DlLoader.hpp</text>
</a>
</g>
</g>
<!-- Node3&#45;&gt;Node20 -->
<g id="edge21_Node000003_Node000020" class="edge">
<title>Node3&#45;&gt;Node20</title>
<g id="a_edge21_Node000003_Node000020"><a xlink:title=" ">
<path fill="none" stroke="#63b8ff" d="M391.45,-274.75C396.01,-267.42 402.67,-256.73 408.29,-247.7"/>
<polygon fill="#63b8ff" stroke="#63b8ff" points="411.34,-249.43 413.65,-239.09 405.4,-245.73 411.34,-249.43"/>
</a>
</g>
</g>
<!-- Node21 -->
<g id="Node000021" class="node">
<title>Node21</title>
<g id="a_Node000021"><a xlink:title=" ">
<polygon fill="#e0e0e0" stroke="#999999" points="535,-239 477,-239 477,-220 535,-220 535,-239"/>
<text text-anchor="middle" x="506" y="-227" font-family="Helvetica,sans-Serif" font-size="10.00">memory</text>
</a>
</g>
</g>
<!-- Node3&#45;&gt;Node21 -->
<g id="edge23_Node000003_Node000021" class="edge">
<title>Node3&#45;&gt;Node21</title>
<g id="a_edge23_Node000003_Node000021"><a xlink:title=" ">
<path fill="none" stroke="#63b8ff" d="M405.28,-274.98C424.67,-266.42 454.81,-253.11 477.07,-243.28"/>
<polygon fill="#63b8ff" stroke="#63b8ff" points="478.64,-246.41 486.37,-239.17 475.81,-240.01 478.64,-246.41"/>
</a>
</g>
</g>
<!-- Node4&#45;&gt;Node5 -->
<g id="edge4_Node000004_Node000005" class="edge">
<title>Node4&#45;&gt;Node5</title>
<g id="a_edge4_Node000004_Node000005"><a xlink:title=" ">
<path fill="none" stroke="#63b8ff" d="M344,-219.84C390.29,-200.76 501.28,-155.01 554.94,-132.89"/>
<polygon fill="#63b8ff" stroke="#63b8ff" points="556.35,-136.09 564.27,-129.05 553.69,-129.62 556.35,-136.09"/>
</a>
</g>
</g>
<!-- Node4&#45;&gt;Node18 -->
<g id="edge17_Node000004_Node000018" class="edge">
<title>Node4&#45;&gt;Node18</title>
<g id="a_edge17_Node000004_Node000018"><a xlink:title=" ">
<path fill="none" stroke="#63b8ff" d="M317.6,-219.66C306.67,-201.77 281.75,-161 267.51,-137.69"/>
<polygon fill="#63b8ff" stroke="#63b8ff" points="270.49,-135.87 262.29,-129.16 264.52,-139.52 270.49,-135.87"/>
</a>
</g>
</g>
<!-- Node4&#45;&gt;Node19 -->
<g id="edge18_Node000004_Node000019" class="edge">
<title>Node4&#45;&gt;Node19</title>
<g id="a_edge18_Node000004_Node000019"><a xlink:title=" ">
<path fill="none" stroke="#63b8ff" d="M361.24,-220.39C406.1,-210.88 480.37,-195.14 527.97,-185.05"/>
<polygon fill="#63b8ff" stroke="#63b8ff" points="528.94,-188.42 537.99,-182.92 527.48,-181.57 528.94,-188.42"/>
</a>
</g>
</g>
<!-- Node6 -->
<g id="Node000006" class="node">
<title>Node6</title>
<g id="a_Node000006"><a xlink:title=" ">
<polygon fill="#e0e0e0" stroke="#999999" points="533.5,-74 480.5,-74 480.5,-55 533.5,-55 533.5,-74"/>
<text text-anchor="middle" x="507" y="-62" font-family="Helvetica,sans-Serif" font-size="10.00">cstddef</text>
</a>
</g>
</g>
<!-- Node5&#45;&gt;Node6 -->
<g id="edge5_Node000005_Node000006" class="edge">
<title>Node5&#45;&gt;Node6</title>
<g id="a_edge5_Node000005_Node000006"><a xlink:title=" ">
<path fill="none" stroke="#63b8ff" d="M572.47,-109.98C560.6,-101.92 542.54,-89.65 528.39,-80.03"/>
<polygon fill="#63b8ff" stroke="#63b8ff" points="530,-76.9 519.76,-74.17 526.06,-82.69 530,-76.9"/>
</a>
</g>
</g>
<!-- Node7 -->
<g id="Node000007" class="node">
<title>Node7</title>
<g id="a_Node000007"><a xlink:href="Keys_8hpp.html" target="_top" xlink:title=" ">
<polygon fill="white" stroke="#666666" points="401.5,-74 340.5,-74 340.5,-55 401.5,-55 401.5,-74"/>
<text text-anchor="middle" x="371" y="-62" font-family="Helvetica,sans-Serif" font-size="10.00">Keys.hpp</text>
</a>
</g>
</g>
<!-- Node5&#45;&gt;Node7 -->
<g id="edge6_Node000005_Node000007" class="edge">
<title>Node5&#45;&gt;Node7</title>
<g id="a_edge6_Node000005_Node000007"><a xlink:title=" ">
<path fill="none" stroke="#63b8ff" d="M558.33,-111.89C521.51,-102.77 454.77,-86.25 411.7,-75.58"/>
<polygon fill="#63b8ff" stroke="#63b8ff" points="412.37,-72.14 401.82,-73.13 410.69,-78.93 412.37,-72.14"/>
</a>
</g>
</g>
<!-- Node13 -->
<g id="Node000013" class="node">
<title>Node13</title>
<g id="a_Node000013"><a xlink:href="shape_8hpp.html" target="_top" xlink:title=" ">
<polygon fill="white" stroke="#666666" points="618.5,-74 551.5,-74 551.5,-55 618.5,-55 618.5,-74"/>
<text text-anchor="middle" x="585" y="-62" font-family="Helvetica,sans-Serif" font-size="10.00">shape.hpp</text>
</a>
</g>
</g>
<!-- Node5&#45;&gt;Node13 -->
<g id="edge12_Node000005_Node000013" class="edge">
<title>Node5&#45;&gt;Node13</title>
<g id="a_edge12_Node000005_Node000013"><a xlink:title=" ">
<path fill="none" stroke="#63b8ff" d="M585,-109.75C585,-102.8 585,-92.85 585,-84.13"/>
<polygon fill="#63b8ff" stroke="#63b8ff" points="588.5,-84.09 585,-74.09 581.5,-84.09 588.5,-84.09"/>
</a>
</g>
</g>
<!-- Node16 -->
<g id="Node000016" class="node">
<title>Node16</title>
<g id="a_Node000016"><a xlink:title=" ">
<polygon fill="#e0e0e0" stroke="#999999" points="693,-74 637,-74 637,-55 693,-55 693,-74"/>
<text text-anchor="middle" x="665" y="-62" font-family="Helvetica,sans-Serif" font-size="10.00">optional</text>
</a>
</g>
</g>
<!-- Node5&#45;&gt;Node16 -->
<g id="edge15_Node000005_Node000016" class="edge">
<title>Node5&#45;&gt;Node16</title>
<g id="a_edge15_Node000005_Node000016"><a xlink:title=" ">
<path fill="none" stroke="#63b8ff" d="M597.85,-109.98C610.14,-101.84 628.91,-89.41 643.48,-79.76"/>
<polygon fill="#63b8ff" stroke="#63b8ff" points="645.51,-82.61 651.91,-74.17 641.64,-76.78 645.51,-82.61"/>
</a>
</g>
</g>
<!-- Node5&#45;&gt;Node17 -->
<g id="edge16_Node000005_Node000017" class="edge">
<title>Node5&#45;&gt;Node17</title>
<g id="a_edge16_Node000005_Node000017"><a xlink:title=" ">
<path fill="none" stroke="#63b8ff" d="M611.82,-111.02C645.2,-101.71 702.32,-85.78 739.35,-75.44"/>
<polygon fill="#63b8ff" stroke="#63b8ff" points="740.54,-78.75 749.23,-72.69 738.66,-72 740.54,-78.75"/>
</a>
</g>
</g>
<!-- Node8 -->
<g id="Node000008" class="node">
<title>Node8</title>
<g id="a_Node000008"><a xlink:title=" ">
<polygon fill="#e0e0e0" stroke="#999999" points="483.5,-19 390.5,-19 390.5,0 483.5,0 483.5,-19"/>
<text text-anchor="middle" x="437" y="-7" font-family="Helvetica,sans-Serif" font-size="10.00">unordered_map</text>
</a>
</g>
</g>
<!-- Node7&#45;&gt;Node8 -->
<g id="edge7_Node000007_Node000008" class="edge">
<title>Node7&#45;&gt;Node8</title>
<g id="a_edge7_Node000007_Node000008"><a xlink:title=" ">
<path fill="none" stroke="#63b8ff" d="M381.6,-54.98C391.46,-47.07 406.35,-35.11 418.22,-25.58"/>
<polygon fill="#63b8ff" stroke="#63b8ff" points="420.6,-28.16 426.2,-19.17 416.21,-22.7 420.6,-28.16"/>
</a>
</g>
</g>
<!-- Node9 -->
<g id="Node000009" class="node">
<title>Node9</title>
<g id="a_Node000009"><a xlink:title=" ">
<polygon fill="#e0e0e0" stroke="#999999" points="542.5,-19 501.5,-19 501.5,0 542.5,0 542.5,-19"/>
<text text-anchor="middle" x="522" y="-7" font-family="Helvetica,sans-Serif" font-size="10.00">tuple</text>
</a>
</g>
</g>
<!-- Node7&#45;&gt;Node9 -->
<g id="edge8_Node000007_Node000009" class="edge">
<title>Node7&#45;&gt;Node9</title>
<g id="a_edge8_Node000007_Node000009"><a xlink:title=" ">
<path fill="none" stroke="#63b8ff" d="M395.26,-54.98C421.4,-45.81 463.04,-31.19 491.41,-21.24"/>
<polygon fill="#63b8ff" stroke="#63b8ff" points="492.93,-24.41 501.2,-17.8 490.61,-17.81 492.93,-24.41"/>
</a>
</g>
</g>
<!-- Node10 -->
<g id="Node000010" class="node">
<title>Node10</title>
<g id="a_Node000010"><a xlink:title=" ">
<polygon fill="#e0e0e0" stroke="#999999" points="118,-19 0,-19 0,0 118,0 118,-19"/>
<text text-anchor="middle" x="59" y="-7" font-family="Helvetica,sans-Serif" font-size="10.00">SDL2/SDL_keycode.h</text>
</a>
</g>
</g>
<!-- Node7&#45;&gt;Node10 -->
<g id="edge9_Node000007_Node000010" class="edge">
<title>Node7&#45;&gt;Node10</title>
<g id="a_edge9_Node000007_Node000010"><a xlink:title=" ">
<path fill="none" stroke="#63b8ff" d="M340.23,-58.27C288.98,-49.57 185.23,-31.94 119.09,-20.71"/>
<polygon fill="#63b8ff" stroke="#63b8ff" points="119.65,-17.25 109.21,-19.03 118.48,-24.15 119.65,-17.25"/>
</a>
</g>
</g>
<!-- Node11 -->
<g id="Node000011" class="node">
<title>Node11</title>
<g id="a_Node000011"><a xlink:title=" ">
<polygon fill="#e0e0e0" stroke="#999999" points="291.5,-19 136.5,-19 136.5,0 291.5,0 291.5,-19"/>
<text text-anchor="middle" x="214" y="-7" font-family="Helvetica,sans-Serif" font-size="10.00">SFML/Window/Keyboard.hpp</text>
</a>
</g>
</g>
<!-- Node7&#45;&gt;Node11 -->
<g id="edge10_Node000007_Node000011" class="edge">
<title>Node7&#45;&gt;Node11</title>
<g id="a_edge10_Node000007_Node000011"><a xlink:title=" ">
<path fill="none" stroke="#63b8ff" d="M345.78,-54.98C319.64,-46.16 278.6,-32.31 249.27,-22.41"/>
<polygon fill="#63b8ff" stroke="#63b8ff" points="250.02,-18.96 239.42,-19.08 247.78,-25.6 250.02,-18.96"/>
</a>
</g>
</g>
<!-- Node12 -->
<g id="Node000012" class="node">
<title>Node12</title>
<g id="a_Node000012"><a xlink:title=" ">
<polygon fill="#e0e0e0" stroke="#999999" points="372.5,-19 309.5,-19 309.5,0 372.5,0 372.5,-19"/>
<text text-anchor="middle" x="341" y="-7" font-family="Helvetica,sans-Serif" font-size="10.00">ncurses.h</text>
</a>
</g>
</g>
<!-- Node7&#45;&gt;Node12 -->
<g id="edge11_Node000007_Node000012" class="edge">
<title>Node7&#45;&gt;Node12</title>
<g id="a_edge11_Node000007_Node000012"><a xlink:title=" ">
<path fill="none" stroke="#63b8ff" d="M366.05,-54.75C361.94,-47.49 355.97,-36.95 350.9,-27.98"/>
<polygon fill="#63b8ff" stroke="#63b8ff" points="353.83,-26.07 345.86,-19.09 347.74,-29.52 353.83,-26.07"/>
</a>
</g>
</g>
<!-- Node14 -->
<g id="Node000014" class="node">
<title>Node14</title>
<g id="a_Node000014"><a xlink:title=" ">
<polygon fill="#e0e0e0" stroke="#999999" points="625.5,-19 560.5,-19 560.5,0 625.5,0 625.5,-19"/>
<text text-anchor="middle" x="593" y="-7" font-family="Helvetica,sans-Serif" font-size="10.00">functional</text>
</a>
</g>
</g>
<!-- Node13&#45;&gt;Node14 -->
<g id="edge13_Node000013_Node000014" class="edge">
<title>Node13&#45;&gt;Node14</title>
<g id="a_edge13_Node000013_Node000014"><a xlink:title=" ">
<path fill="none" stroke="#63b8ff" d="M586.32,-54.75C587.37,-47.8 588.87,-37.85 590.19,-29.13"/>
<polygon fill="#63b8ff" stroke="#63b8ff" points="593.67,-29.5 591.7,-19.09 586.75,-28.45 593.67,-29.5"/>
</a>
</g>
</g>
<!-- Node13&#45;&gt;Node15 -->
<g id="edge14_Node000013_Node000015" class="edge">
<title>Node13&#45;&gt;Node15</title>
<g id="a_edge14_Node000013_Node000015"><a xlink:title=" ">
<path fill="none" stroke="#63b8ff" d="M602.51,-54.98C619.97,-46.5 647.01,-33.35 667.17,-23.54"/>
<polygon fill="#63b8ff" stroke="#63b8ff" points="668.71,-26.69 676.17,-19.17 665.64,-20.4 668.71,-26.69"/>
</a>
</g>
</g>
<!-- Node19&#45;&gt;Node5 -->
<g id="edge19_Node000019_Node000005" class="edge">
<title>Node19&#45;&gt;Node5</title>
<g id="a_edge19_Node000019_Node000005"><a xlink:title=" ">
<path fill="none" stroke="#63b8ff" d="M574.98,-164.75C576.57,-157.72 578.86,-147.62 580.85,-138.84"/>
<polygon fill="#63b8ff" stroke="#63b8ff" points="584.26,-139.62 583.06,-129.09 577.43,-138.07 584.26,-139.62"/>
</a>
</g>
</g>
<!-- Node19&#45;&gt;Node18 -->
<g id="edge20_Node000019_Node000018" class="edge">
<title>Node19&#45;&gt;Node18</title>
<g id="a_edge20_Node000019_Node000018"><a xlink:title=" ">
<path fill="none" stroke="#63b8ff" d="M537.98,-167.63C476.73,-157.35 350.98,-136.26 290.69,-126.15"/>
<polygon fill="#63b8ff" stroke="#63b8ff" points="291.01,-122.65 280.57,-124.45 289.85,-129.56 291.01,-122.65"/>
</a>
</g>
</g>
<!-- Node20&#45;&gt;Node15 -->
<g id="edge22_Node000020_Node000015" class="edge">
<title>Node20&#45;&gt;Node15</title>
<g id="a_edge22_Node000020_Node000015"><a xlink:title=" ">
<path fill="none" stroke="#63b8ff" d="M418.72,-219.68C418.33,-191.1 421.23,-100.29 471,-55 485.02,-42.24 603.5,-23.58 661.83,-15.06"/>
<polygon fill="#63b8ff" stroke="#63b8ff" points="662.58,-18.48 671.98,-13.58 661.58,-11.55 662.58,-18.48"/>
</a>
</g>
</g>
<!-- Node22&#45;&gt;Node19 -->
<g id="edge26_Node000022_Node000019" class="edge">
<title>Node22&#45;&gt;Node19</title>
<g id="a_edge26_Node000022_Node000019"><a xlink:title=" ">
<path fill="none" stroke="#63b8ff" d="M493.7,-274.85C509.08,-267.27 530.1,-254.96 544,-239 555.43,-225.87 563.16,-207.49 567.75,-193.88"/>
<polygon fill="#63b8ff" stroke="#63b8ff" points="571.14,-194.77 570.76,-184.18 564.45,-192.69 571.14,-194.77"/>
</a>
</g>
</g>
<!-- Node22&#45;&gt;Node20 -->
<g id="edge27_Node000022_Node000020" class="edge">
<title>Node22&#45;&gt;Node20</title>
<g id="a_edge27_Node000022_Node000020"><a xlink:title=" ">
<path fill="none" stroke="#63b8ff" d="M464.92,-274.75C456.91,-267.03 445.04,-255.6 435.38,-246.28"/>
<polygon fill="#63b8ff" stroke="#63b8ff" points="437.54,-243.51 427.91,-239.09 432.69,-248.55 437.54,-243.51"/>
</a>
</g>
</g>
<!-- Node22&#45;&gt;Node21 -->
<g id="edge28_Node000022_Node000021" class="edge">
<title>Node22&#45;&gt;Node21</title>
<g id="a_edge28_Node000022_Node000021"><a xlink:title=" ">
<path fill="none" stroke="#63b8ff" d="M479.28,-274.75C483.71,-267.42 490.16,-256.73 495.62,-247.7"/>
<polygon fill="#63b8ff" stroke="#63b8ff" points="498.64,-249.46 500.81,-239.09 492.65,-245.84 498.64,-249.46"/>
</a>
</g>
</g>
</g>
</svg>
