<?xml version="1.0" encoding="UTF-8" standalone="no"?>
<!DOCTYPE svg PUBLIC "-//W3C//DTD SVG 1.1//EN"
 "http://www.w3.org/Graphics/SVG/1.1/DTD/svg11.dtd">
<!-- Generated by graphviz version 2.43.0 (0)
 -->
<!-- Title: core/include/Arcade.hpp Pages: 1 -->
<svg width="815pt" height="357pt"
 viewBox="0.00 0.00 815.00 357.00" xmlns="http://www.w3.org/2000/svg" xmlns:xlink="http://www.w3.org/1999/xlink">
<g id="graph0" class="graph" transform="scale(1 1) rotate(0) translate(4 353)">
<title>core/include/Arcade.hpp</title>
<!-- Node1 -->
<g id="Node000001" class="node">
<title>Node1</title>
<g id="a_Node000001"><a xlink:title=" ">
<polygon fill="#999999" stroke="#666666" points="722.5,-349 588.5,-349 588.5,-330 722.5,-330 722.5,-349"/>
<text text-anchor="middle" x="655.5" y="-337" font-family="Helvetica,sans-Serif" font-size="10.00">core/include/Arcade.hpp</text>
</a>
</g>
</g>
<!-- Node2 -->
<g id="Node000002" class="node">
<title>Node2</title>
<g id="a_Node000002"><a xlink:href="Display_8hpp.html" target="_top" xlink:title=" ">
<polygon fill="white" stroke="#666666" points="499,-294 426,-294 426,-275 499,-275 499,-294"/>
<text text-anchor="middle" x="462.5" y="-282" font-family="Helvetica,sans-Serif" font-size="10.00">Display.hpp</text>
</a>
</g>
</g>
<!-- Node1&#45;&gt;Node2 -->
<g id="edge1_Node000001_Node000002" class="edge">
<title>Node1&#45;&gt;Node2</title>
<g id="a_edge1_Node000001_Node000002"><a xlink:title=" ">
<path fill="none" stroke="#63b8ff" d="M624.49,-329.98C591.67,-320.97 539.7,-306.7 503.51,-296.76"/>
<polygon fill="#63b8ff" stroke="#63b8ff" points="504.32,-293.36 493.75,-294.08 502.47,-300.11 504.32,-293.36"/>
</a>
</g>
</g>
<!-- Node4 -->
<g id="Node000004" class="node">
<title>Node4</title>
<g id="a_Node000004"><a xlink:href="gfx_8hpp.html" target="_top" xlink:title=" ">
<polygon fill="white" stroke="#666666" points="474,-129 421,-129 421,-110 474,-110 474,-129"/>
<text text-anchor="middle" x="447.5" y="-117" font-family="Helvetica,sans-Serif" font-size="10.00">gfx.hpp</text>
</a>
</g>
</g>
<!-- Node1&#45;&gt;Node4 -->
<g id="edge29_Node000001_Node000004" class="edge">
<title>Node1&#45;&gt;Node4</title>
<g id="a_edge29_Node000001_Node000004"><a xlink:title=" ">
<path fill="none" stroke="#63b8ff" d="M657.56,-329.7C659.54,-320.77 662.38,-306.51 663.5,-294 666.6,-259.28 661.64,-245.15 637.5,-220 594.05,-174.74 525.49,-145.96 483.69,-131.57"/>
<polygon fill="#63b8ff" stroke="#63b8ff" points="484.78,-128.24 474.18,-128.38 482.56,-134.88 484.78,-128.24"/>
</a>
</g>
</g>
<!-- Node14 -->
<g id="Node000014" class="node">
<title>Node14</title>
<g id="a_Node000014"><a xlink:title=" ">
<polygon fill="#e0e0e0" stroke="#999999" points="688.5,-19 644.5,-19 644.5,0 688.5,0 688.5,-19"/>
<text text-anchor="middle" x="666.5" y="-7" font-family="Helvetica,sans-Serif" font-size="10.00">string</text>
</a>
</g>
</g>
<!-- Node1&#45;&gt;Node14 -->
<g id="edge31_Node000001_Node000014" class="edge">
<title>Node1&#45;&gt;Node14</title>
<g id="a_edge31_Node000001_Node000014"><a xlink:title=" ">
<path fill="none" stroke="#63b8ff" d="M667.38,-329.88C688.75,-313.26 731.5,-274.52 731.5,-230.5 731.5,-230.5 731.5,-230.5 731.5,-118.5 731.5,-81.38 702.96,-46.03 683.7,-26.41"/>
<polygon fill="#63b8ff" stroke="#63b8ff" points="685.97,-23.72 676.37,-19.23 681.07,-28.73 685.97,-23.72"/>
</a>
</g>
</g>
<!-- Node17 -->
<g id="Node000017" class="node">
<title>Node17</title>
<g id="a_Node000017"><a xlink:title=" ">
<polygon fill="#e0e0e0" stroke="#999999" points="354,-129 307,-129 307,-110 354,-110 354,-129"/>
<text text-anchor="middle" x="330.5" y="-117" font-family="Helvetica,sans-Serif" font-size="10.00">queue</text>
</a>
</g>
</g>
<!-- Node1&#45;&gt;Node17 -->
<g id="edge30_Node000001_Node000017" class="edge">
<title>Node1&#45;&gt;Node17</title>
<g id="a_edge30_Node000001_Node000017"><a xlink:title=" ">
<path fill="none" stroke="#63b8ff" d="M588.27,-331.94C539.51,-325.76 472.55,-314.32 416.5,-294 369.54,-276.98 345.66,-280.91 318.5,-239 298.52,-208.18 312.05,-163.08 322.2,-138.35"/>
<polygon fill="#63b8ff" stroke="#63b8ff" points="325.44,-139.67 326.23,-129.1 319.03,-136.87 325.44,-139.67"/>
</a>
</g>
</g>
<!-- Node18 -->
<g id="Node000018" class="node">
<title>Node18</title>
<g id="a_Node000018"><a xlink:href="IGame_8hpp.html" target="_top" xlink:title=" ">
<polygon fill="white" stroke="#666666" points="485.5,-184 415.5,-184 415.5,-165 485.5,-165 485.5,-184"/>
<text text-anchor="middle" x="450.5" y="-172" font-family="Helvetica,sans-Serif" font-size="10.00">IGame.hpp</text>
</a>
</g>
</g>
<!-- Node1&#45;&gt;Node18 -->
<g id="edge28_Node000001_Node000018" class="edge">
<title>Node1&#45;&gt;Node18</title>
<g id="a_edge28_Node000001_Node000018"><a xlink:title=" ">
<path fill="none" stroke="#63b8ff" d="M655.23,-329.89C654.07,-308.13 647.94,-250.48 615.5,-220 583.33,-189.76 532.8,-179.64 496.14,-176.47"/>
<polygon fill="#63b8ff" stroke="#63b8ff" points="495.94,-172.95 485.71,-175.72 495.44,-179.93 495.94,-172.95"/>
</a>
</g>
</g>
<!-- Node21 -->
<g id="Node000021" class="node">
<title>Node21</title>
<g id="a_Node000021"><a xlink:href="Game_8hpp.html" target="_top" xlink:title=" ">
<polygon fill="white" stroke="#666666" points="605,-294 538,-294 538,-275 605,-275 605,-294"/>
<text text-anchor="middle" x="571.5" y="-282" font-family="Helvetica,sans-Serif" font-size="10.00">Game.hpp</text>
</a>
</g>
</g>
<!-- Node1&#45;&gt;Node21 -->
<g id="edge24_Node000001_Node000021" class="edge">
<title>Node1&#45;&gt;Node21</title>
<g id="a_edge24_Node000001_Node000021"><a xlink:title=" ">
<path fill="none" stroke="#63b8ff" d="M642,-329.98C629.1,-321.84 609.4,-309.41 594.1,-299.76"/>
<polygon fill="#63b8ff" stroke="#63b8ff" points="595.57,-296.55 585.24,-294.17 591.83,-302.47 595.57,-296.55"/>
</a>
</g>
</g>
<!-- Node22 -->
<g id="Node000022" class="node">
<title>Node22</title>
<g id="a_Node000022"><a xlink:title=" ">
<polygon fill="#e0e0e0" stroke="#999999" points="807,-294 760,-294 760,-275 807,-275 807,-294"/>
<text text-anchor="middle" x="783.5" y="-282" font-family="Helvetica,sans-Serif" font-size="10.00">vector</text>
</a>
</g>
</g>
<!-- Node1&#45;&gt;Node22 -->
<g id="edge32_Node000001_Node000022" class="edge">
<title>Node1&#45;&gt;Node22</title>
<g id="a_edge32_Node000001_Node000022"><a xlink:title=" ">
<path fill="none" stroke="#63b8ff" d="M676.07,-329.98C696.93,-321.34 729.47,-307.87 753.27,-298.02"/>
<polygon fill="#63b8ff" stroke="#63b8ff" points="754.66,-301.23 762.56,-294.17 751.98,-294.76 754.66,-301.23"/>
</a>
</g>
</g>
<!-- Node3 -->
<g id="Node000003" class="node">
<title>Node3</title>
<g id="a_Node000003"><a xlink:href="IDisplay_8hpp.html" target="_top" xlink:title=" ">
<polygon fill="white" stroke="#666666" points="415.5,-239 339.5,-239 339.5,-220 415.5,-220 415.5,-239"/>
<text text-anchor="middle" x="377.5" y="-227" font-family="Helvetica,sans-Serif" font-size="10.00">IDisplay.hpp</text>
</a>
</g>
</g>
<!-- Node2&#45;&gt;Node3 -->
<g id="edge2_Node000002_Node000003" class="edge">
<title>Node2&#45;&gt;Node3</title>
<g id="a_edge2_Node000002_Node000003"><a xlink:title=" ">
<path fill="none" stroke="#63b8ff" d="M448.84,-274.98C435.66,-266.77 415.47,-254.18 399.93,-244.49"/>
<polygon fill="#63b8ff" stroke="#63b8ff" points="401.74,-241.49 391.41,-239.17 398.04,-247.43 401.74,-241.49"/>
</a>
</g>
</g>
<!-- Node2&#45;&gt;Node17 -->
<g id="edge23_Node000002_Node000017" class="edge">
<title>Node2&#45;&gt;Node17</title>
<g id="a_edge23_Node000002_Node000017"><a xlink:title=" ">
<path fill="none" stroke="#63b8ff" d="M425.77,-282.25C394.74,-279.01 352.01,-268.96 330.5,-239 309.28,-209.45 317.37,-164.18 324.41,-139.01"/>
<polygon fill="#63b8ff" stroke="#63b8ff" points="327.81,-139.86 327.37,-129.27 321.11,-137.82 327.81,-139.86"/>
</a>
</g>
</g>
<!-- Node19 -->
<g id="Node000019" class="node">
<title>Node19</title>
<g id="a_Node000019"><a xlink:href="DlLoader_8hpp.html" target="_top" xlink:title=" ">
<polygon fill="white" stroke="#666666" points="589.5,-239 509.5,-239 509.5,-220 589.5,-220 589.5,-239"/>
<text text-anchor="middle" x="549.5" y="-227" font-family="Helvetica,sans-Serif" font-size="10.00">DlLoader.hpp</text>
</a>
</g>
</g>
<!-- Node2&#45;&gt;Node19 -->
<g id="edge20_Node000002_Node000019" class="edge">
<title>Node2&#45;&gt;Node19</title>
<g id="a_edge20_Node000002_Node000019"><a xlink:title=" ">
<path fill="none" stroke="#63b8ff" d="M476.48,-274.98C489.97,-266.77 510.63,-254.18 526.54,-244.49"/>
<polygon fill="#63b8ff" stroke="#63b8ff" points="528.55,-247.36 535.27,-239.17 524.91,-241.38 528.55,-247.36"/>
</a>
</g>
</g>
<!-- Node20 -->
<g id="Node000020" class="node">
<title>Node20</title>
<g id="a_Node000020"><a xlink:title=" ">
<polygon fill="#e0e0e0" stroke="#999999" points="491.5,-239 433.5,-239 433.5,-220 491.5,-220 491.5,-239"/>
<text text-anchor="middle" x="462.5" y="-227" font-family="Helvetica,sans-Serif" font-size="10.00">memory</text>
</a>
</g>
</g>
<!-- Node2&#45;&gt;Node20 -->
<g id="edge22_Node000002_Node000020" class="edge">
<title>Node2&#45;&gt;Node20</title>
<g id="a_edge22_Node000002_Node000020"><a xlink:title=" ">
<path fill="none" stroke="#63b8ff" d="M462.5,-274.75C462.5,-267.8 462.5,-257.85 462.5,-249.13"/>
<polygon fill="#63b8ff" stroke="#63b8ff" points="466,-249.09 462.5,-239.09 459,-249.09 466,-249.09"/>
</a>
</g>
</g>
<!-- Node3&#45;&gt;Node4 -->
<g id="edge3_Node000003_Node000004" class="edge">
<title>Node3&#45;&gt;Node4</title>
<g id="a_edge3_Node000003_Node000004"><a xlink:title=" ">
<path fill="none" stroke="#63b8ff" d="M380.46,-219.84C384.99,-207.18 394.43,-183.17 406.5,-165 413.3,-154.76 422.45,-144.59 430.38,-136.56"/>
<polygon fill="#63b8ff" stroke="#63b8ff" points="433.08,-138.82 437.77,-129.32 428.18,-133.81 433.08,-138.82"/>
</a>
</g>
</g>
<!-- Node3&#45;&gt;Node17 -->
<g id="edge16_Node000003_Node000017" class="edge">
<title>Node3&#45;&gt;Node17</title>
<g id="a_edge16_Node000003_Node000017"><a xlink:title=" ">
<path fill="none" stroke="#63b8ff" d="M373.65,-219.66C365.97,-202.01 348.6,-162.09 338.39,-138.64"/>
<polygon fill="#63b8ff" stroke="#63b8ff" points="341.47,-136.93 334.27,-129.16 335.05,-139.72 341.47,-136.93"/>
</a>
</g>
</g>
<!-- Node3&#45;&gt;Node18 -->
<g id="edge17_Node000003_Node000018" class="edge">
<title>Node3&#45;&gt;Node18</title>
<g id="a_edge17_Node000003_Node000018"><a xlink:title=" ">
<path fill="none" stroke="#63b8ff" d="M389.23,-219.98C400.23,-212 416.92,-199.88 430.1,-190.31"/>
<polygon fill="#63b8ff" stroke="#63b8ff" points="432.52,-192.88 438.56,-184.17 428.41,-187.21 432.52,-192.88"/>
</a>
</g>
</g>
<!-- Node5 -->
<g id="Node000005" class="node">
<title>Node5</title>
<g id="a_Node000005"><a xlink:title=" ">
<polygon fill="#e0e0e0" stroke="#999999" points="398,-74 345,-74 345,-55 398,-55 398,-74"/>
<text text-anchor="middle" x="371.5" y="-62" font-family="Helvetica,sans-Serif" font-size="10.00">cstddef</text>
</a>
</g>
</g>
<!-- Node4&#45;&gt;Node5 -->
<g id="edge4_Node000004_Node000005" class="edge">
<title>Node4&#45;&gt;Node5</title>
<g id="a_edge4_Node000004_Node000005"><a xlink:title=" ">
<path fill="none" stroke="#63b8ff" d="M435.29,-109.98C423.72,-101.92 406.12,-89.65 392.34,-80.03"/>
<polygon fill="#63b8ff" stroke="#63b8ff" points="394.14,-77.02 383.93,-74.17 390.13,-82.76 394.14,-77.02"/>
</a>
</g>
</g>
<!-- Node6 -->
<g id="Node000006" class="node">
<title>Node6</title>
<g id="a_Node000006"><a xlink:href="Keys_8hpp.html" target="_top" xlink:title=" ">
<polygon fill="white" stroke="#666666" points="285,-74 224,-74 224,-55 285,-55 285,-74"/>
<text text-anchor="middle" x="254.5" y="-62" font-family="Helvetica,sans-Serif" font-size="10.00">Keys.hpp</text>
</a>
</g>
</g>
<!-- Node4&#45;&gt;Node6 -->
<g id="edge5_Node000004_Node000006" class="edge">
<title>Node4&#45;&gt;Node6</title>
<g id="a_edge5_Node000004_Node000006"><a xlink:title=" ">
<path fill="none" stroke="#63b8ff" d="M420.66,-111.13C388.05,-102.17 332.71,-86.98 294.93,-76.6"/>
<polygon fill="#63b8ff" stroke="#63b8ff" points="295.82,-73.22 285.25,-73.94 293.96,-79.97 295.82,-73.22"/>
</a>
</g>
</g>
<!-- Node12 -->
<g id="Node000012" class="node">
<title>Node12</title>
<g id="a_Node000012"><a xlink:href="shape_8hpp.html" target="_top" xlink:title=" ">
<polygon fill="white" stroke="#666666" points="627,-74 560,-74 560,-55 627,-55 627,-74"/>
<text text-anchor="middle" x="593.5" y="-62" font-family="Helvetica,sans-Serif" font-size="10.00">shape.hpp</text>
</a>
</g>
</g>
<!-- Node4&#45;&gt;Node12 -->
<g id="edge11_Node000004_Node000012" class="edge">
<title>Node4&#45;&gt;Node12</title>
<g id="a_edge11_Node000004_Node000012"><a xlink:title=" ">
<path fill="none" stroke="#63b8ff" d="M470.96,-109.98C495.08,-101.23 532.87,-87.51 560.1,-77.62"/>
<polygon fill="#63b8ff" stroke="#63b8ff" points="561.41,-80.87 569.62,-74.17 559.02,-74.29 561.41,-80.87"/>
</a>
</g>
</g>
<!-- Node15 -->
<g id="Node000015" class="node">
<title>Node15</title>
<g id="a_Node000015"><a xlink:title=" ">
<polygon fill="#e0e0e0" stroke="#999999" points="472.5,-74 416.5,-74 416.5,-55 472.5,-55 472.5,-74"/>
<text text-anchor="middle" x="444.5" y="-62" font-family="Helvetica,sans-Serif" font-size="10.00">optional</text>
</a>
</g>
</g>
<!-- Node4&#45;&gt;Node15 -->
<g id="edge14_Node000004_Node000015" class="edge">
<title>Node4&#45;&gt;Node15</title>
<g id="a_edge14_Node000004_Node000015"><a xlink:title=" ">
<path fill="none" stroke="#63b8ff" d="M447,-109.75C446.61,-102.8 446.05,-92.85 445.55,-84.13"/>
<polygon fill="#63b8ff" stroke="#63b8ff" points="449.05,-83.88 444.99,-74.09 442.06,-84.27 449.05,-83.88"/>
</a>
</g>
</g>
<!-- Node16 -->
<g id="Node000016" class="node">
<title>Node16</title>
<g id="a_Node000016"><a xlink:title=" ">
<polygon fill="#e0e0e0" stroke="#999999" points="542,-74 491,-74 491,-55 542,-55 542,-74"/>
<text text-anchor="middle" x="516.5" y="-62" font-family="Helvetica,sans-Serif" font-size="10.00">variant</text>
</a>
</g>
</g>
<!-- Node4&#45;&gt;Node16 -->
<g id="edge15_Node000004_Node000016" class="edge">
<title>Node4&#45;&gt;Node16</title>
<g id="a_edge15_Node000004_Node000016"><a xlink:title=" ">
<path fill="none" stroke="#63b8ff" d="M458.59,-109.98C468.99,-102 484.76,-89.88 497.22,-80.31"/>
<polygon fill="#63b8ff" stroke="#63b8ff" points="499.41,-83.04 505.21,-74.17 495.15,-77.49 499.41,-83.04"/>
</a>
</g>
</g>
<!-- Node7 -->
<g id="Node000007" class="node">
<title>Node7</title>
<g id="a_Node000007"><a xlink:title=" ">
<polygon fill="#e0e0e0" stroke="#999999" points="174,-19 81,-19 81,0 174,0 174,-19"/>
<text text-anchor="middle" x="127.5" y="-7" font-family="Helvetica,sans-Serif" font-size="10.00">unordered_map</text>
</a>
</g>
</g>
<!-- Node6&#45;&gt;Node7 -->
<g id="edge6_Node000006_Node000007" class="edge">
<title>Node6&#45;&gt;Node7</title>
<g id="a_edge6_Node000006_Node000007"><a xlink:title=" ">
<path fill="none" stroke="#63b8ff" d="M234.1,-54.98C213.48,-46.38 181.39,-32.99 157.81,-23.15"/>
<polygon fill="#63b8ff" stroke="#63b8ff" points="158.85,-19.79 148.28,-19.17 156.16,-26.25 158.85,-19.79"/>
</a>
</g>
</g>
<!-- Node8 -->
<g id="Node000008" class="node">
<title>Node8</title>
<g id="a_Node000008"><a xlink:title=" ">
<polygon fill="#e0e0e0" stroke="#999999" points="233,-19 192,-19 192,0 233,0 233,-19"/>
<text text-anchor="middle" x="212.5" y="-7" font-family="Helvetica,sans-Serif" font-size="10.00">tuple</text>
</a>
</g>
</g>
<!-- Node6&#45;&gt;Node8 -->
<g id="edge7_Node000006_Node000008" class="edge">
<title>Node6&#45;&gt;Node8</title>
<g id="a_edge7_Node000006_Node000008"><a xlink:title=" ">
<path fill="none" stroke="#63b8ff" d="M247.56,-54.75C241.63,-47.26 232.93,-36.28 225.68,-27.13"/>
<polygon fill="#63b8ff" stroke="#63b8ff" points="228.26,-24.75 219.31,-19.09 222.77,-29.1 228.26,-24.75"/>
</a>
</g>
</g>
<!-- Node9 -->
<g id="Node000009" class="node">
<title>Node9</title>
<g id="a_Node000009"><a xlink:title=" ">
<polygon fill="#e0e0e0" stroke="#999999" points="369.5,-19 251.5,-19 251.5,0 369.5,0 369.5,-19"/>
<text text-anchor="middle" x="310.5" y="-7" font-family="Helvetica,sans-Serif" font-size="10.00">SDL2/SDL_keycode.h</text>
</a>
</g>
</g>
<!-- Node6&#45;&gt;Node9 -->
<g id="edge8_Node000006_Node000009" class="edge">
<title>Node6&#45;&gt;Node9</title>
<g id="a_edge8_Node000006_Node000009"><a xlink:title=" ">
<path fill="none" stroke="#63b8ff" d="M263.5,-54.98C271.69,-47.23 284.01,-35.58 293.97,-26.14"/>
<polygon fill="#63b8ff" stroke="#63b8ff" points="296.48,-28.59 301.34,-19.17 291.67,-23.5 296.48,-28.59"/>
</a>
</g>
</g>
<!-- Node10 -->
<g id="Node000010" class="node">
<title>Node10</title>
<g id="a_Node000010"><a xlink:title=" ">
<polygon fill="#e0e0e0" stroke="#999999" points="543,-19 388,-19 388,0 543,0 543,-19"/>
<text text-anchor="middle" x="465.5" y="-7" font-family="Helvetica,sans-Serif" font-size="10.00">SFML/Window/Keyboard.hpp</text>
</a>
</g>
</g>
<!-- Node6&#45;&gt;Node10 -->
<g id="edge9_Node000006_Node000010" class="edge">
<title>Node6&#45;&gt;Node10</title>
<g id="a_edge9_Node000006_Node000010"><a xlink:title=" ">
<path fill="none" stroke="#63b8ff" d="M285.18,-55.79C321.11,-46.77 380.9,-31.75 421.7,-21.5"/>
<polygon fill="#63b8ff" stroke="#63b8ff" points="422.79,-24.84 431.64,-19.01 421.09,-18.05 422.79,-24.84"/>
</a>
</g>
</g>
<!-- Node11 -->
<g id="Node000011" class="node">
<title>Node11</title>
<g id="a_Node000011"><a xlink:title=" ">
<polygon fill="#e0e0e0" stroke="#999999" points="63,-19 0,-19 0,0 63,0 63,-19"/>
<text text-anchor="middle" x="31.5" y="-7" font-family="Helvetica,sans-Serif" font-size="10.00">ncurses.h</text>
</a>
</g>
</g>
<!-- Node6&#45;&gt;Node11 -->
<g id="edge10_Node000006_Node000011" class="edge">
<title>Node6&#45;&gt;Node11</title>
<g id="a_edge10_Node000006_Node000011"><a xlink:title=" ">
<path fill="none" stroke="#63b8ff" d="M223.96,-56.24C184.78,-46.93 116.68,-30.74 72.88,-20.33"/>
<polygon fill="#63b8ff" stroke="#63b8ff" points="73.65,-16.92 63.11,-18.01 72.03,-23.73 73.65,-16.92"/>
</a>
</g>
</g>
<!-- Node13 -->
<g id="Node000013" class="node">
<title>Node13</title>
<g id="a_Node000013"><a xlink:title=" ">
<polygon fill="#e0e0e0" stroke="#999999" points="626,-19 561,-19 561,0 626,0 626,-19"/>
<text text-anchor="middle" x="593.5" y="-7" font-family="Helvetica,sans-Serif" font-size="10.00">functional</text>
</a>
</g>
</g>
<!-- Node12&#45;&gt;Node13 -->
<g id="edge12_Node000012_Node000013" class="edge">
<title>Node12&#45;&gt;Node13</title>
<g id="a_edge12_Node000012_Node000013"><a xlink:title=" ">
<path fill="none" stroke="#63b8ff" d="M593.5,-54.75C593.5,-47.8 593.5,-37.85 593.5,-29.13"/>
<polygon fill="#63b8ff" stroke="#63b8ff" points="597,-29.09 593.5,-19.09 590,-29.09 597,-29.09"/>
</a>
</g>
</g>
<!-- Node12&#45;&gt;Node14 -->
<g id="edge13_Node000012_Node000014" class="edge">
<title>Node12&#45;&gt;Node14</title>
<g id="a_edge13_Node000012_Node000014"><a xlink:title=" ">
<path fill="none" stroke="#63b8ff" d="M605.23,-54.98C616.23,-47 632.92,-34.88 646.1,-25.31"/>
<polygon fill="#63b8ff" stroke="#63b8ff" points="648.52,-27.88 654.56,-19.17 644.41,-22.21 648.52,-27.88"/>
</a>
</g>
</g>
<!-- Node18&#45;&gt;Node4 -->
<g id="edge18_Node000018_Node000004" class="edge">
<title>Node18&#45;&gt;Node4</title>
<g id="a_edge18_Node000018_Node000004"><a xlink:title=" ">
<path fill="none" stroke="#63b8ff" d="M450,-164.75C449.61,-157.8 449.05,-147.85 448.55,-139.13"/>
<polygon fill="#63b8ff" stroke="#63b8ff" points="452.05,-138.88 447.99,-129.09 445.06,-139.27 452.05,-138.88"/>
</a>
</g>
</g>
<!-- Node18&#45;&gt;Node17 -->
<g id="edge19_Node000018_Node000017" class="edge">
<title>Node18&#45;&gt;Node17</title>
<g id="a_edge19_Node000018_Node000017"><a xlink:title=" ">
<path fill="none" stroke="#63b8ff" d="M431.22,-164.98C411.83,-156.42 381.69,-143.11 359.43,-133.28"/>
<polygon fill="#63b8ff" stroke="#63b8ff" points="360.69,-130.01 350.13,-129.17 357.86,-136.41 360.69,-130.01"/>
</a>
</g>
</g>
<!-- Node19&#45;&gt;Node14 -->
<g id="edge21_Node000019_Node000014" class="edge">
<title>Node19&#45;&gt;Node14</title>
<g id="a_edge21_Node000019_Node000014"><a xlink:title=" ">
<path fill="none" stroke="#63b8ff" d="M554.51,-219.88C568.02,-196.58 606.1,-130.33 635.5,-74 643.47,-58.72 652.03,-41.1 658.13,-28.3"/>
<polygon fill="#63b8ff" stroke="#63b8ff" points="661.32,-29.74 662.43,-19.2 654.99,-26.74 661.32,-29.74"/>
</a>
</g>
</g>
<!-- Node21&#45;&gt;Node18 -->
<g id="edge25_Node000021_Node000018" class="edge">
<title>Node21&#45;&gt;Node18</title>
<g id="a_edge25_Node000021_Node000018"><a xlink:title=" ">
<path fill="none" stroke="#63b8ff" d="M580.63,-274.61C592.79,-261.67 611.37,-237.3 598.5,-220 575.07,-188.49 530.05,-178.46 495.79,-175.65"/>
<polygon fill="#63b8ff" stroke="#63b8ff" points="495.75,-172.14 485.54,-175 495.3,-179.13 495.75,-172.14"/>
</a>
</g>
</g>
<!-- Node21&#45;&gt;Node19 -->
<g id="edge26_Node000021_Node000019" class="edge">
<title>Node21&#45;&gt;Node19</title>
<g id="a_edge26_Node000021_Node000019"><a xlink:title=" ">
<path fill="none" stroke="#63b8ff" d="M567.87,-274.75C564.92,-267.65 560.67,-257.4 556.99,-248.56"/>
<polygon fill="#63b8ff" stroke="#63b8ff" points="560.13,-246.98 553.07,-239.09 553.67,-249.67 560.13,-246.98"/>
</a>
</g>
</g>
<!-- Node21&#45;&gt;Node20 -->
<g id="edge27_Node000021_Node000020" class="edge">
<title>Node21&#45;&gt;Node20</title>
<g id="a_edge27_Node000021_Node000020"><a xlink:title=" ">
<path fill="none" stroke="#63b8ff" d="M553.99,-274.98C536.53,-266.5 509.49,-253.35 489.33,-243.54"/>
<polygon fill="#63b8ff" stroke="#63b8ff" points="490.86,-240.4 480.33,-239.17 487.79,-246.69 490.86,-240.4"/>
</a>
</g>
</g>
</g>
</svg>
