<?xml version="1.0" encoding="UTF-8" standalone="no"?>
<!DOCTYPE svg PUBLIC "-//W3C//DTD SVG 1.1//EN"
 "http://www.w3.org/Graphics/SVG/1.1/DTD/svg11.dtd">
<!-- Generated by graphviz version 2.43.0 (0)
 -->
<!-- Title: Core::Core Pages: 1 -->
<svg width="227pt" height="64pt"
 viewBox="0.00 0.00 227.00 64.00" xmlns="http://www.w3.org/2000/svg" xmlns:xlink="http://www.w3.org/1999/xlink">
<g id="graph0" class="graph" transform="scale(1 1) rotate(0) translate(4 60)">
<title>Core::Core</title>
<!-- Node1 -->
<g id="Node000001" class="node">
<title>Node1</title>
<g id="a_Node000001"><a xlink:title=" ">
<polygon fill="#999999" stroke="#666666" points="68,-37 0,-37 0,-18 68,-18 68,-37"/>
<text text-anchor="middle" x="34" y="-25" font-family="Helvetica,sans-Serif" font-size="10.00">Core::Core</text>
</a>
</g>
</g>
<!-- Node2 -->
<g id="Node000002" class="node">
<title>Node2</title>
<g id="a_Node000002"><a xlink:href="classCore.html#a10320cacf0b34a059a7ae186c9b65cc3" target="_top" xlink:title=" ">
<polygon fill="white" stroke="#666666" points="219,-56 104,-56 104,-37 219,-37 219,-56"/>
<text text-anchor="middle" x="161.5" y="-44" font-family="Helvetica,sans-Serif" font-size="10.00">Core::getDisplayList</text>
</a>
</g>
</g>
<!-- Node1&#45;&gt;Node2 -->
<g id="edge1_Node000001_Node000002" class="edge">
<title>Node1&#45;&gt;Node2</title>
<g id="a_edge1_Node000001_Node000002"><a xlink:title=" ">
<path fill="none" stroke="#63b8ff" d="M68.3,-32.54C76.22,-33.74 84.94,-35.06 93.77,-36.4"/>
<polygon fill="#63b8ff" stroke="#63b8ff" points="93.33,-39.87 103.74,-37.91 94.38,-32.95 93.33,-39.87"/>
</a>
</g>
</g>
<!-- Node3 -->
<g id="Node000003" class="node">
<title>Node3</title>
<g id="a_Node000003"><a xlink:href="classCore.html#a050def4f2658de79a75da1ff9e1924d1" target="_top" xlink:title=" ">
<polygon fill="white" stroke="#666666" points="218,-19 105,-19 105,0 218,0 218,-19"/>
<text text-anchor="middle" x="161.5" y="-7" font-family="Helvetica,sans-Serif" font-size="10.00">Core::getGamesList</text>
</a>
</g>
</g>
<!-- Node1&#45;&gt;Node3 -->
<g id="edge2_Node000001_Node000003" class="edge">
<title>Node1&#45;&gt;Node3</title>
<g id="a_edge2_Node000001_Node000003"><a xlink:title=" ">
<path fill="none" stroke="#63b8ff" d="M68.3,-22.72C76.51,-21.55 85.6,-20.24 94.77,-18.93"/>
<polygon fill="#63b8ff" stroke="#63b8ff" points="95.31,-22.39 104.71,-17.5 94.31,-15.46 95.31,-22.39"/>
</a>
</g>
</g>
</g>
</svg>
