<?xml version="1.0" encoding="UTF-8" standalone="no"?>
<!DOCTYPE svg PUBLIC "-//W3C//DTD SVG 1.1//EN"
 "http://www.w3.org/Graphics/SVG/1.1/DTD/svg11.dtd">
<!-- Generated by graphviz version 2.43.0 (0)
 -->
<!-- Title: IDisplay Pages: 1 -->
<svg width="420pt" height="367pt"
 viewBox="0.00 0.00 420.00 367.00" xmlns="http://www.w3.org/2000/svg" xmlns:xlink="http://www.w3.org/1999/xlink">
<g id="graph0" class="graph" transform="scale(1 1) rotate(0) translate(4 363)">
<title>IDisplay</title>
<!-- Node1 -->
<g id="Node000001" class="node">
<title>Node1</title>
<g id="a_Node000001"><a xlink:title=" ">
<polygon fill="#999999" stroke="transparent" points="255,-359 175,-359 175,-235 255,-235 255,-359"/>
<text text-anchor="start" x="195" y="-347" font-family="Helvetica,sans-Serif" font-size="10.00">IDisplay</text>
<text text-anchor="start" x="213" y="-332" font-family="Helvetica,sans-Serif" font-size="10.00"> </text>
<text text-anchor="start" x="179" y="-317" font-family="Helvetica,sans-Serif" font-size="10.00">+</text>
<text text-anchor="start" x="192" y="-317" font-family="Helvetica,sans-Serif" font-size="10.00">~IDisplay()</text>
<text text-anchor="start" x="179" y="-302" font-family="Helvetica,sans-Serif" font-size="10.00">+</text>
<text text-anchor="start" x="192" y="-302" font-family="Helvetica,sans-Serif" font-size="10.00">init()</text>
<text text-anchor="start" x="179" y="-287" font-family="Helvetica,sans-Serif" font-size="10.00">+</text>
<text text-anchor="start" x="192" y="-287" font-family="Helvetica,sans-Serif" font-size="10.00">close()</text>
<text text-anchor="start" x="179" y="-272" font-family="Helvetica,sans-Serif" font-size="10.00">+</text>
<text text-anchor="start" x="192" y="-272" font-family="Helvetica,sans-Serif" font-size="10.00">clear()</text>
<text text-anchor="start" x="179" y="-257" font-family="Helvetica,sans-Serif" font-size="10.00">+</text>
<text text-anchor="start" x="192" y="-257" font-family="Helvetica,sans-Serif" font-size="10.00">render()</text>
<text text-anchor="start" x="179" y="-242" font-family="Helvetica,sans-Serif" font-size="10.00">+</text>
<text text-anchor="start" x="192" y="-242" font-family="Helvetica,sans-Serif" font-size="10.00">pollEvents()</text>
<polygon fill="#666666" stroke="#666666" points="175,-342 175,-342 255,-342 255,-342 175,-342"/>
<polygon fill="#666666" stroke="#666666" points="175,-327 175,-327 255,-327 255,-327 175,-327"/>
<polygon fill="none" stroke="#666666" points="175,-235 175,-359 255,-359 255,-235 175,-235"/>
</a>
</g>
</g>
<!-- Node2 -->
<g id="Node000002" class="node">
<title>Node2</title>
<g id="a_Node000002"><a xlink:href="classDisplay.html" target="_top" xlink:title=" ">
<polygon fill="white" stroke="transparent" points="80,-184 0,-184 0,-15 80,-15 80,-184"/>
<text text-anchor="start" x="21.5" y="-171.5" font-family="Helvetica,sans-Serif" font-size="10.00">Display</text>
<text text-anchor="start" x="38" y="-156.5" font-family="Helvetica,sans-Serif" font-size="10.00"> </text>
<text text-anchor="start" x="4" y="-141.5" font-family="Helvetica,sans-Serif" font-size="10.00">+</text>
<text text-anchor="start" x="17" y="-141.5" font-family="Helvetica,sans-Serif" font-size="10.00">Display()</text>
<text text-anchor="start" x="4" y="-126.5" font-family="Helvetica,sans-Serif" font-size="10.00">+</text>
<text text-anchor="start" x="17" y="-126.5" font-family="Helvetica,sans-Serif" font-size="10.00">operator=()</text>
<text text-anchor="start" x="4" y="-111.5" font-family="Helvetica,sans-Serif" font-size="10.00">+</text>
<text text-anchor="start" x="17" y="-111.5" font-family="Helvetica,sans-Serif" font-size="10.00">~Display()</text>
<text text-anchor="start" x="4" y="-96.5" font-family="Helvetica,sans-Serif" font-size="10.00">+</text>
<text text-anchor="start" x="17" y="-96.5" font-family="Helvetica,sans-Serif" font-size="10.00">init()</text>
<text text-anchor="start" x="4" y="-81.5" font-family="Helvetica,sans-Serif" font-size="10.00">+</text>
<text text-anchor="start" x="17" y="-81.5" font-family="Helvetica,sans-Serif" font-size="10.00">close()</text>
<text text-anchor="start" x="4" y="-66.5" font-family="Helvetica,sans-Serif" font-size="10.00">+</text>
<text text-anchor="start" x="17" y="-66.5" font-family="Helvetica,sans-Serif" font-size="10.00">clear()</text>
<text text-anchor="start" x="4" y="-51.5" font-family="Helvetica,sans-Serif" font-size="10.00">+</text>
<text text-anchor="start" x="17" y="-51.5" font-family="Helvetica,sans-Serif" font-size="10.00">reset()</text>
<text text-anchor="start" x="4" y="-36.5" font-family="Helvetica,sans-Serif" font-size="10.00">+</text>
<text text-anchor="start" x="17" y="-36.5" font-family="Helvetica,sans-Serif" font-size="10.00">render()</text>
<text text-anchor="start" x="4" y="-21.5" font-family="Helvetica,sans-Serif" font-size="10.00">+</text>
<text text-anchor="start" x="17" y="-21.5" font-family="Helvetica,sans-Serif" font-size="10.00">pollEvents()</text>
<polygon fill="#666666" stroke="#666666" points="0,-166.5 0,-166.5 80,-166.5 80,-166.5 0,-166.5"/>
<polygon fill="#666666" stroke="#666666" points="0,-151.5 0,-151.5 80,-151.5 80,-151.5 0,-151.5"/>
<polygon fill="none" stroke="#666666" points="0,-15 0,-184 80,-184 80,-15 0,-15"/>
</a>
</g>
</g>
<!-- Node1&#45;&gt;Node2 -->
<g id="edge1_Node000001_Node000002" class="edge">
<title>Node1&#45;&gt;Node2</title>
<g id="a_edge1_Node000001_Node000002"><a xlink:title=" ">
<path fill="none" stroke="#63b8ff" d="M166.38,-266.31C140.98,-249.02 110.74,-225.44 89,-199 85.24,-194.43 81.67,-189.52 78.3,-184.42"/>
<polygon fill="none" stroke="#63b8ff" points="164.53,-269.28 174.79,-271.93 168.42,-263.46 164.53,-269.28"/>
</a>
</g>
</g>
<!-- Node3 -->
<g id="Node000003" class="node">
<title>Node3</title>
<g id="a_Node000003"><a xlink:href="classNcurses.html" target="_top" xlink:title=" ">
<polygon fill="white" stroke="transparent" points="216,-199 98,-199 98,0 216,0 216,-199"/>
<text text-anchor="start" x="137" y="-186.5" font-family="Helvetica,sans-Serif" font-size="10.00">Ncurses</text>
<text text-anchor="start" x="155" y="-171.5" font-family="Helvetica,sans-Serif" font-size="10.00"> </text>
<text text-anchor="start" x="102" y="-156.5" font-family="Helvetica,sans-Serif" font-size="10.00">+</text>
<text text-anchor="start" x="115" y="-156.5" font-family="Helvetica,sans-Serif" font-size="10.00">Ncurses()</text>
<text text-anchor="start" x="102" y="-141.5" font-family="Helvetica,sans-Serif" font-size="10.00">+</text>
<text text-anchor="start" x="115" y="-141.5" font-family="Helvetica,sans-Serif" font-size="10.00">~Ncurses()</text>
<text text-anchor="start" x="102" y="-126.5" font-family="Helvetica,sans-Serif" font-size="10.00">+</text>
<text text-anchor="start" x="115" y="-126.5" font-family="Helvetica,sans-Serif" font-size="10.00">init()</text>
<text text-anchor="start" x="102" y="-111.5" font-family="Helvetica,sans-Serif" font-size="10.00">+</text>
<text text-anchor="start" x="115" y="-111.5" font-family="Helvetica,sans-Serif" font-size="10.00">close()</text>
<text text-anchor="start" x="102" y="-96.5" font-family="Helvetica,sans-Serif" font-size="10.00">+</text>
<text text-anchor="start" x="115" y="-96.5" font-family="Helvetica,sans-Serif" font-size="10.00">clear()</text>
<text text-anchor="start" x="102" y="-81.5" font-family="Helvetica,sans-Serif" font-size="10.00">+</text>
<text text-anchor="start" x="115" y="-81.5" font-family="Helvetica,sans-Serif" font-size="10.00">render()</text>
<text text-anchor="start" x="102" y="-66.5" font-family="Helvetica,sans-Serif" font-size="10.00">+</text>
<text text-anchor="start" x="115" y="-66.5" font-family="Helvetica,sans-Serif" font-size="10.00">pollEvents()</text>
<text text-anchor="start" x="102" y="-51.5" font-family="Helvetica,sans-Serif" font-size="10.00">+</text>
<text text-anchor="start" x="115" y="-51.5" font-family="Helvetica,sans-Serif" font-size="10.00">render_instruction()</text>
<text text-anchor="start" x="102" y="-36.5" font-family="Helvetica,sans-Serif" font-size="10.00">+</text>
<text text-anchor="start" x="115" y="-36.5" font-family="Helvetica,sans-Serif" font-size="10.00">render_instruction()</text>
<text text-anchor="start" x="102" y="-21.5" font-family="Helvetica,sans-Serif" font-size="10.00">+</text>
<text text-anchor="start" x="115" y="-21.5" font-family="Helvetica,sans-Serif" font-size="10.00">render_instruction()</text>
<text text-anchor="start" x="102" y="-6.5" font-family="Helvetica,sans-Serif" font-size="10.00">+</text>
<text text-anchor="start" x="115" y="-6.5" font-family="Helvetica,sans-Serif" font-size="10.00">render_instruction()</text>
<polygon fill="#666666" stroke="#666666" points="98,-181.5 98,-181.5 216,-181.5 216,-181.5 98,-181.5"/>
<polygon fill="#666666" stroke="#666666" points="98,-166.5 98,-166.5 216,-166.5 216,-166.5 98,-166.5"/>
<polygon fill="none" stroke="#666666" points="98,0 98,-199 216,-199 216,0 98,0"/>
</a>
</g>
</g>
<!-- Node1&#45;&gt;Node3 -->
<g id="edge2_Node000001_Node000003" class="edge">
<title>Node1&#45;&gt;Node3</title>
<g id="a_edge2_Node000001_Node000003"><a xlink:title=" ">
<path fill="none" stroke="#63b8ff" d="M193.98,-225.14C191.46,-216.65 188.85,-207.87 186.25,-199.08"/>
<polygon fill="none" stroke="#63b8ff" points="190.69,-226.36 196.89,-234.95 197.4,-224.36 190.69,-226.36"/>
</a>
</g>
</g>
<!-- Node4 -->
<g id="Node000004" class="node">
<title>Node4</title>
<g id="a_Node000004"><a xlink:href="classSDL2.html" target="_top" xlink:title=" ">
<polygon fill="white" stroke="transparent" points="314,-169 234,-169 234,-30 314,-30 314,-169"/>
<text text-anchor="start" x="261.5" y="-156.5" font-family="Helvetica,sans-Serif" font-size="10.00">SDL2</text>
<text text-anchor="start" x="272" y="-141.5" font-family="Helvetica,sans-Serif" font-size="10.00"> </text>
<text text-anchor="start" x="238" y="-126.5" font-family="Helvetica,sans-Serif" font-size="10.00">+</text>
<text text-anchor="start" x="251" y="-126.5" font-family="Helvetica,sans-Serif" font-size="10.00">SDL2()</text>
<text text-anchor="start" x="238" y="-111.5" font-family="Helvetica,sans-Serif" font-size="10.00">+</text>
<text text-anchor="start" x="251" y="-111.5" font-family="Helvetica,sans-Serif" font-size="10.00">init()</text>
<text text-anchor="start" x="238" y="-96.5" font-family="Helvetica,sans-Serif" font-size="10.00">+</text>
<text text-anchor="start" x="251" y="-96.5" font-family="Helvetica,sans-Serif" font-size="10.00">close()</text>
<text text-anchor="start" x="238" y="-81.5" font-family="Helvetica,sans-Serif" font-size="10.00">+</text>
<text text-anchor="start" x="251" y="-81.5" font-family="Helvetica,sans-Serif" font-size="10.00">clear()</text>
<text text-anchor="start" x="238" y="-66.5" font-family="Helvetica,sans-Serif" font-size="10.00">+</text>
<text text-anchor="start" x="251" y="-66.5" font-family="Helvetica,sans-Serif" font-size="10.00">render()</text>
<text text-anchor="start" x="238" y="-51.5" font-family="Helvetica,sans-Serif" font-size="10.00">+</text>
<text text-anchor="start" x="251" y="-51.5" font-family="Helvetica,sans-Serif" font-size="10.00">pollEvents()</text>
<text text-anchor="start" x="238" y="-36.5" font-family="Helvetica,sans-Serif" font-size="10.00">+</text>
<text text-anchor="start" x="251" y="-36.5" font-family="Helvetica,sans-Serif" font-size="10.00">~SDL2()</text>
<polygon fill="#666666" stroke="#666666" points="234,-151.5 234,-151.5 314,-151.5 314,-151.5 234,-151.5"/>
<polygon fill="#666666" stroke="#666666" points="234,-136.5 234,-136.5 314,-136.5 314,-136.5 234,-136.5"/>
<polygon fill="none" stroke="#666666" points="234,-30 234,-169 314,-169 314,-30 234,-30"/>
</a>
</g>
</g>
<!-- Node1&#45;&gt;Node4 -->
<g id="edge3_Node000001_Node000004" class="edge">
<title>Node1&#45;&gt;Node4</title>
<g id="a_edge3_Node000001_Node000004"><a xlink:title=" ">
<path fill="none" stroke="#63b8ff" d="M236.35,-225.26C241.86,-207.01 247.77,-187.41 253.25,-169.26"/>
<polygon fill="none" stroke="#63b8ff" points="232.96,-224.36 233.43,-234.95 239.67,-226.38 232.96,-224.36"/>
</a>
</g>
</g>
<!-- Node5 -->
<g id="Node000005" class="node">
<title>Node5</title>
<g id="a_Node000005"><a xlink:href="classSFML.html" target="_top" xlink:title=" ">
<polygon fill="white" stroke="transparent" points="412,-169 332,-169 332,-30 412,-30 412,-169"/>
<text text-anchor="start" x="358.5" y="-156.5" font-family="Helvetica,sans-Serif" font-size="10.00">SFML</text>
<text text-anchor="start" x="370" y="-141.5" font-family="Helvetica,sans-Serif" font-size="10.00"> </text>
<text text-anchor="start" x="336" y="-126.5" font-family="Helvetica,sans-Serif" font-size="10.00">+</text>
<text text-anchor="start" x="349" y="-126.5" font-family="Helvetica,sans-Serif" font-size="10.00">SFML()</text>
<text text-anchor="start" x="336" y="-111.5" font-family="Helvetica,sans-Serif" font-size="10.00">+</text>
<text text-anchor="start" x="349" y="-111.5" font-family="Helvetica,sans-Serif" font-size="10.00">init()</text>
<text text-anchor="start" x="336" y="-96.5" font-family="Helvetica,sans-Serif" font-size="10.00">+</text>
<text text-anchor="start" x="349" y="-96.5" font-family="Helvetica,sans-Serif" font-size="10.00">close()</text>
<text text-anchor="start" x="336" y="-81.5" font-family="Helvetica,sans-Serif" font-size="10.00">+</text>
<text text-anchor="start" x="349" y="-81.5" font-family="Helvetica,sans-Serif" font-size="10.00">clear()</text>
<text text-anchor="start" x="336" y="-66.5" font-family="Helvetica,sans-Serif" font-size="10.00">+</text>
<text text-anchor="start" x="349" y="-66.5" font-family="Helvetica,sans-Serif" font-size="10.00">render()</text>
<text text-anchor="start" x="336" y="-51.5" font-family="Helvetica,sans-Serif" font-size="10.00">+</text>
<text text-anchor="start" x="349" y="-51.5" font-family="Helvetica,sans-Serif" font-size="10.00">pollEvents()</text>
<text text-anchor="start" x="336" y="-36.5" font-family="Helvetica,sans-Serif" font-size="10.00">+</text>
<text text-anchor="start" x="349" y="-36.5" font-family="Helvetica,sans-Serif" font-size="10.00">~SFML()</text>
<polygon fill="#666666" stroke="#666666" points="332,-151.5 332,-151.5 412,-151.5 412,-151.5 332,-151.5"/>
<polygon fill="#666666" stroke="#666666" points="332,-136.5 332,-136.5 412,-136.5 412,-136.5 332,-136.5"/>
<polygon fill="none" stroke="#666666" points="332,-30 332,-169 412,-169 412,-30 332,-30"/>
</a>
</g>
</g>
<!-- Node1&#45;&gt;Node5 -->
<g id="edge4_Node000001_Node000005" class="edge">
<title>Node1&#45;&gt;Node5</title>
<g id="a_edge4_Node000001_Node000005"><a xlink:title=" ">
<path fill="none" stroke="#63b8ff" d="M263.03,-259.63C283.23,-242.72 305.96,-221.4 323,-199 330,-189.8 336.42,-179.45 342.16,-169.01"/>
<polygon fill="none" stroke="#63b8ff" points="260.63,-257.07 255.13,-266.13 265.08,-262.48 260.63,-257.07"/>
</a>
</g>
</g>
</g>
</svg>
