<?xml version="1.0" encoding="UTF-8" standalone="no"?>
<!DOCTYPE svg PUBLIC "-//W3C//DTD SVG 1.1//EN"
 "http://www.w3.org/Graphics/SVG/1.1/DTD/svg11.dtd">
<!-- Generated by graphviz version 2.43.0 (0)
 -->
<!-- Title: GameMatrix::createTileGFX Pages: 1 -->
<svg width="342pt" height="64pt"
 viewBox="0.00 0.00 342.00 64.00" xmlns="http://www.w3.org/2000/svg" xmlns:xlink="http://www.w3.org/1999/xlink">
<g id="graph0" class="graph" transform="scale(1 1) rotate(0) translate(4 60)">
<title>GameMatrix::createTileGFX</title>
<!-- Node1 -->
<g id="Node000001" class="node">
<title>Node1</title>
<g id="a_Node000001"><a xlink:title=" ">
<polygon fill="#999999" stroke="#666666" points="334,-37 182,-37 182,-18 334,-18 334,-37"/>
<text text-anchor="middle" x="258" y="-25" font-family="Helvetica,sans-Serif" font-size="10.00">GameMatrix::createTileGFX</text>
</a>
</g>
</g>
<!-- Node2 -->
<g id="Node000002" class="node">
<title>Node2</title>
<g id="a_Node000002"><a xlink:href="classGameMatrix.html#a1941372db3183cae77bea8c41796629a" target="_top" xlink:title=" ">
<polygon fill="white" stroke="#666666" points="146,-56 0,-56 0,-37 146,-37 146,-56"/>
<text text-anchor="middle" x="73" y="-44" font-family="Helvetica,sans-Serif" font-size="10.00">GameMatrix::matrixToGFX</text>
</a>
</g>
</g>
<!-- Node1&#45;&gt;Node2 -->
<g id="edge1_Node000001_Node000002" class="edge">
<title>Node1&#45;&gt;Node2</title>
<g id="a_edge1_Node000001_Node000002"><a xlink:title=" ">
<path fill="none" stroke="#63b8ff" d="M171.81,-36.35C163.27,-37.23 154.66,-38.13 146.28,-39"/>
<polygon fill="#63b8ff" stroke="#63b8ff" points="172.19,-39.82 181.77,-35.31 171.47,-32.86 172.19,-39.82"/>
</a>
</g>
</g>
<!-- Node3 -->
<g id="Node000003" class="node">
<title>Node3</title>
<g id="a_Node000003"><a xlink:href="classGameMatrix.html#ac15f6374e456ba5bcc6cb3158c141215" target="_top" xlink:title=" ">
<polygon fill="white" stroke="#666666" points="146,-19 0,-19 0,0 146,0 146,-19"/>
<text text-anchor="middle" x="73" y="-7" font-family="Helvetica,sans-Serif" font-size="10.00">GameMatrix::matrixToGFX</text>
</a>
</g>
</g>
<!-- Node1&#45;&gt;Node3 -->
<g id="edge2_Node000001_Node000003" class="edge">
<title>Node1&#45;&gt;Node3</title>
<g id="a_edge2_Node000001_Node000003"><a xlink:title=" ">
<path fill="none" stroke="#63b8ff" d="M171.81,-19.12C163.27,-18.28 154.66,-17.43 146.28,-16.61"/>
<polygon fill="#63b8ff" stroke="#63b8ff" points="171.48,-22.61 181.77,-20.1 172.17,-15.64 171.48,-22.61"/>
</a>
</g>
</g>
</g>
</svg>
