<?xml version="1.0" encoding="UTF-8" standalone="no"?>
<!DOCTYPE svg PUBLIC "-//W3C//DTD SVG 1.1//EN"
 "http://www.w3.org/Graphics/SVG/1.1/DTD/svg11.dtd">
<!-- Generated by graphviz version 2.43.0 (0)
 -->
<!-- Title: Display::Display Pages: 1 -->
<svg width="226pt" height="138pt"
 viewBox="0.00 0.00 226.00 138.00" xmlns="http://www.w3.org/2000/svg" xmlns:xlink="http://www.w3.org/1999/xlink">
<g id="graph0" class="graph" transform="scale(1 1) rotate(0) translate(4 134)">
<title>Display::Display</title>
<!-- Node1 -->
<g id="Node000001" class="node">
<title>Node1</title>
<g id="a_Node000001"><a xlink:title=" ">
<polygon fill="#999999" stroke="#666666" points="95,-74 0,-74 0,-55 95,-55 95,-74"/>
<text text-anchor="middle" x="47.5" y="-62" font-family="Helvetica,sans-Serif" font-size="10.00">Display::Display</text>
</a>
</g>
</g>
<!-- Node2 -->
<g id="Node000002" class="node">
<title>Node2</title>
<g id="a_Node000002"><a xlink:href="Menu_8cpp.html#ad98dd0bd98ebb2f76e85cfd4ccf02113" target="_top" xlink:title=" ">
<polygon fill="white" stroke="#666666" points="198,-130 151,-130 151,-111 198,-111 198,-130"/>
<text text-anchor="middle" x="174.5" y="-118" font-family="Helvetica,sans-Serif" font-size="10.00">create</text>
</a>
</g>
</g>
<!-- Node1&#45;&gt;Node2 -->
<g id="edge1_Node000001_Node000002" class="edge">
<title>Node1&#45;&gt;Node2</title>
<g id="a_edge1_Node000001_Node000002"><a xlink:title=" ">
<path fill="none" stroke="#63b8ff" d="M68.76,-74.05C85.41,-81.84 109.65,-93.07 131,-102.5 134.43,-104.01 138.02,-105.58 141.6,-107.12"/>
<polygon fill="#63b8ff" stroke="#63b8ff" points="140.37,-110.4 150.95,-111.1 143.12,-103.96 140.37,-110.4"/>
</a>
</g>
</g>
<!-- Node3 -->
<g id="Node000003" class="node">
<title>Node3</title>
<g id="a_Node000003"><a xlink:href="Menu_8cpp.html#a4bbc47207cc25dcf404fa8b921853e95" target="_top" xlink:title=" ">
<polygon fill="white" stroke="#666666" points="209,-93 140,-93 140,-74 209,-74 209,-93"/>
<text text-anchor="middle" x="174.5" y="-81" font-family="Helvetica,sans-Serif" font-size="10.00">getLibType</text>
</a>
</g>
</g>
<!-- Node1&#45;&gt;Node3 -->
<g id="edge2_Node000001_Node000003" class="edge">
<title>Node1&#45;&gt;Node3</title>
<g id="a_edge2_Node000001_Node000003"><a xlink:title=" ">
<path fill="none" stroke="#63b8ff" d="M95.05,-71.57C106.42,-73.3 118.55,-75.15 129.78,-76.85"/>
<polygon fill="#63b8ff" stroke="#63b8ff" points="129.39,-80.34 139.8,-78.38 130.44,-73.41 129.39,-80.34"/>
</a>
</g>
</g>
<!-- Node4 -->
<g id="Node000004" class="node">
<title>Node4</title>
<g id="a_Node000004"><a xlink:href="classDlLoader.html#aa2bf7716b648a0707bf9fc09cc15cd31" target="_top" xlink:title=" ">
<polygon fill="white" stroke="#666666" points="218,-56 131,-56 131,-37 218,-37 218,-56"/>
<text text-anchor="middle" x="174.5" y="-44" font-family="Helvetica,sans-Serif" font-size="10.00">DlLoader::load</text>
</a>
</g>
</g>
<!-- Node1&#45;&gt;Node4 -->
<g id="edge3_Node000001_Node000004" class="edge">
<title>Node1&#45;&gt;Node4</title>
<g id="a_edge3_Node000001_Node000004"><a xlink:title=" ">
<path fill="none" stroke="#63b8ff" d="M95.05,-57.8C103.34,-56.6 112.03,-55.35 120.48,-54.13"/>
<polygon fill="#63b8ff" stroke="#63b8ff" points="121.24,-57.56 130.64,-52.67 120.24,-50.63 121.24,-57.56"/>
</a>
</g>
</g>
<!-- Node5 -->
<g id="Node000005" class="node">
<title>Node5</title>
<g id="a_Node000005"><a xlink:href="classDlLoader.html#a96e9032e363068df6ca9015001368059" target="_top" xlink:title=" ">
<polygon fill="white" stroke="#666666" points="218,-19 131,-19 131,0 218,0 218,-19"/>
<text text-anchor="middle" x="174.5" y="-7" font-family="Helvetica,sans-Serif" font-size="10.00">DlLoader::sym</text>
</a>
</g>
</g>
<!-- Node1&#45;&gt;Node5 -->
<g id="edge4_Node000001_Node000005" class="edge">
<title>Node1&#45;&gt;Node5</title>
<g id="a_edge4_Node000001_Node000005"><a xlink:title=" ">
<path fill="none" stroke="#63b8ff" d="M70.27,-54.92C90.14,-46.18 119.72,-33.16 142.13,-23.3"/>
<polygon fill="#63b8ff" stroke="#63b8ff" points="143.81,-26.39 151.56,-19.16 140.99,-19.98 143.81,-26.39"/>
</a>
</g>
</g>
</g>
</svg>
