<?xml version="1.0" encoding="UTF-8" standalone="no"?>
<!DOCTYPE svg PUBLIC "-//W3C//DTD SVG 1.1//EN"
 "http://www.w3.org/Graphics/SVG/1.1/DTD/svg11.dtd">
<!-- Generated by graphviz version 2.43.0 (0)
 -->
<!-- Title: IGame Pages: 1 -->
<svg width="540pt" height="412pt"
 viewBox="0.00 0.00 540.00 412.00" xmlns="http://www.w3.org/2000/svg" xmlns:xlink="http://www.w3.org/1999/xlink">
<g id="graph0" class="graph" transform="scale(1 1) rotate(0) translate(4 408)">
<title>IGame</title>
<!-- Node1 -->
<g id="Node000001" class="node">
<title>Node1</title>
<g id="a_Node000001"><a xlink:title=" ">
<polygon fill="#999999" stroke="transparent" points="325,-404 206,-404 206,-280 325,-280 325,-404"/>
<text text-anchor="start" x="249.5" y="-392" font-family="Helvetica,sans-Serif" font-size="10.00">IGame</text>
<text text-anchor="start" x="264" y="-377" font-family="Helvetica,sans-Serif" font-size="10.00"> </text>
<text text-anchor="start" x="210.5" y="-362" font-family="Helvetica,sans-Serif" font-size="10.00">+</text>
<text text-anchor="start" x="223.5" y="-362" font-family="Helvetica,sans-Serif" font-size="10.00">~IGame()</text>
<text text-anchor="start" x="210.5" y="-347" font-family="Helvetica,sans-Serif" font-size="10.00">+</text>
<text text-anchor="start" x="223.5" y="-347" font-family="Helvetica,sans-Serif" font-size="10.00">init()</text>
<text text-anchor="start" x="210.5" y="-332" font-family="Helvetica,sans-Serif" font-size="10.00">+</text>
<text text-anchor="start" x="223.5" y="-332" font-family="Helvetica,sans-Serif" font-size="10.00">close()</text>
<text text-anchor="start" x="210.5" y="-317" font-family="Helvetica,sans-Serif" font-size="10.00">+</text>
<text text-anchor="start" x="223.5" y="-317" font-family="Helvetica,sans-Serif" font-size="10.00">update()</text>
<text text-anchor="start" x="210.5" y="-302" font-family="Helvetica,sans-Serif" font-size="10.00">+</text>
<text text-anchor="start" x="223.5" y="-302" font-family="Helvetica,sans-Serif" font-size="10.00">getGfxInstructions()</text>
<text text-anchor="start" x="210.5" y="-287" font-family="Helvetica,sans-Serif" font-size="10.00">+</text>
<text text-anchor="start" x="223.5" y="-287" font-family="Helvetica,sans-Serif" font-size="10.00">getEvent()</text>
<polygon fill="#666666" stroke="#666666" points="206.5,-387 206.5,-387 325.5,-387 325.5,-387 206.5,-387"/>
<polygon fill="#666666" stroke="#666666" points="206.5,-372 206.5,-372 325.5,-372 325.5,-372 206.5,-372"/>
<polygon fill="none" stroke="#666666" points="206,-280 206,-404 325,-404 325,-280 206,-280"/>
</a>
</g>
</g>
<!-- Node2 -->
<g id="Node000002" class="node">
<title>Node2</title>
<g id="a_Node000002"><a xlink:href="classGame.html" target="_top" xlink:title=" ">
<polygon fill="white" stroke="transparent" points="119,-199 0,-199 0,-45 119,-45 119,-199"/>
<text text-anchor="start" x="45" y="-187" font-family="Helvetica,sans-Serif" font-size="10.00">Game</text>
<text text-anchor="start" x="58" y="-172" font-family="Helvetica,sans-Serif" font-size="10.00"> </text>
<text text-anchor="start" x="4.5" y="-157" font-family="Helvetica,sans-Serif" font-size="10.00">+</text>
<text text-anchor="start" x="17.5" y="-157" font-family="Helvetica,sans-Serif" font-size="10.00">Game()</text>
<text text-anchor="start" x="4.5" y="-142" font-family="Helvetica,sans-Serif" font-size="10.00">+</text>
<text text-anchor="start" x="17.5" y="-142" font-family="Helvetica,sans-Serif" font-size="10.00">operator=()</text>
<text text-anchor="start" x="4.5" y="-127" font-family="Helvetica,sans-Serif" font-size="10.00">+</text>
<text text-anchor="start" x="17.5" y="-127" font-family="Helvetica,sans-Serif" font-size="10.00">~Game()</text>
<text text-anchor="start" x="4.5" y="-112" font-family="Helvetica,sans-Serif" font-size="10.00">+</text>
<text text-anchor="start" x="17.5" y="-112" font-family="Helvetica,sans-Serif" font-size="10.00">init()</text>
<text text-anchor="start" x="4.5" y="-97" font-family="Helvetica,sans-Serif" font-size="10.00">+</text>
<text text-anchor="start" x="17.5" y="-97" font-family="Helvetica,sans-Serif" font-size="10.00">close()</text>
<text text-anchor="start" x="4.5" y="-82" font-family="Helvetica,sans-Serif" font-size="10.00">+</text>
<text text-anchor="start" x="17.5" y="-82" font-family="Helvetica,sans-Serif" font-size="10.00">update()</text>
<text text-anchor="start" x="4.5" y="-67" font-family="Helvetica,sans-Serif" font-size="10.00">+</text>
<text text-anchor="start" x="17.5" y="-67" font-family="Helvetica,sans-Serif" font-size="10.00">getGfxInstructions()</text>
<text text-anchor="start" x="4.5" y="-52" font-family="Helvetica,sans-Serif" font-size="10.00">+</text>
<text text-anchor="start" x="17.5" y="-52" font-family="Helvetica,sans-Serif" font-size="10.00">getEvent()</text>
<polygon fill="#666666" stroke="#666666" points="0.5,-182 0.5,-182 119.5,-182 119.5,-182 0.5,-182"/>
<polygon fill="#666666" stroke="#666666" points="0.5,-167 0.5,-167 119.5,-167 119.5,-167 0.5,-167"/>
<polygon fill="none" stroke="#666666" points="0,-45 0,-199 119,-199 119,-45 0,-45"/>
</a>
</g>
</g>
<!-- Node1&#45;&gt;Node2 -->
<g id="edge1_Node000001_Node000002" class="edge">
<title>Node1&#45;&gt;Node2</title>
<g id="a_edge1_Node000001_Node000002"><a xlink:title=" ">
<path fill="none" stroke="#63b8ff" d="M197.5,-301.97C173.5,-286.05 147.53,-266.15 127.5,-244 115.46,-230.68 104.67,-214.87 95.42,-199.14"/>
<polygon fill="none" stroke="#63b8ff" points="195.6,-304.91 205.89,-307.43 199.42,-299.04 195.6,-304.91"/>
</a>
</g>
</g>
<!-- Node3 -->
<g id="Node000003" class="node">
<title>Node3</title>
<g id="a_Node000003"><a xlink:href="classMenuGame.html" target="_top" xlink:title=" ">
<polygon fill="white" stroke="transparent" points="256,-176.5 137,-176.5 137,-67.5 256,-67.5 256,-176.5"/>
<text text-anchor="start" x="168.5" y="-164" font-family="Helvetica,sans-Serif" font-size="10.00">MenuGame</text>
<text text-anchor="start" x="195" y="-149" font-family="Helvetica,sans-Serif" font-size="10.00"> </text>
<text text-anchor="start" x="141.5" y="-134" font-family="Helvetica,sans-Serif" font-size="10.00">+</text>
<text text-anchor="start" x="154.5" y="-134" font-family="Helvetica,sans-Serif" font-size="10.00">init()</text>
<text text-anchor="start" x="141.5" y="-119" font-family="Helvetica,sans-Serif" font-size="10.00">+</text>
<text text-anchor="start" x="154.5" y="-119" font-family="Helvetica,sans-Serif" font-size="10.00">close()</text>
<text text-anchor="start" x="141.5" y="-104" font-family="Helvetica,sans-Serif" font-size="10.00">+</text>
<text text-anchor="start" x="154.5" y="-104" font-family="Helvetica,sans-Serif" font-size="10.00">update()</text>
<text text-anchor="start" x="141.5" y="-89" font-family="Helvetica,sans-Serif" font-size="10.00">+</text>
<text text-anchor="start" x="154.5" y="-89" font-family="Helvetica,sans-Serif" font-size="10.00">getGfxInstructions()</text>
<text text-anchor="start" x="141.5" y="-74" font-family="Helvetica,sans-Serif" font-size="10.00">+</text>
<text text-anchor="start" x="154.5" y="-74" font-family="Helvetica,sans-Serif" font-size="10.00">getEvent()</text>
<polygon fill="#666666" stroke="#666666" points="137.5,-159 137.5,-159 256.5,-159 256.5,-159 137.5,-159"/>
<polygon fill="#666666" stroke="#666666" points="137.5,-144 137.5,-144 256.5,-144 256.5,-144 137.5,-144"/>
<polygon fill="none" stroke="#666666" points="137,-67.5 137,-176.5 256,-176.5 256,-67.5 137,-67.5"/>
</a>
</g>
</g>
<!-- Node1&#45;&gt;Node3 -->
<g id="edge2_Node000001_Node000003" class="edge">
<title>Node1&#45;&gt;Node3</title>
<g id="a_edge2_Node000001_Node000003"><a xlink:title=" ">
<path fill="none" stroke="#63b8ff" d="M243.11,-270.28C233.48,-239.83 222.4,-204.82 213.46,-176.58"/>
<polygon fill="none" stroke="#63b8ff" points="239.83,-271.51 246.19,-279.98 246.51,-269.39 239.83,-271.51"/>
</a>
</g>
</g>
<!-- Node4 -->
<g id="Node000004" class="node">
<title>Node4</title>
<g id="a_Node000004"><a xlink:href="classMineSweeper_1_1Game.html" target="_top" xlink:title=" ">
<polygon fill="white" stroke="transparent" points="395,-229 274,-229 274,-15 395,-15 395,-229"/>
<text text-anchor="start" x="284" y="-217" font-family="Helvetica,sans-Serif" font-size="10.00">MineSweeper::Game</text>
<text text-anchor="start" x="333" y="-202" font-family="Helvetica,sans-Serif" font-size="10.00"> </text>
<text text-anchor="start" x="278.5" y="-187" font-family="Helvetica,sans-Serif" font-size="10.00">+</text>
<text text-anchor="start" x="291.5" y="-187" font-family="Helvetica,sans-Serif" font-size="10.00">Game()</text>
<text text-anchor="start" x="278.5" y="-172" font-family="Helvetica,sans-Serif" font-size="10.00">+</text>
<text text-anchor="start" x="291.5" y="-172" font-family="Helvetica,sans-Serif" font-size="10.00">~Game()</text>
<text text-anchor="start" x="278.5" y="-157" font-family="Helvetica,sans-Serif" font-size="10.00">+</text>
<text text-anchor="start" x="291.5" y="-157" font-family="Helvetica,sans-Serif" font-size="10.00">init()</text>
<text text-anchor="start" x="278.5" y="-142" font-family="Helvetica,sans-Serif" font-size="10.00">+</text>
<text text-anchor="start" x="291.5" y="-142" font-family="Helvetica,sans-Serif" font-size="10.00">close()</text>
<text text-anchor="start" x="278.5" y="-127" font-family="Helvetica,sans-Serif" font-size="10.00">+</text>
<text text-anchor="start" x="291.5" y="-127" font-family="Helvetica,sans-Serif" font-size="10.00">update()</text>
<text text-anchor="start" x="278.5" y="-112" font-family="Helvetica,sans-Serif" font-size="10.00">+</text>
<text text-anchor="start" x="291.5" y="-112" font-family="Helvetica,sans-Serif" font-size="10.00">getGfxInstructions()</text>
<text text-anchor="start" x="278.5" y="-97" font-family="Helvetica,sans-Serif" font-size="10.00">+</text>
<text text-anchor="start" x="291.5" y="-97" font-family="Helvetica,sans-Serif" font-size="10.00">getEvent()</text>
<text text-anchor="start" x="278.5" y="-82" font-family="Helvetica,sans-Serif" font-size="10.00">+</text>
<text text-anchor="start" x="291.5" y="-82" font-family="Helvetica,sans-Serif" font-size="10.00">discoverTile()</text>
<text text-anchor="start" x="278.5" y="-67" font-family="Helvetica,sans-Serif" font-size="10.00">+</text>
<text text-anchor="start" x="291.5" y="-67" font-family="Helvetica,sans-Serif" font-size="10.00">setNeighbour()</text>
<text text-anchor="start" x="278.5" y="-52" font-family="Helvetica,sans-Serif" font-size="10.00">+</text>
<text text-anchor="start" x="291.5" y="-52" font-family="Helvetica,sans-Serif" font-size="10.00">findNextNeighbour()</text>
<text text-anchor="start" x="278.5" y="-37" font-family="Helvetica,sans-Serif" font-size="10.00">+</text>
<text text-anchor="start" x="291.5" y="-37" font-family="Helvetica,sans-Serif" font-size="10.00">findCoords()</text>
<text text-anchor="start" x="278.5" y="-22" font-family="Helvetica,sans-Serif" font-size="10.00">+</text>
<text text-anchor="start" x="291.5" y="-22" font-family="Helvetica,sans-Serif" font-size="10.00">discoverAdjacent()</text>
<polygon fill="#666666" stroke="#666666" points="274.5,-212 274.5,-212 395.5,-212 395.5,-212 274.5,-212"/>
<polygon fill="#666666" stroke="#666666" points="274.5,-197 274.5,-197 395.5,-197 395.5,-197 274.5,-197"/>
<polygon fill="none" stroke="#666666" points="274,-15 274,-229 395,-229 395,-15 274,-15"/>
</a>
</g>
</g>
<!-- Node1&#45;&gt;Node4 -->
<g id="edge3_Node000001_Node000004" class="edge">
<title>Node1&#45;&gt;Node4</title>
<g id="a_edge3_Node000001_Node000004"><a xlink:title=" ">
<path fill="none" stroke="#63b8ff" d="M287.93,-270.12C292.09,-256.98 296.52,-243 300.92,-229.08"/>
<polygon fill="none" stroke="#63b8ff" points="284.49,-269.39 284.81,-279.98 291.17,-271.51 284.49,-269.39"/>
</a>
</g>
</g>
<!-- Node5 -->
<g id="Node000005" class="node">
<title>Node5</title>
<g id="a_Node000005"><a xlink:href="classSnake_1_1GameSnake.html" target="_top" xlink:title=" ">
<polygon fill="white" stroke="transparent" points="532,-244 413,-244 413,0 532,0 532,-244"/>
<text text-anchor="start" x="426" y="-232" font-family="Helvetica,sans-Serif" font-size="10.00">Snake::GameSnake</text>
<text text-anchor="start" x="471" y="-217" font-family="Helvetica,sans-Serif" font-size="10.00"> </text>
<text text-anchor="start" x="417.5" y="-202" font-family="Helvetica,sans-Serif" font-size="10.00">+</text>
<text text-anchor="start" x="430.5" y="-202" font-family="Helvetica,sans-Serif" font-size="10.00">GameSnake()</text>
<text text-anchor="start" x="417.5" y="-187" font-family="Helvetica,sans-Serif" font-size="10.00">+</text>
<text text-anchor="start" x="430.5" y="-187" font-family="Helvetica,sans-Serif" font-size="10.00">init()</text>
<text text-anchor="start" x="417.5" y="-172" font-family="Helvetica,sans-Serif" font-size="10.00">+</text>
<text text-anchor="start" x="430.5" y="-172" font-family="Helvetica,sans-Serif" font-size="10.00">close()</text>
<text text-anchor="start" x="417.5" y="-157" font-family="Helvetica,sans-Serif" font-size="10.00">+</text>
<text text-anchor="start" x="430.5" y="-157" font-family="Helvetica,sans-Serif" font-size="10.00">update()</text>
<text text-anchor="start" x="417.5" y="-142" font-family="Helvetica,sans-Serif" font-size="10.00">+</text>
<text text-anchor="start" x="430.5" y="-142" font-family="Helvetica,sans-Serif" font-size="10.00">getDirection()</text>
<text text-anchor="start" x="417.5" y="-127" font-family="Helvetica,sans-Serif" font-size="10.00">+</text>
<text text-anchor="start" x="430.5" y="-127" font-family="Helvetica,sans-Serif" font-size="10.00">setShark()</text>
<text text-anchor="start" x="417.5" y="-112" font-family="Helvetica,sans-Serif" font-size="10.00">+</text>
<text text-anchor="start" x="430.5" y="-112" font-family="Helvetica,sans-Serif" font-size="10.00">setFish()</text>
<text text-anchor="start" x="417.5" y="-97" font-family="Helvetica,sans-Serif" font-size="10.00">+</text>
<text text-anchor="start" x="430.5" y="-97" font-family="Helvetica,sans-Serif" font-size="10.00">getMatrix()</text>
<text text-anchor="start" x="417.5" y="-82" font-family="Helvetica,sans-Serif" font-size="10.00">+</text>
<text text-anchor="start" x="430.5" y="-82" font-family="Helvetica,sans-Serif" font-size="10.00">getShark()</text>
<text text-anchor="start" x="417.5" y="-67" font-family="Helvetica,sans-Serif" font-size="10.00">+</text>
<text text-anchor="start" x="430.5" y="-67" font-family="Helvetica,sans-Serif" font-size="10.00">getFish()</text>
<text text-anchor="start" x="417.5" y="-52" font-family="Helvetica,sans-Serif" font-size="10.00">+</text>
<text text-anchor="start" x="430.5" y="-52" font-family="Helvetica,sans-Serif" font-size="10.00">getGames()</text>
<text text-anchor="start" x="417.5" y="-37" font-family="Helvetica,sans-Serif" font-size="10.00">+</text>
<text text-anchor="start" x="430.5" y="-37" font-family="Helvetica,sans-Serif" font-size="10.00">getGfxInstructions()</text>
<text text-anchor="start" x="417.5" y="-22" font-family="Helvetica,sans-Serif" font-size="10.00">+</text>
<text text-anchor="start" x="430.5" y="-22" font-family="Helvetica,sans-Serif" font-size="10.00">getEvent()</text>
<text text-anchor="start" x="417.5" y="-7" font-family="Helvetica,sans-Serif" font-size="10.00">+</text>
<text text-anchor="start" x="430.5" y="-7" font-family="Helvetica,sans-Serif" font-size="10.00">~GameSnake()</text>
<polygon fill="#666666" stroke="#666666" points="413.5,-227 413.5,-227 532.5,-227 532.5,-227 413.5,-227"/>
<polygon fill="#666666" stroke="#666666" points="413.5,-212 413.5,-212 532.5,-212 532.5,-212 413.5,-212"/>
<polygon fill="none" stroke="#666666" points="413,0 413,-244 532,-244 532,0 413,0"/>
</a>
</g>
</g>
<!-- Node1&#45;&gt;Node5 -->
<g id="edge4_Node000001_Node000005" class="edge">
<title>Node1&#45;&gt;Node5</title>
<g id="a_edge4_Node000001_Node000005"><a xlink:title=" ">
<path fill="none" stroke="#63b8ff" d="M333.69,-302.26C357.95,-286.31 384.25,-266.32 404.5,-244 407.33,-240.88 410.1,-237.61 412.79,-234.25"/>
<polygon fill="none" stroke="#63b8ff" points="331.71,-299.37 325.21,-307.73 335.51,-305.25 331.71,-299.37"/>
</a>
</g>
</g>
</g>
</svg>
