<?xml version="1.0" encoding="UTF-8" standalone="no"?>
<!DOCTYPE svg PUBLIC "-//W3C//DTD SVG 1.1//EN"
 "http://www.w3.org/Graphics/SVG/1.1/DTD/svg11.dtd">
<!-- Generated by graphviz version 2.43.0 (0)
 -->
<!-- Title: Ncurses::render Pages: 1 -->
<svg width="287pt" height="82pt"
 viewBox="0.00 0.00 287.00 82.00" xmlns="http://www.w3.org/2000/svg" xmlns:xlink="http://www.w3.org/1999/xlink">
<g id="graph0" class="graph" transform="scale(1 1) rotate(0) translate(4 78)">
<title>Ncurses::render</title>
<!-- Node1 -->
<g id="Node000001" class="node">
<title>Node1</title>
<g id="a_Node000001"><a xlink:title=" ">
<polygon fill="#999999" stroke="#666666" points="93,-37 0,-37 0,-18 93,-18 93,-37"/>
<text text-anchor="middle" x="46.5" y="-25" font-family="Helvetica,sans-Serif" font-size="10.00">Ncurses::render</text>
</a>
</g>
</g>
<!-- Node2 -->
<g id="Node000002" class="node">
<title>Node2</title>
<g id="a_Node000002"><a xlink:href="classNcurses.html#a90181ed1bc87c685f0662f2cd2314429" target="_top" xlink:title=" ">
<polygon fill="white" stroke="#666666" points="247,-56 161,-56 161,-37 247,-37 247,-56"/>
<text text-anchor="middle" x="204" y="-44" font-family="Helvetica,sans-Serif" font-size="10.00">Ncurses::clear</text>
</a>
</g>
</g>
<!-- Node1&#45;&gt;Node2 -->
<g id="edge1_Node000001_Node000002" class="edge">
<title>Node1&#45;&gt;Node2</title>
<g id="a_edge1_Node000001_Node000002"><a xlink:title=" ">
<path fill="none" stroke="#63b8ff" d="M93.31,-33.1C111.38,-35.31 132.23,-37.85 150.87,-40.13"/>
<polygon fill="#63b8ff" stroke="#63b8ff" points="150.61,-43.63 160.96,-41.36 151.46,-36.68 150.61,-43.63"/>
</a>
</g>
</g>
<!-- Node3 -->
<g id="Node000003" class="node">
<title>Node3</title>
<g id="a_Node000003"><a xlink:href="classNcurses.html#a8e7a86a968a03af56e605f3ee283548b" target="_top" xlink:title=" ">
<polygon fill="white" stroke="#666666" points="279,-19 129,-19 129,0 279,0 279,-19"/>
<text text-anchor="middle" x="204" y="-7" font-family="Helvetica,sans-Serif" font-size="10.00">Ncurses::render_instruction</text>
</a>
</g>
</g>
<!-- Node1&#45;&gt;Node3 -->
<g id="edge3_Node000001_Node000003" class="edge">
<title>Node1&#45;&gt;Node3</title>
<g id="a_edge3_Node000001_Node000003"><a xlink:title=" ">
<path fill="none" stroke="#63b8ff" d="M93.31,-22.2C101.45,-21.25 110.15,-20.25 118.96,-19.23"/>
<polygon fill="#63b8ff" stroke="#63b8ff" points="119.4,-22.7 128.93,-18.07 118.59,-15.75 119.4,-22.7"/>
</a>
</g>
</g>
<!-- Node2&#45;&gt;Node2 -->
<g id="edge2_Node000002_Node000002" class="edge">
<title>Node2&#45;&gt;Node2</title>
<g id="a_edge2_Node000002_Node000002"><a xlink:title=" ">
<path fill="none" stroke="#63b8ff" d="M179.96,-56.08C168.26,-64.73 176.27,-74 204,-74 222.2,-74 231.9,-70.01 233.12,-64.82"/>
<polygon fill="#63b8ff" stroke="#63b8ff" points="236.09,-62.97 228.04,-56.08 230.04,-66.49 236.09,-62.97"/>
</a>
</g>
</g>
</g>
</svg>
