<?xml version="1.0" encoding="UTF-8" standalone="no"?>
<!DOCTYPE svg PUBLIC "-//W3C//DTD SVG 1.1//EN"
 "http://www.w3.org/Graphics/SVG/1.1/DTD/svg11.dtd">
<!-- Generated by graphviz version 2.43.0 (0)
 -->
<!-- Title: Core::run Pages: 1 -->
<svg width="381pt" height="175pt"
 viewBox="0.00 0.00 381.00 175.00" xmlns="http://www.w3.org/2000/svg" xmlns:xlink="http://www.w3.org/1999/xlink">
<g id="graph0" class="graph" transform="scale(1 1) rotate(0) translate(4 171)">
<title>Core::run</title>
<!-- Node1 -->
<g id="Node000001" class="node">
<title>Node1</title>
<g id="a_Node000001"><a xlink:title=" ">
<polygon fill="#999999" stroke="#666666" points="61,-93 0,-93 0,-74 61,-74 61,-93"/>
<text text-anchor="middle" x="30.5" y="-81" font-family="Helvetica,sans-Serif" font-size="10.00">Core::run</text>
</a>
</g>
</g>
<!-- Node2 -->
<g id="Node000002" class="node">
<title>Node2</title>
<g id="a_Node000002"><a xlink:href="classCore.html#afe597641aab90826b397459ef11cd105" target="_top" xlink:title=" ">
<polygon fill="white" stroke="#666666" points="195,-93 97,-93 97,-74 195,-74 195,-93"/>
<text text-anchor="middle" x="146" y="-81" font-family="Helvetica,sans-Serif" font-size="10.00">Core::doIteration</text>
</a>
</g>
</g>
<!-- Node1&#45;&gt;Node2 -->
<g id="edge1_Node000001_Node000002" class="edge">
<title>Node1&#45;&gt;Node2</title>
<g id="a_edge1_Node000001_Node000002"><a xlink:title=" ">
<path fill="none" stroke="#63b8ff" d="M61.02,-83.5C68.95,-83.5 77.8,-83.5 86.7,-83.5"/>
<polygon fill="#63b8ff" stroke="#63b8ff" points="86.72,-87 96.72,-83.5 86.72,-80 86.72,-87"/>
</a>
</g>
</g>
<!-- Node3 -->
<g id="Node000003" class="node">
<title>Node3</title>
<g id="a_Node000003"><a xlink:href="classGame.html#a071b760d7cfb9023f2b8815c9e26bbe8" target="_top" xlink:title=" ">
<polygon fill="white" stroke="#666666" points="349.5,-167 254.5,-167 254.5,-148 349.5,-148 349.5,-167"/>
<text text-anchor="middle" x="302" y="-155" font-family="Helvetica,sans-Serif" font-size="10.00">Game::getEvent</text>
</a>
</g>
</g>
<!-- Node2&#45;&gt;Node3 -->
<g id="edge2_Node000002_Node000003" class="edge">
<title>Node2&#45;&gt;Node3</title>
<g id="a_edge2_Node000002_Node000003"><a xlink:title=" ">
<path fill="none" stroke="#63b8ff" d="M158.49,-93.02C174.02,-105.42 202.99,-127 231,-139.5 235.42,-141.47 240.1,-143.26 244.86,-144.88"/>
<polygon fill="#63b8ff" stroke="#63b8ff" points="244.1,-148.3 254.68,-147.94 246.18,-141.62 244.1,-148.3"/>
</a>
</g>
</g>
<!-- Node4 -->
<g id="Node000004" class="node">
<title>Node4</title>
<g id="a_Node000004"><a xlink:href="classGame.html#a8fe4396993f4234d3254cc9a05001e39" target="_top" xlink:title=" ">
<polygon fill="white" stroke="#666666" points="373,-130 231,-130 231,-111 373,-111 373,-130"/>
<text text-anchor="middle" x="302" y="-118" font-family="Helvetica,sans-Serif" font-size="10.00">Game::getGfxInstructions</text>
</a>
</g>
</g>
<!-- Node2&#45;&gt;Node4 -->
<g id="edge3_Node000002_Node000004" class="edge">
<title>Node2&#45;&gt;Node4</title>
<g id="a_edge3_Node000002_Node000004"><a xlink:title=" ">
<path fill="none" stroke="#63b8ff" d="M186.66,-93.03C206.34,-97.76 230.32,-103.52 251.22,-108.54"/>
<polygon fill="#63b8ff" stroke="#63b8ff" points="250.67,-112.01 261.21,-110.94 252.3,-105.2 250.67,-112.01"/>
</a>
</g>
</g>
<!-- Node5 -->
<g id="Node000005" class="node">
<title>Node5</title>
<g id="a_Node000005"><a xlink:href="classDisplay.html#a4b02d67bb1cc1f4d9ea91b7c3f70bcac" target="_top" xlink:title=" ">
<polygon fill="white" stroke="#666666" points="357,-93 247,-93 247,-74 357,-74 357,-93"/>
<text text-anchor="middle" x="302" y="-81" font-family="Helvetica,sans-Serif" font-size="10.00">Display::pollEvents</text>
</a>
</g>
</g>
<!-- Node2&#45;&gt;Node5 -->
<g id="edge4_Node000002_Node000005" class="edge">
<title>Node2&#45;&gt;Node5</title>
<g id="a_edge4_Node000002_Node000005"><a xlink:title=" ">
<path fill="none" stroke="#63b8ff" d="M195.3,-83.5C208.51,-83.5 223.02,-83.5 236.96,-83.5"/>
<polygon fill="#63b8ff" stroke="#63b8ff" points="236.97,-87 246.97,-83.5 236.97,-80 236.97,-87"/>
</a>
</g>
</g>
<!-- Node6 -->
<g id="Node000006" class="node">
<title>Node6</title>
<g id="a_Node000006"><a xlink:href="classDisplay.html#a577b1ce6ec9e4168cce731b3a591f6bb" target="_top" xlink:title=" ">
<polygon fill="white" stroke="#666666" points="347,-56 257,-56 257,-37 347,-37 347,-56"/>
<text text-anchor="middle" x="302" y="-44" font-family="Helvetica,sans-Serif" font-size="10.00">Display::render</text>
</a>
</g>
</g>
<!-- Node2&#45;&gt;Node6 -->
<g id="edge5_Node000002_Node000006" class="edge">
<title>Node2&#45;&gt;Node6</title>
<g id="a_edge5_Node000002_Node000006"><a xlink:title=" ">
<path fill="none" stroke="#63b8ff" d="M186.66,-73.97C206.34,-69.24 230.32,-63.48 251.22,-58.46"/>
<polygon fill="#63b8ff" stroke="#63b8ff" points="252.3,-61.8 261.21,-56.06 250.67,-54.99 252.3,-61.8"/>
</a>
</g>
</g>
<!-- Node7 -->
<g id="Node000007" class="node">
<title>Node7</title>
<g id="a_Node000007"><a xlink:href="classGame.html#ae7ae6344140ddeff5e885389a9aeab84" target="_top" xlink:title=" ">
<polygon fill="white" stroke="#666666" points="345,-19 259,-19 259,0 345,0 345,-19"/>
<text text-anchor="middle" x="302" y="-7" font-family="Helvetica,sans-Serif" font-size="10.00">Game::update</text>
</a>
</g>
</g>
<!-- Node2&#45;&gt;Node7 -->
<g id="edge6_Node000002_Node000007" class="edge">
<title>Node2&#45;&gt;Node7</title>
<g id="a_edge6_Node000002_Node000007"><a xlink:title=" ">
<path fill="none" stroke="#63b8ff" d="M159.09,-73.8C174.8,-61.63 203.49,-40.86 231,-28.5 236.73,-25.93 242.88,-23.63 249.08,-21.61"/>
<polygon fill="#63b8ff" stroke="#63b8ff" points="250.25,-24.91 258.79,-18.65 248.21,-18.22 250.25,-24.91"/>
</a>
</g>
</g>
</g>
</svg>
