<?xml version="1.0" encoding="UTF-8" standalone="no"?>
<!DOCTYPE svg PUBLIC "-//W3C//DTD SVG 1.1//EN"
 "http://www.w3.org/Graphics/SVG/1.1/DTD/svg11.dtd">
<!-- Generated by graphviz version 2.43.0 (0)
 -->
<!-- Title: MineSweeper::Game Pages: 1 -->
<svg width="129pt" height="382pt"
 viewBox="0.00 0.00 129.00 382.00" xmlns="http://www.w3.org/2000/svg" xmlns:xlink="http://www.w3.org/1999/xlink">
<g id="graph0" class="graph" transform="scale(1 1) rotate(0) translate(4 378)">
<title>MineSweeper::Game</title>
<!-- Node1 -->
<g id="Node000001" class="node">
<title>Node1</title>
<g id="a_Node000001"><a xlink:title=" ">
<polygon fill="#999999" stroke="transparent" points="121,-214 0,-214 0,0 121,0 121,-214"/>
<text text-anchor="start" x="10" y="-202" font-family="Helvetica,sans-Serif" font-size="10.00">MineSweeper::Game</text>
<text text-anchor="start" x="59" y="-187" font-family="Helvetica,sans-Serif" font-size="10.00"> </text>
<text text-anchor="start" x="4.5" y="-172" font-family="Helvetica,sans-Serif" font-size="10.00">+</text>
<text text-anchor="start" x="17.5" y="-172" font-family="Helvetica,sans-Serif" font-size="10.00">Game()</text>
<text text-anchor="start" x="4.5" y="-157" font-family="Helvetica,sans-Serif" font-size="10.00">+</text>
<text text-anchor="start" x="17.5" y="-157" font-family="Helvetica,sans-Serif" font-size="10.00">~Game()</text>
<text text-anchor="start" x="4.5" y="-142" font-family="Helvetica,sans-Serif" font-size="10.00">+</text>
<text text-anchor="start" x="17.5" y="-142" font-family="Helvetica,sans-Serif" font-size="10.00">init()</text>
<text text-anchor="start" x="4.5" y="-127" font-family="Helvetica,sans-Serif" font-size="10.00">+</text>
<text text-anchor="start" x="17.5" y="-127" font-family="Helvetica,sans-Serif" font-size="10.00">close()</text>
<text text-anchor="start" x="4.5" y="-112" font-family="Helvetica,sans-Serif" font-size="10.00">+</text>
<text text-anchor="start" x="17.5" y="-112" font-family="Helvetica,sans-Serif" font-size="10.00">update()</text>
<text text-anchor="start" x="4.5" y="-97" font-family="Helvetica,sans-Serif" font-size="10.00">+</text>
<text text-anchor="start" x="17.5" y="-97" font-family="Helvetica,sans-Serif" font-size="10.00">getGfxInstructions()</text>
<text text-anchor="start" x="4.5" y="-82" font-family="Helvetica,sans-Serif" font-size="10.00">+</text>
<text text-anchor="start" x="17.5" y="-82" font-family="Helvetica,sans-Serif" font-size="10.00">getEvent()</text>
<text text-anchor="start" x="4.5" y="-67" font-family="Helvetica,sans-Serif" font-size="10.00">+</text>
<text text-anchor="start" x="17.5" y="-67" font-family="Helvetica,sans-Serif" font-size="10.00">discoverTile()</text>
<text text-anchor="start" x="4.5" y="-52" font-family="Helvetica,sans-Serif" font-size="10.00">+</text>
<text text-anchor="start" x="17.5" y="-52" font-family="Helvetica,sans-Serif" font-size="10.00">setNeighbour()</text>
<text text-anchor="start" x="4.5" y="-37" font-family="Helvetica,sans-Serif" font-size="10.00">+</text>
<text text-anchor="start" x="17.5" y="-37" font-family="Helvetica,sans-Serif" font-size="10.00">findNextNeighbour()</text>
<text text-anchor="start" x="4.5" y="-22" font-family="Helvetica,sans-Serif" font-size="10.00">+</text>
<text text-anchor="start" x="17.5" y="-22" font-family="Helvetica,sans-Serif" font-size="10.00">findCoords()</text>
<text text-anchor="start" x="4.5" y="-7" font-family="Helvetica,sans-Serif" font-size="10.00">+</text>
<text text-anchor="start" x="17.5" y="-7" font-family="Helvetica,sans-Serif" font-size="10.00">discoverAdjacent()</text>
<polygon fill="#666666" stroke="#666666" points="0.5,-197 0.5,-197 121.5,-197 121.5,-197 0.5,-197"/>
<polygon fill="#666666" stroke="#666666" points="0.5,-182 0.5,-182 121.5,-182 121.5,-182 0.5,-182"/>
<polygon fill="none" stroke="#666666" points="0,0 0,-214 121,-214 121,0 0,0"/>
</a>
</g>
</g>
<!-- Node2 -->
<g id="Node000002" class="node">
<title>Node2</title>
<g id="a_Node000002"><a xlink:href="classIGame.html" target="_top" xlink:title=" ">
<polygon fill="white" stroke="transparent" points="120,-374 1,-374 1,-250 120,-250 120,-374"/>
<text text-anchor="start" x="44.5" y="-362" font-family="Helvetica,sans-Serif" font-size="10.00">IGame</text>
<text text-anchor="start" x="59" y="-347" font-family="Helvetica,sans-Serif" font-size="10.00"> </text>
<text text-anchor="start" x="5.5" y="-332" font-family="Helvetica,sans-Serif" font-size="10.00">+</text>
<text text-anchor="start" x="18.5" y="-332" font-family="Helvetica,sans-Serif" font-size="10.00">~IGame()</text>
<text text-anchor="start" x="5.5" y="-317" font-family="Helvetica,sans-Serif" font-size="10.00">+</text>
<text text-anchor="start" x="18.5" y="-317" font-family="Helvetica,sans-Serif" font-size="10.00">init()</text>
<text text-anchor="start" x="5.5" y="-302" font-family="Helvetica,sans-Serif" font-size="10.00">+</text>
<text text-anchor="start" x="18.5" y="-302" font-family="Helvetica,sans-Serif" font-size="10.00">close()</text>
<text text-anchor="start" x="5.5" y="-287" font-family="Helvetica,sans-Serif" font-size="10.00">+</text>
<text text-anchor="start" x="18.5" y="-287" font-family="Helvetica,sans-Serif" font-size="10.00">update()</text>
<text text-anchor="start" x="5.5" y="-272" font-family="Helvetica,sans-Serif" font-size="10.00">+</text>
<text text-anchor="start" x="18.5" y="-272" font-family="Helvetica,sans-Serif" font-size="10.00">getGfxInstructions()</text>
<text text-anchor="start" x="5.5" y="-257" font-family="Helvetica,sans-Serif" font-size="10.00">+</text>
<text text-anchor="start" x="18.5" y="-257" font-family="Helvetica,sans-Serif" font-size="10.00">getEvent()</text>
<polygon fill="#666666" stroke="#666666" points="1.5,-357 1.5,-357 120.5,-357 120.5,-357 1.5,-357"/>
<polygon fill="#666666" stroke="#666666" points="1.5,-342 1.5,-342 120.5,-342 120.5,-342 1.5,-342"/>
<polygon fill="none" stroke="#666666" points="1,-250 1,-374 120,-374 120,-250 1,-250"/>
</a>
</g>
</g>
<!-- Node2&#45;&gt;Node1 -->
<g id="edge1_Node000001_Node000002" class="edge">
<title>Node2&#45;&gt;Node1</title>
<g id="a_edge1_Node000001_Node000002"><a xlink:title=" ">
<path fill="none" stroke="#63b8ff" d="M60.5,-239.81C60.5,-231.48 60.5,-222.84 60.5,-214.16"/>
<polygon fill="none" stroke="#63b8ff" points="57,-239.82 60.5,-249.82 64,-239.82 57,-239.82"/>
</a>
</g>
</g>
</g>
</svg>
