<?xml version="1.0" encoding="UTF-8" standalone="no"?>
<!DOCTYPE svg PUBLIC "-//W3C//DTD SVG 1.1//EN"
 "http://www.w3.org/Graphics/SVG/1.1/DTD/svg11.dtd">
<!-- Generated by graphviz version 2.43.0 (0)
 -->
<!-- Title: DlLoader::is_loaded Pages: 1 -->
<svg width="261pt" height="64pt"
 viewBox="0.00 0.00 261.00 64.00" xmlns="http://www.w3.org/2000/svg" xmlns:xlink="http://www.w3.org/1999/xlink">
<g id="graph0" class="graph" transform="scale(1 1) rotate(0) translate(4 60)">
<title>DlLoader::is_loaded</title>
<!-- Node1 -->
<g id="Node000001" class="node">
<title>Node1</title>
<g id="a_Node000001"><a xlink:title=" ">
<polygon fill="#999999" stroke="#666666" points="253,-37 140,-37 140,-18 253,-18 253,-37"/>
<text text-anchor="middle" x="196.5" y="-25" font-family="Helvetica,sans-Serif" font-size="10.00">DlLoader::is_loaded</text>
</a>
</g>
</g>
<!-- Node2 -->
<g id="Node000002" class="node">
<title>Node2</title>
<g id="a_Node000002"><a xlink:href="classDisplay.html#ac2607a6bb236c55547a4223d40d85d1f" target="_top" xlink:title=" ">
<polygon fill="white" stroke="#666666" points="104,-56 0,-56 0,-37 104,-37 104,-56"/>
<text text-anchor="middle" x="52" y="-44" font-family="Helvetica,sans-Serif" font-size="10.00">Display::~Display</text>
</a>
</g>
</g>
<!-- Node1&#45;&gt;Node2 -->
<g id="edge1_Node000001_Node000002" class="edge">
<title>Node1&#45;&gt;Node2</title>
<g id="a_edge1_Node000001_Node000002"><a xlink:title=" ">
<path fill="none" stroke="#63b8ff" d="M130,-36.23C121.41,-37.38 112.7,-38.54 104.39,-39.65"/>
<polygon fill="#63b8ff" stroke="#63b8ff" points="130.55,-39.69 140,-34.9 129.62,-32.75 130.55,-39.69"/>
</a>
</g>
</g>
<!-- Node3 -->
<g id="Node000003" class="node">
<title>Node3</title>
<g id="a_Node000003"><a xlink:href="classGame.html#ae3d112ca6e0e55150d2fdbc704474530" target="_top" xlink:title=" ">
<polygon fill="white" stroke="#666666" points="96.5,-19 7.5,-19 7.5,0 96.5,0 96.5,-19"/>
<text text-anchor="middle" x="52" y="-7" font-family="Helvetica,sans-Serif" font-size="10.00">Game::~Game</text>
</a>
</g>
</g>
<!-- Node1&#45;&gt;Node3 -->
<g id="edge2_Node000001_Node000003" class="edge">
<title>Node1&#45;&gt;Node3</title>
<g id="a_edge2_Node000001_Node000003"><a xlink:title=" ">
<path fill="none" stroke="#63b8ff" d="M129.77,-19.2C118.54,-17.78 107.13,-16.34 96.66,-15.02"/>
<polygon fill="#63b8ff" stroke="#63b8ff" points="129.64,-22.71 140,-20.49 130.52,-15.76 129.64,-22.71"/>
</a>
</g>
</g>
</g>
</svg>
