<?xml version="1.0" encoding="UTF-8" standalone="no"?>
<!DOCTYPE svg PUBLIC "-//W3C//DTD SVG 1.1//EN"
 "http://www.w3.org/Graphics/SVG/1.1/DTD/svg11.dtd">
<!-- Generated by graphviz version 2.43.0 (0)
 -->
<!-- Title: Core::doIteration Pages: 1 -->
<svg width="284pt" height="138pt"
 viewBox="0.00 0.00 284.00 138.00" xmlns="http://www.w3.org/2000/svg" xmlns:xlink="http://www.w3.org/1999/xlink">
<g id="graph0" class="graph" transform="scale(1 1) rotate(0) translate(4 134)">
<title>Core::doIteration</title>
<!-- Node1 -->
<g id="Node000001" class="node">
<title>Node1</title>
<g id="a_Node000001"><a xlink:title=" ">
<polygon fill="#999999" stroke="#666666" points="98,-74 0,-74 0,-55 98,-55 98,-74"/>
<text text-anchor="middle" x="49" y="-62" font-family="Helvetica,sans-Serif" font-size="10.00">Core::doIteration</text>
</a>
</g>
</g>
<!-- Node2 -->
<g id="Node000002" class="node">
<title>Node2</title>
<g id="a_Node000002"><a xlink:href="classGame.html#a8fe4396993f4234d3254cc9a05001e39" target="_top" xlink:title=" ">
<polygon fill="white" stroke="#666666" points="276,-130 134,-130 134,-111 276,-111 276,-130"/>
<text text-anchor="middle" x="205" y="-118" font-family="Helvetica,sans-Serif" font-size="10.00">Game::getGfxInstructions</text>
</a>
</g>
</g>
<!-- Node1&#45;&gt;Node2 -->
<g id="edge1_Node000001_Node000002" class="edge">
<title>Node1&#45;&gt;Node2</title>
<g id="a_edge1_Node000001_Node000002"><a xlink:title=" ">
<path fill="none" stroke="#63b8ff" d="M68.63,-74.06C85.41,-82.39 110.9,-94.37 134,-102.5 139.83,-104.55 146,-106.48 152.17,-108.25"/>
<polygon fill="#63b8ff" stroke="#63b8ff" points="151.25,-111.63 161.82,-110.91 153.11,-104.88 151.25,-111.63"/>
</a>
</g>
</g>
<!-- Node3 -->
<g id="Node000003" class="node">
<title>Node3</title>
<g id="a_Node000003"><a xlink:href="classDisplay.html#a4b02d67bb1cc1f4d9ea91b7c3f70bcac" target="_top" xlink:title=" ">
<polygon fill="white" stroke="#666666" points="260,-93 150,-93 150,-74 260,-74 260,-93"/>
<text text-anchor="middle" x="205" y="-81" font-family="Helvetica,sans-Serif" font-size="10.00">Display::pollEvents</text>
</a>
</g>
</g>
<!-- Node1&#45;&gt;Node3 -->
<g id="edge2_Node000001_Node000003" class="edge">
<title>Node1&#45;&gt;Node3</title>
<g id="a_edge2_Node000001_Node000003"><a xlink:title=" ">
<path fill="none" stroke="#63b8ff" d="M98.3,-70.46C111.51,-72.09 126.02,-73.88 139.96,-75.6"/>
<polygon fill="#63b8ff" stroke="#63b8ff" points="139.62,-79.08 149.97,-76.83 140.47,-72.14 139.62,-79.08"/>
</a>
</g>
</g>
<!-- Node4 -->
<g id="Node000004" class="node">
<title>Node4</title>
<g id="a_Node000004"><a xlink:href="classDisplay.html#a577b1ce6ec9e4168cce731b3a591f6bb" target="_top" xlink:title=" ">
<polygon fill="white" stroke="#666666" points="250,-56 160,-56 160,-37 250,-37 250,-56"/>
<text text-anchor="middle" x="205" y="-44" font-family="Helvetica,sans-Serif" font-size="10.00">Display::render</text>
</a>
</g>
</g>
<!-- Node1&#45;&gt;Node4 -->
<g id="edge3_Node000001_Node000004" class="edge">
<title>Node1&#45;&gt;Node4</title>
<g id="a_edge3_Node000001_Node000004"><a xlink:title=" ">
<path fill="none" stroke="#63b8ff" d="M98.3,-58.85C114.59,-56.95 132.88,-54.81 149.61,-52.86"/>
<polygon fill="#63b8ff" stroke="#63b8ff" points="150.27,-56.3 159.79,-51.67 149.45,-49.35 150.27,-56.3"/>
</a>
</g>
</g>
<!-- Node5 -->
<g id="Node000005" class="node">
<title>Node5</title>
<g id="a_Node000005"><a xlink:href="classGame.html#ae7ae6344140ddeff5e885389a9aeab84" target="_top" xlink:title=" ">
<polygon fill="white" stroke="#666666" points="248,-19 162,-19 162,0 248,0 248,-19"/>
<text text-anchor="middle" x="205" y="-7" font-family="Helvetica,sans-Serif" font-size="10.00">Game::update</text>
</a>
</g>
</g>
<!-- Node1&#45;&gt;Node5 -->
<g id="edge4_Node000001_Node000005" class="edge">
<title>Node1&#45;&gt;Node5</title>
<g id="a_edge4_Node000001_Node000005"><a xlink:title=" ">
<path fill="none" stroke="#63b8ff" d="M70.06,-54.96C86.88,-47.19 111.67,-36.27 134,-28.5 140.79,-26.14 148.03,-23.88 155.18,-21.81"/>
<polygon fill="#63b8ff" stroke="#63b8ff" points="156.15,-25.17 164.83,-19.1 154.25,-18.43 156.15,-25.17"/>
</a>
</g>
</g>
</g>
</svg>
