<?xml version="1.0" encoding="UTF-8" standalone="no"?>
<!DOCTYPE svg PUBLIC "-//W3C//DTD SVG 1.1//EN"
 "http://www.w3.org/Graphics/SVG/1.1/DTD/svg11.dtd">
<!-- Generated by graphviz version 2.43.0 (0)
 -->
<!-- Title: Game::Game Pages: 1 -->
<svg width="212pt" height="138pt"
 viewBox="0.00 0.00 212.00 138.00" xmlns="http://www.w3.org/2000/svg" xmlns:xlink="http://www.w3.org/1999/xlink">
<g id="graph0" class="graph" transform="scale(1 1) rotate(0) translate(4 134)">
<title>Game::Game</title>
<!-- Node1 -->
<g id="Node000001" class="node">
<title>Node1</title>
<g id="a_Node000001"><a xlink:title=" ">
<polygon fill="#999999" stroke="#666666" points="81,-74 0,-74 0,-55 81,-55 81,-74"/>
<text text-anchor="middle" x="40.5" y="-62" font-family="Helvetica,sans-Serif" font-size="10.00">Game::Game</text>
</a>
</g>
</g>
<!-- Node2 -->
<g id="Node000002" class="node">
<title>Node2</title>
<g id="a_Node000002"><a xlink:href="Menu_8cpp.html#ad98dd0bd98ebb2f76e85cfd4ccf02113" target="_top" xlink:title=" ">
<polygon fill="white" stroke="#666666" points="184,-130 137,-130 137,-111 184,-111 184,-130"/>
<text text-anchor="middle" x="160.5" y="-118" font-family="Helvetica,sans-Serif" font-size="10.00">create</text>
</a>
</g>
</g>
<!-- Node1&#45;&gt;Node2 -->
<g id="edge1_Node000001_Node000002" class="edge">
<title>Node1&#45;&gt;Node2</title>
<g id="a_edge1_Node000001_Node000002"><a xlink:title=" ">
<path fill="none" stroke="#63b8ff" d="M59.64,-74.05C74.84,-81.95 97.16,-93.32 117,-102.5 120.4,-104.07 123.97,-105.67 127.55,-107.24"/>
<polygon fill="#63b8ff" stroke="#63b8ff" points="126.31,-110.51 136.88,-111.25 129.07,-104.08 126.31,-110.51"/>
</a>
</g>
</g>
<!-- Node3 -->
<g id="Node000003" class="node">
<title>Node3</title>
<g id="a_Node000003"><a xlink:href="Menu_8cpp.html#a4bbc47207cc25dcf404fa8b921853e95" target="_top" xlink:title=" ">
<polygon fill="white" stroke="#666666" points="195,-93 126,-93 126,-74 195,-74 195,-93"/>
<text text-anchor="middle" x="160.5" y="-81" font-family="Helvetica,sans-Serif" font-size="10.00">getLibType</text>
</a>
</g>
</g>
<!-- Node1&#45;&gt;Node3 -->
<g id="edge2_Node000001_Node000003" class="edge">
<title>Node1&#45;&gt;Node3</title>
<g id="a_edge2_Node000001_Node000003"><a xlink:title=" ">
<path fill="none" stroke="#63b8ff" d="M81.12,-70.88C92.19,-72.66 104.29,-74.61 115.59,-76.43"/>
<polygon fill="#63b8ff" stroke="#63b8ff" points="115.27,-79.92 125.7,-78.06 116.38,-73.01 115.27,-79.92"/>
</a>
</g>
</g>
<!-- Node4 -->
<g id="Node000004" class="node">
<title>Node4</title>
<g id="a_Node000004"><a xlink:href="classDlLoader.html#aa2bf7716b648a0707bf9fc09cc15cd31" target="_top" xlink:title=" ">
<polygon fill="white" stroke="#666666" points="204,-56 117,-56 117,-37 204,-37 204,-56"/>
<text text-anchor="middle" x="160.5" y="-44" font-family="Helvetica,sans-Serif" font-size="10.00">DlLoader::load</text>
</a>
</g>
</g>
<!-- Node1&#45;&gt;Node4 -->
<g id="edge3_Node000001_Node000004" class="edge">
<title>Node1&#45;&gt;Node4</title>
<g id="a_edge3_Node000001_Node000004"><a xlink:title=" ">
<path fill="none" stroke="#63b8ff" d="M81.12,-58.46C89.4,-57.19 98.25,-55.84 106.91,-54.52"/>
<polygon fill="#63b8ff" stroke="#63b8ff" points="107.59,-57.96 116.95,-52.99 106.54,-51.04 107.59,-57.96"/>
</a>
</g>
</g>
<!-- Node5 -->
<g id="Node000005" class="node">
<title>Node5</title>
<g id="a_Node000005"><a xlink:href="classDlLoader.html#a96e9032e363068df6ca9015001368059" target="_top" xlink:title=" ">
<polygon fill="white" stroke="#666666" points="204,-19 117,-19 117,0 204,0 204,-19"/>
<text text-anchor="middle" x="160.5" y="-7" font-family="Helvetica,sans-Serif" font-size="10.00">DlLoader::sym</text>
</a>
</g>
</g>
<!-- Node1&#45;&gt;Node5 -->
<g id="edge4_Node000001_Node000005" class="edge">
<title>Node1&#45;&gt;Node5</title>
<g id="a_edge4_Node000001_Node000005"><a xlink:title=" ">
<path fill="none" stroke="#63b8ff" d="M61.31,-54.89C76.5,-47.56 98.02,-37.27 117,-28.5 120.69,-26.79 124.57,-25.03 128.43,-23.28"/>
<polygon fill="#63b8ff" stroke="#63b8ff" points="130.14,-26.35 137.83,-19.06 127.28,-19.97 130.14,-26.35"/>
</a>
</g>
</g>
</g>
</svg>
