<?xml version="1.0" encoding="UTF-8" standalone="no"?>
<!DOCTYPE svg PUBLIC "-//W3C//DTD SVG 1.1//EN"
 "http://www.w3.org/Graphics/SVG/1.1/DTD/svg11.dtd">
<!-- Generated by graphviz version 2.43.0 (0)
 -->
<!-- Title: GameMatrix::matrixToGFX Pages: 1 -->
<svg width="342pt" height="64pt"
 viewBox="0.00 0.00 342.00 64.00" xmlns="http://www.w3.org/2000/svg" xmlns:xlink="http://www.w3.org/1999/xlink">
<g id="graph0" class="graph" transform="scale(1 1) rotate(0) translate(4 60)">
<title>GameMatrix::matrixToGFX</title>
<!-- Node1 -->
<g id="Node000001" class="node">
<title>Node1</title>
<g id="a_Node000001"><a xlink:title=" ">
<polygon fill="#999999" stroke="#666666" points="146,-37 0,-37 0,-18 146,-18 146,-37"/>
<text text-anchor="middle" x="73" y="-25" font-family="Helvetica,sans-Serif" font-size="10.00">GameMatrix::matrixToGFX</text>
</a>
</g>
</g>
<!-- Node2 -->
<g id="Node000002" class="node">
<title>Node2</title>
<g id="a_Node000002"><a xlink:href="classGameMatrix.html#af28c8da7068df40fe6166cba0135d1f2" target="_top" xlink:title=" ">
<polygon fill="white" stroke="#666666" points="330,-56 186,-56 186,-37 330,-37 330,-56"/>
<text text-anchor="middle" x="258" y="-44" font-family="Helvetica,sans-Serif" font-size="10.00">GameMatrix::clearInstruct</text>
</a>
</g>
</g>
<!-- Node1&#45;&gt;Node2 -->
<g id="edge1_Node000001_Node000002" class="edge">
<title>Node1&#45;&gt;Node2</title>
<g id="a_edge1_Node000001_Node000002"><a xlink:title=" ">
<path fill="none" stroke="#63b8ff" d="M146.06,-34.98C155.79,-35.99 165.82,-37.03 175.69,-38.06"/>
<polygon fill="#63b8ff" stroke="#63b8ff" points="175.59,-41.57 185.9,-39.12 176.32,-34.6 175.59,-41.57"/>
</a>
</g>
</g>
<!-- Node3 -->
<g id="Node000003" class="node">
<title>Node3</title>
<g id="a_Node000003"><a xlink:href="classGameMatrix.html#afd28db6536dafd0b60fe1e58e68768d1" target="_top" xlink:title=" ">
<polygon fill="white" stroke="#666666" points="334,-19 182,-19 182,0 334,0 334,-19"/>
<text text-anchor="middle" x="258" y="-7" font-family="Helvetica,sans-Serif" font-size="10.00">GameMatrix::createTileGFX</text>
</a>
</g>
</g>
<!-- Node1&#45;&gt;Node3 -->
<g id="edge2_Node000001_Node000003" class="edge">
<title>Node1&#45;&gt;Node3</title>
<g id="a_edge2_Node000001_Node000003"><a xlink:title=" ">
<path fill="none" stroke="#63b8ff" d="M146.06,-20.41C154.55,-19.58 163.26,-18.72 171.9,-17.87"/>
<polygon fill="#63b8ff" stroke="#63b8ff" points="172.38,-21.34 181.99,-16.88 171.7,-14.37 172.38,-21.34"/>
</a>
</g>
</g>
</g>
</svg>
