<?xml version="1.0" encoding="UTF-8" standalone="no"?>
<!DOCTYPE svg PUBLIC "-//W3C//DTD SVG 1.1//EN"
 "http://www.w3.org/Graphics/SVG/1.1/DTD/svg11.dtd">
<!-- Generated by graphviz version 2.43.0 (0)
 -->
<!-- Title: GameMatrix&lt; T &gt;::SizeError Pages: 1 -->
<svg width="157pt" height="157pt"
 viewBox="0.00 0.00 157.00 157.00" xmlns="http://www.w3.org/2000/svg" xmlns:xlink="http://www.w3.org/1999/xlink">
<g id="graph0" class="graph" transform="scale(1 1) rotate(0) translate(4 153)">
<title>GameMatrix&lt; T &gt;::SizeError</title>
<!-- Node1 -->
<g id="Node000001" class="node">
<title>Node1</title>
<g id="a_Node000001"><a xlink:title=" ">
<polygon fill="#999999" stroke="transparent" points="149,-64 0,-64 0,0 149,0 149,-64"/>
<text text-anchor="start" x="5.5" y="-52" font-family="Helvetica,sans-Serif" font-size="10.00">GameMatrix&lt; T &gt;::SizeError</text>
<text text-anchor="start" x="73" y="-37" font-family="Helvetica,sans-Serif" font-size="10.00"> </text>
<text text-anchor="start" x="23.5" y="-22" font-family="Helvetica,sans-Serif" font-size="10.00">+</text>
<text text-anchor="start" x="55.5" y="-22" font-family="Helvetica,sans-Serif" font-size="10.00">SizeError()</text>
<text text-anchor="start" x="23.5" y="-7" font-family="Helvetica,sans-Serif" font-size="10.00">+</text>
<text text-anchor="start" x="55.5" y="-7" font-family="Helvetica,sans-Serif" font-size="10.00">what()</text>
<polygon fill="#666666" stroke="#666666" points="0.5,-47 0.5,-47 149.5,-47 149.5,-47 0.5,-47"/>
<polygon fill="#666666" stroke="#666666" points="0.5,-32 0.5,-32 149.5,-32 149.5,-32 0.5,-32"/>
<polygon fill="none" stroke="#666666" points="0,0 0,-64 149,-64 149,0 0,0"/>
</a>
</g>
</g>
<!-- Node2 -->
<g id="Node000002" class="node">
<title>Node2</title>
<g id="a_Node000002"><a xlink:title=" ">
<polygon fill="white" stroke="transparent" points="114.5,-149 34.5,-149 34.5,-100 114.5,-100 114.5,-149"/>
<text text-anchor="start" x="39.5" y="-136.5" font-family="Helvetica,sans-Serif" font-size="10.00">std::exception</text>
<text text-anchor="start" x="72.5" y="-121.5" font-family="Helvetica,sans-Serif" font-size="10.00"> </text>
<text text-anchor="start" x="72.5" y="-106.5" font-family="Helvetica,sans-Serif" font-size="10.00"> </text>
<polygon fill="#666666" stroke="#666666" points="34.5,-131.5 34.5,-131.5 114.5,-131.5 114.5,-131.5 34.5,-131.5"/>
<polygon fill="#666666" stroke="#666666" points="34.5,-116.5 34.5,-116.5 114.5,-116.5 114.5,-116.5 34.5,-116.5"/>
<polygon fill="none" stroke="#666666" points="34.5,-100 34.5,-149 114.5,-149 114.5,-100 34.5,-100"/>
</a>
</g>
</g>
<!-- Node2&#45;&gt;Node1 -->
<g id="edge1_Node000001_Node000002" class="edge">
<title>Node2&#45;&gt;Node1</title>
<g id="a_edge1_Node000001_Node000002"><a xlink:title=" ">
<path fill="none" stroke="#63b8ff" d="M74.5,-89.54C74.5,-81.2 74.5,-72.31 74.5,-64.11"/>
<polygon fill="none" stroke="#63b8ff" points="71,-89.72 74.5,-99.72 78,-89.72 71,-89.72"/>
</a>
</g>
</g>
</g>
</svg>
