<?xml version="1.0" encoding="UTF-8" standalone="no"?>
<!DOCTYPE svg PUBLIC "-//W3C//DTD SVG 1.1//EN"
 "http://www.w3.org/Graphics/SVG/1.1/DTD/svg11.dtd">
<!-- Generated by graphviz version 2.43.0 (0)
 -->
<!-- Title: DlLoader::sym Pages: 1 -->
<svg width="226pt" height="64pt"
 viewBox="0.00 0.00 226.00 64.00" xmlns="http://www.w3.org/2000/svg" xmlns:xlink="http://www.w3.org/1999/xlink">
<g id="graph0" class="graph" transform="scale(1 1) rotate(0) translate(4 60)">
<title>DlLoader::sym</title>
<!-- Node1 -->
<g id="Node000001" class="node">
<title>Node1</title>
<g id="a_Node000001"><a xlink:title=" ">
<polygon fill="#999999" stroke="#666666" points="218,-37 131,-37 131,-18 218,-18 218,-37"/>
<text text-anchor="middle" x="174.5" y="-25" font-family="Helvetica,sans-Serif" font-size="10.00">DlLoader::sym</text>
</a>
</g>
</g>
<!-- Node2 -->
<g id="Node000002" class="node">
<title>Node2</title>
<g id="a_Node000002"><a xlink:href="classDisplay.html#a6980f3fec4e8534e7f843f3da48d732a" target="_top" xlink:title=" ">
<polygon fill="white" stroke="#666666" points="95,-56 0,-56 0,-37 95,-37 95,-56"/>
<text text-anchor="middle" x="47.5" y="-44" font-family="Helvetica,sans-Serif" font-size="10.00">Display::Display</text>
</a>
</g>
</g>
<!-- Node1&#45;&gt;Node2 -->
<g id="edge1_Node000001_Node000002" class="edge">
<title>Node1&#45;&gt;Node2</title>
<g id="a_edge1_Node000001_Node000002"><a xlink:title=" ">
<path fill="none" stroke="#63b8ff" d="M120.69,-35.53C112.24,-36.81 103.55,-38.13 95.26,-39.39"/>
<polygon fill="#63b8ff" stroke="#63b8ff" points="121.47,-38.95 130.83,-33.99 120.42,-32.03 121.47,-38.95"/>
</a>
</g>
</g>
<!-- Node3 -->
<g id="Node000003" class="node">
<title>Node3</title>
<g id="a_Node000003"><a xlink:href="classGame.html#a670f1e1c571f925ca1905b3f64e2642b" target="_top" xlink:title=" ">
<polygon fill="white" stroke="#666666" points="88,-19 7,-19 7,0 88,0 88,-19"/>
<text text-anchor="middle" x="47.5" y="-7" font-family="Helvetica,sans-Serif" font-size="10.00">Game::Game</text>
</a>
</g>
</g>
<!-- Node1&#45;&gt;Node3 -->
<g id="edge2_Node000001_Node000003" class="edge">
<title>Node1&#45;&gt;Node3</title>
<g id="a_edge2_Node000001_Node000003"><a xlink:title=" ">
<path fill="none" stroke="#63b8ff" d="M120.89,-19.92C109.88,-18.34 98.46,-16.69 88.03,-15.19"/>
<polygon fill="#63b8ff" stroke="#63b8ff" points="120.43,-23.39 130.83,-21.36 121.43,-16.47 120.43,-23.39"/>
</a>
</g>
</g>
</g>
</svg>
