<?xml version="1.0" encoding="UTF-8" standalone="no"?>
<!DOCTYPE svg PUBLIC "-//W3C//DTD SVG 1.1//EN"
 "http://www.w3.org/Graphics/SVG/1.1/DTD/svg11.dtd">
<!-- Generated by graphviz version 2.43.0 (0)
 -->
<!-- Title: games/Snake Pages: 1 -->
<svg width="152pt" height="180pt"
 viewBox="0.00 0.00 152.00 180.00" xmlns="http://www.w3.org/2000/svg" xmlns:xlink="http://www.w3.org/1999/xlink">
<g id="graph0" class="graph" transform="scale(1 1) rotate(0) translate(4 176)">
<title>games/Snake</title>
<g id="clust1" class="cluster">
<title>clusterdir_4b6f782e158b0b98da980a0e11a23a15</title>
<g id="a_clust1"><a xlink:href="dir_4b6f782e158b0b98da980a0e11a23a15.html" target="_top" xlink:title="games">
<polygon fill="#edf0f7" stroke="#404040" stroke-dasharray="5,2" points="8,-39 8,-164 136,-164 136,-39 8,-39"/>
<text text-anchor="middle" x="72" y="-152" font-family="Helvetica,sans-Serif" font-size="10.00">games</text>
</a>
</g>
</g>
<g id="clust2" class="cluster">
<title>clusterdir_28f832f96077dd41e42a6c771dd821e0</title>
<g id="a_clust2"><a xlink:href="dir_28f832f96077dd41e42a6c771dd821e0.html" target="_top">
<polygon fill="#edf0f7" stroke="#404040" stroke-width="2" points="16,-47 16,-137 128,-137 128,-47 16,-47"/>
</a>
</g>
</g>
<!-- dir_28f832f96077dd41e42a6c771dd821e0 -->
<g id="node1" class="node">
<title>dir_28f832f96077dd41e42a6c771dd821e0</title>
<text text-anchor="middle" x="97" y="-117" font-family="Helvetica,sans-Serif" font-size="10.00">Snake</text>
</g>
<!-- dir_8eb95f3f51988000977901b8ea4ecd47 -->
<g id="node2" class="node">
<title>dir_8eb95f3f51988000977901b8ea4ecd47</title>
<g id="a_node2"><a xlink:href="dir_8eb95f3f51988000977901b8ea4ecd47.html" target="_top" xlink:title="include">
<polygon fill="#a2b4d6" stroke="#404040" points="76,-74 24,-74 24,-55 76,-55 76,-74"/>
<text text-anchor="middle" x="50" y="-62" font-family="Helvetica,sans-Serif" font-size="10.00">include</text>
</a>
</g>
</g>
<!-- dir_9982052f7ce695d12571567315b2fafa -->
<g id="node4" class="node">
<title>dir_9982052f7ce695d12571567315b2fafa</title>
<g id="a_node4"><a xlink:href="dir_9982052f7ce695d12571567315b2fafa.html" target="_top" xlink:title="shared">
<polygon fill="#edf0f7" stroke="red" points="102,-19 52,-19 52,0 102,0 102,-19"/>
<text text-anchor="middle" x="77" y="-7" font-family="Helvetica,sans-Serif" font-size="10.00">shared</text>
</a>
</g>
</g>
<!-- dir_8eb95f3f51988000977901b8ea4ecd47&#45;&gt;dir_9982052f7ce695d12571567315b2fafa -->
<g id="edge1" class="edge">
<title>dir_8eb95f3f51988000977901b8ea4ecd47&#45;&gt;dir_9982052f7ce695d12571567315b2fafa</title>
<g id="a_edge1"><a xlink:href="dir_000006_000016.html" target="_top">
<path fill="none" stroke="#63b8ff" d="M54.46,-54.75C58.12,-47.57 63.41,-37.18 67.95,-28.27"/>
<polygon fill="#63b8ff" stroke="#63b8ff" points="71.2,-29.59 72.62,-19.09 64.97,-26.41 71.2,-29.59"/>
</a>
</g>
<g id="a_edge1&#45;headlabel"><a xlink:href="dir_000006_000016.html" target="_top" xlink:title="4">
<text text-anchor="middle" x="72.1" y="-31.58" font-family="Helvetica,sans-Serif" font-size="10.00" fill="#63b8ff">4</text>
</a>
</g>
</g>
<!-- dir_658c640cf4f2b8faf3da4642fa3ad71a -->
<g id="node3" class="node">
<title>dir_658c640cf4f2b8faf3da4642fa3ad71a</title>
<g id="a_node3"><a xlink:href="dir_658c640cf4f2b8faf3da4642fa3ad71a.html" target="_top" xlink:title="src">
<polygon fill="#a2b4d6" stroke="#404040" points="55.5,-129 24.5,-129 24.5,-110 55.5,-110 55.5,-129"/>
<text text-anchor="middle" x="40" y="-117" font-family="Helvetica,sans-Serif" font-size="10.00">src</text>
</a>
</g>
</g>
<!-- dir_658c640cf4f2b8faf3da4642fa3ad71a&#45;&gt;dir_8eb95f3f51988000977901b8ea4ecd47 -->
<g id="edge2" class="edge">
<title>dir_658c640cf4f2b8faf3da4642fa3ad71a&#45;&gt;dir_8eb95f3f51988000977901b8ea4ecd47</title>
<g id="a_edge2"><a xlink:href="dir_000021_000006.html" target="_top">
<path fill="none" stroke="#63b8ff" d="M41.65,-109.75C42.96,-102.8 44.84,-92.85 46.48,-84.13"/>
<polygon fill="#63b8ff" stroke="#63b8ff" points="49.96,-84.56 48.38,-74.09 43.09,-83.27 49.96,-84.56"/>
</a>
</g>
<g id="a_edge2&#45;headlabel"><a xlink:href="dir_000021_000006.html" target="_top" xlink:title="1">
<text text-anchor="middle" x="52.09" y="-86.12" font-family="Helvetica,sans-Serif" font-size="10.00" fill="#63b8ff">1</text>
</a>
</g>
</g>
<!-- dir_658c640cf4f2b8faf3da4642fa3ad71a&#45;&gt;dir_9982052f7ce695d12571567315b2fafa -->
<g id="edge3" class="edge">
<title>dir_658c640cf4f2b8faf3da4642fa3ad71a&#45;&gt;dir_9982052f7ce695d12571567315b2fafa</title>
<g id="a_edge3"><a xlink:href="dir_000021_000016.html" target="_top">
<path fill="none" stroke="#63b8ff" d="M53.49,-109.75C64.29,-101.87 78.65,-89.21 85,-74 91.02,-59.58 88.01,-41.84 84.08,-28.78"/>
<polygon fill="#63b8ff" stroke="#63b8ff" points="87.3,-27.4 80.73,-19.09 80.69,-29.68 87.3,-27.4"/>
</a>
</g>
<g id="a_edge3&#45;headlabel"><a xlink:href="dir_000021_000016.html" target="_top" xlink:title="4">
<text text-anchor="middle" x="91.16" y="-27.37" font-family="Helvetica,sans-Serif" font-size="10.00" fill="#63b8ff">4</text>
</a>
</g>
</g>
</g>
</svg>
