<?xml version="1.0" encoding="UTF-8" standalone="no"?>
<!DOCTYPE svg PUBLIC "-//W3C//DTD SVG 1.1//EN"
 "http://www.w3.org/Graphics/SVG/1.1/DTD/svg11.dtd">
<!-- Generated by graphviz version 2.43.0 (0)
 -->
<!-- Title: shared/include/DisplayVariable.hpp Pages: 1 -->
<svg width="733pt" height="159pt"
 viewBox="0.00 0.00 732.50 159.00" xmlns="http://www.w3.org/2000/svg" xmlns:xlink="http://www.w3.org/1999/xlink">
<g id="graph0" class="graph" transform="scale(1 1) rotate(0) translate(4 155)">
<title>shared/include/DisplayVariable.hpp</title>
<!-- Node1 -->
<g id="Node000001" class="node">
<title>Node1</title>
<g id="a_Node000001"><a xlink:title=" ">
<polygon fill="#999999" stroke="#666666" points="515.5,-151 327.5,-151 327.5,-132 515.5,-132 515.5,-151"/>
<text text-anchor="middle" x="421.5" y="-139" font-family="Helvetica,sans-Serif" font-size="10.00">shared/include/DisplayVariable.hpp</text>
</a>
</g>
</g>
<!-- Node2 -->
<g id="Node000002" class="node">
<title>Node2</title>
<g id="a_Node000002"><a xlink:href="Menu_8cpp.html" target="_top" xlink:title=" ">
<polygon fill="white" stroke="#666666" points="147,-90.5 0,-90.5 0,-71.5 147,-71.5 147,-90.5"/>
<text text-anchor="middle" x="73.5" y="-78.5" font-family="Helvetica,sans-Serif" font-size="10.00">games/Menu/src/Menu.cpp</text>
</a>
</g>
</g>
<!-- Node1&#45;&gt;Node2 -->
<g id="edge1_Node000001_Node000002" class="edge">
<title>Node1&#45;&gt;Node2</title>
<g id="a_edge1_Node000001_Node000002"><a xlink:title=" ">
<path fill="none" stroke="#63b8ff" d="M360.65,-130.3C306.94,-121.28 226.51,-107.78 156.5,-96 145.98,-94.23 134.71,-92.33 123.98,-90.52"/>
<polygon fill="#63b8ff" stroke="#63b8ff" points="360.25,-133.78 370.7,-131.98 361.41,-126.87 360.25,-133.78"/>
</a>
</g>
</g>
<!-- Node3 -->
<g id="Node000003" class="node">
<title>Node3</title>
<g id="a_Node000003"><a xlink:href="Ncurses_8hpp.html" target="_top" xlink:title=" ">
<polygon fill="white" stroke="#666666" points="303.5,-96 165.5,-96 165.5,-66 303.5,-66 303.5,-96"/>
<text text-anchor="start" x="173.5" y="-84" font-family="Helvetica,sans-Serif" font-size="10.00">graphics/Ncurses/include</text>
<text text-anchor="middle" x="234.5" y="-73" font-family="Helvetica,sans-Serif" font-size="10.00">/Ncurses.hpp</text>
</a>
</g>
</g>
<!-- Node1&#45;&gt;Node3 -->
<g id="edge2_Node000001_Node000003" class="edge">
<title>Node1&#45;&gt;Node3</title>
<g id="a_edge2_Node000001_Node000003"><a xlink:title=" ">
<path fill="none" stroke="#63b8ff" d="M384.59,-128.95C354.41,-119.51 311.63,-106.13 279.46,-96.06"/>
<polygon fill="#63b8ff" stroke="#63b8ff" points="383.72,-132.35 394.31,-131.99 385.81,-125.67 383.72,-132.35"/>
</a>
</g>
</g>
<!-- Node4 -->
<g id="Node000004" class="node">
<title>Node4</title>
<g id="a_Node000004"><a xlink:href="Ncurses_8cpp.html" target="_top" xlink:title=" ">
<polygon fill="white" stroke="#666666" points="316,-30 199,-30 199,0 316,0 316,-30"/>
<text text-anchor="start" x="207" y="-18" font-family="Helvetica,sans-Serif" font-size="10.00">graphics/Ncurses/src</text>
<text text-anchor="middle" x="257.5" y="-7" font-family="Helvetica,sans-Serif" font-size="10.00">/Ncurses.cpp</text>
</a>
</g>
</g>
<!-- Node1&#45;&gt;Node4 -->
<g id="edge4_Node000001_Node000004" class="edge">
<title>Node1&#45;&gt;Node4</title>
<g id="a_edge4_Node000001_Node000004"><a xlink:title=" ">
<path fill="none" stroke="#63b8ff" d="M397.77,-126.85C383.69,-118.45 365.68,-107.19 350.5,-96 321.53,-74.65 290.28,-46.62 272.38,-30.04"/>
<polygon fill="#63b8ff" stroke="#63b8ff" points="395.99,-129.87 406.39,-131.92 399.55,-123.83 395.99,-129.87"/>
</a>
</g>
</g>
<!-- Node5 -->
<g id="Node000005" class="node">
<title>Node5</title>
<g id="a_Node000005"><a xlink:href="SDL2_8hpp.html" target="_top" xlink:title=" ">
<polygon fill="white" stroke="#666666" points="483.5,-96 359.5,-96 359.5,-66 483.5,-66 483.5,-96"/>
<text text-anchor="start" x="367.5" y="-84" font-family="Helvetica,sans-Serif" font-size="10.00">graphics/SDL2/include</text>
<text text-anchor="middle" x="421.5" y="-73" font-family="Helvetica,sans-Serif" font-size="10.00">/SDL2.hpp</text>
</a>
</g>
</g>
<!-- Node1&#45;&gt;Node5 -->
<g id="edge5_Node000001_Node000005" class="edge">
<title>Node1&#45;&gt;Node5</title>
<g id="a_edge5_Node000001_Node000005"><a xlink:title=" ">
<path fill="none" stroke="#63b8ff" d="M421.5,-121.65C421.5,-113.36 421.5,-103.78 421.5,-96.11"/>
<polygon fill="#63b8ff" stroke="#63b8ff" points="418,-121.87 421.5,-131.87 425,-121.87 418,-121.87"/>
</a>
</g>
</g>
<!-- Node6 -->
<g id="Node000006" class="node">
<title>Node6</title>
<g id="a_Node000006"><a xlink:href="SDL2_8cpp.html" target="_top" xlink:title=" ">
<polygon fill="white" stroke="#666666" points="502,-24.5 351,-24.5 351,-5.5 502,-5.5 502,-24.5"/>
<text text-anchor="middle" x="426.5" y="-12.5" font-family="Helvetica,sans-Serif" font-size="10.00">graphics/SDL2/src/SDL2.cpp</text>
</a>
</g>
</g>
<!-- Node1&#45;&gt;Node6 -->
<g id="edge7_Node000001_Node000006" class="edge">
<title>Node1&#45;&gt;Node6</title>
<g id="a_edge7_Node000001_Node000006"><a xlink:title=" ">
<path fill="none" stroke="#63b8ff" d="M456.39,-127.5C470.21,-120.43 484.66,-110.17 492.5,-96 498.96,-84.33 498.43,-77.94 492.5,-66 482.84,-46.56 461.61,-32.66 445.83,-24.52"/>
<polygon fill="#63b8ff" stroke="#63b8ff" points="454.58,-124.48 447.01,-131.9 457.55,-130.82 454.58,-124.48"/>
</a>
</g>
</g>
<!-- Node7 -->
<g id="Node000007" class="node">
<title>Node7</title>
<g id="a_Node000007"><a xlink:href="SFML_8hpp.html" target="_top" xlink:title=" ">
<polygon fill="white" stroke="#666666" points="665,-96 540,-96 540,-66 665,-66 665,-96"/>
<text text-anchor="start" x="548" y="-84" font-family="Helvetica,sans-Serif" font-size="10.00">graphics/SFML/include</text>
<text text-anchor="middle" x="602.5" y="-73" font-family="Helvetica,sans-Serif" font-size="10.00">/SFML.hpp</text>
</a>
</g>
</g>
<!-- Node1&#45;&gt;Node7 -->
<g id="edge8_Node000001_Node000007" class="edge">
<title>Node1&#45;&gt;Node7</title>
<g id="a_edge8_Node000001_Node000007"><a xlink:title=" ">
<path fill="none" stroke="#63b8ff" d="M457.61,-128.83C486.79,-119.4 527.98,-106.09 558.98,-96.06"/>
<polygon fill="#63b8ff" stroke="#63b8ff" points="456.26,-125.59 447.82,-131.99 458.41,-132.25 456.26,-125.59"/>
</a>
</g>
</g>
<!-- Node8 -->
<g id="Node000008" class="node">
<title>Node8</title>
<g id="a_Node000008"><a xlink:href="SFML_8cpp.html" target="_top" xlink:title=" ">
<polygon fill="white" stroke="#666666" points="724.5,-24.5 570.5,-24.5 570.5,-5.5 724.5,-5.5 724.5,-24.5"/>
<text text-anchor="middle" x="647.5" y="-12.5" font-family="Helvetica,sans-Serif" font-size="10.00">graphics/SFML/src/SFML.cpp</text>
</a>
</g>
</g>
<!-- Node1&#45;&gt;Node8 -->
<g id="edge10_Node000001_Node000008" class="edge">
<title>Node1&#45;&gt;Node8</title>
<g id="a_edge10_Node000001_Node000008"><a xlink:title=" ">
<path fill="none" stroke="#63b8ff" d="M525.56,-135.36C586.18,-129.93 654.36,-118.81 673.5,-96 691.43,-74.63 668.13,-40.62 655.14,-24.72"/>
<polygon fill="#63b8ff" stroke="#63b8ff" points="525.18,-131.87 515.52,-136.21 525.78,-138.85 525.18,-131.87"/>
</a>
</g>
</g>
<!-- Node3&#45;&gt;Node4 -->
<g id="edge3_Node000003_Node000004" class="edge">
<title>Node3&#45;&gt;Node4</title>
<g id="a_edge3_Node000003_Node000004"><a xlink:title=" ">
<path fill="none" stroke="#63b8ff" d="M243.09,-56.11C246.22,-47.38 249.67,-37.78 252.41,-30.16"/>
<polygon fill="#63b8ff" stroke="#63b8ff" points="239.69,-55.2 239.6,-65.8 246.28,-57.57 239.69,-55.2"/>
</a>
</g>
</g>
<!-- Node5&#45;&gt;Node6 -->
<g id="edge6_Node000005_Node000006" class="edge">
<title>Node5&#45;&gt;Node6</title>
<g id="a_edge6_Node000005_Node000006"><a xlink:title=" ">
<path fill="none" stroke="#63b8ff" d="M423.41,-55.6C424.25,-44.8 425.19,-32.78 425.81,-24.84"/>
<polygon fill="#63b8ff" stroke="#63b8ff" points="419.9,-55.55 422.61,-65.8 426.88,-56.1 419.9,-55.55"/>
</a>
</g>
</g>
<!-- Node7&#45;&gt;Node8 -->
<g id="edge9_Node000007_Node000008" class="edge">
<title>Node7&#45;&gt;Node8</title>
<g id="a_edge9_Node000007_Node000008"><a xlink:title=" ">
<path fill="none" stroke="#63b8ff" d="M618.24,-57.61C626.18,-46.32 635.35,-33.28 641.28,-24.84"/>
<polygon fill="#63b8ff" stroke="#63b8ff" points="615.38,-55.6 612.49,-65.8 621.1,-59.63 615.38,-55.6"/>
</a>
</g>
</g>
</g>
</svg>
