<?xml version="1.0" encoding="UTF-8" standalone="no"?>
<!DOCTYPE svg PUBLIC "-//W3C//DTD SVG 1.1//EN"
 "http://www.w3.org/Graphics/SVG/1.1/DTD/svg11.dtd">
<!-- Generated by graphviz version 2.43.0 (0)
 -->
<!-- Title: core/src/Display.cpp Pages: 1 -->
<svg width="960pt" height="357pt"
 viewBox="0.00 0.00 959.50 357.00" xmlns="http://www.w3.org/2000/svg" xmlns:xlink="http://www.w3.org/1999/xlink">
<g id="graph0" class="graph" transform="scale(1 1) rotate(0) translate(4 353)">
<title>core/src/Display.cpp</title>
<!-- Node1 -->
<g id="Node000001" class="node">
<title>Node1</title>
<g id="a_Node000001"><a xlink:title=" ">
<polygon fill="#999999" stroke="#666666" points="727.5,-349 614.5,-349 614.5,-330 727.5,-330 727.5,-349"/>
<text text-anchor="middle" x="671" y="-337" font-family="Helvetica,sans-Serif" font-size="10.00">core/src/Display.cpp</text>
</a>
</g>
</g>
<!-- Node2 -->
<g id="Node000002" class="node">
<title>Node2</title>
<g id="a_Node000002"><a xlink:href="Display_8hpp.html" target="_top" xlink:title=" ">
<polygon fill="white" stroke="#666666" points="675.5,-294 602.5,-294 602.5,-275 675.5,-275 675.5,-294"/>
<text text-anchor="middle" x="639" y="-282" font-family="Helvetica,sans-Serif" font-size="10.00">Display.hpp</text>
</a>
</g>
</g>
<!-- Node1&#45;&gt;Node2 -->
<g id="edge1_Node000001_Node000002" class="edge">
<title>Node1&#45;&gt;Node2</title>
<g id="a_edge1_Node000001_Node000002"><a xlink:title=" ">
<path fill="none" stroke="#63b8ff" d="M665.72,-329.75C661.29,-322.42 654.84,-311.73 649.38,-302.7"/>
<polygon fill="#63b8ff" stroke="#63b8ff" points="652.35,-300.84 644.19,-294.09 646.36,-304.46 652.35,-300.84"/>
</a>
</g>
</g>
<!-- Node3 -->
<g id="Node000003" class="node">
<title>Node3</title>
<g id="a_Node000003"><a xlink:href="IDisplay_8hpp.html" target="_top" xlink:title=" ">
<polygon fill="white" stroke="#666666" points="612,-239 536,-239 536,-220 612,-220 612,-239"/>
<text text-anchor="middle" x="574" y="-227" font-family="Helvetica,sans-Serif" font-size="10.00">IDisplay.hpp</text>
</a>
</g>
</g>
<!-- Node1&#45;&gt;Node3 -->
<g id="edge24_Node000001_Node000003" class="edge">
<title>Node1&#45;&gt;Node3</title>
<g id="a_edge24_Node000001_Node000003"><a xlink:title=" ">
<path fill="none" stroke="#63b8ff" d="M646.59,-329.91C629.6,-322.76 607.62,-310.98 594,-294 583.72,-281.18 578.69,-263.01 576.25,-249.39"/>
<polygon fill="#63b8ff" stroke="#63b8ff" points="579.67,-248.62 574.75,-239.24 572.75,-249.64 579.67,-248.62"/>
</a>
</g>
</g>
<!-- Node13 -->
<g id="Node000013" class="node">
<title>Node13</title>
<g id="a_Node000013"><a xlink:title=" ">
<polygon fill="#e0e0e0" stroke="#999999" points="630.5,-19 565.5,-19 565.5,0 630.5,0 630.5,-19"/>
<text text-anchor="middle" x="598" y="-7" font-family="Helvetica,sans-Serif" font-size="10.00">functional</text>
</a>
</g>
</g>
<!-- Node1&#45;&gt;Node13 -->
<g id="edge26_Node000001_Node000013" class="edge">
<title>Node1&#45;&gt;Node13</title>
<g id="a_edge26_Node000001_Node000013"><a xlink:title=" ">
<path fill="none" stroke="#63b8ff" d="M624.72,-329.95C547.32,-314.32 400,-278.3 400,-230.5 400,-230.5 400,-230.5 400,-118.5 400,-89.04 397.69,-75.33 419,-55 428.92,-45.54 505.63,-28.83 555.36,-18.8"/>
<polygon fill="#63b8ff" stroke="#63b8ff" points="556.1,-22.22 565.22,-16.82 554.73,-15.36 556.1,-22.22"/>
</a>
</g>
</g>
<!-- Node18 -->
<g id="Node000018" class="node">
<title>Node18</title>
<g id="a_Node000018"><a xlink:href="IGame_8hpp.html" target="_top" xlink:title=" ">
<polygon fill="white" stroke="#666666" points="574,-184 504,-184 504,-165 574,-165 574,-184"/>
<text text-anchor="middle" x="539" y="-172" font-family="Helvetica,sans-Serif" font-size="10.00">IGame.hpp</text>
</a>
</g>
</g>
<!-- Node1&#45;&gt;Node18 -->
<g id="edge25_Node000001_Node000018" class="edge">
<title>Node1&#45;&gt;Node18</title>
<g id="a_edge25_Node000001_Node000018"><a xlink:title=" ">
<path fill="none" stroke="#63b8ff" d="M643.39,-329.98C607.42,-317.09 546.77,-288.69 527,-239 521.11,-224.19 525.45,-206.27 530.48,-193.25"/>
<polygon fill="#63b8ff" stroke="#63b8ff" points="533.72,-194.57 534.48,-184.01 527.3,-191.79 533.72,-194.57"/>
</a>
</g>
</g>
<!-- Node20 -->
<g id="Node000020" class="node">
<title>Node20</title>
<g id="a_Node000020"><a xlink:title=" ">
<polygon fill="#e0e0e0" stroke="#999999" points="764,-239 706,-239 706,-220 764,-220 764,-239"/>
<text text-anchor="middle" x="735" y="-227" font-family="Helvetica,sans-Serif" font-size="10.00">memory</text>
</a>
</g>
</g>
<!-- Node1&#45;&gt;Node20 -->
<g id="edge27_Node000001_Node000020" class="edge">
<title>Node1&#45;&gt;Node20</title>
<g id="a_edge27_Node000001_Node000020"><a xlink:title=" ">
<path fill="none" stroke="#63b8ff" d="M676.24,-329.66C686.79,-311.85 710.78,-271.37 724.63,-248.01"/>
<polygon fill="#63b8ff" stroke="#63b8ff" points="727.78,-249.55 729.87,-239.16 721.76,-245.98 727.78,-249.55"/>
</a>
</g>
</g>
<!-- Node21 -->
<g id="Node000021" class="node">
<title>Node21</title>
<g id="a_Node000021"><a xlink:title=" ">
<polygon fill="#e0e0e0" stroke="#999999" points="789.5,-294 732.5,-294 732.5,-275 789.5,-275 789.5,-294"/>
<text text-anchor="middle" x="761" y="-282" font-family="Helvetica,sans-Serif" font-size="10.00">ostream</text>
</a>
</g>
</g>
<!-- Node1&#45;&gt;Node21 -->
<g id="edge28_Node000001_Node000021" class="edge">
<title>Node1&#45;&gt;Node21</title>
<g id="a_edge28_Node000001_Node000021"><a xlink:title=" ">
<path fill="none" stroke="#63b8ff" d="M685.46,-329.98C699.42,-321.77 720.79,-309.18 737.25,-299.49"/>
<polygon fill="#63b8ff" stroke="#63b8ff" points="739.44,-302.26 746.28,-294.17 735.88,-296.23 739.44,-302.26"/>
</a>
</g>
</g>
<!-- Node22 -->
<g id="Node000022" class="node">
<title>Node22</title>
<g id="a_Node000022"><a xlink:title=" ">
<polygon fill="#e0e0e0" stroke="#999999" points="868,-294 808,-294 808,-275 868,-275 868,-294"/>
<text text-anchor="middle" x="838" y="-282" font-family="Helvetica,sans-Serif" font-size="10.00">iostream</text>
</a>
</g>
</g>
<!-- Node1&#45;&gt;Node22 -->
<g id="edge29_Node000001_Node000022" class="edge">
<title>Node1&#45;&gt;Node22</title>
<g id="a_edge29_Node000001_Node000022"><a xlink:title=" ">
<path fill="none" stroke="#63b8ff" d="M697.83,-329.98C725.87,-321.09 770.05,-307.07 801.3,-297.15"/>
<polygon fill="#63b8ff" stroke="#63b8ff" points="802.49,-300.44 810.96,-294.08 800.37,-293.77 802.49,-300.44"/>
</a>
</g>
</g>
<!-- Node23 -->
<g id="Node000023" class="node">
<title>Node23</title>
<g id="a_Node000023"><a xlink:title=" ">
<polygon fill="#e0e0e0" stroke="#999999" points="951.5,-294 886.5,-294 886.5,-275 951.5,-275 951.5,-294"/>
<text text-anchor="middle" x="919" y="-282" font-family="Helvetica,sans-Serif" font-size="10.00">stdexcept</text>
</a>
</g>
</g>
<!-- Node1&#45;&gt;Node23 -->
<g id="edge30_Node000001_Node000023" class="edge">
<title>Node1&#45;&gt;Node23</title>
<g id="a_edge30_Node000001_Node000023"><a xlink:title=" ">
<path fill="none" stroke="#63b8ff" d="M710.85,-329.98C756.16,-320.3 829.87,-304.55 876.33,-294.62"/>
<polygon fill="#63b8ff" stroke="#63b8ff" points="877.33,-297.98 886.38,-292.47 875.87,-291.14 877.33,-297.98"/>
</a>
</g>
</g>
<!-- Node2&#45;&gt;Node3 -->
<g id="edge2_Node000002_Node000003" class="edge">
<title>Node2&#45;&gt;Node3</title>
<g id="a_edge2_Node000002_Node000003"><a xlink:title=" ">
<path fill="none" stroke="#63b8ff" d="M628.56,-274.98C618.85,-267.07 604.18,-255.11 592.5,-245.58"/>
<polygon fill="#63b8ff" stroke="#63b8ff" points="594.6,-242.78 584.63,-239.17 590.17,-248.2 594.6,-242.78"/>
</a>
</g>
</g>
<!-- Node17 -->
<g id="Node000017" class="node">
<title>Node17</title>
<g id="a_Node000017"><a xlink:title=" ">
<polygon fill="#e0e0e0" stroke="#999999" points="625.5,-129 578.5,-129 578.5,-110 625.5,-110 625.5,-129"/>
<text text-anchor="middle" x="602" y="-117" font-family="Helvetica,sans-Serif" font-size="10.00">queue</text>
</a>
</g>
</g>
<!-- Node2&#45;&gt;Node17 -->
<g id="edge23_Node000002_Node000017" class="edge">
<title>Node2&#45;&gt;Node17</title>
<g id="a_edge23_Node000002_Node000017"><a xlink:title=" ">
<path fill="none" stroke="#63b8ff" d="M637.01,-274.74C631.21,-249.2 614.24,-174.43 606.25,-139.23"/>
<polygon fill="#63b8ff" stroke="#63b8ff" points="609.63,-138.28 604,-129.31 602.8,-139.83 609.63,-138.28"/>
</a>
</g>
</g>
<!-- Node19 -->
<g id="Node000019" class="node">
<title>Node19</title>
<g id="a_Node000019"><a xlink:href="DlLoader_8hpp.html" target="_top" xlink:title=" ">
<polygon fill="white" stroke="#666666" points="768,-184 688,-184 688,-165 768,-165 768,-184"/>
<text text-anchor="middle" x="728" y="-172" font-family="Helvetica,sans-Serif" font-size="10.00">DlLoader.hpp</text>
</a>
</g>
</g>
<!-- Node2&#45;&gt;Node19 -->
<g id="edge20_Node000002_Node000019" class="edge">
<title>Node2&#45;&gt;Node19</title>
<g id="a_edge20_Node000002_Node000019"><a xlink:title=" ">
<path fill="none" stroke="#63b8ff" d="M646.28,-274.66C661.16,-256.61 695.22,-215.28 714.34,-192.08"/>
<polygon fill="#63b8ff" stroke="#63b8ff" points="717.21,-194.1 720.86,-184.16 711.8,-189.65 717.21,-194.1"/>
</a>
</g>
</g>
<!-- Node2&#45;&gt;Node20 -->
<g id="edge22_Node000002_Node000020" class="edge">
<title>Node2&#45;&gt;Node20</title>
<g id="a_edge22_Node000002_Node000020"><a xlink:title=" ">
<path fill="none" stroke="#63b8ff" d="M654.42,-274.98C669.45,-266.69 692.54,-253.94 710.16,-244.22"/>
<polygon fill="#63b8ff" stroke="#63b8ff" points="712.23,-247.07 719.3,-239.17 708.85,-240.94 712.23,-247.07"/>
</a>
</g>
</g>
<!-- Node4 -->
<g id="Node000004" class="node">
<title>Node4</title>
<g id="a_Node000004"><a xlink:href="gfx_8hpp.html" target="_top" xlink:title=" ">
<polygon fill="white" stroke="#666666" points="550.5,-129 497.5,-129 497.5,-110 550.5,-110 550.5,-129"/>
<text text-anchor="middle" x="524" y="-117" font-family="Helvetica,sans-Serif" font-size="10.00">gfx.hpp</text>
</a>
</g>
</g>
<!-- Node3&#45;&gt;Node4 -->
<g id="edge3_Node000003_Node000004" class="edge">
<title>Node3&#45;&gt;Node4</title>
<g id="a_edge3_Node000003_Node000004"><a xlink:title=" ">
<path fill="none" stroke="#63b8ff" d="M543.73,-219.92C526.16,-213.21 505.48,-201.94 495,-184 486.07,-168.72 496.76,-150.21 507.6,-137.13"/>
<polygon fill="#63b8ff" stroke="#63b8ff" points="510.46,-139.18 514.53,-129.41 505.25,-134.51 510.46,-139.18"/>
</a>
</g>
</g>
<!-- Node3&#45;&gt;Node17 -->
<g id="edge16_Node000003_Node000017" class="edge">
<title>Node3&#45;&gt;Node17</title>
<g id="a_edge16_Node000003_Node000017"><a xlink:title=" ">
<path fill="none" stroke="#63b8ff" d="M576.29,-219.66C580.85,-202.09 591.12,-162.45 597.22,-138.95"/>
<polygon fill="#63b8ff" stroke="#63b8ff" points="600.63,-139.72 599.76,-129.16 593.86,-137.96 600.63,-139.72"/>
</a>
</g>
</g>
<!-- Node3&#45;&gt;Node18 -->
<g id="edge17_Node000003_Node000018" class="edge">
<title>Node3&#45;&gt;Node18</title>
<g id="a_edge17_Node000003_Node000018"><a xlink:title=" ">
<path fill="none" stroke="#63b8ff" d="M568.22,-219.75C563.38,-212.42 556.32,-201.73 550.36,-192.7"/>
<polygon fill="#63b8ff" stroke="#63b8ff" points="553.1,-190.5 544.67,-184.09 547.26,-194.36 553.1,-190.5"/>
</a>
</g>
</g>
<!-- Node5 -->
<g id="Node000005" class="node">
<title>Node5</title>
<g id="a_Node000005"><a xlink:title=" ">
<polygon fill="#e0e0e0" stroke="#999999" points="550.5,-74 497.5,-74 497.5,-55 550.5,-55 550.5,-74"/>
<text text-anchor="middle" x="524" y="-62" font-family="Helvetica,sans-Serif" font-size="10.00">cstddef</text>
</a>
</g>
</g>
<!-- Node4&#45;&gt;Node5 -->
<g id="edge4_Node000004_Node000005" class="edge">
<title>Node4&#45;&gt;Node5</title>
<g id="a_edge4_Node000004_Node000005"><a xlink:title=" ">
<path fill="none" stroke="#63b8ff" d="M524,-109.75C524,-102.8 524,-92.85 524,-84.13"/>
<polygon fill="#63b8ff" stroke="#63b8ff" points="527.5,-84.09 524,-74.09 520.5,-84.09 527.5,-84.09"/>
</a>
</g>
</g>
<!-- Node6 -->
<g id="Node000006" class="node">
<title>Node6</title>
<g id="a_Node000006"><a xlink:href="Keys_8hpp.html" target="_top" xlink:title=" ">
<polygon fill="white" stroke="#666666" points="371.5,-74 310.5,-74 310.5,-55 371.5,-55 371.5,-74"/>
<text text-anchor="middle" x="341" y="-62" font-family="Helvetica,sans-Serif" font-size="10.00">Keys.hpp</text>
</a>
</g>
</g>
<!-- Node4&#45;&gt;Node6 -->
<g id="edge5_Node000004_Node000006" class="edge">
<title>Node4&#45;&gt;Node6</title>
<g id="a_edge5_Node000004_Node000006"><a xlink:title=" ">
<path fill="none" stroke="#63b8ff" d="M497.39,-110.79C466.62,-101.88 415.69,-87.13 380.35,-76.9"/>
<polygon fill="#63b8ff" stroke="#63b8ff" points="380.95,-73.43 370.37,-74.01 379,-80.15 380.95,-73.43"/>
</a>
</g>
</g>
<!-- Node12 -->
<g id="Node000012" class="node">
<title>Node12</title>
<g id="a_Node000012"><a xlink:href="shape_8hpp.html" target="_top" xlink:title=" ">
<polygon fill="white" stroke="#666666" points="635.5,-74 568.5,-74 568.5,-55 635.5,-55 635.5,-74"/>
<text text-anchor="middle" x="602" y="-62" font-family="Helvetica,sans-Serif" font-size="10.00">shape.hpp</text>
</a>
</g>
</g>
<!-- Node4&#45;&gt;Node12 -->
<g id="edge11_Node000004_Node000012" class="edge">
<title>Node4&#45;&gt;Node12</title>
<g id="a_edge11_Node000004_Node000012"><a xlink:title=" ">
<path fill="none" stroke="#63b8ff" d="M536.53,-109.98C548.4,-101.92 566.46,-89.65 580.61,-80.03"/>
<polygon fill="#63b8ff" stroke="#63b8ff" points="582.94,-82.69 589.24,-74.17 579,-76.9 582.94,-82.69"/>
</a>
</g>
</g>
<!-- Node15 -->
<g id="Node000015" class="node">
<title>Node15</title>
<g id="a_Node000015"><a xlink:title=" ">
<polygon fill="#e0e0e0" stroke="#999999" points="710,-74 654,-74 654,-55 710,-55 710,-74"/>
<text text-anchor="middle" x="682" y="-62" font-family="Helvetica,sans-Serif" font-size="10.00">optional</text>
</a>
</g>
</g>
<!-- Node4&#45;&gt;Node15 -->
<g id="edge14_Node000004_Node000015" class="edge">
<title>Node4&#45;&gt;Node15</title>
<g id="a_edge14_Node000004_Node000015"><a xlink:title=" ">
<path fill="none" stroke="#63b8ff" d="M549.39,-109.98C575.8,-101.13 617.35,-87.19 646.89,-77.28"/>
<polygon fill="#63b8ff" stroke="#63b8ff" points="648.05,-80.58 656.42,-74.08 645.82,-73.94 648.05,-80.58"/>
</a>
</g>
</g>
<!-- Node16 -->
<g id="Node000016" class="node">
<title>Node16</title>
<g id="a_Node000016"><a xlink:title=" ">
<polygon fill="#e0e0e0" stroke="#999999" points="479.5,-74 428.5,-74 428.5,-55 479.5,-55 479.5,-74"/>
<text text-anchor="middle" x="454" y="-62" font-family="Helvetica,sans-Serif" font-size="10.00">variant</text>
</a>
</g>
</g>
<!-- Node4&#45;&gt;Node16 -->
<g id="edge15_Node000004_Node000016" class="edge">
<title>Node4&#45;&gt;Node16</title>
<g id="a_edge15_Node000004_Node000016"><a xlink:title=" ">
<path fill="none" stroke="#63b8ff" d="M512.75,-109.98C502.2,-102 486.2,-89.88 473.56,-80.31"/>
<polygon fill="#63b8ff" stroke="#63b8ff" points="475.54,-77.42 465.45,-74.17 471.31,-83 475.54,-77.42"/>
</a>
</g>
</g>
<!-- Node7 -->
<g id="Node000007" class="node">
<title>Node7</title>
<g id="a_Node000007"><a xlink:title=" ">
<polygon fill="#e0e0e0" stroke="#999999" points="483.5,-19 390.5,-19 390.5,0 483.5,0 483.5,-19"/>
<text text-anchor="middle" x="437" y="-7" font-family="Helvetica,sans-Serif" font-size="10.00">unordered_map</text>
</a>
</g>
</g>
<!-- Node6&#45;&gt;Node7 -->
<g id="edge6_Node000006_Node000007" class="edge">
<title>Node6&#45;&gt;Node7</title>
<g id="a_edge6_Node000006_Node000007"><a xlink:title=" ">
<path fill="none" stroke="#63b8ff" d="M356.42,-54.98C371.45,-46.69 394.54,-33.94 412.16,-24.22"/>
<polygon fill="#63b8ff" stroke="#63b8ff" points="414.23,-27.07 421.3,-19.17 410.85,-20.94 414.23,-27.07"/>
</a>
</g>
</g>
<!-- Node8 -->
<g id="Node000008" class="node">
<title>Node8</title>
<g id="a_Node000008"><a xlink:title=" ">
<polygon fill="#e0e0e0" stroke="#999999" points="542.5,-19 501.5,-19 501.5,0 542.5,0 542.5,-19"/>
<text text-anchor="middle" x="522" y="-7" font-family="Helvetica,sans-Serif" font-size="10.00">tuple</text>
</a>
</g>
</g>
<!-- Node6&#45;&gt;Node8 -->
<g id="edge7_Node000006_Node000008" class="edge">
<title>Node6&#45;&gt;Node8</title>
<g id="a_edge7_Node000006_Node000008"><a xlink:title=" ">
<path fill="none" stroke="#63b8ff" d="M370.08,-54.98C403.41,-45.23 457.77,-29.31 491.63,-19.39"/>
<polygon fill="#63b8ff" stroke="#63b8ff" points="492.82,-22.69 501.44,-16.52 490.85,-15.97 492.82,-22.69"/>
</a>
</g>
</g>
<!-- Node9 -->
<g id="Node000009" class="node">
<title>Node9</title>
<g id="a_Node000009"><a xlink:title=" ">
<polygon fill="#e0e0e0" stroke="#999999" points="118,-19 0,-19 0,0 118,0 118,-19"/>
<text text-anchor="middle" x="59" y="-7" font-family="Helvetica,sans-Serif" font-size="10.00">SDL2/SDL_keycode.h</text>
</a>
</g>
</g>
<!-- Node6&#45;&gt;Node9 -->
<g id="edge8_Node000006_Node000009" class="edge">
<title>Node6&#45;&gt;Node9</title>
<g id="a_edge8_Node000006_Node000009"><a xlink:title=" ">
<path fill="none" stroke="#63b8ff" d="M310.28,-57.73C263.32,-48.9 172.97,-31.92 114.37,-20.91"/>
<polygon fill="#63b8ff" stroke="#63b8ff" points="115.01,-17.47 104.54,-19.06 113.72,-24.35 115.01,-17.47"/>
</a>
</g>
</g>
<!-- Node10 -->
<g id="Node000010" class="node">
<title>Node10</title>
<g id="a_Node000010"><a xlink:title=" ">
<polygon fill="#e0e0e0" stroke="#999999" points="291.5,-19 136.5,-19 136.5,0 291.5,0 291.5,-19"/>
<text text-anchor="middle" x="214" y="-7" font-family="Helvetica,sans-Serif" font-size="10.00">SFML/Window/Keyboard.hpp</text>
</a>
</g>
</g>
<!-- Node6&#45;&gt;Node10 -->
<g id="edge9_Node000006_Node000010" class="edge">
<title>Node6&#45;&gt;Node10</title>
<g id="a_edge9_Node000006_Node000010"><a xlink:title=" ">
<path fill="none" stroke="#63b8ff" d="M320.6,-54.98C299.98,-46.38 267.89,-32.99 244.31,-23.15"/>
<polygon fill="#63b8ff" stroke="#63b8ff" points="245.35,-19.79 234.78,-19.17 242.66,-26.25 245.35,-19.79"/>
</a>
</g>
</g>
<!-- Node11 -->
<g id="Node000011" class="node">
<title>Node11</title>
<g id="a_Node000011"><a xlink:title=" ">
<polygon fill="#e0e0e0" stroke="#999999" points="372.5,-19 309.5,-19 309.5,0 372.5,0 372.5,-19"/>
<text text-anchor="middle" x="341" y="-7" font-family="Helvetica,sans-Serif" font-size="10.00">ncurses.h</text>
</a>
</g>
</g>
<!-- Node6&#45;&gt;Node11 -->
<g id="edge10_Node000006_Node000011" class="edge">
<title>Node6&#45;&gt;Node11</title>
<g id="a_edge10_Node000006_Node000011"><a xlink:title=" ">
<path fill="none" stroke="#63b8ff" d="M341,-54.75C341,-47.8 341,-37.85 341,-29.13"/>
<polygon fill="#63b8ff" stroke="#63b8ff" points="344.5,-29.09 341,-19.09 337.5,-29.09 344.5,-29.09"/>
</a>
</g>
</g>
<!-- Node12&#45;&gt;Node13 -->
<g id="edge12_Node000012_Node000013" class="edge">
<title>Node12&#45;&gt;Node13</title>
<g id="a_edge12_Node000012_Node000013"><a xlink:title=" ">
<path fill="none" stroke="#63b8ff" d="M601.34,-54.75C600.82,-47.8 600.06,-37.85 599.41,-29.13"/>
<polygon fill="#63b8ff" stroke="#63b8ff" points="602.89,-28.8 598.65,-19.09 595.91,-29.32 602.89,-28.8"/>
</a>
</g>
</g>
<!-- Node14 -->
<g id="Node000014" class="node">
<title>Node14</title>
<g id="a_Node000014"><a xlink:title=" ">
<polygon fill="#e0e0e0" stroke="#999999" points="727,-19 683,-19 683,0 727,0 727,-19"/>
<text text-anchor="middle" x="705" y="-7" font-family="Helvetica,sans-Serif" font-size="10.00">string</text>
</a>
</g>
</g>
<!-- Node12&#45;&gt;Node14 -->
<g id="edge13_Node000012_Node000014" class="edge">
<title>Node12&#45;&gt;Node14</title>
<g id="a_edge13_Node000012_Node000014"><a xlink:title=" ">
<path fill="none" stroke="#63b8ff" d="M618.55,-54.98C634.89,-46.57 660.13,-33.59 679.13,-23.81"/>
<polygon fill="#63b8ff" stroke="#63b8ff" points="680.86,-26.86 688.15,-19.17 677.66,-20.63 680.86,-26.86"/>
</a>
</g>
</g>
<!-- Node18&#45;&gt;Node4 -->
<g id="edge18_Node000018_Node000004" class="edge">
<title>Node18&#45;&gt;Node4</title>
<g id="a_edge18_Node000018_Node000004"><a xlink:title=" ">
<path fill="none" stroke="#63b8ff" d="M536.52,-164.75C534.54,-157.72 531.68,-147.62 529.19,-138.84"/>
<polygon fill="#63b8ff" stroke="#63b8ff" points="532.52,-137.76 526.43,-129.09 525.79,-139.66 532.52,-137.76"/>
</a>
</g>
</g>
<!-- Node18&#45;&gt;Node17 -->
<g id="edge19_Node000018_Node000017" class="edge">
<title>Node18&#45;&gt;Node17</title>
<g id="a_edge19_Node000018_Node000017"><a xlink:title=" ">
<path fill="none" stroke="#63b8ff" d="M549.12,-164.98C558.44,-157.15 572.47,-145.34 583.74,-135.86"/>
<polygon fill="#63b8ff" stroke="#63b8ff" points="586.29,-138.29 591.69,-129.17 581.79,-132.93 586.29,-138.29"/>
</a>
</g>
</g>
<!-- Node19&#45;&gt;Node14 -->
<g id="edge21_Node000019_Node000014" class="edge">
<title>Node19&#45;&gt;Node14</title>
<g id="a_edge21_Node000019_Node000014"><a xlink:title=" ">
<path fill="none" stroke="#63b8ff" d="M728.02,-164.79C727.91,-145.05 726.81,-95.52 719,-55 717.31,-46.25 714.49,-36.81 711.82,-28.88"/>
<polygon fill="#63b8ff" stroke="#63b8ff" points="715.04,-27.47 708.4,-19.21 708.44,-29.81 715.04,-27.47"/>
</a>
</g>
</g>
</g>
</svg>
