<?xml version="1.0" encoding="UTF-8" standalone="no"?>
<!DOCTYPE svg PUBLIC "-//W3C//DTD SVG 1.1//EN"
 "http://www.w3.org/Graphics/SVG/1.1/DTD/svg11.dtd">
<!-- Generated by graphviz version 2.43.0 (0)
 -->
<!-- Title: shared/include/DlLoader.hpp Pages: 1 -->
<svg width="510pt" height="192pt"
 viewBox="0.00 0.00 510.46 192.00" xmlns="http://www.w3.org/2000/svg" xmlns:xlink="http://www.w3.org/1999/xlink">
<g id="graph0" class="graph" transform="scale(1 1) rotate(0) translate(4 188)">
<title>shared/include/DlLoader.hpp</title>
<!-- Node1 -->
<g id="Node000001" class="node">
<title>Node1</title>
<g id="a_Node000001"><a xlink:title=" ">
<polygon fill="#999999" stroke="#666666" points="364.46,-184 209.46,-184 209.46,-165 364.46,-165 364.46,-184"/>
<text text-anchor="middle" x="286.96" y="-172" font-family="Helvetica,sans-Serif" font-size="10.00">shared/include/DlLoader.hpp</text>
</a>
</g>
</g>
<!-- Node2 -->
<g id="Node000002" class="node">
<title>Node2</title>
<g id="a_Node000002"><a xlink:href="Display_8hpp.html" target="_top" xlink:title=" ">
<polygon fill="white" stroke="#666666" points="182.46,-129 47.46,-129 47.46,-110 182.46,-110 182.46,-129"/>
<text text-anchor="middle" x="114.96" y="-117" font-family="Helvetica,sans-Serif" font-size="10.00">core/include/Display.hpp</text>
</a>
</g>
</g>
<!-- Node1&#45;&gt;Node2 -->
<g id="edge1_Node000001_Node000002" class="edge">
<title>Node1&#45;&gt;Node2</title>
<g id="a_edge1_Node000001_Node000002"><a xlink:title=" ">
<path fill="none" stroke="#63b8ff" d="M249.4,-161.93C217.28,-152.03 171.77,-138.01 142.81,-129.08"/>
<polygon fill="#63b8ff" stroke="#63b8ff" points="248.74,-165.38 259.32,-164.98 250.8,-158.69 248.74,-165.38"/>
</a>
</g>
</g>
<!-- Node7 -->
<g id="Node000007" class="node">
<title>Node7</title>
<g id="a_Node000007"><a xlink:href="Game_8hpp.html" target="_top" xlink:title=" ">
<polygon fill="white" stroke="#666666" points="351.46,-129 222.46,-129 222.46,-110 351.46,-110 351.46,-129"/>
<text text-anchor="middle" x="286.96" y="-117" font-family="Helvetica,sans-Serif" font-size="10.00">core/include/Game.hpp</text>
</a>
</g>
</g>
<!-- Node1&#45;&gt;Node7 -->
<g id="edge7_Node000001_Node000007" class="edge">
<title>Node1&#45;&gt;Node7</title>
<g id="a_edge7_Node000001_Node000007"><a xlink:title=" ">
<path fill="none" stroke="#63b8ff" d="M286.96,-154.66C286.96,-145.93 286.96,-135.99 286.96,-129.09"/>
<polygon fill="#63b8ff" stroke="#63b8ff" points="283.46,-154.75 286.96,-164.75 290.46,-154.75 283.46,-154.75"/>
</a>
</g>
</g>
<!-- Node9 -->
<g id="Node000009" class="node">
<title>Node9</title>
<g id="a_Node000009"><a xlink:href="DlLoader_8cpp.html" target="_top" xlink:title=" ">
<polygon fill="white" stroke="#666666" points="502.46,-129 369.46,-129 369.46,-110 502.46,-110 502.46,-129"/>
<text text-anchor="middle" x="435.96" y="-117" font-family="Helvetica,sans-Serif" font-size="10.00">shared/src/DlLoader.cpp</text>
</a>
</g>
</g>
<!-- Node1&#45;&gt;Node9 -->
<g id="edge11_Node000001_Node000009" class="edge">
<title>Node1&#45;&gt;Node9</title>
<g id="a_edge11_Node000001_Node000009"><a xlink:title=" ">
<path fill="none" stroke="#63b8ff" d="M320.55,-161.55C348.22,-151.71 386.8,-137.98 411.58,-129.17"/>
<polygon fill="#63b8ff" stroke="#63b8ff" points="319.15,-158.34 310.9,-164.98 321.49,-164.93 319.15,-158.34"/>
</a>
</g>
</g>
<!-- Node3 -->
<g id="Node000003" class="node">
<title>Node3</title>
<g id="a_Node000003"><a xlink:href="Arcade_8hpp.html" target="_top" xlink:title=" ">
<polygon fill="white" stroke="#666666" points="280.96,-74 146.96,-74 146.96,-55 280.96,-55 280.96,-74"/>
<text text-anchor="middle" x="213.96" y="-62" font-family="Helvetica,sans-Serif" font-size="10.00">core/include/Arcade.hpp</text>
</a>
</g>
</g>
<!-- Node2&#45;&gt;Node3 -->
<g id="edge2_Node000002_Node000003" class="edge">
<title>Node2&#45;&gt;Node3</title>
<g id="a_edge2_Node000002_Node000003"><a xlink:title=" ">
<path fill="none" stroke="#63b8ff" d="M139.74,-105.23C157.89,-95.51 182.02,-82.6 197.76,-74.17"/>
<polygon fill="#63b8ff" stroke="#63b8ff" points="138.03,-102.18 130.86,-109.98 141.33,-108.35 138.03,-102.18"/>
</a>
</g>
</g>
<!-- Node4 -->
<g id="Node000004" class="node">
<title>Node4</title>
<g id="a_Node000004"><a xlink:href="Arcade_8cpp.html" target="_top" xlink:title=" ">
<polygon fill="white" stroke="#666666" points="316.96,-19 204.96,-19 204.96,0 316.96,0 316.96,-19"/>
<text text-anchor="middle" x="260.96" y="-7" font-family="Helvetica,sans-Serif" font-size="10.00">core/src/Arcade.cpp</text>
</a>
</g>
</g>
<!-- Node2&#45;&gt;Node4 -->
<g id="edge5_Node000002_Node000004" class="edge">
<title>Node2&#45;&gt;Node4</title>
<g id="a_edge5_Node000002_Node000004"><a xlink:title=" ">
<path fill="none" stroke="#63b8ff" d="M62.18,-107.43C24.93,-97.22 -14.93,-79.85 5.96,-55 12.36,-47.39 131.81,-29.03 204.92,-18.42"/>
<polygon fill="#63b8ff" stroke="#63b8ff" points="61.5,-110.87 72.06,-110 63.26,-104.1 61.5,-110.87"/>
</a>
</g>
</g>
<!-- Node6 -->
<g id="Node000006" class="node">
<title>Node6</title>
<g id="a_Node000006"><a xlink:href="Display_8cpp.html" target="_top" xlink:title=" ">
<polygon fill="white" stroke="#666666" points="128.46,-74 15.46,-74 15.46,-55 128.46,-55 128.46,-74"/>
<text text-anchor="middle" x="71.96" y="-62" font-family="Helvetica,sans-Serif" font-size="10.00">core/src/Display.cpp</text>
</a>
</g>
</g>
<!-- Node2&#45;&gt;Node6 -->
<g id="edge6_Node000002_Node000006" class="edge">
<title>Node2&#45;&gt;Node6</title>
<g id="a_edge6_Node000002_Node000006"><a xlink:title=" ">
<path fill="none" stroke="#63b8ff" d="M101.54,-101.96C94.04,-92.72 85.02,-81.6 78.93,-74.09"/>
<polygon fill="#63b8ff" stroke="#63b8ff" points="98.84,-104.19 107.86,-109.75 104.28,-99.78 98.84,-104.19"/>
</a>
</g>
</g>
<!-- Node3&#45;&gt;Node4 -->
<g id="edge3_Node000003_Node000004" class="edge">
<title>Node3&#45;&gt;Node4</title>
<g id="a_edge3_Node000003_Node000004"><a xlink:title=" ">
<path fill="none" stroke="#63b8ff" d="M228.38,-47.24C236.62,-37.95 246.61,-26.68 253.34,-19.09"/>
<polygon fill="#63b8ff" stroke="#63b8ff" points="225.74,-44.94 221.72,-54.75 230.97,-49.59 225.74,-44.94"/>
</a>
</g>
</g>
<!-- Node5 -->
<g id="Node000005" class="node">
<title>Node5</title>
<g id="a_Node000005"><a xlink:href="main_8cpp.html" target="_top" xlink:title=" ">
<polygon fill="white" stroke="#666666" points="186.46,-19 83.46,-19 83.46,0 186.46,0 186.46,-19"/>
<text text-anchor="middle" x="134.96" y="-7" font-family="Helvetica,sans-Serif" font-size="10.00">core/src/main.cpp</text>
</a>
</g>
</g>
<!-- Node3&#45;&gt;Node5 -->
<g id="edge4_Node000003_Node000005" class="edge">
<title>Node3&#45;&gt;Node5</title>
<g id="a_edge4_Node000003_Node000005"><a xlink:title=" ">
<path fill="none" stroke="#63b8ff" d="M192.57,-49.15C178.29,-39.57 159.98,-27.29 147.88,-19.17"/>
<polygon fill="#63b8ff" stroke="#63b8ff" points="191.01,-52.32 201.27,-54.98 194.91,-46.51 191.01,-52.32"/>
</a>
</g>
</g>
<!-- Node7&#45;&gt;Node3 -->
<g id="edge8_Node000007_Node000003" class="edge">
<title>Node7&#45;&gt;Node3</title>
<g id="a_edge8_Node000007_Node000003"><a xlink:title=" ">
<path fill="none" stroke="#63b8ff" d="M266.82,-103.88C253.68,-94.34 236.98,-82.21 225.9,-74.17"/>
<polygon fill="#63b8ff" stroke="#63b8ff" points="265.08,-106.94 275.23,-109.98 269.19,-101.28 265.08,-106.94"/>
</a>
</g>
</g>
<!-- Node7&#45;&gt;Node4 -->
<g id="edge9_Node000007_Node000004" class="edge">
<title>Node7&#45;&gt;Node4</title>
<g id="a_edge9_Node000007_Node000004"><a xlink:title=" ">
<path fill="none" stroke="#63b8ff" d="M291.06,-99.68C293.09,-86.83 294.29,-69.57 289.96,-55 285.86,-41.21 275.99,-27.7 268.9,-19.25"/>
<polygon fill="#63b8ff" stroke="#63b8ff" points="287.59,-99.18 289.18,-109.65 294.47,-100.47 287.59,-99.18"/>
</a>
</g>
</g>
<!-- Node8 -->
<g id="Node000008" class="node">
<title>Node8</title>
<g id="a_Node000008"><a xlink:href="Game_8cpp.html" target="_top" xlink:title=" ">
<polygon fill="white" stroke="#666666" points="444.46,-74 337.46,-74 337.46,-55 444.46,-55 444.46,-74"/>
<text text-anchor="middle" x="390.96" y="-62" font-family="Helvetica,sans-Serif" font-size="10.00">core/src/Game.cpp</text>
</a>
</g>
</g>
<!-- Node7&#45;&gt;Node8 -->
<g id="edge10_Node000007_Node000008" class="edge">
<title>Node7&#45;&gt;Node8</title>
<g id="a_edge10_Node000007_Node000008"><a xlink:title=" ">
<path fill="none" stroke="#63b8ff" d="M312.73,-105.37C331.83,-95.63 357.33,-82.64 373.95,-74.17"/>
<polygon fill="#63b8ff" stroke="#63b8ff" points="310.99,-102.33 303.67,-109.98 314.17,-108.56 310.99,-102.33"/>
</a>
</g>
</g>
</g>
</svg>
