<?xml version="1.0" encoding="UTF-8" standalone="no"?>
<!DOCTYPE svg PUBLIC "-//W3C//DTD SVG 1.1//EN"
 "http://www.w3.org/Graphics/SVG/1.1/DTD/svg11.dtd">
<!-- Generated by graphviz version 2.43.0 (0)
 -->
<!-- Title: shared/include/IDisplay.hpp Pages: 1 -->
<svg width="891pt" height="214pt"
 viewBox="0.00 0.00 891.00 214.00" xmlns="http://www.w3.org/2000/svg" xmlns:xlink="http://www.w3.org/1999/xlink">
<g id="graph0" class="graph" transform="scale(1 1) rotate(0) translate(4 210)">
<title>shared/include/IDisplay.hpp</title>
<!-- Node1 -->
<g id="Node000001" class="node">
<title>Node1</title>
<g id="a_Node000001"><a xlink:title=" ">
<polygon fill="#999999" stroke="#666666" points="614,-206 464,-206 464,-187 614,-187 614,-206"/>
<text text-anchor="middle" x="539" y="-194" font-family="Helvetica,sans-Serif" font-size="10.00">shared/include/IDisplay.hpp</text>
</a>
</g>
</g>
<!-- Node2 -->
<g id="Node000002" class="node">
<title>Node2</title>
<g id="a_Node000002"><a xlink:href="Display_8hpp.html" target="_top" xlink:title=" ">
<polygon fill="white" stroke="#666666" points="241.5,-145.5 106.5,-145.5 106.5,-126.5 241.5,-126.5 241.5,-145.5"/>
<text text-anchor="middle" x="174" y="-133.5" font-family="Helvetica,sans-Serif" font-size="10.00">core/include/Display.hpp</text>
</a>
</g>
</g>
<!-- Node1&#45;&gt;Node2 -->
<g id="edge1_Node000001_Node000002" class="edge">
<title>Node1&#45;&gt;Node2</title>
<g id="a_edge1_Node000001_Node000002"><a xlink:title=" ">
<path fill="none" stroke="#63b8ff" d="M475.87,-185.38C405.55,-174.11 293.13,-156.09 227.14,-145.52"/>
<polygon fill="#63b8ff" stroke="#63b8ff" points="475.5,-188.87 485.93,-186.99 476.61,-181.96 475.5,-188.87"/>
</a>
</g>
</g>
<!-- Node6 -->
<g id="Node000006" class="node">
<title>Node6</title>
<g id="a_Node000006"><a xlink:href="Display_8cpp.html" target="_top" xlink:title=" ">
<polygon fill="white" stroke="#666666" points="349.5,-79.5 236.5,-79.5 236.5,-60.5 349.5,-60.5 349.5,-79.5"/>
<text text-anchor="middle" x="293" y="-67.5" font-family="Helvetica,sans-Serif" font-size="10.00">core/src/Display.cpp</text>
</a>
</g>
</g>
<!-- Node1&#45;&gt;Node6 -->
<g id="edge7_Node000001_Node000006" class="edge">
<title>Node1&#45;&gt;Node6</title>
<g id="a_edge7_Node000001_Node000006"><a xlink:title=" ">
<path fill="none" stroke="#63b8ff" d="M453.66,-188.34C398.07,-181.93 332.24,-170.45 312,-151 292.24,-132.01 291.43,-96.5 292.26,-79.94"/>
<polygon fill="#63b8ff" stroke="#63b8ff" points="453.58,-191.85 463.91,-189.48 454.35,-184.9 453.58,-191.85"/>
</a>
</g>
</g>
<!-- Node7 -->
<g id="Node000007" class="node">
<title>Node7</title>
<g id="a_Node000007"><a xlink:href="Ncurses_8hpp.html" target="_top" xlink:title=" ">
<polygon fill="white" stroke="#666666" points="459,-151 321,-151 321,-121 459,-121 459,-151"/>
<text text-anchor="start" x="329" y="-139" font-family="Helvetica,sans-Serif" font-size="10.00">graphics/Ncurses/include</text>
<text text-anchor="middle" x="390" y="-128" font-family="Helvetica,sans-Serif" font-size="10.00">/Ncurses.hpp</text>
</a>
</g>
</g>
<!-- Node1&#45;&gt;Node7 -->
<g id="edge8_Node000001_Node000007" class="edge">
<title>Node1&#45;&gt;Node7</title>
<g id="a_edge8_Node000001_Node000007"><a xlink:title=" ">
<path fill="none" stroke="#63b8ff" d="M508.01,-183.33C484.07,-173.93 450.9,-160.91 425.82,-151.06"/>
<polygon fill="#63b8ff" stroke="#63b8ff" points="506.75,-186.6 517.33,-186.99 509.3,-180.08 506.75,-186.6"/>
</a>
</g>
</g>
<!-- Node9 -->
<g id="Node000009" class="node">
<title>Node9</title>
<g id="a_Node000009"><a xlink:href="SDL2_8hpp.html" target="_top" xlink:title=" ">
<polygon fill="white" stroke="#666666" points="601,-151 477,-151 477,-121 601,-121 601,-151"/>
<text text-anchor="start" x="485" y="-139" font-family="Helvetica,sans-Serif" font-size="10.00">graphics/SDL2/include</text>
<text text-anchor="middle" x="539" y="-128" font-family="Helvetica,sans-Serif" font-size="10.00">/SDL2.hpp</text>
</a>
</g>
</g>
<!-- Node1&#45;&gt;Node9 -->
<g id="edge10_Node000001_Node000009" class="edge">
<title>Node1&#45;&gt;Node9</title>
<g id="a_edge10_Node000001_Node000009"><a xlink:title=" ">
<path fill="none" stroke="#63b8ff" d="M539,-176.65C539,-168.36 539,-158.78 539,-151.11"/>
<polygon fill="#63b8ff" stroke="#63b8ff" points="535.5,-176.87 539,-186.87 542.5,-176.87 535.5,-176.87"/>
</a>
</g>
</g>
<!-- Node10 -->
<g id="Node000010" class="node">
<title>Node10</title>
<g id="a_Node000010"><a xlink:href="SDL2_8cpp.html" target="_top" xlink:title=" ">
<polygon fill="white" stroke="#666666" points="679.5,-79.5 528.5,-79.5 528.5,-60.5 679.5,-60.5 679.5,-79.5"/>
<text text-anchor="middle" x="604" y="-67.5" font-family="Helvetica,sans-Serif" font-size="10.00">graphics/SDL2/src/SDL2.cpp</text>
</a>
</g>
</g>
<!-- Node1&#45;&gt;Node10 -->
<g id="edge12_Node000001_Node000010" class="edge">
<title>Node1&#45;&gt;Node10</title>
<g id="a_edge12_Node000001_Node000010"><a xlink:title=" ">
<path fill="none" stroke="#63b8ff" d="M573.89,-182.5C587.71,-175.43 602.16,-165.17 610,-151 622.81,-127.85 613.3,-94.99 607.55,-79.59"/>
<polygon fill="#63b8ff" stroke="#63b8ff" points="572.08,-179.48 564.51,-186.9 575.05,-185.82 572.08,-179.48"/>
</a>
</g>
</g>
<!-- Node11 -->
<g id="Node000011" class="node">
<title>Node11</title>
<g id="a_Node000011"><a xlink:href="SFML_8hpp.html" target="_top" xlink:title=" ">
<polygon fill="white" stroke="#666666" points="782.5,-151 657.5,-151 657.5,-121 782.5,-121 782.5,-151"/>
<text text-anchor="start" x="665.5" y="-139" font-family="Helvetica,sans-Serif" font-size="10.00">graphics/SFML/include</text>
<text text-anchor="middle" x="720" y="-128" font-family="Helvetica,sans-Serif" font-size="10.00">/SFML.hpp</text>
</a>
</g>
</g>
<!-- Node1&#45;&gt;Node11 -->
<g id="edge13_Node000001_Node000011" class="edge">
<title>Node1&#45;&gt;Node11</title>
<g id="a_edge13_Node000001_Node000011"><a xlink:title=" ">
<path fill="none" stroke="#63b8ff" d="M575.11,-183.83C604.29,-174.4 645.48,-161.09 676.48,-151.06"/>
<polygon fill="#63b8ff" stroke="#63b8ff" points="573.76,-180.59 565.32,-186.99 575.91,-187.25 573.76,-180.59"/>
</a>
</g>
</g>
<!-- Node12 -->
<g id="Node000012" class="node">
<title>Node12</title>
<g id="a_Node000012"><a xlink:href="SFML_8cpp.html" target="_top" xlink:title=" ">
<polygon fill="white" stroke="#666666" points="883,-79.5 729,-79.5 729,-60.5 883,-60.5 883,-79.5"/>
<text text-anchor="middle" x="806" y="-67.5" font-family="Helvetica,sans-Serif" font-size="10.00">graphics/SFML/src/SFML.cpp</text>
</a>
</g>
</g>
<!-- Node1&#45;&gt;Node12 -->
<g id="edge15_Node000001_Node000012" class="edge">
<title>Node1&#45;&gt;Node12</title>
<g id="a_edge15_Node000001_Node000012"><a xlink:title=" ">
<path fill="none" stroke="#63b8ff" d="M624.15,-190.84C688.19,-185.51 768.74,-174.28 792,-151 811.13,-131.85 809.44,-96.42 807.4,-79.91"/>
<polygon fill="#63b8ff" stroke="#63b8ff" points="623.72,-187.37 614.03,-191.65 624.28,-194.35 623.72,-187.37"/>
</a>
</g>
</g>
<!-- Node3 -->
<g id="Node000003" class="node">
<title>Node3</title>
<g id="a_Node000003"><a xlink:href="Arcade_8hpp.html" target="_top" xlink:title=" ">
<polygon fill="white" stroke="#666666" points="218,-79.5 84,-79.5 84,-60.5 218,-60.5 218,-79.5"/>
<text text-anchor="middle" x="151" y="-67.5" font-family="Helvetica,sans-Serif" font-size="10.00">core/include/Arcade.hpp</text>
</a>
</g>
</g>
<!-- Node2&#45;&gt;Node3 -->
<g id="edge2_Node000002_Node000003" class="edge">
<title>Node2&#45;&gt;Node3</title>
<g id="a_edge2_Node000002_Node000003"><a xlink:title=" ">
<path fill="none" stroke="#63b8ff" d="M167.47,-116.82C163.13,-104.74 157.62,-89.41 154.2,-79.91"/>
<polygon fill="#63b8ff" stroke="#63b8ff" points="164.22,-118.14 170.9,-126.37 170.81,-115.77 164.22,-118.14"/>
</a>
</g>
</g>
<!-- Node4 -->
<g id="Node000004" class="node">
<title>Node4</title>
<g id="a_Node000004"><a xlink:href="Arcade_8cpp.html" target="_top" xlink:title=" ">
<polygon fill="white" stroke="#666666" points="112,-19 0,-19 0,0 112,0 112,-19"/>
<text text-anchor="middle" x="56" y="-7" font-family="Helvetica,sans-Serif" font-size="10.00">core/src/Arcade.cpp</text>
</a>
</g>
</g>
<!-- Node2&#45;&gt;Node4 -->
<g id="edge5_Node000002_Node000004" class="edge">
<title>Node2&#45;&gt;Node4</title>
<g id="a_edge5_Node000002_Node000004"><a xlink:title=" ">
<path fill="none" stroke="#63b8ff" d="M132.27,-122.98C112.24,-115.19 89.5,-103.07 75,-85 59.29,-65.43 56.41,-34.43 55.98,-19.33"/>
<polygon fill="#63b8ff" stroke="#63b8ff" points="131.24,-126.33 141.84,-126.45 133.63,-119.75 131.24,-126.33"/>
</a>
</g>
</g>
<!-- Node2&#45;&gt;Node6 -->
<g id="edge6_Node000002_Node000006" class="edge">
<title>Node2&#45;&gt;Node6</title>
<g id="a_edge6_Node000002_Node000006"><a xlink:title=" ">
<path fill="none" stroke="#63b8ff" d="M199.05,-121.53C222.49,-108.92 256.8,-90.47 276.83,-79.7"/>
<polygon fill="#63b8ff" stroke="#63b8ff" points="197.2,-118.55 190.05,-126.37 200.51,-124.71 197.2,-118.55"/>
</a>
</g>
</g>
<!-- Node3&#45;&gt;Node4 -->
<g id="edge3_Node000003_Node000004" class="edge">
<title>Node3&#45;&gt;Node4</title>
<g id="a_edge3_Node000003_Node000004"><a xlink:title=" ">
<path fill="none" stroke="#63b8ff" d="M128.21,-54.97C110.12,-43.82 85.39,-28.6 70.08,-19.17"/>
<polygon fill="#63b8ff" stroke="#63b8ff" points="126.63,-58.1 136.98,-60.37 130.3,-52.14 126.63,-58.1"/>
</a>
</g>
</g>
<!-- Node5 -->
<g id="Node000005" class="node">
<title>Node5</title>
<g id="a_Node000005"><a xlink:href="main_8cpp.html" target="_top" xlink:title=" ">
<polygon fill="white" stroke="#666666" points="233.5,-19 130.5,-19 130.5,0 233.5,0 233.5,-19"/>
<text text-anchor="middle" x="182" y="-7" font-family="Helvetica,sans-Serif" font-size="10.00">core/src/main.cpp</text>
</a>
</g>
</g>
<!-- Node3&#45;&gt;Node5 -->
<g id="edge4_Node000003_Node000005" class="edge">
<title>Node3&#45;&gt;Node5</title>
<g id="a_edge4_Node000003_Node000005"><a xlink:title=" ">
<path fill="none" stroke="#63b8ff" d="M160.28,-51.48C165.94,-40.81 172.91,-27.65 177.41,-19.17"/>
<polygon fill="#63b8ff" stroke="#63b8ff" points="157.16,-49.89 155.57,-60.37 163.35,-53.17 157.16,-49.89"/>
</a>
</g>
</g>
<!-- Node8 -->
<g id="Node000008" class="node">
<title>Node8</title>
<g id="a_Node000008"><a xlink:href="Ncurses_8cpp.html" target="_top" xlink:title=" ">
<polygon fill="white" stroke="#666666" points="484.5,-85 367.5,-85 367.5,-55 484.5,-55 484.5,-85"/>
<text text-anchor="start" x="375.5" y="-73" font-family="Helvetica,sans-Serif" font-size="10.00">graphics/Ncurses/src</text>
<text text-anchor="middle" x="426" y="-62" font-family="Helvetica,sans-Serif" font-size="10.00">/Ncurses.cpp</text>
</a>
</g>
</g>
<!-- Node7&#45;&gt;Node8 -->
<g id="edge9_Node000007_Node000008" class="edge">
<title>Node7&#45;&gt;Node8</title>
<g id="a_edge9_Node000007_Node000008"><a xlink:title=" ">
<path fill="none" stroke="#63b8ff" d="M402.96,-111.96C408,-103 413.61,-93.03 418.03,-85.16"/>
<polygon fill="#63b8ff" stroke="#63b8ff" points="399.84,-110.36 397.99,-120.8 405.94,-113.8 399.84,-110.36"/>
</a>
</g>
</g>
<!-- Node9&#45;&gt;Node10 -->
<g id="edge11_Node000009_Node000010" class="edge">
<title>Node9&#45;&gt;Node10</title>
<g id="a_edge11_Node000009_Node000010"><a xlink:title=" ">
<path fill="none" stroke="#63b8ff" d="M560.73,-113.6C572.42,-102.1 586.2,-88.52 595.02,-79.84"/>
<polygon fill="#63b8ff" stroke="#63b8ff" points="558.1,-111.29 553.43,-120.8 563.01,-116.27 558.1,-111.29"/>
</a>
</g>
</g>
<!-- Node11&#45;&gt;Node12 -->
<g id="edge14_Node000011_Node000012" class="edge">
<title>Node11&#45;&gt;Node12</title>
<g id="a_edge14_Node000011_Node000012"><a xlink:title=" ">
<path fill="none" stroke="#63b8ff" d="M747.43,-114.58C763.17,-102.87 782.12,-88.77 794.12,-79.84"/>
<polygon fill="#63b8ff" stroke="#63b8ff" points="745.02,-112.02 739.09,-120.8 749.2,-117.63 745.02,-112.02"/>
</a>
</g>
</g>
</g>
</svg>
