<?xml version="1.0" encoding="UTF-8" standalone="no"?>
<!DOCTYPE svg PUBLIC "-//W3C//DTD SVG 1.1//EN"
 "http://www.w3.org/Graphics/SVG/1.1/DTD/svg11.dtd">
<!-- Generated by graphviz version 2.43.0 (0)
 -->
<!-- Title: shared/include/IGame.hpp Pages: 1 -->
<svg width="1624pt" height="280pt"
 viewBox="0.00 0.00 1624.29 280.00" xmlns="http://www.w3.org/2000/svg" xmlns:xlink="http://www.w3.org/1999/xlink">
<g id="graph0" class="graph" transform="scale(1 1) rotate(0) translate(4 276)">
<title>shared/include/IGame.hpp</title>
<!-- Node1 -->
<g id="Node000001" class="node">
<title>Node1</title>
<g id="a_Node000001"><a xlink:title=" ">
<polygon fill="#999999" stroke="#666666" points="977.29,-272 833.29,-272 833.29,-253 977.29,-253 977.29,-272"/>
<text text-anchor="middle" x="905.29" y="-260" font-family="Helvetica,sans-Serif" font-size="10.00">shared/include/IGame.hpp</text>
</a>
</g>
</g>
<!-- Node2 -->
<g id="Node000002" class="node">
<title>Node2</title>
<g id="a_Node000002"><a xlink:href="Arcade_8hpp.html" target="_top" xlink:title=" ">
<polygon fill="white" stroke="#666666" points="160.29,-79.5 26.29,-79.5 26.29,-60.5 160.29,-60.5 160.29,-79.5"/>
<text text-anchor="middle" x="93.29" y="-67.5" font-family="Helvetica,sans-Serif" font-size="10.00">core/include/Arcade.hpp</text>
</a>
</g>
</g>
<!-- Node1&#45;&gt;Node2 -->
<g id="edge1_Node000001_Node000002" class="edge">
<title>Node1&#45;&gt;Node2</title>
<g id="a_edge1_Node000001_Node000002"><a xlink:title=" ">
<path fill="none" stroke="#63b8ff" d="M822.9,-261.77C637.09,-261.66 197.42,-257.1 144.29,-217 99.07,-182.87 93.75,-105.82 93.27,-79.78"/>
<polygon fill="#63b8ff" stroke="#63b8ff" points="823.16,-265.27 833.16,-261.77 823.16,-258.27 823.16,-265.27"/>
</a>
</g>
</g>
<!-- Node3 -->
<g id="Node000003" class="node">
<title>Node3</title>
<g id="a_Node000003"><a xlink:href="Arcade_8cpp.html" target="_top" xlink:title=" ">
<polygon fill="white" stroke="#666666" points="244.29,-19 132.29,-19 132.29,0 244.29,0 244.29,-19"/>
<text text-anchor="middle" x="188.29" y="-7" font-family="Helvetica,sans-Serif" font-size="10.00">core/src/Arcade.cpp</text>
</a>
</g>
</g>
<!-- Node1&#45;&gt;Node3 -->
<g id="edge8_Node000001_Node000003" class="edge">
<title>Node1&#45;&gt;Node3</title>
<g id="a_edge8_Node000001_Node000003"><a xlink:title=" ">
<path fill="none" stroke="#63b8ff" d="M823.03,-260.76C633.45,-258.51 177.37,-249.72 116.29,-217 41.91,-177.15 -34.32,-121.76 17.29,-55 31.36,-36.8 87.65,-24.65 131.85,-17.71"/>
<polygon fill="#63b8ff" stroke="#63b8ff" points="823.17,-264.27 833.21,-260.88 823.26,-257.27 823.17,-264.27"/>
</a>
</g>
</g>
<!-- Node5 -->
<g id="Node000005" class="node">
<title>Node5</title>
<g id="a_Node000005"><a xlink:href="Game_8hpp.html" target="_top" xlink:title=" ">
<polygon fill="white" stroke="#666666" points="282.79,-211.5 153.79,-211.5 153.79,-192.5 282.79,-192.5 282.79,-211.5"/>
<text text-anchor="middle" x="218.29" y="-199.5" font-family="Helvetica,sans-Serif" font-size="10.00">core/include/Game.hpp</text>
</a>
</g>
</g>
<!-- Node1&#45;&gt;Node5 -->
<g id="edge4_Node000001_Node000005" class="edge">
<title>Node1&#45;&gt;Node5</title>
<g id="a_edge4_Node000001_Node000005"><a xlink:title=" ">
<path fill="none" stroke="#63b8ff" d="M823.23,-255.06C717.37,-246.69 527.54,-231.41 365.29,-217 338.35,-214.61 308.65,-211.81 283.04,-209.35"/>
<polygon fill="#63b8ff" stroke="#63b8ff" points="822.96,-258.55 833.2,-255.85 823.51,-251.58 822.96,-258.55"/>
</a>
</g>
</g>
<!-- Node6 -->
<g id="Node000006" class="node">
<title>Node6</title>
<g id="a_Node000006"><a xlink:href="Game_8cpp.html" target="_top" xlink:title=" ">
<polygon fill="white" stroke="#666666" points="304.79,-145.5 197.79,-145.5 197.79,-126.5 304.79,-126.5 304.79,-145.5"/>
<text text-anchor="middle" x="251.29" y="-133.5" font-family="Helvetica,sans-Serif" font-size="10.00">core/src/Game.cpp</text>
</a>
</g>
</g>
<!-- Node1&#45;&gt;Node6 -->
<g id="edge10_Node000001_Node000006" class="edge">
<title>Node1&#45;&gt;Node6</title>
<g id="a_edge10_Node000001_Node000006"><a xlink:title=" ">
<path fill="none" stroke="#63b8ff" d="M822.99,-259.03C735.15,-255 592.4,-244.47 472.29,-217 394.92,-199.3 307.55,-162.32 270.03,-145.57"/>
<polygon fill="#63b8ff" stroke="#63b8ff" points="823.01,-262.53 833.16,-259.47 823.32,-255.54 823.01,-262.53"/>
</a>
</g>
</g>
<!-- Node7 -->
<g id="Node000007" class="node">
<title>Node7</title>
<g id="a_Node000007"><a xlink:href="Display_8cpp.html" target="_top" xlink:title=" ">
<polygon fill="white" stroke="#666666" points="542.79,-79.5 429.79,-79.5 429.79,-60.5 542.79,-60.5 542.79,-79.5"/>
<text text-anchor="middle" x="486.29" y="-67.5" font-family="Helvetica,sans-Serif" font-size="10.00">core/src/Display.cpp</text>
</a>
</g>
</g>
<!-- Node1&#45;&gt;Node7 -->
<g id="edge9_Node000001_Node000007" class="edge">
<title>Node1&#45;&gt;Node7</title>
<g id="a_edge9_Node000001_Node000007"><a xlink:title=" ">
<path fill="none" stroke="#63b8ff" d="M822.72,-259.12C764.01,-254.96 684.34,-244.21 619.29,-217 573.86,-197.99 562.68,-188.09 530.29,-151 510.48,-128.31 495.84,-95.24 489.6,-79.69"/>
<polygon fill="#63b8ff" stroke="#63b8ff" points="822.86,-262.64 833.07,-259.8 823.32,-255.65 822.86,-262.64"/>
</a>
</g>
</g>
<!-- Node8 -->
<g id="Node000008" class="node">
<title>Node8</title>
<g id="a_Node000008"><a xlink:href="Menu_8hpp.html" target="_top" xlink:title=" ">
<polygon fill="white" stroke="#666666" points="1178.29,-217 1060.29,-217 1060.29,-187 1178.29,-187 1178.29,-217"/>
<text text-anchor="start" x="1068.29" y="-205" font-family="Helvetica,sans-Serif" font-size="10.00">games/Menu/include</text>
<text text-anchor="middle" x="1119.29" y="-194" font-family="Helvetica,sans-Serif" font-size="10.00">/Menu.hpp</text>
</a>
</g>
</g>
<!-- Node1&#45;&gt;Node8 -->
<g id="edge11_Node000001_Node000008" class="edge">
<title>Node1&#45;&gt;Node8</title>
<g id="a_edge11_Node000001_Node000008"><a xlink:title=" ">
<path fill="none" stroke="#63b8ff" d="M946.18,-250.32C980.78,-240.86 1030.54,-227.26 1067.84,-217.06"/>
<polygon fill="#63b8ff" stroke="#63b8ff" points="945.13,-246.98 936.41,-252.99 946.98,-253.73 945.13,-246.98"/>
</a>
</g>
</g>
<!-- Node9 -->
<g id="Node000009" class="node">
<title>Node9</title>
<g id="a_Node000009"><a xlink:href="Menu_8cpp.html" target="_top" xlink:title=" ">
<polygon fill="white" stroke="#666666" points="1217.79,-145.5 1070.79,-145.5 1070.79,-126.5 1217.79,-126.5 1217.79,-145.5"/>
<text text-anchor="middle" x="1144.29" y="-133.5" font-family="Helvetica,sans-Serif" font-size="10.00">games/Menu/src/Menu.cpp</text>
</a>
</g>
</g>
<!-- Node1&#45;&gt;Node9 -->
<g id="edge13_Node000001_Node000009" class="edge">
<title>Node1&#45;&gt;Node9</title>
<g id="a_edge13_Node000001_Node000009"><a xlink:title=" ">
<path fill="none" stroke="#63b8ff" d="M930.74,-248.24C979.91,-222.63 1086.69,-167 1127.75,-145.62"/>
<polygon fill="#63b8ff" stroke="#63b8ff" points="928.97,-245.22 921.72,-252.94 932.2,-251.43 928.97,-245.22"/>
</a>
</g>
</g>
<!-- Node10 -->
<g id="Node000010" class="node">
<title>Node10</title>
<g id="a_Node000010"><a xlink:href="MineSweeper_8hpp.html" target="_top" xlink:title=" ">
<polygon fill="white" stroke="#666666" points="1392.79,-151 1235.79,-151 1235.79,-121 1392.79,-121 1392.79,-151"/>
<text text-anchor="start" x="1243.79" y="-139" font-family="Helvetica,sans-Serif" font-size="10.00">games/MineSweeper/include</text>
<text text-anchor="middle" x="1314.29" y="-128" font-family="Helvetica,sans-Serif" font-size="10.00">/MineSweeper.hpp</text>
</a>
</g>
</g>
<!-- Node1&#45;&gt;Node10 -->
<g id="edge14_Node000001_Node000010" class="edge">
<title>Node1&#45;&gt;Node10</title>
<g id="a_edge14_Node000001_Node000010"><a xlink:title=" ">
<path fill="none" stroke="#63b8ff" d="M987.56,-257.31C1045.04,-252.29 1122.73,-241.25 1187.29,-217 1229.98,-200.96 1273.65,-169.47 1297.01,-151.14"/>
<polygon fill="#63b8ff" stroke="#63b8ff" points="987.11,-253.83 977.44,-258.15 987.69,-260.81 987.11,-253.83"/>
</a>
</g>
</g>
<!-- Node13 -->
<g id="Node000013" class="node">
<title>Node13</title>
<g id="a_Node000013"><a xlink:href="Snake_8hpp.html" target="_top" xlink:title=" ">
<polygon fill="white" stroke="#666666" points="1616.29,-151 1496.29,-151 1496.29,-121 1616.29,-121 1616.29,-151"/>
<text text-anchor="start" x="1504.29" y="-139" font-family="Helvetica,sans-Serif" font-size="10.00">games/Snake/include</text>
<text text-anchor="middle" x="1556.29" y="-128" font-family="Helvetica,sans-Serif" font-size="10.00">/Snake.hpp</text>
</a>
</g>
</g>
<!-- Node1&#45;&gt;Node13 -->
<g id="edge17_Node000001_Node000013" class="edge">
<title>Node1&#45;&gt;Node13</title>
<g id="a_edge17_Node000001_Node000013"><a xlink:title=" ">
<path fill="none" stroke="#63b8ff" d="M987.33,-262.06C1155.06,-262.35 1524.74,-258.24 1563.29,-217 1579.76,-199.38 1570.77,-169.04 1563.21,-151.22"/>
<polygon fill="#63b8ff" stroke="#63b8ff" points="987.32,-258.56 977.31,-262.04 987.3,-265.56 987.32,-258.56"/>
</a>
</g>
</g>
<!-- Node14 -->
<g id="Node000014" class="node">
<title>Node14</title>
<g id="a_Node000014"><a xlink:href="Snake_8cpp.html" target="_top" xlink:title=" ">
<polygon fill="white" stroke="#666666" points="1552.29,-79.5 1400.29,-79.5 1400.29,-60.5 1552.29,-60.5 1552.29,-79.5"/>
<text text-anchor="middle" x="1476.29" y="-67.5" font-family="Helvetica,sans-Serif" font-size="10.00">games/Snake/src/Snake.cpp</text>
</a>
</g>
</g>
<!-- Node1&#45;&gt;Node14 -->
<g id="edge19_Node000001_Node000014" class="edge">
<title>Node1&#45;&gt;Node14</title>
<g id="a_edge19_Node000001_Node000014"><a xlink:title=" ">
<path fill="none" stroke="#63b8ff" d="M987.59,-261.14C1092.27,-256.91 1274.64,-236.53 1401.29,-151 1431.58,-130.54 1458.62,-95.77 1470.25,-79.66"/>
<polygon fill="#63b8ff" stroke="#63b8ff" points="987.26,-257.65 977.39,-261.51 987.52,-264.64 987.26,-257.65"/>
</a>
</g>
</g>
<!-- Node15 -->
<g id="Node000015" class="node">
<title>Node15</title>
<g id="a_Node000015"><a xlink:href="GameMatrix_8hpp.html" target="_top" xlink:title=" ">
<polygon fill="white" stroke="#666666" points="1554.79,-211.5 1381.79,-211.5 1381.79,-192.5 1554.79,-192.5 1554.79,-211.5"/>
<text text-anchor="middle" x="1468.29" y="-199.5" font-family="Helvetica,sans-Serif" font-size="10.00">shared/include/GameMatrix.hpp</text>
</a>
</g>
</g>
<!-- Node1&#45;&gt;Node15 -->
<g id="edge20_Node000001_Node000015" class="edge">
<title>Node1&#45;&gt;Node15</title>
<g id="a_edge20_Node000001_Node000015"><a xlink:title=" ">
<path fill="none" stroke="#63b8ff" d="M987.54,-254.62C1080.02,-246.64 1234.61,-232.58 1367.29,-217 1381.09,-215.38 1395.92,-213.44 1409.86,-211.52"/>
<polygon fill="#63b8ff" stroke="#63b8ff" points="987.07,-251.15 977.41,-255.49 987.67,-258.12 987.07,-251.15"/>
</a>
</g>
</g>
<!-- Node16 -->
<g id="Node000016" class="node">
<title>Node16</title>
<g id="a_Node000016"><a xlink:href="IDisplay_8hpp.html" target="_top" xlink:title=" ">
<polygon fill="white" stroke="#666666" points="778.29,-211.5 628.29,-211.5 628.29,-192.5 778.29,-192.5 778.29,-211.5"/>
<text text-anchor="middle" x="703.29" y="-199.5" font-family="Helvetica,sans-Serif" font-size="10.00">shared/include/IDisplay.hpp</text>
</a>
</g>
</g>
<!-- Node1&#45;&gt;Node16 -->
<g id="edge24_Node000001_Node000016" class="edge">
<title>Node1&#45;&gt;Node16</title>
<g id="a_edge24_Node000001_Node000016"><a xlink:title=" ">
<path fill="none" stroke="#63b8ff" d="M865.95,-250.11C826.88,-238.79 767.87,-221.7 732.7,-211.52"/>
<polygon fill="#63b8ff" stroke="#63b8ff" points="865.34,-253.57 875.92,-252.99 867.28,-246.85 865.34,-253.57"/>
</a>
</g>
</g>
<!-- Node2&#45;&gt;Node3 -->
<g id="edge2_Node000002_Node000003" class="edge">
<title>Node2&#45;&gt;Node3</title>
<g id="a_edge2_Node000002_Node000003"><a xlink:title=" ">
<path fill="none" stroke="#63b8ff" d="M116.08,-54.97C134.17,-43.82 158.89,-28.6 174.21,-19.17"/>
<polygon fill="#63b8ff" stroke="#63b8ff" points="113.99,-52.14 107.31,-60.37 117.66,-58.1 113.99,-52.14"/>
</a>
</g>
</g>
<!-- Node4 -->
<g id="Node000004" class="node">
<title>Node4</title>
<g id="a_Node000004"><a xlink:href="main_8cpp.html" target="_top" xlink:title=" ">
<polygon fill="white" stroke="#666666" points="113.79,-19 10.79,-19 10.79,0 113.79,0 113.79,-19"/>
<text text-anchor="middle" x="62.29" y="-7" font-family="Helvetica,sans-Serif" font-size="10.00">core/src/main.cpp</text>
</a>
</g>
</g>
<!-- Node2&#45;&gt;Node4 -->
<g id="edge3_Node000002_Node000004" class="edge">
<title>Node2&#45;&gt;Node4</title>
<g id="a_edge3_Node000002_Node000004"><a xlink:title=" ">
<path fill="none" stroke="#63b8ff" d="M84,-51.48C78.35,-40.81 71.38,-27.65 66.88,-19.17"/>
<polygon fill="#63b8ff" stroke="#63b8ff" points="80.94,-53.17 88.71,-60.37 87.12,-49.89 80.94,-53.17"/>
</a>
</g>
</g>
<!-- Node5&#45;&gt;Node2 -->
<g id="edge5_Node000005_Node000002" class="edge">
<title>Node5&#45;&gt;Node2</title>
<g id="a_edge5_Node000005_Node000002"><a xlink:title=" ">
<path fill="none" stroke="#63b8ff" d="M197.28,-186.32C184.5,-176.92 168.21,-164.07 155.29,-151 132.06,-127.51 109.51,-95.37 99.17,-79.96"/>
<polygon fill="#63b8ff" stroke="#63b8ff" points="195.32,-189.22 205.48,-192.23 199.41,-183.54 195.32,-189.22"/>
</a>
</g>
</g>
<!-- Node5&#45;&gt;Node3 -->
<g id="edge6_Node000005_Node000003" class="edge">
<title>Node5&#45;&gt;Node3</title>
<g id="a_edge6_Node000005_Node000003"><a xlink:title=" ">
<path fill="none" stroke="#63b8ff" d="M205.1,-184.25C198.67,-175.01 191.61,-163 188.29,-151 174.94,-102.81 182.97,-41.7 186.7,-19.27"/>
<polygon fill="#63b8ff" stroke="#63b8ff" points="202.41,-186.5 211.17,-192.47 208.04,-182.34 202.41,-186.5"/>
</a>
</g>
</g>
<!-- Node5&#45;&gt;Node6 -->
<g id="edge7_Node000005_Node000006" class="edge">
<title>Node5&#45;&gt;Node6</title>
<g id="a_edge7_Node000005_Node000006"><a xlink:title=" ">
<path fill="none" stroke="#63b8ff" d="M227.47,-183.18C233.73,-171.05 241.74,-155.51 246.7,-145.91"/>
<polygon fill="#63b8ff" stroke="#63b8ff" points="224.21,-181.88 222.74,-192.37 230.43,-185.08 224.21,-181.88"/>
</a>
</g>
</g>
<!-- Node8&#45;&gt;Node9 -->
<g id="edge12_Node000008_Node000009" class="edge">
<title>Node8&#45;&gt;Node9</title>
<g id="a_edge12_Node000008_Node000009"><a xlink:title=" ">
<path fill="none" stroke="#63b8ff" d="M1128.56,-177.28C1132.84,-166.31 1137.67,-153.94 1140.83,-145.84"/>
<polygon fill="#63b8ff" stroke="#63b8ff" points="1125.22,-176.21 1124.84,-186.8 1131.74,-178.76 1125.22,-176.21"/>
</a>
</g>
</g>
<!-- Node11 -->
<g id="Node000011" class="node">
<title>Node11</title>
<g id="a_Node000011"><a xlink:href="MineSweeper_8cpp.html" target="_top" xlink:title=" ">
<polygon fill="white" stroke="#666666" points="1382.29,-85 1246.29,-85 1246.29,-55 1382.29,-55 1382.29,-85"/>
<text text-anchor="start" x="1254.29" y="-73" font-family="Helvetica,sans-Serif" font-size="10.00">games/MineSweeper/src</text>
<text text-anchor="middle" x="1314.29" y="-62" font-family="Helvetica,sans-Serif" font-size="10.00">/MineSweeper.cpp</text>
</a>
</g>
</g>
<!-- Node10&#45;&gt;Node11 -->
<g id="edge15_Node000010_Node000011" class="edge">
<title>Node10&#45;&gt;Node11</title>
<g id="a_edge15_Node000010_Node000011"><a xlink:title=" ">
<path fill="none" stroke="#63b8ff" d="M1314.29,-110.54C1314.29,-101.96 1314.29,-92.61 1314.29,-85.16"/>
<polygon fill="#63b8ff" stroke="#63b8ff" points="1310.79,-110.8 1314.29,-120.8 1317.79,-110.8 1310.79,-110.8"/>
</a>
</g>
</g>
<!-- Node12 -->
<g id="Node000012" class="node">
<title>Node12</title>
<g id="a_Node000012"><a xlink:href="symEntry_8cpp.html" target="_top" xlink:title=" ">
<polygon fill="white" stroke="#666666" points="1228.29,-85 1092.29,-85 1092.29,-55 1228.29,-55 1228.29,-85"/>
<text text-anchor="start" x="1100.29" y="-73" font-family="Helvetica,sans-Serif" font-size="10.00">games/MineSweeper/src</text>
<text text-anchor="middle" x="1160.29" y="-62" font-family="Helvetica,sans-Serif" font-size="10.00">/symEntry.cpp</text>
</a>
</g>
</g>
<!-- Node10&#45;&gt;Node12 -->
<g id="edge16_Node000010_Node000012" class="edge">
<title>Node10&#45;&gt;Node12</title>
<g id="a_edge16_Node000010_Node000012"><a xlink:title=" ">
<path fill="none" stroke="#63b8ff" d="M1271.11,-117.05C1246.71,-106.91 1216.66,-94.43 1194.01,-85.01"/>
<polygon fill="#63b8ff" stroke="#63b8ff" points="1269.92,-120.35 1280.49,-120.95 1272.6,-113.89 1269.92,-120.35"/>
</a>
</g>
</g>
<!-- Node13&#45;&gt;Node14 -->
<g id="edge18_Node000013_Node000014" class="edge">
<title>Node13&#45;&gt;Node14</title>
<g id="a_edge18_Node000013_Node000014"><a xlink:title=" ">
<path fill="none" stroke="#63b8ff" d="M1530.36,-114.26C1515.81,-102.61 1498.4,-88.69 1487.34,-79.84"/>
<polygon fill="#63b8ff" stroke="#63b8ff" points="1528.54,-117.28 1538.53,-120.8 1532.91,-111.82 1528.54,-117.28"/>
</a>
</g>
</g>
<!-- Node15&#45;&gt;Node10 -->
<g id="edge21_Node000015_Node000010" class="edge">
<title>Node15&#45;&gt;Node10</title>
<g id="a_edge21_Node000015_Node000010"><a xlink:title=" ">
<path fill="none" stroke="#63b8ff" d="M1438.22,-188.5C1412.39,-177.77 1375.16,-162.3 1348.25,-151.12"/>
<polygon fill="#63b8ff" stroke="#63b8ff" points="1436.94,-191.76 1447.52,-192.37 1439.63,-185.3 1436.94,-191.76"/>
</a>
</g>
</g>
<!-- Node15&#45;&gt;Node13 -->
<g id="edge22_Node000015_Node000013" class="edge">
<title>Node15&#45;&gt;Node13</title>
<g id="a_edge22_Node000015_Node000013"><a xlink:title=" ">
<path fill="none" stroke="#63b8ff" d="M1488.48,-186.32C1503.02,-175.74 1522.52,-161.56 1536.88,-151.12"/>
<polygon fill="#63b8ff" stroke="#63b8ff" points="1486.19,-183.66 1480.16,-192.37 1490.3,-189.32 1486.19,-183.66"/>
</a>
</g>
</g>
<!-- Node15&#45;&gt;Node14 -->
<g id="edge23_Node000015_Node000014" class="edge">
<title>Node15&#45;&gt;Node14</title>
<g id="a_edge23_Node000015_Node000014"><a xlink:title=" ">
<path fill="none" stroke="#63b8ff" d="M1469.44,-182.23C1471.2,-153.72 1474.47,-100.59 1475.75,-79.73"/>
<polygon fill="#63b8ff" stroke="#63b8ff" points="1465.93,-182.27 1468.81,-192.47 1472.92,-182.7 1465.93,-182.27"/>
</a>
</g>
</g>
<!-- Node16&#45;&gt;Node7 -->
<g id="edge29_Node000016_Node000007" class="edge">
<title>Node16&#45;&gt;Node7</title>
<g id="a_edge29_Node000016_Node000007"><a xlink:title=" ">
<path fill="none" stroke="#63b8ff" d="M661.19,-189.48C634.52,-181.11 599.96,-168.23 572.29,-151 539.05,-130.3 507.3,-95.65 493.49,-79.62"/>
<polygon fill="#63b8ff" stroke="#63b8ff" points="660.41,-192.91 671,-192.47 662.45,-186.21 660.41,-192.91"/>
</a>
</g>
</g>
<!-- Node17 -->
<g id="Node000017" class="node">
<title>Node17</title>
<g id="a_Node000017"><a xlink:href="Display_8hpp.html" target="_top" xlink:title=" ">
<polygon fill="white" stroke="#666666" points="457.79,-145.5 322.79,-145.5 322.79,-126.5 457.79,-126.5 457.79,-145.5"/>
<text text-anchor="middle" x="390.29" y="-133.5" font-family="Helvetica,sans-Serif" font-size="10.00">core/include/Display.hpp</text>
</a>
</g>
</g>
<!-- Node16&#45;&gt;Node17 -->
<g id="edge25_Node000016_Node000017" class="edge">
<title>Node16&#45;&gt;Node17</title>
<g id="a_edge25_Node000016_Node000017"><a xlink:title=" ">
<path fill="none" stroke="#63b8ff" d="M651.51,-190.41C590,-177.84 488.61,-157.1 431.93,-145.51"/>
<polygon fill="#63b8ff" stroke="#63b8ff" points="650.9,-193.86 661.4,-192.44 652.3,-187 650.9,-193.86"/>
</a>
</g>
</g>
<!-- Node18 -->
<g id="Node000018" class="node">
<title>Node18</title>
<g id="a_Node000018"><a xlink:href="Ncurses_8hpp.html" target="_top" xlink:title=" ">
<polygon fill="white" stroke="#666666" points="1052.29,-151 914.29,-151 914.29,-121 1052.29,-121 1052.29,-151"/>
<text text-anchor="start" x="922.29" y="-139" font-family="Helvetica,sans-Serif" font-size="10.00">graphics/Ncurses/include</text>
<text text-anchor="middle" x="983.29" y="-128" font-family="Helvetica,sans-Serif" font-size="10.00">/Ncurses.hpp</text>
</a>
</g>
</g>
<!-- Node16&#45;&gt;Node18 -->
<g id="edge30_Node000016_Node000018" class="edge">
<title>Node16&#45;&gt;Node18</title>
<g id="a_edge30_Node000016_Node000018"><a xlink:title=" ">
<path fill="none" stroke="#63b8ff" d="M750.71,-190.16C797.86,-179.38 870.41,-162.8 921.93,-151.02"/>
<polygon fill="#63b8ff" stroke="#63b8ff" points="749.73,-186.79 740.76,-192.44 751.29,-193.62 749.73,-186.79"/>
</a>
</g>
</g>
<!-- Node20 -->
<g id="Node000020" class="node">
<title>Node20</title>
<g id="a_Node000020"><a xlink:href="SDL2_8hpp.html" target="_top" xlink:title=" ">
<polygon fill="white" stroke="#666666" points="858.29,-151 734.29,-151 734.29,-121 858.29,-121 858.29,-151"/>
<text text-anchor="start" x="742.29" y="-139" font-family="Helvetica,sans-Serif" font-size="10.00">graphics/SDL2/include</text>
<text text-anchor="middle" x="796.29" y="-128" font-family="Helvetica,sans-Serif" font-size="10.00">/SDL2.hpp</text>
</a>
</g>
</g>
<!-- Node16&#45;&gt;Node20 -->
<g id="edge32_Node000016_Node000020" class="edge">
<title>Node16&#45;&gt;Node20</title>
<g id="a_edge32_Node000016_Node000020"><a xlink:title=" ">
<path fill="none" stroke="#63b8ff" d="M724.19,-186.62C739.6,-176.01 760.46,-161.66 775.78,-151.12"/>
<polygon fill="#63b8ff" stroke="#63b8ff" points="722.08,-183.82 715.83,-192.37 726.05,-189.58 722.08,-183.82"/>
</a>
</g>
</g>
<!-- Node21 -->
<g id="Node000021" class="node">
<title>Node21</title>
<g id="a_Node000021"><a xlink:href="SDL2_8cpp.html" target="_top" xlink:title=" ">
<polygon fill="white" stroke="#666666" points="899.79,-79.5 748.79,-79.5 748.79,-60.5 899.79,-60.5 899.79,-79.5"/>
<text text-anchor="middle" x="824.29" y="-67.5" font-family="Helvetica,sans-Serif" font-size="10.00">graphics/SDL2/src/SDL2.cpp</text>
</a>
</g>
</g>
<!-- Node16&#45;&gt;Node21 -->
<g id="edge34_Node000016_Node000021" class="edge">
<title>Node16&#45;&gt;Node21</title>
<g id="a_edge34_Node000016_Node000021"><a xlink:title=" ">
<path fill="none" stroke="#63b8ff" d="M788.41,-195.4C818.22,-188.85 848.83,-175.93 867.29,-151 885.02,-127.05 853.13,-94.86 835.23,-79.65"/>
<polygon fill="#63b8ff" stroke="#63b8ff" points="787.48,-192.02 778.35,-197.39 788.84,-198.89 787.48,-192.02"/>
</a>
</g>
</g>
<!-- Node22 -->
<g id="Node000022" class="node">
<title>Node22</title>
<g id="a_Node000022"><a xlink:href="SFML_8hpp.html" target="_top" xlink:title=" ">
<polygon fill="white" stroke="#666666" points="715.79,-151 590.79,-151 590.79,-121 715.79,-121 715.79,-151"/>
<text text-anchor="start" x="598.79" y="-139" font-family="Helvetica,sans-Serif" font-size="10.00">graphics/SFML/include</text>
<text text-anchor="middle" x="653.29" y="-128" font-family="Helvetica,sans-Serif" font-size="10.00">/SFML.hpp</text>
</a>
</g>
</g>
<!-- Node16&#45;&gt;Node22 -->
<g id="edge35_Node000016_Node000022" class="edge">
<title>Node16&#45;&gt;Node22</title>
<g id="a_edge35_Node000016_Node000022"><a xlink:title=" ">
<path fill="none" stroke="#63b8ff" d="M690.19,-184.24C682.21,-174.02 672.12,-161.1 664.51,-151.36"/>
<polygon fill="#63b8ff" stroke="#63b8ff" points="687.63,-186.64 696.55,-192.37 693.15,-182.33 687.63,-186.64"/>
</a>
</g>
</g>
<!-- Node23 -->
<g id="Node000023" class="node">
<title>Node23</title>
<g id="a_Node000023"><a xlink:href="SFML_8cpp.html" target="_top" xlink:title=" ">
<polygon fill="white" stroke="#666666" points="723.29,-79.5 569.29,-79.5 569.29,-60.5 723.29,-60.5 723.29,-79.5"/>
<text text-anchor="middle" x="646.29" y="-67.5" font-family="Helvetica,sans-Serif" font-size="10.00">graphics/SFML/src/SFML.cpp</text>
</a>
</g>
</g>
<!-- Node16&#45;&gt;Node23 -->
<g id="edge37_Node000016_Node000023" class="edge">
<title>Node16&#45;&gt;Node23</title>
<g id="a_edge37_Node000016_Node000023"><a xlink:title=" ">
<path fill="none" stroke="#63b8ff" d="M638.03,-189.52C616.27,-182.25 594.29,-170.37 581.29,-151 573.86,-139.93 575.4,-132.96 581.29,-121 590.79,-101.71 611.69,-87.78 627.25,-79.6"/>
<polygon fill="#63b8ff" stroke="#63b8ff" points="637.06,-192.88 647.64,-192.46 639.1,-186.19 637.06,-192.88"/>
</a>
</g>
</g>
<!-- Node17&#45;&gt;Node2 -->
<g id="edge26_Node000017_Node000002" class="edge">
<title>Node17&#45;&gt;Node2</title>
<g id="a_edge26_Node000017_Node000002"><a xlink:title=" ">
<path fill="none" stroke="#63b8ff" d="M340.44,-124.26C282,-111.67 186.36,-91.06 132.8,-79.51"/>
<polygon fill="#63b8ff" stroke="#63b8ff" points="340.03,-127.75 350.54,-126.44 341.5,-120.91 340.03,-127.75"/>
</a>
</g>
</g>
<!-- Node17&#45;&gt;Node3 -->
<g id="edge27_Node000017_Node000003" class="edge">
<title>Node17&#45;&gt;Node3</title>
<g id="a_edge27_Node000017_Node000003"><a xlink:title=" ">
<path fill="none" stroke="#63b8ff" d="M367.73,-121.09C325.72,-95.2 236.68,-40.33 202.27,-19.12"/>
<polygon fill="#63b8ff" stroke="#63b8ff" points="366.06,-124.18 376.4,-126.44 369.73,-118.22 366.06,-124.18"/>
</a>
</g>
</g>
<!-- Node17&#45;&gt;Node7 -->
<g id="edge28_Node000017_Node000007" class="edge">
<title>Node17&#45;&gt;Node7</title>
<g id="a_edge28_Node000017_Node000007"><a xlink:title=" ">
<path fill="none" stroke="#63b8ff" d="M411.77,-120.68C430.63,-108.11 457.45,-90.23 473.24,-79.7"/>
<polygon fill="#63b8ff" stroke="#63b8ff" points="409.61,-117.91 403.24,-126.37 413.5,-123.73 409.61,-117.91"/>
</a>
</g>
</g>
<!-- Node19 -->
<g id="Node000019" class="node">
<title>Node19</title>
<g id="a_Node000019"><a xlink:href="Ncurses_8cpp.html" target="_top" xlink:title=" ">
<polygon fill="white" stroke="#666666" points="1041.79,-85 924.79,-85 924.79,-55 1041.79,-55 1041.79,-85"/>
<text text-anchor="start" x="932.79" y="-73" font-family="Helvetica,sans-Serif" font-size="10.00">graphics/Ncurses/src</text>
<text text-anchor="middle" x="983.29" y="-62" font-family="Helvetica,sans-Serif" font-size="10.00">/Ncurses.cpp</text>
</a>
</g>
</g>
<!-- Node18&#45;&gt;Node19 -->
<g id="edge31_Node000018_Node000019" class="edge">
<title>Node18&#45;&gt;Node19</title>
<g id="a_edge31_Node000018_Node000019"><a xlink:title=" ">
<path fill="none" stroke="#63b8ff" d="M983.29,-110.54C983.29,-101.96 983.29,-92.61 983.29,-85.16"/>
<polygon fill="#63b8ff" stroke="#63b8ff" points="979.79,-110.8 983.29,-120.8 986.79,-110.8 979.79,-110.8"/>
</a>
</g>
</g>
<!-- Node20&#45;&gt;Node21 -->
<g id="edge33_Node000020_Node000021" class="edge">
<title>Node20&#45;&gt;Node21</title>
<g id="a_edge33_Node000020_Node000021"><a xlink:title=" ">
<path fill="none" stroke="#63b8ff" d="M806.52,-111.61C811.36,-100.56 816.84,-88.03 820.42,-79.84"/>
<polygon fill="#63b8ff" stroke="#63b8ff" points="803.3,-110.23 802.5,-120.8 809.72,-113.04 803.3,-110.23"/>
</a>
</g>
</g>
<!-- Node22&#45;&gt;Node23 -->
<g id="edge36_Node000022_Node000023" class="edge">
<title>Node22&#45;&gt;Node23</title>
<g id="a_edge36_Node000022_Node000023"><a xlink:title=" ">
<path fill="none" stroke="#63b8ff" d="M650.62,-110.6C649.44,-99.8 648.12,-87.78 647.26,-79.84"/>
<polygon fill="#63b8ff" stroke="#63b8ff" points="647.17,-111.24 651.74,-120.8 654.13,-110.48 647.17,-111.24"/>
</a>
</g>
</g>
</g>
</svg>
