<?xml version="1.0" encoding="UTF-8" standalone="no"?>
<!DOCTYPE svg PUBLIC "-//W3C//DTD SVG 1.1//EN"
 "http://www.w3.org/Graphics/SVG/1.1/DTD/svg11.dtd">
<!-- Generated by graphviz version 2.43.0 (0)
 -->
<!-- Title: Graphical Class Hierarchy Pages: 1 -->
<svg width="211pt" height="138pt"
 viewBox="0.00 0.00 211.00 138.00" xmlns="http://www.w3.org/2000/svg" xmlns:xlink="http://www.w3.org/1999/xlink">
<g id="graph0" class="graph" transform="scale(1 1) rotate(0) translate(4 134)">
<title>Graphical Class Hierarchy</title>
<!-- Node0 -->
<g id="Node000000" class="node">
<title>Node0</title>
<g id="a_Node000000"><a xlink:href="classIGame.html" target="_top" xlink:title=" ">
<polygon fill="white" stroke="#666666" points="49,-74 0,-74 0,-55 49,-55 49,-74"/>
<text text-anchor="middle" x="24.5" y="-62" font-family="Helvetica,sans-Serif" font-size="10.00">IGame</text>
</a>
</g>
</g>
<!-- Node1 -->
<g id="Node000001" class="node">
<title>Node1</title>
<g id="a_Node000001"><a xlink:href="classGame.html" target="_top" xlink:title=" ">
<polygon fill="white" stroke="#666666" points="167,-130 121,-130 121,-111 167,-111 167,-130"/>
<text text-anchor="middle" x="144" y="-118" font-family="Helvetica,sans-Serif" font-size="10.00">Game</text>
</a>
</g>
</g>
<!-- Node0&#45;&gt;Node1 -->
<g id="edge8_Node000000_Node000001" class="edge">
<title>Node0&#45;&gt;Node1</title>
<g id="a_edge8_Node000000_Node000001"><a xlink:title=" ">
<path fill="none" stroke="#63b8ff" d="M46.65,-79.98C57.68,-87.52 71.62,-96.29 85,-102.5 96.38,-107.78 109.71,-112.04 120.72,-115.09"/>
<polygon fill="#63b8ff" stroke="#63b8ff" points="48.35,-76.89 38.16,-74.01 44.33,-82.62 48.35,-76.89"/>
</a>
</g>
</g>
<!-- Node2 -->
<g id="Node000002" class="node">
<title>Node2</title>
<g id="a_Node000002"><a xlink:href="classMenuGame.html" target="_top" xlink:title=" ">
<polygon fill="white" stroke="#666666" points="180.5,-93 107.5,-93 107.5,-74 180.5,-74 180.5,-93"/>
<text text-anchor="middle" x="144" y="-81" font-family="Helvetica,sans-Serif" font-size="10.00">MenuGame</text>
</a>
</g>
</g>
<!-- Node0&#45;&gt;Node2 -->
<g id="edge9_Node000000_Node000002" class="edge">
<title>Node0&#45;&gt;Node2</title>
<g id="a_edge9_Node000000_Node000002"><a xlink:title=" ">
<path fill="none" stroke="#63b8ff" d="M59.19,-69.95C74.22,-72.38 91.94,-75.24 107.21,-77.71"/>
<polygon fill="#63b8ff" stroke="#63b8ff" points="59.71,-66.49 49.28,-68.34 58.59,-73.4 59.71,-66.49"/>
</a>
</g>
</g>
<!-- Node3 -->
<g id="Node000003" class="node">
<title>Node3</title>
<g id="a_Node000003"><a xlink:href="classMineSweeper_1_1Game.html" target="_top" xlink:title=" ">
<polygon fill="white" stroke="#666666" points="203,-56 85,-56 85,-37 203,-37 203,-56"/>
<text text-anchor="middle" x="144" y="-44" font-family="Helvetica,sans-Serif" font-size="10.00">MineSweeper::Game</text>
</a>
</g>
</g>
<!-- Node0&#45;&gt;Node3 -->
<g id="edge10_Node000000_Node000003" class="edge">
<title>Node0&#45;&gt;Node3</title>
<g id="a_edge10_Node000000_Node000003"><a xlink:title=" ">
<path fill="none" stroke="#63b8ff" d="M59.28,-59.32C67.28,-58.1 76.03,-56.76 84.76,-55.42"/>
<polygon fill="#63b8ff" stroke="#63b8ff" points="58.63,-55.88 49.28,-60.86 59.69,-62.8 58.63,-55.88"/>
</a>
</g>
</g>
<!-- Node4 -->
<g id="Node000004" class="node">
<title>Node4</title>
<g id="a_Node000004"><a xlink:href="classSnake_1_1GameSnake.html" target="_top" xlink:title=" ">
<polygon fill="white" stroke="#666666" points="199,-19 89,-19 89,0 199,0 199,-19"/>
<text text-anchor="middle" x="144" y="-7" font-family="Helvetica,sans-Serif" font-size="10.00">Snake::GameSnake</text>
</a>
</g>
</g>
<!-- Node0&#45;&gt;Node4 -->
<g id="edge11_Node000000_Node000004" class="edge">
<title>Node0&#45;&gt;Node4</title>
<g id="a_edge11_Node000000_Node000004"><a xlink:title=" ">
<path fill="none" stroke="#63b8ff" d="M47.67,-49.43C58.59,-42.44 72.14,-34.4 85,-28.5 92.7,-24.96 101.26,-21.78 109.38,-19.08"/>
<polygon fill="#63b8ff" stroke="#63b8ff" points="45.64,-46.58 39.19,-54.98 49.47,-52.43 45.64,-46.58"/>
</a>
</g>
</g>
</g>
</svg>
