<?xml version="1.0" encoding="UTF-8" standalone="no"?>
<!DOCTYPE svg PUBLIC "-//W3C//DTD SVG 1.1//EN"
 "http://www.w3.org/Graphics/SVG/1.1/DTD/svg11.dtd">
<!-- Generated by graphviz version 2.43.0 (0)
 -->
<!-- Title: Graphical Class Hierarchy Pages: 1 -->
<svg width="156pt" height="138pt"
 viewBox="0.00 0.00 156.00 138.00" xmlns="http://www.w3.org/2000/svg" xmlns:xlink="http://www.w3.org/1999/xlink">
<g id="graph0" class="graph" transform="scale(1 1) rotate(0) translate(4 134)">
<title>Graphical Class Hierarchy</title>
<!-- Node0 -->
<g id="Node000000" class="node">
<title>Node0</title>
<g id="a_Node000000"><a xlink:href="classIDisplay.html" target="_top" xlink:title=" ">
<polygon fill="white" stroke="#666666" points="56,-74 0,-74 0,-55 56,-55 56,-74"/>
<text text-anchor="middle" x="28" y="-62" font-family="Helvetica,sans-Serif" font-size="10.00">IDisplay</text>
</a>
</g>
</g>
<!-- Node1 -->
<g id="Node000001" class="node">
<title>Node1</title>
<g id="a_Node000001"><a xlink:href="classDisplay.html" target="_top" xlink:title=" ">
<polygon fill="white" stroke="#666666" points="146.5,-130 93.5,-130 93.5,-111 146.5,-111 146.5,-130"/>
<text text-anchor="middle" x="120" y="-118" font-family="Helvetica,sans-Serif" font-size="10.00">Display</text>
</a>
</g>
</g>
<!-- Node0&#45;&gt;Node1 -->
<g id="edge4_Node000000_Node000001" class="edge">
<title>Node0&#45;&gt;Node1</title>
<g id="a_edge4_Node000000_Node000001"><a xlink:title=" ">
<path fill="none" stroke="#63b8ff" d="M53.48,-79.73C69.43,-89.65 89.75,-102.3 103.5,-110.86"/>
<polygon fill="#63b8ff" stroke="#63b8ff" points="55.02,-76.57 44.68,-74.25 51.32,-82.51 55.02,-76.57"/>
</a>
</g>
</g>
<!-- Node2 -->
<g id="Node000002" class="node">
<title>Node2</title>
<g id="a_Node000002"><a xlink:href="classNcurses.html" target="_top" xlink:title=" ">
<polygon fill="white" stroke="#666666" points="148,-93 92,-93 92,-74 148,-74 148,-93"/>
<text text-anchor="middle" x="120" y="-81" font-family="Helvetica,sans-Serif" font-size="10.00">Ncurses</text>
</a>
</g>
</g>
<!-- Node0&#45;&gt;Node2 -->
<g id="edge5_Node000000_Node000002" class="edge">
<title>Node0&#45;&gt;Node2</title>
<g id="a_edge5_Node000000_Node000002"><a xlink:title=" ">
<path fill="none" stroke="#63b8ff" d="M65.88,-72.28C74.52,-74.11 83.57,-76.02 91.71,-77.74"/>
<polygon fill="#63b8ff" stroke="#63b8ff" points="66.51,-68.84 56,-70.2 65.06,-75.69 66.51,-68.84"/>
</a>
</g>
</g>
<!-- Node3 -->
<g id="Node000003" class="node">
<title>Node3</title>
<g id="a_Node000003"><a xlink:href="classSDL2.html" target="_top" xlink:title=" ">
<polygon fill="white" stroke="#666666" points="140.5,-56 99.5,-56 99.5,-37 140.5,-37 140.5,-56"/>
<text text-anchor="middle" x="120" y="-44" font-family="Helvetica,sans-Serif" font-size="10.00">SDL2</text>
</a>
</g>
</g>
<!-- Node0&#45;&gt;Node3 -->
<g id="edge6_Node000000_Node000003" class="edge">
<title>Node0&#45;&gt;Node3</title>
<g id="a_edge6_Node000000_Node000003"><a xlink:title=" ">
<path fill="none" stroke="#63b8ff" d="M65.85,-57.13C77.37,-54.83 89.62,-52.38 99.45,-50.41"/>
<polygon fill="#63b8ff" stroke="#63b8ff" points="65.12,-53.71 56,-59.1 66.5,-60.57 65.12,-53.71"/>
</a>
</g>
</g>
<!-- Node4 -->
<g id="Node000004" class="node">
<title>Node4</title>
<g id="a_Node000004"><a xlink:href="classSFML.html" target="_top" xlink:title=" ">
<polygon fill="white" stroke="#666666" points="141.5,-19 98.5,-19 98.5,0 141.5,0 141.5,-19"/>
<text text-anchor="middle" x="120" y="-7" font-family="Helvetica,sans-Serif" font-size="10.00">SFML</text>
</a>
</g>
</g>
<!-- Node0&#45;&gt;Node4 -->
<g id="edge7_Node000000_Node000004" class="edge">
<title>Node0&#45;&gt;Node4</title>
<g id="a_edge7_Node000000_Node000004"><a xlink:title=" ">
<path fill="none" stroke="#63b8ff" d="M53.42,-49.58C69.26,-39.9 89.44,-27.57 103.2,-19.16"/>
<polygon fill="#63b8ff" stroke="#63b8ff" points="51.38,-46.72 44.68,-54.92 55.03,-52.69 51.38,-46.72"/>
</a>
</g>
</g>
</g>
</svg>
