<?xml version="1.0" encoding="UTF-8" standalone="no"?>
<!DOCTYPE svg PUBLIC "-//W3C//DTD SVG 1.1//EN"
 "http://www.w3.org/Graphics/SVG/1.1/DTD/svg11.dtd">
<!-- Generated by graphviz version 2.43.0 (0)
 -->
<!-- Title: Graphical Class Hierarchy Pages: 1 -->
<svg width="289pt" height="64pt"
 viewBox="0.00 0.00 289.00 64.00" xmlns="http://www.w3.org/2000/svg" xmlns:xlink="http://www.w3.org/1999/xlink">
<g id="graph0" class="graph" transform="scale(1 1) rotate(0) translate(4 60)">
<title>Graphical Class Hierarchy</title>
<!-- Node0 -->
<g id="Node000000" class="node">
<title>Node0</title>
<g id="a_Node000000"><a xlink:href="structGfxInstruction.html" target="_top" xlink:title=" ">
<polygon fill="white" stroke="#666666" points="86,-37 0,-37 0,-18 86,-18 86,-37"/>
<text text-anchor="middle" x="43" y="-25" font-family="Helvetica,sans-Serif" font-size="10.00">GfxInstruction</text>
</a>
</g>
</g>
<!-- Node1 -->
<g id="Node000001" class="node">
<title>Node1</title>
<g id="a_Node000001"><a xlink:href="structcircleInstr.html" target="_top" xlink:title=" ">
<polygon fill="white" stroke="#666666" points="187,-56 122,-56 122,-37 187,-37 187,-56"/>
<text text-anchor="middle" x="154.5" y="-44" font-family="Helvetica,sans-Serif" font-size="10.00">circleInstr</text>
</a>
</g>
</g>
<!-- Node0&#45;&gt;Node1 -->
<g id="edge1_Node000000_Node000001" class="edge">
<title>Node0&#45;&gt;Node1</title>
<g id="a_edge1_Node000000_Node000001"><a xlink:title=" ">
<path fill="none" stroke="#63b8ff" d="M95.96,-36.52C104.84,-38.06 113.82,-39.62 121.97,-41.03"/>
<polygon fill="#63b8ff" stroke="#63b8ff" points="96.47,-33.05 86.02,-34.79 95.28,-39.95 96.47,-33.05"/>
</a>
</g>
</g>
<!-- Node2 -->
<g id="Node000002" class="node">
<title>Node2</title>
<g id="a_Node000002"><a xlink:href="structrectInstr.html" target="_top" xlink:title=" ">
<polygon fill="white" stroke="#666666" points="183,-19 126,-19 126,0 183,0 183,-19"/>
<text text-anchor="middle" x="154.5" y="-7" font-family="Helvetica,sans-Serif" font-size="10.00">rectInstr</text>
</a>
</g>
</g>
<!-- Node0&#45;&gt;Node2 -->
<g id="edge2_Node000000_Node000002" class="edge">
<title>Node0&#45;&gt;Node2</title>
<g id="a_edge2_Node000000_Node000002"><a xlink:title=" ">
<path fill="none" stroke="#63b8ff" d="M95.89,-18.97C106.28,-17.26 116.8,-15.53 125.97,-14.03"/>
<polygon fill="#63b8ff" stroke="#63b8ff" points="95.32,-15.52 86.02,-20.59 96.46,-22.42 95.32,-15.52"/>
</a>
</g>
</g>
<!-- Node3 -->
<g id="Node000003" class="node">
<title>Node3</title>
<g id="a_Node000003"><a xlink:href="structtextInstr.html" target="_top" xlink:title=" ">
<polygon fill="white" stroke="#666666" points="281,-19 223,-19 223,0 281,0 281,-19"/>
<text text-anchor="middle" x="252" y="-7" font-family="Helvetica,sans-Serif" font-size="10.00">textInstr</text>
</a>
</g>
</g>
<!-- Node2&#45;&gt;Node3 -->
<g id="edge3_Node000002_Node000003" class="edge">
<title>Node2&#45;&gt;Node3</title>
<g id="a_edge3_Node000002_Node000003"><a xlink:title=" ">
<path fill="none" stroke="#63b8ff" d="M193.43,-9.5C203.22,-9.5 213.58,-9.5 222.78,-9.5"/>
<polygon fill="#63b8ff" stroke="#63b8ff" points="193.12,-6 183.12,-9.5 193.12,-13 193.12,-6"/>
</a>
</g>
</g>
</g>
</svg>
