<?xml version="1.0" encoding="UTF-8" standalone="no"?>
<!DOCTYPE svg PUBLIC "-//W3C//DTD SVG 1.1//EN"
 "http://www.w3.org/Graphics/SVG/1.1/DTD/svg11.dtd">
<!-- Generated by graphviz version 2.43.0 (0)
 -->
<!-- Title: shared/include/Keys.hpp Pages: 1 -->
<svg width="2052pt" height="401pt"
 viewBox="0.00 0.00 2052.00 401.00" xmlns="http://www.w3.org/2000/svg" xmlns:xlink="http://www.w3.org/1999/xlink">
<g id="graph0" class="graph" transform="scale(1 1) rotate(0) translate(4 397)">
<title>shared/include/Keys.hpp</title>
<!-- Node1 -->
<g id="Node000001" class="node">
<title>Node1</title>
<g id="a_Node000001"><a xlink:title=" ">
<polygon fill="#999999" stroke="#666666" points="641.5,-393 506.5,-393 506.5,-374 641.5,-374 641.5,-393"/>
<text text-anchor="middle" x="574" y="-381" font-family="Helvetica,sans-Serif" font-size="10.00">shared/include/Keys.hpp</text>
</a>
</g>
</g>
<!-- Node2 -->
<g id="Node000002" class="node">
<title>Node2</title>
<g id="a_Node000002"><a xlink:href="MineSweeper_8hpp.html" target="_top" xlink:title=" ">
<polygon fill="white" stroke="#666666" points="462.5,-151 305.5,-151 305.5,-121 462.5,-121 462.5,-151"/>
<text text-anchor="start" x="313.5" y="-139" font-family="Helvetica,sans-Serif" font-size="10.00">games/MineSweeper/include</text>
<text text-anchor="middle" x="384" y="-128" font-family="Helvetica,sans-Serif" font-size="10.00">/MineSweeper.hpp</text>
</a>
</g>
</g>
<!-- Node1&#45;&gt;Node2 -->
<g id="edge1_Node000001_Node000002" class="edge">
<title>Node1&#45;&gt;Node2</title>
<g id="a_edge1_Node000001_Node000002"><a xlink:title=" ">
<path fill="none" stroke="#63b8ff" d="M550.24,-368.47C521.93,-350.96 474.29,-318.91 441,-283 417.36,-257.5 411.77,-249.34 399,-217 390.28,-194.92 386.55,-167.37 385.01,-151.03"/>
<polygon fill="#63b8ff" stroke="#63b8ff" points="548.69,-371.62 559.05,-373.83 552.33,-365.64 548.69,-371.62"/>
</a>
</g>
</g>
<!-- Node5 -->
<g id="Node000005" class="node">
<title>Node5</title>
<g id="a_Node000005"><a xlink:href="Snake_8hpp.html" target="_top" xlink:title=" ">
<polygon fill="white" stroke="#666666" points="186,-151 66,-151 66,-121 186,-121 186,-151"/>
<text text-anchor="start" x="74" y="-139" font-family="Helvetica,sans-Serif" font-size="10.00">games/Snake/include</text>
<text text-anchor="middle" x="126" y="-128" font-family="Helvetica,sans-Serif" font-size="10.00">/Snake.hpp</text>
</a>
</g>
</g>
<!-- Node1&#45;&gt;Node5 -->
<g id="edge4_Node000001_Node000005" class="edge">
<title>Node1&#45;&gt;Node5</title>
<g id="a_edge4_Node000001_Node000005"><a xlink:title=" ">
<path fill="none" stroke="#63b8ff" d="M495.99,-379.54C390.97,-370.86 207.56,-338.11 123,-217 109.39,-197.51 115.3,-168.37 120.73,-151.16"/>
<polygon fill="#63b8ff" stroke="#63b8ff" points="495.97,-383.05 506.21,-380.33 496.51,-376.07 495.97,-383.05"/>
</a>
</g>
</g>
<!-- Node6 -->
<g id="Node000006" class="node">
<title>Node6</title>
<g id="a_Node000006"><a xlink:href="Snake_8cpp.html" target="_top" xlink:title=" ">
<polygon fill="white" stroke="#666666" points="177,-79.5 25,-79.5 25,-60.5 177,-60.5 177,-79.5"/>
<text text-anchor="middle" x="101" y="-67.5" font-family="Helvetica,sans-Serif" font-size="10.00">games/Snake/src/Snake.cpp</text>
</a>
</g>
</g>
<!-- Node1&#45;&gt;Node6 -->
<g id="edge6_Node000001_Node000006" class="edge">
<title>Node1&#45;&gt;Node6</title>
<g id="a_edge6_Node000001_Node000006"><a xlink:title=" ">
<path fill="none" stroke="#63b8ff" d="M496.41,-383.14C339.66,-382.32 0,-369.02 0,-269 0,-269 0,-269 0,-201 0,-144.7 59.81,-98.06 87.38,-79.56"/>
<polygon fill="#63b8ff" stroke="#63b8ff" points="496.45,-386.64 506.47,-383.17 496.48,-379.64 496.45,-386.64"/>
</a>
</g>
</g>
<!-- Node7 -->
<g id="Node000007" class="node">
<title>Node7</title>
<g id="a_Node000007"><a xlink:href="Ncurses_8cpp.html" target="_top" xlink:title=" ">
<polygon fill="white" stroke="#666666" points="1977.5,-85 1860.5,-85 1860.5,-55 1977.5,-55 1977.5,-85"/>
<text text-anchor="start" x="1868.5" y="-73" font-family="Helvetica,sans-Serif" font-size="10.00">graphics/Ncurses/src</text>
<text text-anchor="middle" x="1919" y="-62" font-family="Helvetica,sans-Serif" font-size="10.00">/Ncurses.cpp</text>
</a>
</g>
</g>
<!-- Node1&#45;&gt;Node7 -->
<g id="edge7_Node000001_Node000007" class="edge">
<title>Node1&#45;&gt;Node7</title>
<g id="a_edge7_Node000001_Node000007"><a xlink:title=" ">
<path fill="none" stroke="#63b8ff" d="M652,-380.6C955.91,-372.7 2044,-339.47 2044,-269 2044,-269 2044,-269 2044,-201 2044,-145.89 1984.92,-105.11 1947.99,-85.01"/>
<polygon fill="#63b8ff" stroke="#63b8ff" points="651.86,-377.1 641.95,-380.86 652.04,-384.1 651.86,-377.1"/>
</a>
</g>
</g>
<!-- Node8 -->
<g id="Node000008" class="node">
<title>Node8</title>
<g id="a_Node000008"><a xlink:href="SDL2_8cpp.html" target="_top" xlink:title=" ">
<polygon fill="white" stroke="#666666" points="1228.5,-79.5 1077.5,-79.5 1077.5,-60.5 1228.5,-60.5 1228.5,-79.5"/>
<text text-anchor="middle" x="1153" y="-67.5" font-family="Helvetica,sans-Serif" font-size="10.00">graphics/SDL2/src/SDL2.cpp</text>
</a>
</g>
</g>
<!-- Node1&#45;&gt;Node8 -->
<g id="edge8_Node000001_Node000008" class="edge">
<title>Node1&#45;&gt;Node8</title>
<g id="a_edge8_Node000001_Node000008"><a xlink:title=" ">
<path fill="none" stroke="#63b8ff" d="M651.87,-379.48C784.49,-372.2 1040,-347.92 1040,-269 1040,-269 1040,-269 1040,-201 1040,-142.69 1105.56,-97.78 1136.81,-79.69"/>
<polygon fill="#63b8ff" stroke="#63b8ff" points="651.56,-375.99 641.76,-380.02 651.93,-382.98 651.56,-375.99"/>
</a>
</g>
</g>
<!-- Node9 -->
<g id="Node000009" class="node">
<title>Node9</title>
<g id="a_Node000009"><a xlink:href="gfx_8hpp.html" target="_top" xlink:title=" ">
<polygon fill="white" stroke="#666666" points="1386,-338 1258,-338 1258,-319 1386,-319 1386,-338"/>
<text text-anchor="middle" x="1322" y="-326" font-family="Helvetica,sans-Serif" font-size="10.00">shared/include/gfx.hpp</text>
</a>
</g>
</g>
<!-- Node1&#45;&gt;Node9 -->
<g id="edge9_Node000001_Node000009" class="edge">
<title>Node1&#45;&gt;Node9</title>
<g id="a_edge9_Node000001_Node000009"><a xlink:title=" ">
<path fill="none" stroke="#63b8ff" d="M652.09,-376.97C800.59,-366.45 1121.05,-343.74 1257.92,-334.04"/>
<polygon fill="#63b8ff" stroke="#63b8ff" points="651.43,-373.51 641.7,-377.7 651.92,-380.49 651.43,-373.51"/>
</a>
</g>
</g>
<!-- Node3 -->
<g id="Node000003" class="node">
<title>Node3</title>
<g id="a_Node000003"><a xlink:href="MineSweeper_8cpp.html" target="_top" xlink:title=" ">
<polygon fill="white" stroke="#666666" points="485,-85 349,-85 349,-55 485,-55 485,-85"/>
<text text-anchor="start" x="357" y="-73" font-family="Helvetica,sans-Serif" font-size="10.00">games/MineSweeper/src</text>
<text text-anchor="middle" x="417" y="-62" font-family="Helvetica,sans-Serif" font-size="10.00">/MineSweeper.cpp</text>
</a>
</g>
</g>
<!-- Node2&#45;&gt;Node3 -->
<g id="edge2_Node000002_Node000003" class="edge">
<title>Node2&#45;&gt;Node3</title>
<g id="a_edge2_Node000002_Node000003"><a xlink:title=" ">
<path fill="none" stroke="#63b8ff" d="M396.02,-111.68C400.61,-102.79 405.68,-92.95 409.7,-85.16"/>
<polygon fill="#63b8ff" stroke="#63b8ff" points="392.8,-110.3 391.32,-120.8 399.02,-113.51 392.8,-110.3"/>
</a>
</g>
</g>
<!-- Node4 -->
<g id="Node000004" class="node">
<title>Node4</title>
<g id="a_Node000004"><a xlink:href="symEntry_8cpp.html" target="_top" xlink:title=" ">
<polygon fill="white" stroke="#666666" points="331,-85 195,-85 195,-55 331,-55 331,-85"/>
<text text-anchor="start" x="203" y="-73" font-family="Helvetica,sans-Serif" font-size="10.00">games/MineSweeper/src</text>
<text text-anchor="middle" x="263" y="-62" font-family="Helvetica,sans-Serif" font-size="10.00">/symEntry.cpp</text>
</a>
</g>
</g>
<!-- Node2&#45;&gt;Node4 -->
<g id="edge3_Node000002_Node000004" class="edge">
<title>Node2&#45;&gt;Node4</title>
<g id="a_edge3_Node000002_Node000004"><a xlink:title=" ">
<path fill="none" stroke="#63b8ff" d="M348.53,-116.24C329.65,-106.25 306.82,-94.18 289.49,-85.01"/>
<polygon fill="#63b8ff" stroke="#63b8ff" points="346.97,-119.37 357.45,-120.95 350.24,-113.19 346.97,-119.37"/>
</a>
</g>
</g>
<!-- Node5&#45;&gt;Node6 -->
<g id="edge5_Node000005_Node000006" class="edge">
<title>Node5&#45;&gt;Node6</title>
<g id="a_edge5_Node000005_Node000006"><a xlink:title=" ">
<path fill="none" stroke="#63b8ff" d="M116.73,-111.28C112.45,-100.31 107.62,-87.94 104.45,-79.84"/>
<polygon fill="#63b8ff" stroke="#63b8ff" points="113.55,-112.76 120.45,-120.8 120.07,-110.21 113.55,-112.76"/>
</a>
</g>
</g>
<!-- Node9&#45;&gt;Node2 -->
<g id="edge20_Node000009_Node000002" class="edge">
<title>Node9&#45;&gt;Node2</title>
<g id="a_edge20_Node000009_Node000002"><a xlink:title=" ">
<path fill="none" stroke="#63b8ff" d="M1247.78,-327.33C1054.79,-326.36 547.62,-320.25 482,-283 429.17,-253.01 399.26,-181.42 388.55,-151.03"/>
<polygon fill="#63b8ff" stroke="#63b8ff" points="1247.82,-330.83 1257.83,-327.38 1247.85,-323.83 1247.82,-330.83"/>
</a>
</g>
</g>
<!-- Node9&#45;&gt;Node5 -->
<g id="edge21_Node000009_Node000005" class="edge">
<title>Node9&#45;&gt;Node5</title>
<g id="a_edge21_Node000009_Node000005"><a xlink:title=" ">
<path fill="none" stroke="#63b8ff" d="M1247.91,-326.81C1050.01,-324.54 512.33,-315.49 338,-283 247.22,-266.08 201.64,-286.64 141,-217 125.04,-198.67 123.75,-168.86 124.63,-151.27"/>
<polygon fill="#63b8ff" stroke="#63b8ff" points="1247.88,-330.31 1257.92,-326.92 1247.96,-323.31 1247.88,-330.31"/>
</a>
</g>
</g>
<!-- Node9&#45;&gt;Node6 -->
<g id="edge22_Node000009_Node000006" class="edge">
<title>Node9&#45;&gt;Node6</title>
<g id="a_edge22_Node000009_Node000006"><a xlink:title=" ">
<path fill="none" stroke="#63b8ff" d="M1247.4,-327.89C1009,-328.69 275.47,-327.46 179,-283 106.45,-249.56 86.11,-225.39 57,-151 52.14,-138.58 52.29,-133.47 57,-121 63.53,-103.69 79.09,-88.49 89.83,-79.52"/>
<polygon fill="#63b8ff" stroke="#63b8ff" points="1247.72,-331.39 1257.7,-327.85 1247.69,-324.39 1247.72,-331.39"/>
</a>
</g>
</g>
<!-- Node9&#45;&gt;Node7 -->
<g id="edge25_Node000009_Node000007" class="edge">
<title>Node9&#45;&gt;Node7</title>
<g id="a_edge25_Node000009_Node000007"><a xlink:title=" ">
<path fill="none" stroke="#63b8ff" d="M1396.25,-325.13C1536.03,-320.13 1827.77,-306.95 1867,-283 1925.94,-247.01 1930.05,-217.41 1949,-151 1952.66,-138.18 1952.56,-133.85 1949,-121 1945.38,-107.93 1937.33,-94.84 1930.48,-85.34"/>
<polygon fill="#63b8ff" stroke="#63b8ff" points="1395.92,-321.64 1386.05,-325.49 1396.17,-328.63 1395.92,-321.64"/>
</a>
</g>
</g>
<!-- Node9&#45;&gt;Node8 -->
<g id="edge28_Node000009_Node000008" class="edge">
<title>Node9&#45;&gt;Node8</title>
<g id="a_edge28_Node000009_Node000008"><a xlink:title=" ">
<path fill="none" stroke="#63b8ff" d="M1263.02,-316.66C1209.32,-303.32 1133.07,-274.9 1097,-217 1067.29,-169.3 1122.24,-103.28 1144.36,-79.76"/>
<polygon fill="#63b8ff" stroke="#63b8ff" points="1262.24,-320.07 1272.78,-318.98 1263.86,-313.26 1262.24,-320.07"/>
</a>
</g>
</g>
<!-- Node10 -->
<g id="Node000010" class="node">
<title>Node10</title>
<g id="a_Node000010"><a xlink:href="Arcade_8hpp.html" target="_top" xlink:title=" ">
<polygon fill="white" stroke="#666666" points="637,-79.5 503,-79.5 503,-60.5 637,-60.5 637,-79.5"/>
<text text-anchor="middle" x="570" y="-67.5" font-family="Helvetica,sans-Serif" font-size="10.00">core/include/Arcade.hpp</text>
</a>
</g>
</g>
<!-- Node9&#45;&gt;Node10 -->
<g id="edge10_Node000009_Node000010" class="edge">
<title>Node9&#45;&gt;Node10</title>
<g id="a_edge10_Node000009_Node000010"><a xlink:title=" ">
<path fill="none" stroke="#63b8ff" d="M1247.75,-326.87C1101.49,-324.89 781.23,-316.72 677,-283 624.2,-265.92 601.85,-263.13 571,-217 541.55,-172.97 559.52,-103.52 567.11,-79.5"/>
<polygon fill="#63b8ff" stroke="#63b8ff" points="1247.93,-330.37 1257.98,-327 1248.02,-323.37 1247.93,-330.37"/>
</a>
</g>
</g>
<!-- Node11 -->
<g id="Node000011" class="node">
<title>Node11</title>
<g id="a_Node000011"><a xlink:href="Arcade_8cpp.html" target="_top" xlink:title=" ">
<polygon fill="white" stroke="#666666" points="866,-19 754,-19 754,0 866,0 866,-19"/>
<text text-anchor="middle" x="810" y="-7" font-family="Helvetica,sans-Serif" font-size="10.00">core/src/Arcade.cpp</text>
</a>
</g>
</g>
<!-- Node9&#45;&gt;Node11 -->
<g id="edge13_Node000009_Node000011" class="edge">
<title>Node9&#45;&gt;Node11</title>
<g id="a_edge13_Node000009_Node000011"><a xlink:title=" ">
<path fill="none" stroke="#63b8ff" d="M1396.26,-326.89C1530.72,-324.96 1808.94,-316.84 1899,-283 1954.58,-262.11 2006,-262.38 2006,-203 2006,-203 2006,-203 2006,-135 2006,-98.46 2015.24,-78.2 1987,-55 1943.28,-19.08 1095.03,-12.01 866.37,-10.75"/>
<polygon fill="#63b8ff" stroke="#63b8ff" points="1396,-323.4 1386.04,-327.03 1396.09,-330.4 1396,-323.4"/>
</a>
</g>
</g>
<!-- Node13 -->
<g id="Node000013" class="node">
<title>Node13</title>
<g id="a_Node000013"><a xlink:href="Menu_8hpp.html" target="_top" xlink:title=" ">
<polygon fill="white" stroke="#666666" points="1506,-217 1388,-217 1388,-187 1506,-187 1506,-217"/>
<text text-anchor="start" x="1396" y="-205" font-family="Helvetica,sans-Serif" font-size="10.00">games/Menu/include</text>
<text text-anchor="middle" x="1447" y="-194" font-family="Helvetica,sans-Serif" font-size="10.00">/Menu.hpp</text>
</a>
</g>
</g>
<!-- Node9&#45;&gt;Node13 -->
<g id="edge14_Node000009_Node000013" class="edge">
<title>Node9&#45;&gt;Node13</title>
<g id="a_edge14_Node000009_Node000013"><a xlink:title=" ">
<path fill="none" stroke="#63b8ff" d="M1340.91,-312.27C1351,-303.91 1363.46,-293.2 1374,-283 1396.69,-261.02 1421.04,-233.44 1435.1,-217.07"/>
<polygon fill="#63b8ff" stroke="#63b8ff" points="1338.62,-309.63 1333.1,-318.67 1343.05,-315.04 1338.62,-309.63"/>
</a>
</g>
</g>
<!-- Node14 -->
<g id="Node000014" class="node">
<title>Node14</title>
<g id="a_Node000014"><a xlink:href="Menu_8cpp.html" target="_top" xlink:title=" ">
<polygon fill="white" stroke="#666666" points="1939.5,-145.5 1792.5,-145.5 1792.5,-126.5 1939.5,-126.5 1939.5,-145.5"/>
<text text-anchor="middle" x="1866" y="-133.5" font-family="Helvetica,sans-Serif" font-size="10.00">games/Menu/src/Menu.cpp</text>
</a>
</g>
</g>
<!-- Node9&#45;&gt;Node14 -->
<g id="edge18_Node000009_Node000014" class="edge">
<title>Node9&#45;&gt;Node14</title>
<g id="a_edge18_Node000009_Node000014"><a xlink:title=" ">
<path fill="none" stroke="#63b8ff" d="M1396.51,-325.98C1532.56,-322.49 1810.28,-311.9 1843,-283 1883.58,-247.16 1872.89,-171.22 1867.88,-145.63"/>
<polygon fill="#63b8ff" stroke="#63b8ff" points="1396.08,-322.48 1386.17,-326.23 1396.26,-329.48 1396.08,-322.48"/>
</a>
</g>
</g>
<!-- Node15 -->
<g id="Node000015" class="node">
<title>Node15</title>
<g id="a_Node000015"><a xlink:href="MenuUtils_8hpp.html" target="_top" xlink:title=" ">
<polygon fill="white" stroke="#666666" points="1637,-283 1519,-283 1519,-253 1637,-253 1637,-283"/>
<text text-anchor="start" x="1527" y="-271" font-family="Helvetica,sans-Serif" font-size="10.00">games/Menu/include</text>
<text text-anchor="middle" x="1578" y="-260" font-family="Helvetica,sans-Serif" font-size="10.00">/MenuUtils.hpp</text>
</a>
</g>
</g>
<!-- Node9&#45;&gt;Node15 -->
<g id="edge16_Node000009_Node000015" class="edge">
<title>Node9&#45;&gt;Node15</title>
<g id="a_edge16_Node000009_Node000015"><a xlink:title=" ">
<path fill="none" stroke="#63b8ff" d="M1369.24,-316.71C1411.44,-307.06 1473.44,-292.89 1518.91,-282.5"/>
<polygon fill="#63b8ff" stroke="#63b8ff" points="1368.19,-313.35 1359.22,-318.99 1369.75,-320.18 1368.19,-313.35"/>
</a>
</g>
</g>
<!-- Node16 -->
<g id="Node000016" class="node">
<title>Node16</title>
<g id="a_Node000016"><a xlink:href="MenuUtils_8cpp.html" target="_top" xlink:title=" ">
<polygon fill="white" stroke="#666666" points="1694,-211.5 1524,-211.5 1524,-192.5 1694,-192.5 1694,-211.5"/>
<text text-anchor="middle" x="1609" y="-199.5" font-family="Helvetica,sans-Serif" font-size="10.00">games/Menu/src/MenuUtils.cpp</text>
</a>
</g>
</g>
<!-- Node9&#45;&gt;Node16 -->
<g id="edge19_Node000009_Node000016" class="edge">
<title>Node9&#45;&gt;Node16</title>
<g id="a_edge19_Node000009_Node000016"><a xlink:title=" ">
<path fill="none" stroke="#63b8ff" d="M1351.11,-314.87C1409.46,-289.56 1539.42,-233.18 1589.14,-211.62"/>
<polygon fill="#63b8ff" stroke="#63b8ff" points="1349.51,-311.75 1341.73,-318.94 1352.29,-318.17 1349.51,-311.75"/>
</a>
</g>
</g>
<!-- Node17 -->
<g id="Node000017" class="node">
<title>Node17</title>
<g id="a_Node000017"><a xlink:href="Ncurses_8hpp.html" target="_top" xlink:title=" ">
<polygon fill="white" stroke="#666666" points="1774,-151 1636,-151 1636,-121 1774,-121 1774,-151"/>
<text text-anchor="start" x="1644" y="-139" font-family="Helvetica,sans-Serif" font-size="10.00">graphics/Ncurses/include</text>
<text text-anchor="middle" x="1705" y="-128" font-family="Helvetica,sans-Serif" font-size="10.00">/Ncurses.hpp</text>
</a>
</g>
</g>
<!-- Node9&#45;&gt;Node17 -->
<g id="edge23_Node000009_Node000017" class="edge">
<title>Node9&#45;&gt;Node17</title>
<g id="a_edge23_Node000009_Node000017"><a xlink:title=" ">
<path fill="none" stroke="#63b8ff" d="M1396.76,-325.42C1527.19,-321.12 1785.52,-309.36 1817,-283 1850.28,-255.13 1859.58,-222.78 1835,-187 1825.79,-173.6 1790.38,-160.47 1758.83,-151.04"/>
<polygon fill="#63b8ff" stroke="#63b8ff" points="1396.34,-321.93 1386.45,-325.75 1396.56,-328.93 1396.34,-321.93"/>
</a>
</g>
</g>
<!-- Node18 -->
<g id="Node000018" class="node">
<title>Node18</title>
<g id="a_Node000018"><a xlink:href="SDL2_8hpp.html" target="_top" xlink:title=" ">
<polygon fill="white" stroke="#666666" points="1344,-151 1220,-151 1220,-121 1344,-121 1344,-151"/>
<text text-anchor="start" x="1228" y="-139" font-family="Helvetica,sans-Serif" font-size="10.00">graphics/SDL2/include</text>
<text text-anchor="middle" x="1282" y="-128" font-family="Helvetica,sans-Serif" font-size="10.00">/SDL2.hpp</text>
</a>
</g>
</g>
<!-- Node9&#45;&gt;Node18 -->
<g id="edge26_Node000009_Node000018" class="edge">
<title>Node9&#45;&gt;Node18</title>
<g id="a_edge26_Node000009_Node000018"><a xlink:title=" ">
<path fill="none" stroke="#63b8ff" d="M1318.03,-308.6C1310.02,-270.44 1292.06,-184.91 1284.97,-151.12"/>
<polygon fill="#63b8ff" stroke="#63b8ff" points="1314.7,-309.75 1320.18,-318.82 1321.55,-308.31 1314.7,-309.75"/>
</a>
</g>
</g>
<!-- Node19 -->
<g id="Node000019" class="node">
<title>Node19</title>
<g id="a_Node000019"><a xlink:href="SFML_8cpp.html" target="_top" xlink:title=" ">
<polygon fill="white" stroke="#666666" points="1502,-79.5 1348,-79.5 1348,-60.5 1502,-60.5 1502,-79.5"/>
<text text-anchor="middle" x="1425" y="-67.5" font-family="Helvetica,sans-Serif" font-size="10.00">graphics/SFML/src/SFML.cpp</text>
</a>
</g>
</g>
<!-- Node9&#45;&gt;Node19 -->
<g id="edge29_Node000009_Node000019" class="edge">
<title>Node9&#45;&gt;Node19</title>
<g id="a_edge29_Node000009_Node000019"><a xlink:title=" ">
<path fill="none" stroke="#63b8ff" d="M1324.4,-308.81C1329.25,-278.81 1343,-219.92 1379,-187 1419.46,-150 1464.37,-195.07 1497,-151 1517.57,-123.22 1470.81,-93.81 1443.29,-79.64"/>
<polygon fill="#63b8ff" stroke="#63b8ff" points="1320.93,-308.39 1322.95,-318.79 1327.86,-309.39 1320.93,-308.39"/>
</a>
</g>
</g>
<!-- Node20 -->
<g id="Node000020" class="node">
<title>Node20</title>
<g id="a_Node000020"><a xlink:href="GameMatrix_8hpp.html" target="_top" xlink:title=" ">
<polygon fill="white" stroke="#666666" points="353.5,-211.5 180.5,-211.5 180.5,-192.5 353.5,-192.5 353.5,-211.5"/>
<text text-anchor="middle" x="267" y="-199.5" font-family="Helvetica,sans-Serif" font-size="10.00">shared/include/GameMatrix.hpp</text>
</a>
</g>
</g>
<!-- Node9&#45;&gt;Node20 -->
<g id="edge30_Node000009_Node000020" class="edge">
<title>Node9&#45;&gt;Node20</title>
<g id="a_edge30_Node000009_Node000020"><a xlink:title=" ">
<path fill="none" stroke="#63b8ff" d="M1247.98,-325.9C1044.38,-321.22 485.72,-306.39 406,-283 353.63,-267.64 299.97,-228.9 277.7,-211.59"/>
<polygon fill="#63b8ff" stroke="#63b8ff" points="1247.91,-329.4 1257.99,-326.13 1248.07,-322.4 1247.91,-329.4"/>
</a>
</g>
</g>
<!-- Node21 -->
<g id="Node000021" class="node">
<title>Node21</title>
<g id="a_Node000021"><a xlink:href="IDisplay_8hpp.html" target="_top" xlink:title=" ">
<polygon fill="white" stroke="#666666" points="1256,-211.5 1106,-211.5 1106,-192.5 1256,-192.5 1256,-211.5"/>
<text text-anchor="middle" x="1181" y="-199.5" font-family="Helvetica,sans-Serif" font-size="10.00">shared/include/IDisplay.hpp</text>
</a>
</g>
</g>
<!-- Node9&#45;&gt;Node21 -->
<g id="edge34_Node000009_Node000021" class="edge">
<title>Node9&#45;&gt;Node21</title>
<g id="a_edge34_Node000009_Node000021"><a xlink:title=" ">
<path fill="none" stroke="#63b8ff" d="M1304.74,-312.26C1274.85,-285.87 1214.37,-232.47 1190.76,-211.62"/>
<polygon fill="#63b8ff" stroke="#63b8ff" points="1302.5,-314.95 1312.31,-318.94 1307.13,-309.7 1302.5,-314.95"/>
</a>
</g>
</g>
<!-- Node25 -->
<g id="Node000025" class="node">
<title>Node25</title>
<g id="a_Node000025"><a xlink:href="IGame_8hpp.html" target="_top" xlink:title=" ">
<polygon fill="white" stroke="#666666" points="830,-277.5 686,-277.5 686,-258.5 830,-258.5 830,-277.5"/>
<text text-anchor="middle" x="758" y="-265.5" font-family="Helvetica,sans-Serif" font-size="10.00">shared/include/IGame.hpp</text>
</a>
</g>
</g>
<!-- Node9&#45;&gt;Node25 -->
<g id="edge46_Node000009_Node000025" class="edge">
<title>Node9&#45;&gt;Node25</title>
<g id="a_edge46_Node000009_Node000025"><a xlink:title=" ">
<path fill="none" stroke="#63b8ff" d="M1247.62,-319.78C1138.81,-308.5 937.55,-287.62 830.07,-276.48"/>
<polygon fill="#63b8ff" stroke="#63b8ff" points="1247.54,-323.3 1257.85,-320.85 1248.27,-316.33 1247.54,-323.3"/>
</a>
</g>
</g>
<!-- Node28 -->
<g id="Node000028" class="node">
<title>Node28</title>
<g id="a_Node000028"><a xlink:href="Utils_8hpp.html" target="_top" xlink:title=" ">
<polygon fill="white" stroke="#666666" points="1808,-277.5 1674,-277.5 1674,-258.5 1808,-258.5 1808,-277.5"/>
<text text-anchor="middle" x="1741" y="-265.5" font-family="Helvetica,sans-Serif" font-size="10.00">shared/include/Utils.hpp</text>
</a>
</g>
</g>
<!-- Node9&#45;&gt;Node28 -->
<g id="edge62_Node000009_Node000028" class="edge">
<title>Node9&#45;&gt;Node28</title>
<g id="a_edge62_Node000009_Node000028"><a xlink:title=" ">
<path fill="none" stroke="#63b8ff" d="M1395.6,-317.6C1461.29,-308.72 1560.1,-295.23 1646,-283 1658.21,-281.26 1671.3,-279.36 1683.74,-277.53"/>
<polygon fill="#63b8ff" stroke="#63b8ff" points="1394.79,-314.18 1385.35,-318.99 1395.73,-321.12 1394.79,-314.18"/>
</a>
</g>
</g>
<!-- Node10&#45;&gt;Node11 -->
<g id="edge11_Node000010_Node000011" class="edge">
<title>Node10&#45;&gt;Node11</title>
<g id="a_edge11_Node000010_Node000011"><a xlink:title=" ">
<path fill="none" stroke="#63b8ff" d="M614.68,-58.11C661.06,-46.8 732.65,-29.35 775.06,-19.02"/>
<polygon fill="#63b8ff" stroke="#63b8ff" points="613.78,-54.72 604.9,-60.49 615.44,-61.53 613.78,-54.72"/>
</a>
</g>
</g>
<!-- Node12 -->
<g id="Node000012" class="node">
<title>Node12</title>
<g id="a_Node000012"><a xlink:href="main_8cpp.html" target="_top" xlink:title=" ">
<polygon fill="white" stroke="#666666" points="621.5,-19 518.5,-19 518.5,0 621.5,0 621.5,-19"/>
<text text-anchor="middle" x="570" y="-7" font-family="Helvetica,sans-Serif" font-size="10.00">core/src/main.cpp</text>
</a>
</g>
</g>
<!-- Node10&#45;&gt;Node12 -->
<g id="edge12_Node000010_Node000012" class="edge">
<title>Node10&#45;&gt;Node12</title>
<g id="a_edge12_Node000010_Node000012"><a xlink:title=" ">
<path fill="none" stroke="#63b8ff" d="M570,-50.16C570,-39.74 570,-27.3 570,-19.17"/>
<polygon fill="#63b8ff" stroke="#63b8ff" points="566.5,-50.37 570,-60.37 573.5,-50.37 566.5,-50.37"/>
</a>
</g>
</g>
<!-- Node13&#45;&gt;Node14 -->
<g id="edge15_Node000013_Node000014" class="edge">
<title>Node13&#45;&gt;Node14</title>
<g id="a_edge15_Node000013_Node000014"><a xlink:title=" ">
<path fill="none" stroke="#63b8ff" d="M1516.16,-186.87C1635.16,-166.97 1667.31,-168.52 1783,-151 1793.98,-149.34 1805.76,-147.43 1816.89,-145.56"/>
<polygon fill="#63b8ff" stroke="#63b8ff" points="1515.57,-183.42 1506.29,-188.54 1516.74,-190.33 1515.57,-183.42"/>
</a>
</g>
</g>
<!-- Node15&#45;&gt;Node16 -->
<g id="edge17_Node000015_Node000016" class="edge">
<title>Node15&#45;&gt;Node16</title>
<g id="a_edge17_Node000015_Node000016"><a xlink:title=" ">
<path fill="none" stroke="#63b8ff" d="M1589.33,-243.61C1594.68,-232.56 1600.75,-220.03 1604.72,-211.84"/>
<polygon fill="#63b8ff" stroke="#63b8ff" points="1586.09,-242.27 1584.88,-252.8 1592.39,-245.32 1586.09,-242.27"/>
</a>
</g>
</g>
<!-- Node17&#45;&gt;Node7 -->
<g id="edge24_Node000017_Node000007" class="edge">
<title>Node17&#45;&gt;Node7</title>
<g id="a_edge24_Node000017_Node000007"><a xlink:title=" ">
<path fill="none" stroke="#63b8ff" d="M1761.88,-117.99C1796.31,-107.69 1839.7,-94.72 1872.15,-85.01"/>
<polygon fill="#63b8ff" stroke="#63b8ff" points="1760.54,-114.74 1751.96,-120.95 1762.55,-121.44 1760.54,-114.74"/>
</a>
</g>
</g>
<!-- Node18&#45;&gt;Node8 -->
<g id="edge27_Node000018_Node000008" class="edge">
<title>Node18&#45;&gt;Node8</title>
<g id="a_edge27_Node000018_Node000008"><a xlink:title=" ">
<path fill="none" stroke="#63b8ff" d="M1244.63,-116.46C1220.06,-104.27 1189.08,-88.9 1170.17,-79.52"/>
<polygon fill="#63b8ff" stroke="#63b8ff" points="1243.18,-119.65 1253.69,-120.95 1246.29,-113.38 1243.18,-119.65"/>
</a>
</g>
</g>
<!-- Node20&#45;&gt;Node2 -->
<g id="edge31_Node000020_Node000002" class="edge">
<title>Node20&#45;&gt;Node2</title>
<g id="a_edge31_Node000020_Node000002"><a xlink:title=" ">
<path fill="none" stroke="#63b8ff" d="M291.68,-187.5C311.21,-176.82 338.39,-161.95 358.19,-151.12"/>
<polygon fill="#63b8ff" stroke="#63b8ff" points="289.87,-184.5 282.78,-192.37 293.23,-190.64 289.87,-184.5"/>
</a>
</g>
</g>
<!-- Node20&#45;&gt;Node5 -->
<g id="edge32_Node000020_Node000005" class="edge">
<title>Node20&#45;&gt;Node5</title>
<g id="a_edge32_Node000020_Node000005"><a xlink:title=" ">
<path fill="none" stroke="#63b8ff" d="M238.84,-188.22C215.22,-177.5 181.51,-162.2 157.1,-151.12"/>
<polygon fill="#63b8ff" stroke="#63b8ff" points="237.43,-191.42 247.98,-192.37 240.32,-185.05 237.43,-191.42"/>
</a>
</g>
</g>
<!-- Node20&#45;&gt;Node6 -->
<g id="edge33_Node000020_Node000006" class="edge">
<title>Node20&#45;&gt;Node6</title>
<g id="a_edge33_Node000020_Node000006"><a xlink:title=" ">
<path fill="none" stroke="#63b8ff" d="M254.81,-184.31C241.53,-166.94 218.95,-139.72 195,-121 172.13,-103.13 141.96,-88.37 122.04,-79.63"/>
<polygon fill="#63b8ff" stroke="#63b8ff" points="252.07,-186.49 260.87,-192.4 257.68,-182.3 252.07,-186.49"/>
</a>
</g>
</g>
<!-- Node21&#45;&gt;Node8 -->
<g id="edge42_Node000021_Node000008" class="edge">
<title>Node21&#45;&gt;Node8</title>
<g id="a_edge42_Node000021_Node000008"><a xlink:title=" ">
<path fill="none" stroke="#63b8ff" d="M1177.04,-182.61C1170.92,-154.19 1159.39,-100.69 1154.88,-79.73"/>
<polygon fill="#63b8ff" stroke="#63b8ff" points="1173.64,-183.43 1179.16,-192.47 1180.48,-181.96 1173.64,-183.43"/>
</a>
</g>
</g>
<!-- Node21&#45;&gt;Node17 -->
<g id="edge40_Node000021_Node000017" class="edge">
<title>Node21&#45;&gt;Node17</title>
<g id="a_edge40_Node000021_Node000017"><a xlink:title=" ">
<path fill="none" stroke="#63b8ff" d="M1242.87,-190.93C1251.96,-189.55 1261.22,-188.2 1270,-187 1398.99,-169.45 1550.06,-153 1635.95,-144.04"/>
<polygon fill="#63b8ff" stroke="#63b8ff" points="1242.07,-187.51 1232.71,-192.49 1243.13,-194.43 1242.07,-187.51"/>
</a>
</g>
</g>
<!-- Node21&#45;&gt;Node18 -->
<g id="edge41_Node000021_Node000018" class="edge">
<title>Node21&#45;&gt;Node18</title>
<g id="a_edge41_Node000021_Node000018"><a xlink:title=" ">
<path fill="none" stroke="#63b8ff" d="M1203.23,-186.91C1220.01,-176.28 1242.93,-161.75 1259.72,-151.12"/>
<polygon fill="#63b8ff" stroke="#63b8ff" points="1201.19,-184.06 1194.62,-192.37 1204.94,-189.97 1201.19,-184.06"/>
</a>
</g>
</g>
<!-- Node21&#45;&gt;Node19 -->
<g id="edge45_Node000021_Node000019" class="edge">
<title>Node21&#45;&gt;Node19</title>
<g id="a_edge45_Node000021_Node000019"><a xlink:title=" ">
<path fill="none" stroke="#63b8ff" d="M1182.98,-182.24C1185.92,-163.94 1193.19,-136.65 1211,-121 1232.82,-101.83 1304.38,-87.78 1358.8,-79.54"/>
<polygon fill="#63b8ff" stroke="#63b8ff" points="1179.49,-181.91 1181.65,-192.28 1186.43,-182.83 1179.49,-181.91"/>
</a>
</g>
</g>
<!-- Node22 -->
<g id="Node000022" class="node">
<title>Node22</title>
<g id="a_Node000022"><a xlink:href="Display_8hpp.html" target="_top" xlink:title=" ">
<polygon fill="white" stroke="#666666" points="973.5,-145.5 838.5,-145.5 838.5,-126.5 973.5,-126.5 973.5,-145.5"/>
<text text-anchor="middle" x="906" y="-133.5" font-family="Helvetica,sans-Serif" font-size="10.00">core/include/Display.hpp</text>
</a>
</g>
</g>
<!-- Node21&#45;&gt;Node22 -->
<g id="edge35_Node000021_Node000022" class="edge">
<title>Node21&#45;&gt;Node22</title>
<g id="a_edge35_Node000021_Node000022"><a xlink:title=" ">
<path fill="none" stroke="#63b8ff" d="M1134.17,-190.1C1080,-177.49 991.97,-157.01 942.58,-145.51"/>
<polygon fill="#63b8ff" stroke="#63b8ff" points="1133.66,-193.58 1144.2,-192.44 1135.25,-186.76 1133.66,-193.58"/>
</a>
</g>
</g>
<!-- Node23 -->
<g id="Node000023" class="node">
<title>Node23</title>
<g id="a_Node000023"><a xlink:href="Display_8cpp.html" target="_top" xlink:title=" ">
<polygon fill="white" stroke="#666666" points="1058.5,-79.5 945.5,-79.5 945.5,-60.5 1058.5,-60.5 1058.5,-79.5"/>
<text text-anchor="middle" x="1002" y="-67.5" font-family="Helvetica,sans-Serif" font-size="10.00">core/src/Display.cpp</text>
</a>
</g>
</g>
<!-- Node21&#45;&gt;Node23 -->
<g id="edge39_Node000021_Node000023" class="edge">
<title>Node21&#45;&gt;Node23</title>
<g id="a_edge39_Node000021_Node000023"><a xlink:title=" ">
<path fill="none" stroke="#63b8ff" d="M1161.14,-186.58C1123.83,-159.48 1044.28,-101.71 1014.02,-79.73"/>
<polygon fill="#63b8ff" stroke="#63b8ff" points="1159.11,-189.43 1169.26,-192.47 1163.22,-183.76 1159.11,-189.43"/>
</a>
</g>
</g>
<!-- Node24 -->
<g id="Node000024" class="node">
<title>Node24</title>
<g id="a_Node000024"><a xlink:href="SFML_8hpp.html" target="_top" xlink:title=" ">
<polygon fill="white" stroke="#666666" points="1487.5,-151 1362.5,-151 1362.5,-121 1487.5,-121 1487.5,-151"/>
<text text-anchor="start" x="1370.5" y="-139" font-family="Helvetica,sans-Serif" font-size="10.00">graphics/SFML/include</text>
<text text-anchor="middle" x="1425" y="-128" font-family="Helvetica,sans-Serif" font-size="10.00">/SFML.hpp</text>
</a>
</g>
</g>
<!-- Node21&#45;&gt;Node24 -->
<g id="edge43_Node000021_Node000024" class="edge">
<title>Node21&#45;&gt;Node24</title>
<g id="a_edge43_Node000021_Node000024"><a xlink:title=" ">
<path fill="none" stroke="#63b8ff" d="M1223.36,-189.89C1264.48,-179.1 1327.01,-162.7 1371.53,-151.02"/>
<polygon fill="#63b8ff" stroke="#63b8ff" points="1222.44,-186.51 1213.65,-192.44 1224.21,-193.28 1222.44,-186.51"/>
</a>
</g>
</g>
<!-- Node22&#45;&gt;Node10 -->
<g id="edge36_Node000022_Node000010" class="edge">
<title>Node22&#45;&gt;Node10</title>
<g id="a_edge36_Node000022_Node000010"><a xlink:title=" ">
<path fill="none" stroke="#63b8ff" d="M850.83,-124.49C784.84,-111.92 675.67,-91.13 614.7,-79.51"/>
<polygon fill="#63b8ff" stroke="#63b8ff" points="850.56,-128 861.03,-126.44 851.87,-121.13 850.56,-128"/>
</a>
</g>
</g>
<!-- Node22&#45;&gt;Node11 -->
<g id="edge37_Node000022_Node000011" class="edge">
<title>Node22&#45;&gt;Node11</title>
<g id="a_edge37_Node000022_Node000011"><a xlink:title=" ">
<path fill="none" stroke="#63b8ff" d="M893.19,-118.39C872.5,-91.55 832.45,-39.61 816.64,-19.12"/>
<polygon fill="#63b8ff" stroke="#63b8ff" points="890.52,-120.66 899.4,-126.44 896.07,-116.39 890.52,-120.66"/>
</a>
</g>
</g>
<!-- Node22&#45;&gt;Node23 -->
<g id="edge38_Node000022_Node000023" class="edge">
<title>Node22&#45;&gt;Node23</title>
<g id="a_edge38_Node000022_Node000023"><a xlink:title=" ">
<path fill="none" stroke="#63b8ff" d="M927.48,-120.68C946.34,-108.11 973.16,-90.23 988.95,-79.7"/>
<polygon fill="#63b8ff" stroke="#63b8ff" points="925.33,-117.91 918.95,-126.37 929.21,-123.73 925.33,-117.91"/>
</a>
</g>
</g>
<!-- Node24&#45;&gt;Node19 -->
<g id="edge44_Node000024_Node000019" class="edge">
<title>Node24&#45;&gt;Node19</title>
<g id="a_edge44_Node000024_Node000019"><a xlink:title=" ">
<path fill="none" stroke="#63b8ff" d="M1425,-110.6C1425,-99.8 1425,-87.78 1425,-79.84"/>
<polygon fill="#63b8ff" stroke="#63b8ff" points="1421.5,-110.8 1425,-120.8 1428.5,-110.8 1421.5,-110.8"/>
</a>
</g>
</g>
<!-- Node25&#45;&gt;Node2 -->
<g id="edge57_Node000025_Node000002" class="edge">
<title>Node25&#45;&gt;Node2</title>
<g id="a_edge57_Node000025_Node000002"><a xlink:title=" ">
<path fill="none" stroke="#63b8ff" d="M678.44,-256.9C631.29,-249.3 570.99,-236.74 520,-217 475.55,-199.79 428.7,-169.02 403.24,-151.07"/>
<polygon fill="#63b8ff" stroke="#63b8ff" points="678.18,-260.4 688.6,-258.49 679.26,-253.49 678.18,-260.4"/>
</a>
</g>
</g>
<!-- Node25&#45;&gt;Node5 -->
<g id="edge58_Node000025_Node000005" class="edge">
<title>Node25&#45;&gt;Node5</title>
<g id="a_edge58_Node000025_Node000005"><a xlink:title=" ">
<path fill="none" stroke="#63b8ff" d="M675.55,-264.18C524.15,-258.38 213.46,-243.4 172,-217 148.22,-201.85 135.39,-169.72 129.7,-151.12"/>
<polygon fill="#63b8ff" stroke="#63b8ff" points="675.6,-267.68 685.73,-264.56 675.87,-260.69 675.6,-267.68"/>
</a>
</g>
</g>
<!-- Node25&#45;&gt;Node6 -->
<g id="edge59_Node000025_Node000006" class="edge">
<title>Node25&#45;&gt;Node6</title>
<g id="a_edge59_Node000025_Node000006"><a xlink:title=" ">
<path fill="none" stroke="#63b8ff" d="M685.63,-256.53C649.51,-249.15 606.14,-236.92 571,-217 517.68,-186.78 527.25,-147.53 472,-121 356.51,-65.55 312.78,-103.41 186,-85 174.6,-83.34 162.37,-81.42 150.84,-79.53"/>
<polygon fill="#63b8ff" stroke="#63b8ff" points="685.13,-260 695.61,-258.49 686.47,-253.13 685.13,-260"/>
</a>
</g>
</g>
<!-- Node25&#45;&gt;Node10 -->
<g id="edge47_Node000025_Node000010" class="edge">
<title>Node25&#45;&gt;Node10</title>
<g id="a_edge47_Node000025_Node000010"><a xlink:title=" ">
<path fill="none" stroke="#63b8ff" d="M676.13,-260.63C645.5,-254.05 613.07,-241.32 592,-217 556.75,-176.31 564.53,-104.13 568.46,-79.51"/>
<polygon fill="#63b8ff" stroke="#63b8ff" points="675.5,-264.07 685.99,-262.55 676.84,-257.2 675.5,-264.07"/>
</a>
</g>
</g>
<!-- Node25&#45;&gt;Node11 -->
<g id="edge52_Node000025_Node000011" class="edge">
<title>Node25&#45;&gt;Node11</title>
<g id="a_edge52_Node000025_Node000011"><a xlink:title=" ">
<path fill="none" stroke="#63b8ff" d="M764.08,-248.73C771.42,-226.04 783.68,-186.05 791,-151 801.31,-101.61 807.29,-41.22 809.27,-19.13"/>
<polygon fill="#63b8ff" stroke="#63b8ff" points="760.7,-247.78 760.91,-258.37 767.35,-249.96 760.7,-247.78"/>
</a>
</g>
</g>
<!-- Node25&#45;&gt;Node13 -->
<g id="edge55_Node000025_Node000013" class="edge">
<title>Node25&#45;&gt;Node13</title>
<g id="a_edge55_Node000025_Node000013"><a xlink:title=" ">
<path fill="none" stroke="#63b8ff" d="M840.04,-259.44C945.87,-249.68 1135.67,-232.14 1298,-217 1327.62,-214.24 1360.55,-211.15 1387.91,-208.57"/>
<polygon fill="#63b8ff" stroke="#63b8ff" points="839.7,-255.96 830.06,-260.36 840.34,-262.93 839.7,-255.96"/>
</a>
</g>
</g>
<!-- Node25&#45;&gt;Node14 -->
<g id="edge56_Node000025_Node000014" class="edge">
<title>Node25&#45;&gt;Node14</title>
<g id="a_edge56_Node000025_Node000014"><a xlink:title=" ">
<path fill="none" stroke="#63b8ff" d="M840.4,-262.91C941.17,-256.98 1116.66,-243.66 1265,-217 1316.57,-207.73 1327.39,-196.02 1379,-187 1556.57,-155.95 1604.21,-174.01 1783,-151 1794.74,-149.49 1807.36,-147.53 1819.13,-145.56"/>
<polygon fill="#63b8ff" stroke="#63b8ff" points="840.06,-259.42 830.28,-263.49 840.47,-266.41 840.06,-259.42"/>
</a>
</g>
</g>
<!-- Node25&#45;&gt;Node20 -->
<g id="edge60_Node000025_Node000020" class="edge">
<title>Node25&#45;&gt;Node20</title>
<g id="a_edge60_Node000025_Node000020"><a xlink:title=" ">
<path fill="none" stroke="#63b8ff" d="M682.35,-257.14C586.54,-244.65 423.05,-223.34 332.4,-211.52"/>
<polygon fill="#63b8ff" stroke="#63b8ff" points="682.18,-260.65 692.55,-258.47 683.08,-253.7 682.18,-260.65"/>
</a>
</g>
</g>
<!-- Node25&#45;&gt;Node21 -->
<g id="edge61_Node000025_Node000021" class="edge">
<title>Node25&#45;&gt;Node21</title>
<g id="a_edge61_Node000025_Node000021"><a xlink:title=" ">
<path fill="none" stroke="#63b8ff" d="M824.66,-256.91C907.41,-244.39 1047.1,-223.26 1124.73,-211.51"/>
<polygon fill="#63b8ff" stroke="#63b8ff" points="823.97,-253.48 814.61,-258.44 825.02,-260.4 823.97,-253.48"/>
</a>
</g>
</g>
<!-- Node25&#45;&gt;Node23 -->
<g id="edge53_Node000025_Node000023" class="edge">
<title>Node25&#45;&gt;Node23</title>
<g id="a_edge53_Node000025_Node000023"><a xlink:title=" ">
<path fill="none" stroke="#63b8ff" d="M804.39,-255.61C855.92,-240.51 937.8,-208.76 983,-151 999.8,-129.53 1002.11,-95.56 1002.2,-79.7"/>
<polygon fill="#63b8ff" stroke="#63b8ff" points="803.17,-252.32 794.51,-258.41 805.08,-259.05 803.17,-252.32"/>
</a>
</g>
</g>
<!-- Node26 -->
<g id="Node000026" class="node">
<title>Node26</title>
<g id="a_Node000026"><a xlink:href="Game_8hpp.html" target="_top" xlink:title=" ">
<polygon fill="white" stroke="#666666" points="729.5,-211.5 600.5,-211.5 600.5,-192.5 729.5,-192.5 729.5,-211.5"/>
<text text-anchor="middle" x="665" y="-199.5" font-family="Helvetica,sans-Serif" font-size="10.00">core/include/Game.hpp</text>
</a>
</g>
</g>
<!-- Node25&#45;&gt;Node26 -->
<g id="edge48_Node000025_Node000026" class="edge">
<title>Node25&#45;&gt;Node26</title>
<g id="a_edge48_Node000025_Node000026"><a xlink:title=" ">
<path fill="none" stroke="#63b8ff" d="M737.19,-252.68C718.92,-240.11 692.94,-222.23 677.64,-211.7"/>
<polygon fill="#63b8ff" stroke="#63b8ff" points="735.24,-255.58 745.46,-258.37 739.2,-249.82 735.24,-255.58"/>
</a>
</g>
</g>
<!-- Node27 -->
<g id="Node000027" class="node">
<title>Node27</title>
<g id="a_Node000027"><a xlink:href="Game_8cpp.html" target="_top" xlink:title=" ">
<polygon fill="white" stroke="#666666" points="781.5,-145.5 674.5,-145.5 674.5,-126.5 781.5,-126.5 781.5,-145.5"/>
<text text-anchor="middle" x="728" y="-133.5" font-family="Helvetica,sans-Serif" font-size="10.00">core/src/Game.cpp</text>
</a>
</g>
</g>
<!-- Node25&#45;&gt;Node27 -->
<g id="edge54_Node000025_Node000027" class="edge">
<title>Node25&#45;&gt;Node27</title>
<g id="a_edge54_Node000025_Node000027"><a xlink:title=" ">
<path fill="none" stroke="#63b8ff" d="M753.76,-248.61C747.2,-220.19 734.85,-166.69 730.01,-145.73"/>
<polygon fill="#63b8ff" stroke="#63b8ff" points="750.37,-249.51 756.03,-258.47 757.19,-247.94 750.37,-249.51"/>
</a>
</g>
</g>
<!-- Node26&#45;&gt;Node10 -->
<g id="edge49_Node000026_Node000010" class="edge">
<title>Node26&#45;&gt;Node10</title>
<g id="a_edge49_Node000026_Node000010"><a xlink:title=" ">
<path fill="none" stroke="#63b8ff" d="M652.65,-184.1C632.19,-156.1 591.97,-101.06 576.38,-79.73"/>
<polygon fill="#63b8ff" stroke="#63b8ff" points="650.04,-186.46 658.77,-192.47 655.69,-182.33 650.04,-186.46"/>
</a>
</g>
</g>
<!-- Node26&#45;&gt;Node11 -->
<g id="edge50_Node000026_Node000011" class="edge">
<title>Node26&#45;&gt;Node11</title>
<g id="a_edge50_Node000026_Node000011"><a xlink:title=" ">
<path fill="none" stroke="#63b8ff" d="M660.81,-182.25C658.01,-165.31 656.4,-140.17 666,-121 692.25,-68.59 756.37,-34.01 789.48,-19.01"/>
<polygon fill="#63b8ff" stroke="#63b8ff" points="657.46,-183.35 662.81,-192.49 664.33,-182.01 657.46,-183.35"/>
</a>
</g>
</g>
<!-- Node26&#45;&gt;Node27 -->
<g id="edge51_Node000026_Node000027" class="edge">
<title>Node26&#45;&gt;Node27</title>
<g id="a_edge51_Node000026_Node000027"><a xlink:title=" ">
<path fill="none" stroke="#63b8ff" d="M680.77,-184.98C692.94,-172.62 709.31,-155.99 719.23,-145.91"/>
<polygon fill="#63b8ff" stroke="#63b8ff" points="678.02,-182.79 673.5,-192.37 683.01,-187.7 678.02,-182.79"/>
</a>
</g>
</g>
<!-- Node28&#45;&gt;Node14 -->
<g id="edge63_Node000028_Node000014" class="edge">
<title>Node28&#45;&gt;Node14</title>
<g id="a_edge63_Node000028_Node000014"><a xlink:title=" ">
<path fill="none" stroke="#63b8ff" d="M1777.65,-254.68C1796.93,-246.59 1819.68,-234.27 1835,-217 1853.88,-195.72 1861.85,-161.66 1864.67,-145.74"/>
<polygon fill="#63b8ff" stroke="#63b8ff" points="1776.23,-251.48 1768.23,-258.42 1778.82,-257.98 1776.23,-251.48"/>
</a>
</g>
</g>
<!-- Node28&#45;&gt;Node16 -->
<g id="edge64_Node000028_Node000016" class="edge">
<title>Node28&#45;&gt;Node16</title>
<g id="a_edge64_Node000028_Node000016"><a xlink:title=" ">
<path fill="none" stroke="#63b8ff" d="M1713.9,-253.86C1687.89,-241.25 1649.35,-222.56 1626.94,-211.7"/>
<polygon fill="#63b8ff" stroke="#63b8ff" points="1712.67,-257.16 1723.2,-258.37 1715.73,-250.86 1712.67,-257.16"/>
</a>
</g>
</g>
<!-- Node29 -->
<g id="Node000029" class="node">
<title>Node29</title>
<g id="a_Node000029"><a xlink:href="Utils_8cpp.html" target="_top" xlink:title=" ">
<polygon fill="white" stroke="#666666" points="1825.5,-211.5 1712.5,-211.5 1712.5,-192.5 1825.5,-192.5 1825.5,-211.5"/>
<text text-anchor="middle" x="1769" y="-199.5" font-family="Helvetica,sans-Serif" font-size="10.00">shared/src/Utils.cpp</text>
</a>
</g>
</g>
<!-- Node28&#45;&gt;Node29 -->
<g id="edge65_Node000028_Node000029" class="edge">
<title>Node28&#45;&gt;Node29</title>
<g id="a_edge65_Node000028_Node000029"><a xlink:title=" ">
<path fill="none" stroke="#63b8ff" d="M1748.79,-249.18C1754.1,-237.05 1760.9,-221.51 1765.1,-211.91"/>
<polygon fill="#63b8ff" stroke="#63b8ff" points="1745.58,-247.8 1744.78,-258.37 1751.99,-250.61 1745.58,-247.8"/>
</a>
</g>
</g>
</g>
</svg>
