<?xml version="1.0" encoding="UTF-8" standalone="no"?>
<!DOCTYPE svg PUBLIC "-//W3C//DTD SVG 1.1//EN"
 "http://www.w3.org/Graphics/SVG/1.1/DTD/svg11.dtd">
<!-- Generated by graphviz version 2.43.0 (0)
 -->
<!-- Title: main Pages: 1 -->
<svg width="458pt" height="175pt"
 viewBox="0.00 0.00 458.00 175.00" xmlns="http://www.w3.org/2000/svg" xmlns:xlink="http://www.w3.org/1999/xlink">
<g id="graph0" class="graph" transform="scale(1 1) rotate(0) translate(4 171)">
<title>main</title>
<!-- Node1 -->
<g id="Node000001" class="node">
<title>Node1</title>
<g id="a_Node000001"><a xlink:title=" ">
<polygon fill="#999999" stroke="#666666" points="41,-93 0,-93 0,-74 41,-74 41,-93"/>
<text text-anchor="middle" x="20.5" y="-81" font-family="Helvetica,sans-Serif" font-size="10.00">main</text>
</a>
</g>
</g>
<!-- Node2 -->
<g id="Node000002" class="node">
<title>Node2</title>
<g id="a_Node000002"><a xlink:href="classCore.html#adcc93b561dfefacfe2bcbd60604ea7a6" target="_top" xlink:title=" ">
<polygon fill="white" stroke="#666666" points="138,-93 77,-93 77,-74 138,-74 138,-93"/>
<text text-anchor="middle" x="107.5" y="-81" font-family="Helvetica,sans-Serif" font-size="10.00">Core::run</text>
</a>
</g>
</g>
<!-- Node1&#45;&gt;Node2 -->
<g id="edge1_Node000001_Node000002" class="edge">
<title>Node1&#45;&gt;Node2</title>
<g id="a_edge1_Node000001_Node000002"><a xlink:title=" ">
<path fill="none" stroke="#63b8ff" d="M41.21,-83.5C48.83,-83.5 57.83,-83.5 66.67,-83.5"/>
<polygon fill="#63b8ff" stroke="#63b8ff" points="66.89,-87 76.89,-83.5 66.89,-80 66.89,-87"/>
</a>
</g>
</g>
<!-- Node3 -->
<g id="Node000003" class="node">
<title>Node3</title>
<g id="a_Node000003"><a xlink:href="classCore.html#afe597641aab90826b397459ef11cd105" target="_top" xlink:title=" ">
<polygon fill="white" stroke="#666666" points="272,-93 174,-93 174,-74 272,-74 272,-93"/>
<text text-anchor="middle" x="223" y="-81" font-family="Helvetica,sans-Serif" font-size="10.00">Core::doIteration</text>
</a>
</g>
</g>
<!-- Node2&#45;&gt;Node3 -->
<g id="edge2_Node000002_Node000003" class="edge">
<title>Node2&#45;&gt;Node3</title>
<g id="a_edge2_Node000002_Node000003"><a xlink:title=" ">
<path fill="none" stroke="#63b8ff" d="M138.02,-83.5C145.95,-83.5 154.8,-83.5 163.7,-83.5"/>
<polygon fill="#63b8ff" stroke="#63b8ff" points="163.72,-87 173.72,-83.5 163.72,-80 163.72,-87"/>
</a>
</g>
</g>
<!-- Node4 -->
<g id="Node000004" class="node">
<title>Node4</title>
<g id="a_Node000004"><a xlink:href="classGame.html#a071b760d7cfb9023f2b8815c9e26bbe8" target="_top" xlink:title=" ">
<polygon fill="white" stroke="#666666" points="426.5,-167 331.5,-167 331.5,-148 426.5,-148 426.5,-167"/>
<text text-anchor="middle" x="379" y="-155" font-family="Helvetica,sans-Serif" font-size="10.00">Game::getEvent</text>
</a>
</g>
</g>
<!-- Node3&#45;&gt;Node4 -->
<g id="edge3_Node000003_Node000004" class="edge">
<title>Node3&#45;&gt;Node4</title>
<g id="a_edge3_Node000003_Node000004"><a xlink:title=" ">
<path fill="none" stroke="#63b8ff" d="M235.49,-93.02C251.02,-105.42 279.99,-127 308,-139.5 312.42,-141.47 317.1,-143.26 321.86,-144.88"/>
<polygon fill="#63b8ff" stroke="#63b8ff" points="321.1,-148.3 331.68,-147.94 323.18,-141.62 321.1,-148.3"/>
</a>
</g>
</g>
<!-- Node5 -->
<g id="Node000005" class="node">
<title>Node5</title>
<g id="a_Node000005"><a xlink:href="classGame.html#a8fe4396993f4234d3254cc9a05001e39" target="_top" xlink:title=" ">
<polygon fill="white" stroke="#666666" points="450,-130 308,-130 308,-111 450,-111 450,-130"/>
<text text-anchor="middle" x="379" y="-118" font-family="Helvetica,sans-Serif" font-size="10.00">Game::getGfxInstructions</text>
</a>
</g>
</g>
<!-- Node3&#45;&gt;Node5 -->
<g id="edge4_Node000003_Node000005" class="edge">
<title>Node3&#45;&gt;Node5</title>
<g id="a_edge4_Node000003_Node000005"><a xlink:title=" ">
<path fill="none" stroke="#63b8ff" d="M263.66,-93.03C283.34,-97.76 307.32,-103.52 328.22,-108.54"/>
<polygon fill="#63b8ff" stroke="#63b8ff" points="327.67,-112.01 338.21,-110.94 329.3,-105.2 327.67,-112.01"/>
</a>
</g>
</g>
<!-- Node6 -->
<g id="Node000006" class="node">
<title>Node6</title>
<g id="a_Node000006"><a xlink:href="classDisplay.html#a4b02d67bb1cc1f4d9ea91b7c3f70bcac" target="_top" xlink:title=" ">
<polygon fill="white" stroke="#666666" points="434,-93 324,-93 324,-74 434,-74 434,-93"/>
<text text-anchor="middle" x="379" y="-81" font-family="Helvetica,sans-Serif" font-size="10.00">Display::pollEvents</text>
</a>
</g>
</g>
<!-- Node3&#45;&gt;Node6 -->
<g id="edge5_Node000003_Node000006" class="edge">
<title>Node3&#45;&gt;Node6</title>
<g id="a_edge5_Node000003_Node000006"><a xlink:title=" ">
<path fill="none" stroke="#63b8ff" d="M272.3,-83.5C285.51,-83.5 300.02,-83.5 313.96,-83.5"/>
<polygon fill="#63b8ff" stroke="#63b8ff" points="313.97,-87 323.97,-83.5 313.97,-80 313.97,-87"/>
</a>
</g>
</g>
<!-- Node7 -->
<g id="Node000007" class="node">
<title>Node7</title>
<g id="a_Node000007"><a xlink:href="classDisplay.html#a577b1ce6ec9e4168cce731b3a591f6bb" target="_top" xlink:title=" ">
<polygon fill="white" stroke="#666666" points="424,-56 334,-56 334,-37 424,-37 424,-56"/>
<text text-anchor="middle" x="379" y="-44" font-family="Helvetica,sans-Serif" font-size="10.00">Display::render</text>
</a>
</g>
</g>
<!-- Node3&#45;&gt;Node7 -->
<g id="edge6_Node000003_Node000007" class="edge">
<title>Node3&#45;&gt;Node7</title>
<g id="a_edge6_Node000003_Node000007"><a xlink:title=" ">
<path fill="none" stroke="#63b8ff" d="M263.66,-73.97C283.34,-69.24 307.32,-63.48 328.22,-58.46"/>
<polygon fill="#63b8ff" stroke="#63b8ff" points="329.3,-61.8 338.21,-56.06 327.67,-54.99 329.3,-61.8"/>
</a>
</g>
</g>
<!-- Node8 -->
<g id="Node000008" class="node">
<title>Node8</title>
<g id="a_Node000008"><a xlink:href="classGame.html#ae7ae6344140ddeff5e885389a9aeab84" target="_top" xlink:title=" ">
<polygon fill="white" stroke="#666666" points="422,-19 336,-19 336,0 422,0 422,-19"/>
<text text-anchor="middle" x="379" y="-7" font-family="Helvetica,sans-Serif" font-size="10.00">Game::update</text>
</a>
</g>
</g>
<!-- Node3&#45;&gt;Node8 -->
<g id="edge7_Node000003_Node000008" class="edge">
<title>Node3&#45;&gt;Node8</title>
<g id="a_edge7_Node000003_Node000008"><a xlink:title=" ">
<path fill="none" stroke="#63b8ff" d="M236.09,-73.8C251.8,-61.63 280.49,-40.86 308,-28.5 313.73,-25.93 319.88,-23.63 326.08,-21.61"/>
<polygon fill="#63b8ff" stroke="#63b8ff" points="327.25,-24.91 335.79,-18.65 325.21,-18.22 327.25,-24.91"/>
</a>
</g>
</g>
</g>
</svg>
