<?xml version="1.0" encoding="UTF-8" standalone="no"?>
<!DOCTYPE svg PUBLIC "-//W3C//DTD SVG 1.1//EN"
 "http://www.w3.org/Graphics/SVG/1.1/DTD/svg11.dtd">
<!-- Generated by graphviz version 2.43.0 (0)
 -->
<!-- Title: games/Menu/src/Menu.cpp Pages: 1 -->
<svg width="924pt" height="302pt"
 viewBox="0.00 0.00 924.00 302.00" xmlns="http://www.w3.org/2000/svg" xmlns:xlink="http://www.w3.org/1999/xlink">
<g id="graph0" class="graph" transform="scale(1 1) rotate(0) translate(4 298)">
<title>games/Menu/src/Menu.cpp</title>
<!-- Node1 -->
<g id="Node000001" class="node">
<title>Node1</title>
<g id="a_Node000001"><a xlink:title=" ">
<polygon fill="#999999" stroke="#666666" points="713.5,-294 566.5,-294 566.5,-275 713.5,-275 713.5,-294"/>
<text text-anchor="middle" x="640" y="-282" font-family="Helvetica,sans-Serif" font-size="10.00">games/Menu/src/Menu.cpp</text>
</a>
</g>
</g>
<!-- Node2 -->
<g id="Node000002" class="node">
<title>Node2</title>
<g id="a_Node000002"><a xlink:href="Menu_8hpp.html" target="_top" xlink:title=" ">
<polygon fill="white" stroke="#666666" points="527.5,-239 462.5,-239 462.5,-220 527.5,-220 527.5,-239"/>
<text text-anchor="middle" x="495" y="-227" font-family="Helvetica,sans-Serif" font-size="10.00">Menu.hpp</text>
</a>
</g>
</g>
<!-- Node1&#45;&gt;Node2 -->
<g id="edge1_Node000001_Node000002" class="edge">
<title>Node1&#45;&gt;Node2</title>
<g id="a_edge1_Node000001_Node000002"><a xlink:title=" ">
<path fill="none" stroke="#63b8ff" d="M616.7,-274.98C592.75,-266.23 555.22,-252.51 528.17,-242.62"/>
<polygon fill="#63b8ff" stroke="#63b8ff" points="529.31,-239.32 518.72,-239.17 526.91,-245.89 529.31,-239.32"/>
</a>
</g>
</g>
<!-- Node3 -->
<g id="Node000003" class="node">
<title>Node3</title>
<g id="a_Node000003"><a xlink:href="IGame_8hpp.html" target="_top" xlink:title=" ">
<polygon fill="white" stroke="#666666" points="592,-184 522,-184 522,-165 592,-165 592,-184"/>
<text text-anchor="middle" x="557" y="-172" font-family="Helvetica,sans-Serif" font-size="10.00">IGame.hpp</text>
</a>
</g>
</g>
<!-- Node1&#45;&gt;Node3 -->
<g id="edge21_Node000001_Node000003" class="edge">
<title>Node1&#45;&gt;Node3</title>
<g id="a_edge21_Node000001_Node000003"><a xlink:title=" ">
<path fill="none" stroke="#63b8ff" d="M633.21,-274.66C619.4,-256.69 587.85,-215.64 569.98,-192.38"/>
<polygon fill="#63b8ff" stroke="#63b8ff" points="572.52,-189.95 563.65,-184.16 566.97,-194.22 572.52,-189.95"/>
</a>
</g>
</g>
<!-- Node4 -->
<g id="Node000004" class="node">
<title>Node4</title>
<g id="a_Node000004"><a xlink:href="gfx_8hpp.html" target="_top" xlink:title=" ">
<polygon fill="white" stroke="#666666" points="664.5,-129 611.5,-129 611.5,-110 664.5,-110 664.5,-129"/>
<text text-anchor="middle" x="638" y="-117" font-family="Helvetica,sans-Serif" font-size="10.00">gfx.hpp</text>
</a>
</g>
</g>
<!-- Node1&#45;&gt;Node4 -->
<g id="edge22_Node000001_Node000004" class="edge">
<title>Node1&#45;&gt;Node4</title>
<g id="a_edge22_Node000001_Node000004"><a xlink:title=" ">
<path fill="none" stroke="#63b8ff" d="M649.6,-274.82C670.13,-255.16 714.89,-205.77 695,-165 688.7,-152.09 676.65,-141.83 665.24,-134.43"/>
<polygon fill="#63b8ff" stroke="#63b8ff" points="666.73,-131.25 656.35,-129.12 663.14,-137.25 666.73,-131.25"/>
</a>
</g>
</g>
<!-- Node14 -->
<g id="Node000014" class="node">
<title>Node14</title>
<g id="a_Node000014"><a xlink:title=" ">
<polygon fill="#e0e0e0" stroke="#999999" points="754,-19 710,-19 710,0 754,0 754,-19"/>
<text text-anchor="middle" x="732" y="-7" font-family="Helvetica,sans-Serif" font-size="10.00">string</text>
</a>
</g>
</g>
<!-- Node1&#45;&gt;Node14 -->
<g id="edge29_Node000001_Node000014" class="edge">
<title>Node1&#45;&gt;Node14</title>
<g id="a_edge29_Node000001_Node000014"><a xlink:title=" ">
<path fill="none" stroke="#63b8ff" d="M668.09,-274.93C707.38,-261 774,-229.43 774,-175.5 774,-175.5 774,-175.5 774,-118.5 774,-84.46 755.65,-48.24 743.21,-27.59"/>
<polygon fill="#63b8ff" stroke="#63b8ff" points="746.12,-25.63 737.84,-19.02 740.19,-29.35 746.12,-25.63"/>
</a>
</g>
</g>
<!-- Node17 -->
<g id="Node000017" class="node">
<title>Node17</title>
<g id="a_Node000017"><a xlink:title=" ">
<polygon fill="#e0e0e0" stroke="#999999" points="548.5,-129 501.5,-129 501.5,-110 548.5,-110 548.5,-129"/>
<text text-anchor="middle" x="525" y="-117" font-family="Helvetica,sans-Serif" font-size="10.00">queue</text>
</a>
</g>
</g>
<!-- Node1&#45;&gt;Node17 -->
<g id="edge28_Node000001_Node000017" class="edge">
<title>Node1&#45;&gt;Node17</title>
<g id="a_edge28_Node000001_Node000017"><a xlink:title=" ">
<path fill="none" stroke="#63b8ff" d="M566.15,-279.15C529.3,-273.87 485.74,-262.64 453,-239 429.7,-222.18 426.85,-211.64 419,-184 416.69,-175.88 414.33,-172.03 419,-165 434.95,-141 466.63,-129.92 491.21,-124.82"/>
<polygon fill="#63b8ff" stroke="#63b8ff" points="492.05,-128.22 501.25,-122.98 490.78,-121.34 492.05,-128.22"/>
</a>
</g>
</g>
<!-- Node19 -->
<g id="Node000019" class="node">
<title>Node19</title>
<g id="a_Node000019"><a xlink:href="DisplayVariable_8hpp.html" target="_top" xlink:title=" ">
<polygon fill="white" stroke="#666666" points="916,-239 802,-239 802,-220 916,-220 916,-239"/>
<text text-anchor="middle" x="859" y="-227" font-family="Helvetica,sans-Serif" font-size="10.00">DisplayVariable.hpp</text>
</a>
</g>
</g>
<!-- Node1&#45;&gt;Node19 -->
<g id="edge23_Node000001_Node000019" class="edge">
<title>Node1&#45;&gt;Node19</title>
<g id="a_edge23_Node000001_Node000019"><a xlink:title=" ">
<path fill="none" stroke="#63b8ff" d="M675.19,-274.98C712.83,-265.87 772.66,-251.4 813.77,-241.45"/>
<polygon fill="#63b8ff" stroke="#63b8ff" points="814.64,-244.84 823.54,-239.08 813,-238.03 814.64,-244.84"/>
</a>
</g>
</g>
<!-- Node21 -->
<g id="Node000021" class="node">
<title>Node21</title>
<g id="a_Node000021"><a xlink:href="Utils_8hpp.html" target="_top" xlink:title=" ">
<polygon fill="white" stroke="#666666" points="670,-184 610,-184 610,-165 670,-165 670,-184"/>
<text text-anchor="middle" x="640" y="-172" font-family="Helvetica,sans-Serif" font-size="10.00">Utils.hpp</text>
</a>
</g>
</g>
<!-- Node1&#45;&gt;Node21 -->
<g id="edge25_Node000001_Node000021" class="edge">
<title>Node1&#45;&gt;Node21</title>
<g id="a_edge25_Node000001_Node000021"><a xlink:title=" ">
<path fill="none" stroke="#63b8ff" d="M640,-274.66C640,-257.17 640,-217.8 640,-194.27"/>
<polygon fill="#63b8ff" stroke="#63b8ff" points="643.5,-194.16 640,-184.16 636.5,-194.16 643.5,-194.16"/>
</a>
</g>
</g>
<!-- Node2&#45;&gt;Node3 -->
<g id="edge2_Node000002_Node000003" class="edge">
<title>Node2&#45;&gt;Node3</title>
<g id="a_edge2_Node000002_Node000003"><a xlink:title=" ">
<path fill="none" stroke="#63b8ff" d="M504.96,-219.98C514.13,-212.15 527.94,-200.34 539.03,-190.86"/>
<polygon fill="#63b8ff" stroke="#63b8ff" points="541.53,-193.33 546.86,-184.17 536.98,-188.01 541.53,-193.33"/>
</a>
</g>
</g>
<!-- Node2&#45;&gt;Node4 -->
<g id="edge17_Node000002_Node000004" class="edge">
<title>Node2&#45;&gt;Node4</title>
<g id="a_edge17_Node000002_Node000004"><a xlink:title=" ">
<path fill="none" stroke="#63b8ff" d="M527.6,-225.39C575.31,-220.08 660.5,-207.5 679,-184 691.44,-168.19 674.28,-148.55 658.51,-135.33"/>
<polygon fill="#63b8ff" stroke="#63b8ff" points="660.58,-132.5 650.56,-129.06 656.24,-138 660.58,-132.5"/>
</a>
</g>
</g>
<!-- Node13 -->
<g id="Node000013" class="node">
<title>Node13</title>
<g id="a_Node000013"><a xlink:title=" ">
<polygon fill="#e0e0e0" stroke="#999999" points="648.5,-19 583.5,-19 583.5,0 648.5,0 648.5,-19"/>
<text text-anchor="middle" x="616" y="-7" font-family="Helvetica,sans-Serif" font-size="10.00">functional</text>
</a>
</g>
</g>
<!-- Node2&#45;&gt;Node13 -->
<g id="edge18_Node000002_Node000013" class="edge">
<title>Node2&#45;&gt;Node13</title>
<g id="a_edge18_Node000002_Node000013"><a xlink:title=" ">
<path fill="none" stroke="#63b8ff" d="M466.61,-219.92C449.54,-213.13 429.19,-201.77 419,-184 397.02,-145.66 371.75,-134.46 455,-55 471.96,-38.82 531.71,-25.32 573.44,-17.58"/>
<polygon fill="#63b8ff" stroke="#63b8ff" points="574.14,-21.01 583.36,-15.78 572.89,-14.12 574.14,-21.01"/>
</a>
</g>
</g>
<!-- Node2&#45;&gt;Node17 -->
<g id="edge20_Node000002_Node000017" class="edge">
<title>Node2&#45;&gt;Node17</title>
<g id="a_edge20_Node000002_Node000017"><a xlink:title=" ">
<path fill="none" stroke="#63b8ff" d="M497.46,-219.66C502.34,-202.09 513.35,-162.45 519.87,-138.95"/>
<polygon fill="#63b8ff" stroke="#63b8ff" points="523.29,-139.73 522.59,-129.16 516.55,-137.86 523.29,-139.73"/>
</a>
</g>
</g>
<!-- Node18 -->
<g id="Node000018" class="node">
<title>Node18</title>
<g id="a_Node000018"><a xlink:title=" ">
<polygon fill="#e0e0e0" stroke="#999999" points="466,-184 428,-184 428,-165 466,-165 466,-184"/>
<text text-anchor="middle" x="447" y="-172" font-family="Helvetica,sans-Serif" font-size="10.00">map</text>
</a>
</g>
</g>
<!-- Node2&#45;&gt;Node18 -->
<g id="edge19_Node000002_Node000018" class="edge">
<title>Node2&#45;&gt;Node18</title>
<g id="a_edge19_Node000002_Node000018"><a xlink:title=" ">
<path fill="none" stroke="#63b8ff" d="M487.07,-219.75C480.15,-212.11 469.93,-200.82 461.55,-191.56"/>
<polygon fill="#63b8ff" stroke="#63b8ff" points="464.09,-189.15 454.78,-184.09 458.9,-193.85 464.09,-189.15"/>
</a>
</g>
</g>
<!-- Node3&#45;&gt;Node4 -->
<g id="edge3_Node000003_Node000004" class="edge">
<title>Node3&#45;&gt;Node4</title>
<g id="a_edge3_Node000003_Node000004"><a xlink:title=" ">
<path fill="none" stroke="#63b8ff" d="M570.01,-164.98C582.46,-156.84 601.46,-144.41 616.21,-134.76"/>
<polygon fill="#63b8ff" stroke="#63b8ff" points="618.3,-137.57 624.75,-129.17 614.46,-131.72 618.3,-137.57"/>
</a>
</g>
</g>
<!-- Node3&#45;&gt;Node17 -->
<g id="edge16_Node000003_Node000017" class="edge">
<title>Node3&#45;&gt;Node17</title>
<g id="a_edge16_Node000003_Node000017"><a xlink:title=" ">
<path fill="none" stroke="#63b8ff" d="M551.72,-164.75C547.29,-157.42 540.84,-146.73 535.38,-137.7"/>
<polygon fill="#63b8ff" stroke="#63b8ff" points="538.35,-135.84 530.19,-129.09 532.36,-139.46 538.35,-135.84"/>
</a>
</g>
</g>
<!-- Node5 -->
<g id="Node000005" class="node">
<title>Node5</title>
<g id="a_Node000005"><a xlink:title=" ">
<polygon fill="#e0e0e0" stroke="#999999" points="586.5,-74 533.5,-74 533.5,-55 586.5,-55 586.5,-74"/>
<text text-anchor="middle" x="560" y="-62" font-family="Helvetica,sans-Serif" font-size="10.00">cstddef</text>
</a>
</g>
</g>
<!-- Node4&#45;&gt;Node5 -->
<g id="edge4_Node000004_Node000005" class="edge">
<title>Node4&#45;&gt;Node5</title>
<g id="a_edge4_Node000004_Node000005"><a xlink:title=" ">
<path fill="none" stroke="#63b8ff" d="M625.47,-109.98C613.6,-101.92 595.54,-89.65 581.39,-80.03"/>
<polygon fill="#63b8ff" stroke="#63b8ff" points="583,-76.9 572.76,-74.17 579.06,-82.69 583,-76.9"/>
</a>
</g>
</g>
<!-- Node6 -->
<g id="Node000006" class="node">
<title>Node6</title>
<g id="a_Node000006"><a xlink:href="Keys_8hpp.html" target="_top" xlink:title=" ">
<polygon fill="white" stroke="#666666" points="371.5,-74 310.5,-74 310.5,-55 371.5,-55 371.5,-74"/>
<text text-anchor="middle" x="341" y="-62" font-family="Helvetica,sans-Serif" font-size="10.00">Keys.hpp</text>
</a>
</g>
</g>
<!-- Node4&#45;&gt;Node6 -->
<g id="edge5_Node000004_Node000006" class="edge">
<title>Node4&#45;&gt;Node6</title>
<g id="a_edge5_Node000004_Node000006"><a xlink:title=" ">
<path fill="none" stroke="#63b8ff" d="M611.38,-113.75C559.29,-104.45 443.6,-83.81 381.79,-72.78"/>
<polygon fill="#63b8ff" stroke="#63b8ff" points="382.09,-69.28 371.63,-70.97 380.86,-76.17 382.09,-69.28"/>
</a>
</g>
</g>
<!-- Node12 -->
<g id="Node000012" class="node">
<title>Node12</title>
<g id="a_Node000012"><a xlink:href="shape_8hpp.html" target="_top" xlink:title=" ">
<polygon fill="white" stroke="#666666" points="671.5,-74 604.5,-74 604.5,-55 671.5,-55 671.5,-74"/>
<text text-anchor="middle" x="638" y="-62" font-family="Helvetica,sans-Serif" font-size="10.00">shape.hpp</text>
</a>
</g>
</g>
<!-- Node4&#45;&gt;Node12 -->
<g id="edge11_Node000004_Node000012" class="edge">
<title>Node4&#45;&gt;Node12</title>
<g id="a_edge11_Node000004_Node000012"><a xlink:title=" ">
<path fill="none" stroke="#63b8ff" d="M638,-109.75C638,-102.8 638,-92.85 638,-84.13"/>
<polygon fill="#63b8ff" stroke="#63b8ff" points="641.5,-84.09 638,-74.09 634.5,-84.09 641.5,-84.09"/>
</a>
</g>
</g>
<!-- Node15 -->
<g id="Node000015" class="node">
<title>Node15</title>
<g id="a_Node000015"><a xlink:title=" ">
<polygon fill="#e0e0e0" stroke="#999999" points="746,-74 690,-74 690,-55 746,-55 746,-74"/>
<text text-anchor="middle" x="718" y="-62" font-family="Helvetica,sans-Serif" font-size="10.00">optional</text>
</a>
</g>
</g>
<!-- Node4&#45;&gt;Node15 -->
<g id="edge14_Node000004_Node000015" class="edge">
<title>Node4&#45;&gt;Node15</title>
<g id="a_edge14_Node000004_Node000015"><a xlink:title=" ">
<path fill="none" stroke="#63b8ff" d="M650.85,-109.98C663.14,-101.84 681.91,-89.41 696.48,-79.76"/>
<polygon fill="#63b8ff" stroke="#63b8ff" points="698.51,-82.61 704.91,-74.17 694.64,-76.78 698.51,-82.61"/>
</a>
</g>
</g>
<!-- Node16 -->
<g id="Node000016" class="node">
<title>Node16</title>
<g id="a_Node000016"><a xlink:title=" ">
<polygon fill="#e0e0e0" stroke="#999999" points="515.5,-74 464.5,-74 464.5,-55 515.5,-55 515.5,-74"/>
<text text-anchor="middle" x="490" y="-62" font-family="Helvetica,sans-Serif" font-size="10.00">variant</text>
</a>
</g>
</g>
<!-- Node4&#45;&gt;Node16 -->
<g id="edge15_Node000004_Node000016" class="edge">
<title>Node4&#45;&gt;Node16</title>
<g id="a_edge15_Node000004_Node000016"><a xlink:title=" ">
<path fill="none" stroke="#63b8ff" d="M614.22,-109.98C589.77,-101.23 551.47,-87.51 523.85,-77.62"/>
<polygon fill="#63b8ff" stroke="#63b8ff" points="524.81,-74.25 514.21,-74.17 522.45,-80.84 524.81,-74.25"/>
</a>
</g>
</g>
<!-- Node7 -->
<g id="Node000007" class="node">
<title>Node7</title>
<g id="a_Node000007"><a xlink:title=" ">
<polygon fill="#e0e0e0" stroke="#999999" points="483.5,-19 390.5,-19 390.5,0 483.5,0 483.5,-19"/>
<text text-anchor="middle" x="437" y="-7" font-family="Helvetica,sans-Serif" font-size="10.00">unordered_map</text>
</a>
</g>
</g>
<!-- Node6&#45;&gt;Node7 -->
<g id="edge6_Node000006_Node000007" class="edge">
<title>Node6&#45;&gt;Node7</title>
<g id="a_edge6_Node000006_Node000007"><a xlink:title=" ">
<path fill="none" stroke="#63b8ff" d="M356.42,-54.98C371.45,-46.69 394.54,-33.94 412.16,-24.22"/>
<polygon fill="#63b8ff" stroke="#63b8ff" points="414.23,-27.07 421.3,-19.17 410.85,-20.94 414.23,-27.07"/>
</a>
</g>
</g>
<!-- Node8 -->
<g id="Node000008" class="node">
<title>Node8</title>
<g id="a_Node000008"><a xlink:title=" ">
<polygon fill="#e0e0e0" stroke="#999999" points="542.5,-19 501.5,-19 501.5,0 542.5,0 542.5,-19"/>
<text text-anchor="middle" x="522" y="-7" font-family="Helvetica,sans-Serif" font-size="10.00">tuple</text>
</a>
</g>
</g>
<!-- Node6&#45;&gt;Node8 -->
<g id="edge7_Node000006_Node000008" class="edge">
<title>Node6&#45;&gt;Node8</title>
<g id="a_edge7_Node000006_Node000008"><a xlink:title=" ">
<path fill="none" stroke="#63b8ff" d="M370.08,-54.98C403.41,-45.23 457.77,-29.31 491.63,-19.39"/>
<polygon fill="#63b8ff" stroke="#63b8ff" points="492.82,-22.69 501.44,-16.52 490.85,-15.97 492.82,-22.69"/>
</a>
</g>
</g>
<!-- Node9 -->
<g id="Node000009" class="node">
<title>Node9</title>
<g id="a_Node000009"><a xlink:title=" ">
<polygon fill="#e0e0e0" stroke="#999999" points="118,-19 0,-19 0,0 118,0 118,-19"/>
<text text-anchor="middle" x="59" y="-7" font-family="Helvetica,sans-Serif" font-size="10.00">SDL2/SDL_keycode.h</text>
</a>
</g>
</g>
<!-- Node6&#45;&gt;Node9 -->
<g id="edge8_Node000006_Node000009" class="edge">
<title>Node6&#45;&gt;Node9</title>
<g id="a_edge8_Node000006_Node000009"><a xlink:title=" ">
<path fill="none" stroke="#63b8ff" d="M310.28,-57.73C263.32,-48.9 172.97,-31.92 114.37,-20.91"/>
<polygon fill="#63b8ff" stroke="#63b8ff" points="115.01,-17.47 104.54,-19.06 113.72,-24.35 115.01,-17.47"/>
</a>
</g>
</g>
<!-- Node10 -->
<g id="Node000010" class="node">
<title>Node10</title>
<g id="a_Node000010"><a xlink:title=" ">
<polygon fill="#e0e0e0" stroke="#999999" points="291.5,-19 136.5,-19 136.5,0 291.5,0 291.5,-19"/>
<text text-anchor="middle" x="214" y="-7" font-family="Helvetica,sans-Serif" font-size="10.00">SFML/Window/Keyboard.hpp</text>
</a>
</g>
</g>
<!-- Node6&#45;&gt;Node10 -->
<g id="edge9_Node000006_Node000010" class="edge">
<title>Node6&#45;&gt;Node10</title>
<g id="a_edge9_Node000006_Node000010"><a xlink:title=" ">
<path fill="none" stroke="#63b8ff" d="M320.6,-54.98C299.98,-46.38 267.89,-32.99 244.31,-23.15"/>
<polygon fill="#63b8ff" stroke="#63b8ff" points="245.35,-19.79 234.78,-19.17 242.66,-26.25 245.35,-19.79"/>
</a>
</g>
</g>
<!-- Node11 -->
<g id="Node000011" class="node">
<title>Node11</title>
<g id="a_Node000011"><a xlink:title=" ">
<polygon fill="#e0e0e0" stroke="#999999" points="372.5,-19 309.5,-19 309.5,0 372.5,0 372.5,-19"/>
<text text-anchor="middle" x="341" y="-7" font-family="Helvetica,sans-Serif" font-size="10.00">ncurses.h</text>
</a>
</g>
</g>
<!-- Node6&#45;&gt;Node11 -->
<g id="edge10_Node000006_Node000011" class="edge">
<title>Node6&#45;&gt;Node11</title>
<g id="a_edge10_Node000006_Node000011"><a xlink:title=" ">
<path fill="none" stroke="#63b8ff" d="M341,-54.75C341,-47.8 341,-37.85 341,-29.13"/>
<polygon fill="#63b8ff" stroke="#63b8ff" points="344.5,-29.09 341,-19.09 337.5,-29.09 344.5,-29.09"/>
</a>
</g>
</g>
<!-- Node12&#45;&gt;Node13 -->
<g id="edge12_Node000012_Node000013" class="edge">
<title>Node12&#45;&gt;Node13</title>
<g id="a_edge12_Node000012_Node000013"><a xlink:title=" ">
<path fill="none" stroke="#63b8ff" d="M634.37,-54.75C631.42,-47.65 627.17,-37.4 623.49,-28.56"/>
<polygon fill="#63b8ff" stroke="#63b8ff" points="626.63,-26.98 619.57,-19.09 620.17,-29.67 626.63,-26.98"/>
</a>
</g>
</g>
<!-- Node12&#45;&gt;Node14 -->
<g id="edge13_Node000012_Node000014" class="edge">
<title>Node12&#45;&gt;Node14</title>
<g id="a_edge13_Node000012_Node000014"><a xlink:title=" ">
<path fill="none" stroke="#63b8ff" d="M653.1,-54.98C667.82,-46.69 690.42,-33.94 707.67,-24.22"/>
<polygon fill="#63b8ff" stroke="#63b8ff" points="709.63,-27.13 716.62,-19.17 706.19,-21.03 709.63,-27.13"/>
</a>
</g>
</g>
<!-- Node20 -->
<g id="Node000020" class="node">
<title>Node20</title>
<g id="a_Node000020"><a xlink:title=" ">
<polygon fill="#e0e0e0" stroke="#999999" points="887,-184 831,-184 831,-165 887,-165 887,-184"/>
<text text-anchor="middle" x="859" y="-172" font-family="Helvetica,sans-Serif" font-size="10.00">stddef.h</text>
</a>
</g>
</g>
<!-- Node19&#45;&gt;Node20 -->
<g id="edge24_Node000019_Node000020" class="edge">
<title>Node19&#45;&gt;Node20</title>
<g id="a_edge24_Node000019_Node000020"><a xlink:title=" ">
<path fill="none" stroke="#63b8ff" d="M859,-219.75C859,-212.8 859,-202.85 859,-194.13"/>
<polygon fill="#63b8ff" stroke="#63b8ff" points="862.5,-194.09 859,-184.09 855.5,-194.09 862.5,-194.09"/>
</a>
</g>
</g>
<!-- Node21&#45;&gt;Node4 -->
<g id="edge27_Node000021_Node000004" class="edge">
<title>Node21&#45;&gt;Node4</title>
<g id="a_edge27_Node000021_Node000004"><a xlink:title=" ">
<path fill="none" stroke="#63b8ff" d="M639.67,-164.75C639.41,-157.8 639.03,-147.85 638.7,-139.13"/>
<polygon fill="#63b8ff" stroke="#63b8ff" points="642.2,-138.95 638.32,-129.09 635.2,-139.21 642.2,-138.95"/>
</a>
</g>
</g>
<!-- Node21&#45;&gt;Node17 -->
<g id="edge26_Node000021_Node000017" class="edge">
<title>Node21&#45;&gt;Node17</title>
<g id="a_edge26_Node000021_Node000017"><a xlink:title=" ">
<path fill="none" stroke="#63b8ff" d="M621.52,-164.98C603.02,-156.46 574.32,-143.23 553.02,-133.41"/>
<polygon fill="#63b8ff" stroke="#63b8ff" points="554.36,-130.18 543.81,-129.17 551.43,-136.53 554.36,-130.18"/>
</a>
</g>
</g>
</g>
</svg>
