<?xml version="1.0" encoding="UTF-8" standalone="no"?>
<!DOCTYPE svg PUBLIC "-//W3C//DTD SVG 1.1//EN"
 "http://www.w3.org/Graphics/SVG/1.1/DTD/svg11.dtd">
<!-- Generated by graphviz version 2.43.0 (0)
 -->
<!-- Title: games/Menu/src/MenuUtils.cpp Pages: 1 -->
<svg width="713pt" height="247pt"
 viewBox="0.00 0.00 713.18 247.00" xmlns="http://www.w3.org/2000/svg" xmlns:xlink="http://www.w3.org/1999/xlink">
<g id="graph0" class="graph" transform="scale(1 1) rotate(0) translate(4 243)">
<title>games/Menu/src/MenuUtils.cpp</title>
<!-- Node1 -->
<g id="Node000001" class="node">
<title>Node1</title>
<g id="a_Node000001"><a xlink:title=" ">
<polygon fill="#999999" stroke="#666666" points="665.5,-239 495.5,-239 495.5,-220 665.5,-220 665.5,-239"/>
<text text-anchor="middle" x="580.5" y="-227" font-family="Helvetica,sans-Serif" font-size="10.00">games/Menu/src/MenuUtils.cpp</text>
</a>
</g>
</g>
<!-- Node2 -->
<g id="Node000002" class="node">
<title>Node2</title>
<g id="a_Node000002"><a xlink:href="MenuUtils_8hpp.html" target="_top" xlink:title=" ">
<polygon fill="white" stroke="#666666" points="578,-184 491,-184 491,-165 578,-165 578,-184"/>
<text text-anchor="middle" x="534.5" y="-172" font-family="Helvetica,sans-Serif" font-size="10.00">MenuUtils.hpp</text>
</a>
</g>
</g>
<!-- Node1&#45;&gt;Node2 -->
<g id="edge1_Node000001_Node000002" class="edge">
<title>Node1&#45;&gt;Node2</title>
<g id="a_edge1_Node000001_Node000002"><a xlink:title=" ">
<path fill="none" stroke="#63b8ff" d="M572.9,-219.75C566.34,-212.18 556.68,-201.05 548.69,-191.84"/>
<polygon fill="#63b8ff" stroke="#63b8ff" points="551.15,-189.35 541.95,-184.09 545.87,-193.94 551.15,-189.35"/>
</a>
</g>
</g>
<!-- Node3 -->
<g id="Node000003" class="node">
<title>Node3</title>
<g id="a_Node000003"><a xlink:href="gfx_8hpp.html" target="_top" xlink:title=" ">
<polygon fill="white" stroke="#666666" points="499,-129 446,-129 446,-110 499,-110 499,-129"/>
<text text-anchor="middle" x="472.5" y="-117" font-family="Helvetica,sans-Serif" font-size="10.00">gfx.hpp</text>
</a>
</g>
</g>
<!-- Node1&#45;&gt;Node3 -->
<g id="edge20_Node000001_Node000003" class="edge">
<title>Node1&#45;&gt;Node3</title>
<g id="a_edge20_Node000001_Node000003"><a xlink:title=" ">
<path fill="none" stroke="#63b8ff" d="M539.38,-219.95C518.83,-213.52 495.43,-202.53 481.5,-184 471.99,-171.34 470.27,-153.16 470.61,-139.49"/>
<polygon fill="#63b8ff" stroke="#63b8ff" points="474.12,-139.49 471.27,-129.29 467.14,-139.04 474.12,-139.49"/>
</a>
</g>
</g>
<!-- Node4 -->
<g id="Node000004" class="node">
<title>Node4</title>
<g id="a_Node000004"><a xlink:title=" ">
<polygon fill="#e0e0e0" stroke="#999999" points="283,-74 230,-74 230,-55 283,-55 283,-74"/>
<text text-anchor="middle" x="256.5" y="-62" font-family="Helvetica,sans-Serif" font-size="10.00">cstddef</text>
</a>
</g>
</g>
<!-- Node1&#45;&gt;Node4 -->
<g id="edge21_Node000001_Node000004" class="edge">
<title>Node1&#45;&gt;Node4</title>
<g id="a_edge21_Node000001_Node000004"><a xlink:title=" ">
<path fill="none" stroke="#63b8ff" d="M556.74,-219.97C534.01,-211.58 498.93,-198.02 469.5,-184 398.36,-150.12 318.01,-102.82 279.49,-79.56"/>
<polygon fill="#63b8ff" stroke="#63b8ff" points="281,-76.38 270.63,-74.19 277.37,-82.37 281,-76.38"/>
</a>
</g>
</g>
<!-- Node12 -->
<g id="Node000012" class="node">
<title>Node12</title>
<g id="a_Node000012"><a xlink:title=" ">
<polygon fill="#e0e0e0" stroke="#999999" points="689,-19 624,-19 624,0 689,0 689,-19"/>
<text text-anchor="middle" x="656.5" y="-7" font-family="Helvetica,sans-Serif" font-size="10.00">functional</text>
</a>
</g>
</g>
<!-- Node1&#45;&gt;Node12 -->
<g id="edge22_Node000001_Node000012" class="edge">
<title>Node1&#45;&gt;Node12</title>
<g id="a_edge22_Node000001_Node000012"><a xlink:title=" ">
<path fill="none" stroke="#63b8ff" d="M618.92,-219.93C640.45,-213.36 666.33,-202.21 683.5,-184 701.34,-165.07 698.99,-154.62 703.5,-129 710.22,-90.88 685.82,-49.53 669.68,-27.16"/>
<polygon fill="#63b8ff" stroke="#63b8ff" points="672.4,-24.95 663.59,-19.06 666.8,-29.15 672.4,-24.95"/>
</a>
</g>
</g>
<!-- Node16 -->
<g id="Node000016" class="node">
<title>Node16</title>
<g id="a_Node000016"><a xlink:title=" ">
<polygon fill="#e0e0e0" stroke="#999999" points="694,-129 647,-129 647,-110 694,-110 694,-129"/>
<text text-anchor="middle" x="670.5" y="-117" font-family="Helvetica,sans-Serif" font-size="10.00">queue</text>
</a>
</g>
</g>
<!-- Node1&#45;&gt;Node16 -->
<g id="edge23_Node000001_Node000016" class="edge">
<title>Node1&#45;&gt;Node16</title>
<g id="a_edge23_Node000001_Node000016"><a xlink:title=" ">
<path fill="none" stroke="#63b8ff" d="M613.33,-219.9C631.84,-213.26 653.57,-202.07 665.5,-184 674.16,-170.88 674.75,-152.74 673.55,-139.21"/>
<polygon fill="#63b8ff" stroke="#63b8ff" points="677,-138.62 672.27,-129.14 670.06,-139.5 677,-138.62"/>
</a>
</g>
</g>
<!-- Node17 -->
<g id="Node000017" class="node">
<title>Node17</title>
<g id="a_Node000017"><a xlink:href="Utils_8hpp.html" target="_top" xlink:title=" ">
<polygon fill="white" stroke="#666666" points="656.5,-184 596.5,-184 596.5,-165 656.5,-165 656.5,-184"/>
<text text-anchor="middle" x="626.5" y="-172" font-family="Helvetica,sans-Serif" font-size="10.00">Utils.hpp</text>
</a>
</g>
</g>
<!-- Node1&#45;&gt;Node17 -->
<g id="edge17_Node000001_Node000017" class="edge">
<title>Node1&#45;&gt;Node17</title>
<g id="a_edge17_Node000001_Node000017"><a xlink:title=" ">
<path fill="none" stroke="#63b8ff" d="M588.1,-219.75C594.66,-212.18 604.32,-201.05 612.31,-191.84"/>
<polygon fill="#63b8ff" stroke="#63b8ff" points="615.13,-193.94 619.05,-184.09 609.85,-189.35 615.13,-193.94"/>
</a>
</g>
</g>
<!-- Node2&#45;&gt;Node3 -->
<g id="edge2_Node000002_Node000003" class="edge">
<title>Node2&#45;&gt;Node3</title>
<g id="a_edge2_Node000002_Node000003"><a xlink:title=" ">
<path fill="none" stroke="#63b8ff" d="M524.54,-164.98C515.37,-157.15 501.56,-145.34 490.47,-135.86"/>
<polygon fill="#63b8ff" stroke="#63b8ff" points="492.52,-133.01 482.64,-129.17 487.97,-138.33 492.52,-133.01"/>
</a>
</g>
</g>
<!-- Node2&#45;&gt;Node12 -->
<g id="edge15_Node000002_Node000012" class="edge">
<title>Node2&#45;&gt;Node12</title>
<g id="a_edge15_Node000002_Node000012"><a xlink:title=" ">
<path fill="none" stroke="#63b8ff" d="M541.06,-164.74C560.5,-138.76 618.08,-61.83 643.82,-27.44"/>
<polygon fill="#63b8ff" stroke="#63b8ff" points="646.72,-29.41 649.91,-19.31 641.11,-25.22 646.72,-29.41"/>
</a>
</g>
</g>
<!-- Node2&#45;&gt;Node16 -->
<g id="edge16_Node000002_Node000016" class="edge">
<title>Node2&#45;&gt;Node16</title>
<g id="a_edge16_Node000002_Node000016"><a xlink:title=" ">
<path fill="none" stroke="#63b8ff" d="M556.35,-164.98C578.62,-156.3 613.4,-142.75 638.72,-132.88"/>
<polygon fill="#63b8ff" stroke="#63b8ff" points="640.21,-136.06 648.25,-129.17 637.66,-129.54 640.21,-136.06"/>
</a>
</g>
</g>
<!-- Node3&#45;&gt;Node4 -->
<g id="edge3_Node000003_Node000004" class="edge">
<title>Node3&#45;&gt;Node4</title>
<g id="a_edge3_Node000003_Node000004"><a xlink:title=" ">
<path fill="none" stroke="#63b8ff" d="M445.58,-111.89C407.05,-102.44 336.08,-85.03 292.9,-74.43"/>
<polygon fill="#63b8ff" stroke="#63b8ff" points="293.63,-71.01 283.08,-72.02 291.96,-77.8 293.63,-71.01"/>
</a>
</g>
</g>
<!-- Node5 -->
<g id="Node000005" class="node">
<title>Node5</title>
<g id="a_Node000005"><a xlink:href="Keys_8hpp.html" target="_top" xlink:title=" ">
<polygon fill="white" stroke="#666666" points="431,-74 370,-74 370,-55 431,-55 431,-74"/>
<text text-anchor="middle" x="400.5" y="-62" font-family="Helvetica,sans-Serif" font-size="10.00">Keys.hpp</text>
</a>
</g>
</g>
<!-- Node3&#45;&gt;Node5 -->
<g id="edge4_Node000003_Node000005" class="edge">
<title>Node3&#45;&gt;Node5</title>
<g id="a_edge4_Node000003_Node000005"><a xlink:title=" ">
<path fill="none" stroke="#63b8ff" d="M460.93,-109.98C450.08,-102 433.62,-89.88 420.62,-80.31"/>
<polygon fill="#63b8ff" stroke="#63b8ff" points="422.41,-77.28 412.28,-74.17 418.26,-82.92 422.41,-77.28"/>
</a>
</g>
</g>
<!-- Node11 -->
<g id="Node000011" class="node">
<title>Node11</title>
<g id="a_Node000011"><a xlink:href="shape_8hpp.html" target="_top" xlink:title=" ">
<polygon fill="white" stroke="#666666" points="516,-74 449,-74 449,-55 516,-55 516,-74"/>
<text text-anchor="middle" x="482.5" y="-62" font-family="Helvetica,sans-Serif" font-size="10.00">shape.hpp</text>
</a>
</g>
</g>
<!-- Node3&#45;&gt;Node11 -->
<g id="edge10_Node000003_Node000011" class="edge">
<title>Node3&#45;&gt;Node11</title>
<g id="a_edge10_Node000003_Node000011"><a xlink:title=" ">
<path fill="none" stroke="#63b8ff" d="M474.15,-109.75C475.46,-102.8 477.34,-92.85 478.98,-84.13"/>
<polygon fill="#63b8ff" stroke="#63b8ff" points="482.46,-84.56 480.88,-74.09 475.59,-83.27 482.46,-84.56"/>
</a>
</g>
</g>
<!-- Node14 -->
<g id="Node000014" class="node">
<title>Node14</title>
<g id="a_Node000014"><a xlink:title=" ">
<polygon fill="#e0e0e0" stroke="#999999" points="590.5,-74 534.5,-74 534.5,-55 590.5,-55 590.5,-74"/>
<text text-anchor="middle" x="562.5" y="-62" font-family="Helvetica,sans-Serif" font-size="10.00">optional</text>
</a>
</g>
</g>
<!-- Node3&#45;&gt;Node14 -->
<g id="edge13_Node000003_Node000014" class="edge">
<title>Node3&#45;&gt;Node14</title>
<g id="a_edge13_Node000003_Node000014"><a xlink:title=" ">
<path fill="none" stroke="#63b8ff" d="M486.96,-109.98C500.92,-101.77 522.29,-89.18 538.75,-79.49"/>
<polygon fill="#63b8ff" stroke="#63b8ff" points="540.94,-82.26 547.78,-74.17 537.38,-76.23 540.94,-82.26"/>
</a>
</g>
</g>
<!-- Node15 -->
<g id="Node000015" class="node">
<title>Node15</title>
<g id="a_Node000015"><a xlink:title=" ">
<polygon fill="#e0e0e0" stroke="#999999" points="352,-74 301,-74 301,-55 352,-55 352,-74"/>
<text text-anchor="middle" x="326.5" y="-62" font-family="Helvetica,sans-Serif" font-size="10.00">variant</text>
</a>
</g>
</g>
<!-- Node3&#45;&gt;Node15 -->
<g id="edge14_Node000003_Node000015" class="edge">
<title>Node3&#45;&gt;Node15</title>
<g id="a_edge14_Node000003_Node000015"><a xlink:title=" ">
<path fill="none" stroke="#63b8ff" d="M449.04,-109.98C424.92,-101.23 387.13,-87.51 359.9,-77.62"/>
<polygon fill="#63b8ff" stroke="#63b8ff" points="360.98,-74.29 350.38,-74.17 358.59,-80.87 360.98,-74.29"/>
</a>
</g>
</g>
<!-- Node6 -->
<g id="Node000006" class="node">
<title>Node6</title>
<g id="a_Node000006"><a xlink:title=" ">
<polygon fill="#e0e0e0" stroke="#999999" points="543,-19 450,-19 450,0 543,0 543,-19"/>
<text text-anchor="middle" x="496.5" y="-7" font-family="Helvetica,sans-Serif" font-size="10.00">unordered_map</text>
</a>
</g>
</g>
<!-- Node5&#45;&gt;Node6 -->
<g id="edge5_Node000005_Node000006" class="edge">
<title>Node5&#45;&gt;Node6</title>
<g id="a_edge5_Node000005_Node000006"><a xlink:title=" ">
<path fill="none" stroke="#63b8ff" d="M415.92,-54.98C430.95,-46.69 454.04,-33.94 471.66,-24.22"/>
<polygon fill="#63b8ff" stroke="#63b8ff" points="473.73,-27.07 480.8,-19.17 470.35,-20.94 473.73,-27.07"/>
</a>
</g>
</g>
<!-- Node7 -->
<g id="Node000007" class="node">
<title>Node7</title>
<g id="a_Node000007"><a xlink:title=" ">
<polygon fill="#e0e0e0" stroke="#999999" points="41,-19 0,-19 0,0 41,0 41,-19"/>
<text text-anchor="middle" x="20.5" y="-7" font-family="Helvetica,sans-Serif" font-size="10.00">tuple</text>
</a>
</g>
</g>
<!-- Node5&#45;&gt;Node7 -->
<g id="edge6_Node000005_Node000007" class="edge">
<title>Node5&#45;&gt;Node7</title>
<g id="a_edge6_Node000005_Node000007"><a xlink:title=" ">
<path fill="none" stroke="#63b8ff" d="M369.98,-56.71C366.79,-56.09 363.58,-55.51 360.5,-55 226.83,-33.09 188.34,-45.38 51.11,-18.78"/>
<polygon fill="#63b8ff" stroke="#63b8ff" points="51.54,-15.29 41.05,-16.79 50.18,-22.16 51.54,-15.29"/>
</a>
</g>
</g>
<!-- Node8 -->
<g id="Node000008" class="node">
<title>Node8</title>
<g id="a_Node000008"><a xlink:title=" ">
<polygon fill="#e0e0e0" stroke="#999999" points="177.5,-19 59.5,-19 59.5,0 177.5,0 177.5,-19"/>
<text text-anchor="middle" x="118.5" y="-7" font-family="Helvetica,sans-Serif" font-size="10.00">SDL2/SDL_keycode.h</text>
</a>
</g>
</g>
<!-- Node5&#45;&gt;Node8 -->
<g id="edge7_Node000005_Node000008" class="edge">
<title>Node5&#45;&gt;Node8</title>
<g id="a_edge7_Node000005_Node000008"><a xlink:title=" ">
<path fill="none" stroke="#63b8ff" d="M369.94,-56.92C366.76,-56.26 363.56,-55.61 360.5,-55 298.1,-42.64 226.42,-29.6 177.36,-20.86"/>
<polygon fill="#63b8ff" stroke="#63b8ff" points="177.7,-17.36 167.24,-19.06 176.48,-24.25 177.7,-17.36"/>
</a>
</g>
</g>
<!-- Node9 -->
<g id="Node000009" class="node">
<title>Node9</title>
<g id="a_Node000009"><a xlink:title=" ">
<polygon fill="#e0e0e0" stroke="#999999" points="351,-19 196,-19 196,0 351,0 351,-19"/>
<text text-anchor="middle" x="273.5" y="-7" font-family="Helvetica,sans-Serif" font-size="10.00">SFML/Window/Keyboard.hpp</text>
</a>
</g>
</g>
<!-- Node5&#45;&gt;Node9 -->
<g id="edge8_Node000005_Node000009" class="edge">
<title>Node5&#45;&gt;Node9</title>
<g id="a_edge8_Node000005_Node000009"><a xlink:title=" ">
<path fill="none" stroke="#63b8ff" d="M380.1,-54.98C359.48,-46.38 327.39,-32.99 303.81,-23.15"/>
<polygon fill="#63b8ff" stroke="#63b8ff" points="304.85,-19.79 294.28,-19.17 302.16,-26.25 304.85,-19.79"/>
</a>
</g>
</g>
<!-- Node10 -->
<g id="Node000010" class="node">
<title>Node10</title>
<g id="a_Node000010"><a xlink:title=" ">
<polygon fill="#e0e0e0" stroke="#999999" points="432,-19 369,-19 369,0 432,0 432,-19"/>
<text text-anchor="middle" x="400.5" y="-7" font-family="Helvetica,sans-Serif" font-size="10.00">ncurses.h</text>
</a>
</g>
</g>
<!-- Node5&#45;&gt;Node10 -->
<g id="edge9_Node000005_Node000010" class="edge">
<title>Node5&#45;&gt;Node10</title>
<g id="a_edge9_Node000005_Node000010"><a xlink:title=" ">
<path fill="none" stroke="#63b8ff" d="M400.5,-54.75C400.5,-47.8 400.5,-37.85 400.5,-29.13"/>
<polygon fill="#63b8ff" stroke="#63b8ff" points="404,-29.09 400.5,-19.09 397,-29.09 404,-29.09"/>
</a>
</g>
</g>
<!-- Node11&#45;&gt;Node12 -->
<g id="edge11_Node000011_Node000012" class="edge">
<title>Node11&#45;&gt;Node12</title>
<g id="a_edge11_Node000011_Node000012"><a xlink:title=" ">
<path fill="none" stroke="#63b8ff" d="M510.46,-54.98C539.8,-46.05 586.1,-31.94 618.69,-22.02"/>
<polygon fill="#63b8ff" stroke="#63b8ff" points="619.78,-25.34 628.32,-19.08 617.74,-18.65 619.78,-25.34"/>
</a>
</g>
</g>
<!-- Node13 -->
<g id="Node000013" class="node">
<title>Node13</title>
<g id="a_Node000013"><a xlink:title=" ">
<polygon fill="#e0e0e0" stroke="#999999" points="605.5,-19 561.5,-19 561.5,0 605.5,0 605.5,-19"/>
<text text-anchor="middle" x="583.5" y="-7" font-family="Helvetica,sans-Serif" font-size="10.00">string</text>
</a>
</g>
</g>
<!-- Node11&#45;&gt;Node13 -->
<g id="edge12_Node000011_Node000013" class="edge">
<title>Node11&#45;&gt;Node13</title>
<g id="a_edge12_Node000011_Node000013"><a xlink:title=" ">
<path fill="none" stroke="#63b8ff" d="M498.73,-54.98C514.68,-46.61 539.28,-33.7 557.88,-23.95"/>
<polygon fill="#63b8ff" stroke="#63b8ff" points="559.75,-26.92 566.98,-19.17 556.5,-20.72 559.75,-26.92"/>
</a>
</g>
</g>
<!-- Node17&#45;&gt;Node3 -->
<g id="edge19_Node000017_Node000003" class="edge">
<title>Node17&#45;&gt;Node3</title>
<g id="a_edge19_Node000017_Node000003"><a xlink:title=" ">
<path fill="none" stroke="#63b8ff" d="M601.76,-164.98C576.13,-156.16 535.87,-142.31 507.09,-132.41"/>
<polygon fill="#63b8ff" stroke="#63b8ff" points="508.03,-129.03 497.44,-129.08 505.75,-135.65 508.03,-129.03"/>
</a>
</g>
</g>
<!-- Node17&#45;&gt;Node16 -->
<g id="edge18_Node000017_Node000016" class="edge">
<title>Node17&#45;&gt;Node16</title>
<g id="a_edge18_Node000017_Node000016"><a xlink:title=" ">
<path fill="none" stroke="#63b8ff" d="M633.77,-164.75C640.04,-157.18 649.29,-146.05 656.93,-136.84"/>
<polygon fill="#63b8ff" stroke="#63b8ff" points="659.67,-139.02 663.37,-129.09 654.29,-134.55 659.67,-139.02"/>
</a>
</g>
</g>
</g>
</svg>
