<?xml version="1.0" encoding="UTF-8" standalone="no"?>
<!DOCTYPE svg PUBLIC "-//W3C//DTD SVG 1.1//EN"
 "http://www.w3.org/Graphics/SVG/1.1/DTD/svg11.dtd">
<!-- Generated by graphviz version 2.43.0 (0)
 -->
<!-- Title: games/Menu/include/Menu.hpp Pages: 1 -->
<svg width="743pt" height="258pt"
 viewBox="0.00 0.00 742.50 258.00" xmlns="http://www.w3.org/2000/svg" xmlns:xlink="http://www.w3.org/1999/xlink">
<g id="graph0" class="graph" transform="scale(1 1) rotate(0) translate(4 254)">
<title>games/Menu/include/Menu.hpp</title>
<!-- Node1 -->
<g id="Node000001" class="node">
<title>Node1</title>
<g id="a_Node000001"><a xlink:title=" ">
<polygon fill="#999999" stroke="#666666" points="689.5,-250 571.5,-250 571.5,-220 689.5,-220 689.5,-250"/>
<text text-anchor="start" x="579.5" y="-238" font-family="Helvetica,sans-Serif" font-size="10.00">games/Menu/include</text>
<text text-anchor="middle" x="630.5" y="-227" font-family="Helvetica,sans-Serif" font-size="10.00">/Menu.hpp</text>
</a>
</g>
</g>
<!-- Node2 -->
<g id="Node000002" class="node">
<title>Node2</title>
<g id="a_Node000002"><a xlink:href="IGame_8hpp.html" target="_top" xlink:title=" ">
<polygon fill="white" stroke="#666666" points="602.5,-184 532.5,-184 532.5,-165 602.5,-165 602.5,-184"/>
<text text-anchor="middle" x="567.5" y="-172" font-family="Helvetica,sans-Serif" font-size="10.00">IGame.hpp</text>
</a>
</g>
</g>
<!-- Node1&#45;&gt;Node2 -->
<g id="edge1_Node000001_Node000002" class="edge">
<title>Node1&#45;&gt;Node2</title>
<g id="a_edge1_Node000001_Node000002"><a xlink:title=" ">
<path fill="none" stroke="#63b8ff" d="M615.25,-219.84C605.92,-211.17 593.97,-200.08 584.35,-191.15"/>
<polygon fill="#63b8ff" stroke="#63b8ff" points="586.65,-188.51 576.94,-184.27 581.89,-193.64 586.65,-188.51"/>
</a>
</g>
</g>
<!-- Node3 -->
<g id="Node000003" class="node">
<title>Node3</title>
<g id="a_Node000003"><a xlink:href="gfx_8hpp.html" target="_top" xlink:title=" ">
<polygon fill="white" stroke="#666666" points="531,-129 478,-129 478,-110 531,-110 531,-129"/>
<text text-anchor="middle" x="504.5" y="-117" font-family="Helvetica,sans-Serif" font-size="10.00">gfx.hpp</text>
</a>
</g>
</g>
<!-- Node1&#45;&gt;Node3 -->
<g id="edge16_Node000001_Node000003" class="edge">
<title>Node1&#45;&gt;Node3</title>
<g id="a_edge16_Node000001_Node000003"><a xlink:title=" ">
<path fill="none" stroke="#63b8ff" d="M579.07,-220C559.28,-212.28 537.97,-200.76 523.5,-184 512.81,-171.62 508.13,-153.4 506.09,-139.65"/>
<polygon fill="#63b8ff" stroke="#63b8ff" points="509.53,-138.91 504.91,-129.38 502.57,-139.71 509.53,-138.91"/>
</a>
</g>
</g>
<!-- Node12 -->
<g id="Node000012" class="node">
<title>Node12</title>
<g id="a_Node000012"><a xlink:title=" ">
<polygon fill="#e0e0e0" stroke="#999999" points="697,-19 632,-19 632,0 697,0 697,-19"/>
<text text-anchor="middle" x="664.5" y="-7" font-family="Helvetica,sans-Serif" font-size="10.00">functional</text>
</a>
</g>
</g>
<!-- Node1&#45;&gt;Node12 -->
<g id="edge17_Node000001_Node000012" class="edge">
<title>Node1&#45;&gt;Node12</title>
<g id="a_edge17_Node000001_Node000012"><a xlink:title=" ">
<path fill="none" stroke="#63b8ff" d="M632.68,-219.68C638.6,-180.76 654.98,-73.07 661.64,-29.33"/>
<polygon fill="#63b8ff" stroke="#63b8ff" points="665.13,-29.64 663.17,-19.23 658.21,-28.59 665.13,-29.64"/>
</a>
</g>
</g>
<!-- Node16 -->
<g id="Node000016" class="node">
<title>Node16</title>
<g id="a_Node000016"><a xlink:title=" ">
<polygon fill="#e0e0e0" stroke="#999999" points="618,-129 571,-129 571,-110 618,-110 618,-129"/>
<text text-anchor="middle" x="594.5" y="-117" font-family="Helvetica,sans-Serif" font-size="10.00">queue</text>
</a>
</g>
</g>
<!-- Node1&#45;&gt;Node16 -->
<g id="edge19_Node000001_Node000016" class="edge">
<title>Node1&#45;&gt;Node16</title>
<g id="a_edge19_Node000001_Node000016"><a xlink:title=" ">
<path fill="none" stroke="#63b8ff" d="M627.03,-219.87C623.49,-205.84 617.65,-183.77 611.5,-165 608.63,-156.26 605.05,-146.71 601.91,-138.71"/>
<polygon fill="#63b8ff" stroke="#63b8ff" points="605.1,-137.26 598.14,-129.28 598.6,-139.86 605.1,-137.26"/>
</a>
</g>
</g>
<!-- Node17 -->
<g id="Node000017" class="node">
<title>Node17</title>
<g id="a_Node000017"><a xlink:title=" ">
<polygon fill="#e0e0e0" stroke="#999999" points="734.5,-184 696.5,-184 696.5,-165 734.5,-165 734.5,-184"/>
<text text-anchor="middle" x="715.5" y="-172" font-family="Helvetica,sans-Serif" font-size="10.00">map</text>
</a>
</g>
</g>
<!-- Node1&#45;&gt;Node17 -->
<g id="edge18_Node000001_Node000017" class="edge">
<title>Node1&#45;&gt;Node17</title>
<g id="a_edge18_Node000001_Node000017"><a xlink:title=" ">
<path fill="none" stroke="#63b8ff" d="M651.08,-219.84C664.17,-210.83 681.09,-199.18 694.3,-190.09"/>
<polygon fill="#63b8ff" stroke="#63b8ff" points="696.51,-192.82 702.76,-184.27 692.54,-187.05 696.51,-192.82"/>
</a>
</g>
</g>
<!-- Node2&#45;&gt;Node3 -->
<g id="edge2_Node000002_Node000003" class="edge">
<title>Node2&#45;&gt;Node3</title>
<g id="a_edge2_Node000002_Node000003"><a xlink:title=" ">
<path fill="none" stroke="#63b8ff" d="M557.38,-164.98C548.06,-157.15 534.03,-145.34 522.76,-135.86"/>
<polygon fill="#63b8ff" stroke="#63b8ff" points="524.71,-132.93 514.81,-129.17 520.21,-138.29 524.71,-132.93"/>
</a>
</g>
</g>
<!-- Node2&#45;&gt;Node16 -->
<g id="edge15_Node000002_Node000016" class="edge">
<title>Node2&#45;&gt;Node16</title>
<g id="a_edge15_Node000002_Node000016"><a xlink:title=" ">
<path fill="none" stroke="#63b8ff" d="M571.96,-164.75C575.62,-157.57 580.91,-147.18 585.45,-138.27"/>
<polygon fill="#63b8ff" stroke="#63b8ff" points="588.7,-139.59 590.12,-129.09 582.47,-136.41 588.7,-139.59"/>
</a>
</g>
</g>
<!-- Node4 -->
<g id="Node000004" class="node">
<title>Node4</title>
<g id="a_Node000004"><a xlink:title=" ">
<polygon fill="#e0e0e0" stroke="#999999" points="332,-74 279,-74 279,-55 332,-55 332,-74"/>
<text text-anchor="middle" x="305.5" y="-62" font-family="Helvetica,sans-Serif" font-size="10.00">cstddef</text>
</a>
</g>
</g>
<!-- Node3&#45;&gt;Node4 -->
<g id="edge3_Node000003_Node000004" class="edge">
<title>Node3&#45;&gt;Node4</title>
<g id="a_edge3_Node000003_Node000004"><a xlink:title=" ">
<path fill="none" stroke="#63b8ff" d="M477.66,-111.35C442.63,-102.02 381.16,-85.65 341.94,-75.2"/>
<polygon fill="#63b8ff" stroke="#63b8ff" points="342.79,-71.81 332.23,-72.62 340.99,-78.57 342.79,-71.81"/>
</a>
</g>
</g>
<!-- Node5 -->
<g id="Node000005" class="node">
<title>Node5</title>
<g id="a_Node000005"><a xlink:href="Keys_8hpp.html" target="_top" xlink:title=" ">
<polygon fill="white" stroke="#666666" points="411,-74 350,-74 350,-55 411,-55 411,-74"/>
<text text-anchor="middle" x="380.5" y="-62" font-family="Helvetica,sans-Serif" font-size="10.00">Keys.hpp</text>
</a>
</g>
</g>
<!-- Node3&#45;&gt;Node5 -->
<g id="edge4_Node000003_Node000005" class="edge">
<title>Node3&#45;&gt;Node5</title>
<g id="a_edge4_Node000003_Node000005"><a xlink:title=" ">
<path fill="none" stroke="#63b8ff" d="M484.58,-109.98C464.45,-101.38 433.12,-87.99 410.09,-78.15"/>
<polygon fill="#63b8ff" stroke="#63b8ff" points="411.36,-74.88 400.79,-74.17 408.6,-81.32 411.36,-74.88"/>
</a>
</g>
</g>
<!-- Node11 -->
<g id="Node000011" class="node">
<title>Node11</title>
<g id="a_Node000011"><a xlink:href="shape_8hpp.html" target="_top" xlink:title=" ">
<polygon fill="white" stroke="#666666" points="496,-74 429,-74 429,-55 496,-55 496,-74"/>
<text text-anchor="middle" x="462.5" y="-62" font-family="Helvetica,sans-Serif" font-size="10.00">shape.hpp</text>
</a>
</g>
</g>
<!-- Node3&#45;&gt;Node11 -->
<g id="edge10_Node000003_Node000011" class="edge">
<title>Node3&#45;&gt;Node11</title>
<g id="a_edge10_Node000003_Node000011"><a xlink:title=" ">
<path fill="none" stroke="#63b8ff" d="M497.56,-109.75C491.63,-102.26 482.93,-91.28 475.68,-82.13"/>
<polygon fill="#63b8ff" stroke="#63b8ff" points="478.26,-79.75 469.31,-74.09 472.77,-84.1 478.26,-79.75"/>
</a>
</g>
</g>
<!-- Node14 -->
<g id="Node000014" class="node">
<title>Node14</title>
<g id="a_Node000014"><a xlink:title=" ">
<polygon fill="#e0e0e0" stroke="#999999" points="570.5,-74 514.5,-74 514.5,-55 570.5,-55 570.5,-74"/>
<text text-anchor="middle" x="542.5" y="-62" font-family="Helvetica,sans-Serif" font-size="10.00">optional</text>
</a>
</g>
</g>
<!-- Node3&#45;&gt;Node14 -->
<g id="edge13_Node000003_Node000014" class="edge">
<title>Node3&#45;&gt;Node14</title>
<g id="a_edge13_Node000003_Node000014"><a xlink:title=" ">
<path fill="none" stroke="#63b8ff" d="M510.77,-109.75C516.09,-102.34 523.86,-91.5 530.38,-82.41"/>
<polygon fill="#63b8ff" stroke="#63b8ff" points="533.36,-84.26 536.34,-74.09 527.67,-80.18 533.36,-84.26"/>
</a>
</g>
</g>
<!-- Node15 -->
<g id="Node000015" class="node">
<title>Node15</title>
<g id="a_Node000015"><a xlink:title=" ">
<polygon fill="#e0e0e0" stroke="#999999" points="640,-74 589,-74 589,-55 640,-55 640,-74"/>
<text text-anchor="middle" x="614.5" y="-62" font-family="Helvetica,sans-Serif" font-size="10.00">variant</text>
</a>
</g>
</g>
<!-- Node3&#45;&gt;Node15 -->
<g id="edge14_Node000003_Node000015" class="edge">
<title>Node3&#45;&gt;Node15</title>
<g id="a_edge14_Node000003_Node000015"><a xlink:title=" ">
<path fill="none" stroke="#63b8ff" d="M522.17,-109.98C539.79,-101.5 567.08,-88.35 587.43,-78.54"/>
<polygon fill="#63b8ff" stroke="#63b8ff" points="589.02,-81.66 596.51,-74.17 585.98,-75.36 589.02,-81.66"/>
</a>
</g>
</g>
<!-- Node6 -->
<g id="Node000006" class="node">
<title>Node6</title>
<g id="a_Node000006"><a xlink:title=" ">
<polygon fill="#e0e0e0" stroke="#999999" points="93,-19 0,-19 0,0 93,0 93,-19"/>
<text text-anchor="middle" x="46.5" y="-7" font-family="Helvetica,sans-Serif" font-size="10.00">unordered_map</text>
</a>
</g>
</g>
<!-- Node5&#45;&gt;Node6 -->
<g id="edge5_Node000005_Node000006" class="edge">
<title>Node5&#45;&gt;Node6</title>
<g id="a_edge5_Node000005_Node000006"><a xlink:title=" ">
<path fill="none" stroke="#63b8ff" d="M349.96,-56.81C346.77,-56.17 343.57,-55.56 340.5,-55 238,-36.41 209.41,-35.26 103.19,-19.24"/>
<polygon fill="#63b8ff" stroke="#63b8ff" points="103.42,-15.74 93.01,-17.7 102.37,-22.66 103.42,-15.74"/>
</a>
</g>
</g>
<!-- Node7 -->
<g id="Node000007" class="node">
<title>Node7</title>
<g id="a_Node000007"><a xlink:title=" ">
<polygon fill="#e0e0e0" stroke="#999999" points="152,-19 111,-19 111,0 152,0 152,-19"/>
<text text-anchor="middle" x="131.5" y="-7" font-family="Helvetica,sans-Serif" font-size="10.00">tuple</text>
</a>
</g>
</g>
<!-- Node5&#45;&gt;Node7 -->
<g id="edge6_Node000005_Node000007" class="edge">
<title>Node5&#45;&gt;Node7</title>
<g id="a_edge6_Node000005_Node000007"><a xlink:title=" ">
<path fill="none" stroke="#63b8ff" d="M349.93,-56.97C346.75,-56.3 343.56,-55.63 340.5,-55 264.14,-39.21 242.08,-38.14 162.14,-18.99"/>
<polygon fill="#63b8ff" stroke="#63b8ff" points="162.64,-15.51 152.1,-16.56 161,-22.32 162.64,-15.51"/>
</a>
</g>
</g>
<!-- Node8 -->
<g id="Node000008" class="node">
<title>Node8</title>
<g id="a_Node000008"><a xlink:title=" ">
<polygon fill="#e0e0e0" stroke="#999999" points="288.5,-19 170.5,-19 170.5,0 288.5,0 288.5,-19"/>
<text text-anchor="middle" x="229.5" y="-7" font-family="Helvetica,sans-Serif" font-size="10.00">SDL2/SDL_keycode.h</text>
</a>
</g>
</g>
<!-- Node5&#45;&gt;Node8 -->
<g id="edge7_Node000005_Node000008" class="edge">
<title>Node5&#45;&gt;Node8</title>
<g id="a_edge7_Node000005_Node000008"><a xlink:title=" ">
<path fill="none" stroke="#63b8ff" d="M356.24,-54.98C331.18,-46.19 291.87,-32.39 263.67,-22.49"/>
<polygon fill="#63b8ff" stroke="#63b8ff" points="264.8,-19.18 254.2,-19.17 262.48,-25.78 264.8,-19.18"/>
</a>
</g>
</g>
<!-- Node9 -->
<g id="Node000009" class="node">
<title>Node9</title>
<g id="a_Node000009"><a xlink:title=" ">
<polygon fill="#e0e0e0" stroke="#999999" points="462,-19 307,-19 307,0 462,0 462,-19"/>
<text text-anchor="middle" x="384.5" y="-7" font-family="Helvetica,sans-Serif" font-size="10.00">SFML/Window/Keyboard.hpp</text>
</a>
</g>
</g>
<!-- Node5&#45;&gt;Node9 -->
<g id="edge8_Node000005_Node000009" class="edge">
<title>Node5&#45;&gt;Node9</title>
<g id="a_edge8_Node000005_Node000009"><a xlink:title=" ">
<path fill="none" stroke="#63b8ff" d="M381.16,-54.75C381.68,-47.8 382.44,-37.85 383.09,-29.13"/>
<polygon fill="#63b8ff" stroke="#63b8ff" points="386.59,-29.32 383.85,-19.09 379.61,-28.8 386.59,-29.32"/>
</a>
</g>
</g>
<!-- Node10 -->
<g id="Node000010" class="node">
<title>Node10</title>
<g id="a_Node000010"><a xlink:title=" ">
<polygon fill="#e0e0e0" stroke="#999999" points="543,-19 480,-19 480,0 543,0 543,-19"/>
<text text-anchor="middle" x="511.5" y="-7" font-family="Helvetica,sans-Serif" font-size="10.00">ncurses.h</text>
</a>
</g>
</g>
<!-- Node5&#45;&gt;Node10 -->
<g id="edge9_Node000005_Node000010" class="edge">
<title>Node5&#45;&gt;Node10</title>
<g id="a_edge9_Node000005_Node000010"><a xlink:title=" ">
<path fill="none" stroke="#63b8ff" d="M401.55,-54.98C422.91,-46.34 456.2,-32.87 480.56,-23.02"/>
<polygon fill="#63b8ff" stroke="#63b8ff" points="482.11,-26.17 490.07,-19.17 479.49,-19.68 482.11,-26.17"/>
</a>
</g>
</g>
<!-- Node11&#45;&gt;Node12 -->
<g id="edge11_Node000011_Node000012" class="edge">
<title>Node11&#45;&gt;Node12</title>
<g id="a_edge11_Node000011_Node000012"><a xlink:title=" ">
<path fill="none" stroke="#63b8ff" d="M494.95,-54.98C529.46,-45.93 584.16,-31.58 622.06,-21.64"/>
<polygon fill="#63b8ff" stroke="#63b8ff" points="623.01,-25.01 631.79,-19.08 621.23,-18.23 623.01,-25.01"/>
</a>
</g>
</g>
<!-- Node13 -->
<g id="Node000013" class="node">
<title>Node13</title>
<g id="a_Node000013"><a xlink:title=" ">
<polygon fill="#e0e0e0" stroke="#999999" points="605.5,-19 561.5,-19 561.5,0 605.5,0 605.5,-19"/>
<text text-anchor="middle" x="583.5" y="-7" font-family="Helvetica,sans-Serif" font-size="10.00">string</text>
</a>
</g>
</g>
<!-- Node11&#45;&gt;Node13 -->
<g id="edge12_Node000011_Node000013" class="edge">
<title>Node11&#45;&gt;Node13</title>
<g id="a_edge12_Node000011_Node000013"><a xlink:title=" ">
<path fill="none" stroke="#63b8ff" d="M481.94,-54.98C501.49,-46.42 531.88,-33.11 554.32,-23.28"/>
<polygon fill="#63b8ff" stroke="#63b8ff" points="555.95,-26.39 563.71,-19.17 553.14,-19.98 555.95,-26.39"/>
</a>
</g>
</g>
</g>
</svg>
