<?xml version="1.0" encoding="UTF-8" standalone="no"?>
<!DOCTYPE svg PUBLIC "-//W3C//DTD SVG 1.1//EN"
 "http://www.w3.org/Graphics/SVG/1.1/DTD/svg11.dtd">
<!-- Generated by graphviz version 2.43.0 (0)
 -->
<!-- Title: games/MineSweeper/src/MineSweeper.cpp Pages: 1 -->
<svg width="979pt" height="368pt"
 viewBox="0.00 0.00 978.50 368.00" xmlns="http://www.w3.org/2000/svg" xmlns:xlink="http://www.w3.org/1999/xlink">
<g id="graph0" class="graph" transform="scale(1 1) rotate(0) translate(4 364)">
<title>games/MineSweeper/src/MineSweeper.cpp</title>
<!-- Node1 -->
<g id="Node000001" class="node">
<title>Node1</title>
<g id="a_Node000001"><a xlink:title=" ">
<polygon fill="#999999" stroke="#666666" points="609.5,-360 473.5,-360 473.5,-330 609.5,-330 609.5,-360"/>
<text text-anchor="start" x="481.5" y="-348" font-family="Helvetica,sans-Serif" font-size="10.00">games/MineSweeper/src</text>
<text text-anchor="middle" x="541.5" y="-337" font-family="Helvetica,sans-Serif" font-size="10.00">/MineSweeper.cpp</text>
</a>
</g>
</g>
<!-- Node2 -->
<g id="Node000002" class="node">
<title>Node2</title>
<g id="a_Node000002"><a xlink:href="MineSweeper_8hpp.html" target="_top" xlink:title=" ">
<polygon fill="white" stroke="#666666" points="547,-294 444,-294 444,-275 547,-275 547,-294"/>
<text text-anchor="middle" x="495.5" y="-282" font-family="Helvetica,sans-Serif" font-size="10.00">MineSweeper.hpp</text>
</a>
</g>
</g>
<!-- Node1&#45;&gt;Node2 -->
<g id="edge1_Node000001_Node000002" class="edge">
<title>Node1&#45;&gt;Node2</title>
<g id="a_edge1_Node000001_Node000002"><a xlink:title=" ">
<path fill="none" stroke="#63b8ff" d="M530.36,-329.84C523.82,-321.52 515.52,-310.96 508.66,-302.23"/>
<polygon fill="#63b8ff" stroke="#63b8ff" points="511.33,-299.96 502.39,-294.27 505.82,-304.29 511.33,-299.96"/>
</a>
</g>
</g>
<!-- Node26 -->
<g id="Node000026" class="node">
<title>Node26</title>
<g id="a_Node000026"><a xlink:title=" ">
<polygon fill="#e0e0e0" stroke="#999999" points="609.5,-294 565.5,-294 565.5,-275 609.5,-275 609.5,-294"/>
<text text-anchor="middle" x="587.5" y="-282" font-family="Helvetica,sans-Serif" font-size="10.00">ctime</text>
</a>
</g>
</g>
<!-- Node1&#45;&gt;Node26 -->
<g id="edge29_Node000001_Node000026" class="edge">
<title>Node1&#45;&gt;Node26</title>
<g id="a_edge29_Node000001_Node000026"><a xlink:title=" ">
<path fill="none" stroke="#63b8ff" d="M552.64,-329.84C559.18,-321.52 567.48,-310.96 574.34,-302.23"/>
<polygon fill="#63b8ff" stroke="#63b8ff" points="577.18,-304.29 580.61,-294.27 571.67,-299.96 577.18,-304.29"/>
</a>
</g>
</g>
<!-- Node3 -->
<g id="Node000003" class="node">
<title>Node3</title>
<g id="a_Node000003"><a xlink:href="IGame_8hpp.html" target="_top" xlink:title=" ">
<polygon fill="white" stroke="#666666" points="467.5,-184 397.5,-184 397.5,-165 467.5,-165 467.5,-184"/>
<text text-anchor="middle" x="432.5" y="-172" font-family="Helvetica,sans-Serif" font-size="10.00">IGame.hpp</text>
</a>
</g>
</g>
<!-- Node2&#45;&gt;Node3 -->
<g id="edge2_Node000002_Node000003" class="edge">
<title>Node2&#45;&gt;Node3</title>
<g id="a_edge2_Node000002_Node000003"><a xlink:title=" ">
<path fill="none" stroke="#63b8ff" d="M490.34,-274.66C479.96,-256.85 456.34,-216.37 442.71,-193.01"/>
<polygon fill="#63b8ff" stroke="#63b8ff" points="445.61,-191.03 437.55,-184.16 439.57,-194.56 445.61,-191.03"/>
</a>
</g>
</g>
<!-- Node4 -->
<g id="Node000004" class="node">
<title>Node4</title>
<g id="a_Node000004"><a xlink:href="gfx_8hpp.html" target="_top" xlink:title=" ">
<polygon fill="white" stroke="#666666" points="530,-129 477,-129 477,-110 530,-110 530,-129"/>
<text text-anchor="middle" x="503.5" y="-117" font-family="Helvetica,sans-Serif" font-size="10.00">gfx.hpp</text>
</a>
</g>
</g>
<!-- Node2&#45;&gt;Node4 -->
<g id="edge18_Node000002_Node000004" class="edge">
<title>Node2&#45;&gt;Node4</title>
<g id="a_edge18_Node000002_Node000004"><a xlink:title=" ">
<path fill="none" stroke="#63b8ff" d="M495.93,-274.74C497.18,-249.31 500.82,-175.08 502.56,-139.69"/>
<polygon fill="#63b8ff" stroke="#63b8ff" points="506.07,-139.47 503.07,-129.31 499.08,-139.12 506.07,-139.47"/>
</a>
</g>
</g>
<!-- Node6 -->
<g id="Node000006" class="node">
<title>Node6</title>
<g id="a_Node000006"><a xlink:href="Keys_8hpp.html" target="_top" xlink:title=" ">
<polygon fill="white" stroke="#666666" points="392,-74 331,-74 331,-55 392,-55 392,-74"/>
<text text-anchor="middle" x="361.5" y="-62" font-family="Helvetica,sans-Serif" font-size="10.00">Keys.hpp</text>
</a>
</g>
</g>
<!-- Node2&#45;&gt;Node6 -->
<g id="edge17_Node000002_Node000006" class="edge">
<title>Node2&#45;&gt;Node6</title>
<g id="a_edge17_Node000002_Node000006"><a xlink:title=" ">
<path fill="none" stroke="#63b8ff" d="M481.9,-274.91C458.86,-259.61 412.31,-225.32 388.5,-184 370.13,-152.12 364.26,-108.69 362.38,-84.23"/>
<polygon fill="#63b8ff" stroke="#63b8ff" points="365.87,-83.93 361.76,-74.16 358.88,-84.36 365.87,-83.93"/>
</a>
</g>
</g>
<!-- Node18 -->
<g id="Node000018" class="node">
<title>Node18</title>
<g id="a_Node000018"><a xlink:href="GameMatrix_8hpp.html" target="_top" xlink:title=" ">
<polygon fill="white" stroke="#666666" points="709.5,-239 611.5,-239 611.5,-220 709.5,-220 709.5,-239"/>
<text text-anchor="middle" x="660.5" y="-227" font-family="Helvetica,sans-Serif" font-size="10.00">GameMatrix.hpp</text>
</a>
</g>
</g>
<!-- Node2&#45;&gt;Node18 -->
<g id="edge19_Node000002_Node000018" class="edge">
<title>Node2&#45;&gt;Node18</title>
<g id="a_edge19_Node000002_Node000018"><a xlink:title=" ">
<path fill="none" stroke="#63b8ff" d="M522.01,-274.98C549.71,-266.09 593.36,-252.07 624.24,-242.15"/>
<polygon fill="#63b8ff" stroke="#63b8ff" points="625.33,-245.47 633.78,-239.08 623.19,-238.81 625.33,-245.47"/>
</a>
</g>
</g>
<!-- Node25 -->
<g id="Node000025" class="node">
<title>Node25</title>
<g id="a_Node000025"><a xlink:title=" ">
<polygon fill="#e0e0e0" stroke="#999999" points="777.5,-239 727.5,-239 727.5,-220 777.5,-220 777.5,-239"/>
<text text-anchor="middle" x="752.5" y="-227" font-family="Helvetica,sans-Serif" font-size="10.00">chrono</text>
</a>
</g>
</g>
<!-- Node2&#45;&gt;Node25 -->
<g id="edge28_Node000002_Node000025" class="edge">
<title>Node2&#45;&gt;Node25</title>
<g id="a_edge28_Node000002_Node000025"><a xlink:title=" ">
<path fill="none" stroke="#63b8ff" d="M541.76,-274.94C584.84,-266.82 651.07,-253.95 717.48,-239.15"/>
<polygon fill="#63b8ff" stroke="#63b8ff" points="718.29,-242.55 727.28,-236.95 716.76,-235.72 718.29,-242.55"/>
</a>
</g>
</g>
<!-- Node3&#45;&gt;Node4 -->
<g id="edge3_Node000003_Node000004" class="edge">
<title>Node3&#45;&gt;Node4</title>
<g id="a_edge3_Node000003_Node000004"><a xlink:title=" ">
<path fill="none" stroke="#63b8ff" d="M443.91,-164.98C454.61,-157 470.84,-144.88 483.66,-135.31"/>
<polygon fill="#63b8ff" stroke="#63b8ff" points="485.97,-137.96 491.89,-129.17 481.78,-132.35 485.97,-137.96"/>
</a>
</g>
</g>
<!-- Node17 -->
<g id="Node000017" class="node">
<title>Node17</title>
<g id="a_Node000017"><a xlink:title=" ">
<polygon fill="#e0e0e0" stroke="#999999" points="456,-129 409,-129 409,-110 456,-110 456,-129"/>
<text text-anchor="middle" x="432.5" y="-117" font-family="Helvetica,sans-Serif" font-size="10.00">queue</text>
</a>
</g>
</g>
<!-- Node3&#45;&gt;Node17 -->
<g id="edge16_Node000003_Node000017" class="edge">
<title>Node3&#45;&gt;Node17</title>
<g id="a_edge16_Node000003_Node000017"><a xlink:title=" ">
<path fill="none" stroke="#63b8ff" d="M432.5,-164.75C432.5,-157.8 432.5,-147.85 432.5,-139.13"/>
<polygon fill="#63b8ff" stroke="#63b8ff" points="436,-139.09 432.5,-129.09 429,-139.09 436,-139.09"/>
</a>
</g>
</g>
<!-- Node5 -->
<g id="Node000005" class="node">
<title>Node5</title>
<g id="a_Node000005"><a xlink:title=" ">
<polygon fill="#e0e0e0" stroke="#999999" points="532,-74 479,-74 479,-55 532,-55 532,-74"/>
<text text-anchor="middle" x="505.5" y="-62" font-family="Helvetica,sans-Serif" font-size="10.00">cstddef</text>
</a>
</g>
</g>
<!-- Node4&#45;&gt;Node5 -->
<g id="edge4_Node000004_Node000005" class="edge">
<title>Node4&#45;&gt;Node5</title>
<g id="a_edge4_Node000004_Node000005"><a xlink:title=" ">
<path fill="none" stroke="#63b8ff" d="M503.83,-109.75C504.09,-102.8 504.47,-92.85 504.8,-84.13"/>
<polygon fill="#63b8ff" stroke="#63b8ff" points="508.3,-84.21 505.18,-74.09 501.3,-83.95 508.3,-84.21"/>
</a>
</g>
</g>
<!-- Node4&#45;&gt;Node6 -->
<g id="edge5_Node000004_Node000006" class="edge">
<title>Node4&#45;&gt;Node6</title>
<g id="a_edge5_Node000004_Node000006"><a xlink:title=" ">
<path fill="none" stroke="#63b8ff" d="M480.69,-109.98C457.33,-101.27 420.8,-87.63 394.33,-77.75"/>
<polygon fill="#63b8ff" stroke="#63b8ff" points="395.32,-74.39 384.73,-74.17 392.87,-80.95 395.32,-74.39"/>
</a>
</g>
</g>
<!-- Node12 -->
<g id="Node000012" class="node">
<title>Node12</title>
<g id="a_Node000012"><a xlink:href="shape_8hpp.html" target="_top" xlink:title=" ">
<polygon fill="white" stroke="#666666" points="617,-74 550,-74 550,-55 617,-55 617,-74"/>
<text text-anchor="middle" x="583.5" y="-62" font-family="Helvetica,sans-Serif" font-size="10.00">shape.hpp</text>
</a>
</g>
</g>
<!-- Node4&#45;&gt;Node12 -->
<g id="edge11_Node000004_Node000012" class="edge">
<title>Node4&#45;&gt;Node12</title>
<g id="a_edge11_Node000004_Node000012"><a xlink:title=" ">
<path fill="none" stroke="#63b8ff" d="M516.35,-109.98C528.64,-101.84 547.41,-89.41 561.98,-79.76"/>
<polygon fill="#63b8ff" stroke="#63b8ff" points="564.01,-82.61 570.41,-74.17 560.14,-76.78 564.01,-82.61"/>
</a>
</g>
</g>
<!-- Node15 -->
<g id="Node000015" class="node">
<title>Node15</title>
<g id="a_Node000015"><a xlink:title=" ">
<polygon fill="#e0e0e0" stroke="#999999" points="691.5,-74 635.5,-74 635.5,-55 691.5,-55 691.5,-74"/>
<text text-anchor="middle" x="663.5" y="-62" font-family="Helvetica,sans-Serif" font-size="10.00">optional</text>
</a>
</g>
</g>
<!-- Node4&#45;&gt;Node15 -->
<g id="edge14_Node000004_Node000015" class="edge">
<title>Node4&#45;&gt;Node15</title>
<g id="a_edge14_Node000004_Node000015"><a xlink:title=" ">
<path fill="none" stroke="#63b8ff" d="M529.21,-109.98C555.95,-101.13 598.03,-87.19 627.95,-77.28"/>
<polygon fill="#63b8ff" stroke="#63b8ff" points="629.2,-80.55 637.59,-74.08 627,-73.9 629.2,-80.55"/>
</a>
</g>
</g>
<!-- Node16 -->
<g id="Node000016" class="node">
<title>Node16</title>
<g id="a_Node000016"><a xlink:title=" ">
<polygon fill="#e0e0e0" stroke="#999999" points="461,-74 410,-74 410,-55 461,-55 461,-74"/>
<text text-anchor="middle" x="435.5" y="-62" font-family="Helvetica,sans-Serif" font-size="10.00">variant</text>
</a>
</g>
</g>
<!-- Node4&#45;&gt;Node16 -->
<g id="edge15_Node000004_Node000016" class="edge">
<title>Node4&#45;&gt;Node16</title>
<g id="a_edge15_Node000004_Node000016"><a xlink:title=" ">
<path fill="none" stroke="#63b8ff" d="M492.57,-109.98C482.42,-102.07 467.08,-90.11 454.85,-80.58"/>
<polygon fill="#63b8ff" stroke="#63b8ff" points="456.66,-77.56 446.62,-74.17 452.36,-83.08 456.66,-77.56"/>
</a>
</g>
</g>
<!-- Node7 -->
<g id="Node000007" class="node">
<title>Node7</title>
<g id="a_Node000007"><a xlink:title=" ">
<polygon fill="#e0e0e0" stroke="#999999" points="543,-19 450,-19 450,0 543,0 543,-19"/>
<text text-anchor="middle" x="496.5" y="-7" font-family="Helvetica,sans-Serif" font-size="10.00">unordered_map</text>
</a>
</g>
</g>
<!-- Node6&#45;&gt;Node7 -->
<g id="edge6_Node000006_Node000007" class="edge">
<title>Node6&#45;&gt;Node7</title>
<g id="a_edge6_Node000006_Node000007"><a xlink:title=" ">
<path fill="none" stroke="#63b8ff" d="M383.19,-54.98C405.3,-46.3 439.82,-32.75 464.95,-22.88"/>
<polygon fill="#63b8ff" stroke="#63b8ff" points="466.39,-26.08 474.42,-19.17 463.83,-19.57 466.39,-26.08"/>
</a>
</g>
</g>
<!-- Node8 -->
<g id="Node000008" class="node">
<title>Node8</title>
<g id="a_Node000008"><a xlink:title=" ">
<polygon fill="#e0e0e0" stroke="#999999" points="41,-19 0,-19 0,0 41,0 41,-19"/>
<text text-anchor="middle" x="20.5" y="-7" font-family="Helvetica,sans-Serif" font-size="10.00">tuple</text>
</a>
</g>
</g>
<!-- Node6&#45;&gt;Node8 -->
<g id="edge7_Node000006_Node000008" class="edge">
<title>Node6&#45;&gt;Node8</title>
<g id="a_edge7_Node000006_Node000008"><a xlink:title=" ">
<path fill="none" stroke="#63b8ff" d="M330.8,-60.49C276.37,-54.85 159.27,-41.39 50.86,-18.79"/>
<polygon fill="#63b8ff" stroke="#63b8ff" points="51.57,-15.36 41.07,-16.72 50.13,-22.21 51.57,-15.36"/>
</a>
</g>
</g>
<!-- Node9 -->
<g id="Node000009" class="node">
<title>Node9</title>
<g id="a_Node000009"><a xlink:title=" ">
<polygon fill="#e0e0e0" stroke="#999999" points="177.5,-19 59.5,-19 59.5,0 177.5,0 177.5,-19"/>
<text text-anchor="middle" x="118.5" y="-7" font-family="Helvetica,sans-Serif" font-size="10.00">SDL2/SDL_keycode.h</text>
</a>
</g>
</g>
<!-- Node6&#45;&gt;Node9 -->
<g id="edge8_Node000006_Node000009" class="edge">
<title>Node6&#45;&gt;Node9</title>
<g id="a_edge8_Node000006_Node000009"><a xlink:title=" ">
<path fill="none" stroke="#63b8ff" d="M330.72,-56.79C289.71,-47.84 216.65,-31.91 167.88,-21.27"/>
<polygon fill="#63b8ff" stroke="#63b8ff" points="168.38,-17.8 157.86,-19.09 166.89,-24.64 168.38,-17.8"/>
</a>
</g>
</g>
<!-- Node10 -->
<g id="Node000010" class="node">
<title>Node10</title>
<g id="a_Node000010"><a xlink:title=" ">
<polygon fill="#e0e0e0" stroke="#999999" points="351,-19 196,-19 196,0 351,0 351,-19"/>
<text text-anchor="middle" x="273.5" y="-7" font-family="Helvetica,sans-Serif" font-size="10.00">SFML/Window/Keyboard.hpp</text>
</a>
</g>
</g>
<!-- Node6&#45;&gt;Node10 -->
<g id="edge9_Node000006_Node000010" class="edge">
<title>Node6&#45;&gt;Node10</title>
<g id="a_edge9_Node000006_Node000010"><a xlink:title=" ">
<path fill="none" stroke="#63b8ff" d="M347.36,-54.98C333.71,-46.77 312.81,-34.18 296.72,-24.49"/>
<polygon fill="#63b8ff" stroke="#63b8ff" points="298.27,-21.33 287.9,-19.17 294.66,-27.33 298.27,-21.33"/>
</a>
</g>
</g>
<!-- Node11 -->
<g id="Node000011" class="node">
<title>Node11</title>
<g id="a_Node000011"><a xlink:title=" ">
<polygon fill="#e0e0e0" stroke="#999999" points="432,-19 369,-19 369,0 432,0 432,-19"/>
<text text-anchor="middle" x="400.5" y="-7" font-family="Helvetica,sans-Serif" font-size="10.00">ncurses.h</text>
</a>
</g>
</g>
<!-- Node6&#45;&gt;Node11 -->
<g id="edge10_Node000006_Node000011" class="edge">
<title>Node6&#45;&gt;Node11</title>
<g id="a_edge10_Node000006_Node000011"><a xlink:title=" ">
<path fill="none" stroke="#63b8ff" d="M367.94,-54.75C373.39,-47.34 381.36,-36.5 388.06,-27.41"/>
<polygon fill="#63b8ff" stroke="#63b8ff" points="391.07,-29.22 394.18,-19.09 385.43,-25.07 391.07,-29.22"/>
</a>
</g>
</g>
<!-- Node13 -->
<g id="Node000013" class="node">
<title>Node13</title>
<g id="a_Node000013"><a xlink:title=" ">
<polygon fill="#e0e0e0" stroke="#999999" points="689,-19 624,-19 624,0 689,0 689,-19"/>
<text text-anchor="middle" x="656.5" y="-7" font-family="Helvetica,sans-Serif" font-size="10.00">functional</text>
</a>
</g>
</g>
<!-- Node12&#45;&gt;Node13 -->
<g id="edge12_Node000012_Node000013" class="edge">
<title>Node12&#45;&gt;Node13</title>
<g id="a_edge12_Node000012_Node000013"><a xlink:title=" ">
<path fill="none" stroke="#63b8ff" d="M595.23,-54.98C606.23,-47 622.92,-34.88 636.1,-25.31"/>
<polygon fill="#63b8ff" stroke="#63b8ff" points="638.52,-27.88 644.56,-19.17 634.41,-22.21 638.52,-27.88"/>
</a>
</g>
</g>
<!-- Node14 -->
<g id="Node000014" class="node">
<title>Node14</title>
<g id="a_Node000014"><a xlink:title=" ">
<polygon fill="#e0e0e0" stroke="#999999" points="605.5,-19 561.5,-19 561.5,0 605.5,0 605.5,-19"/>
<text text-anchor="middle" x="583.5" y="-7" font-family="Helvetica,sans-Serif" font-size="10.00">string</text>
</a>
</g>
</g>
<!-- Node12&#45;&gt;Node14 -->
<g id="edge13_Node000012_Node000014" class="edge">
<title>Node12&#45;&gt;Node14</title>
<g id="a_edge13_Node000012_Node000014"><a xlink:title=" ">
<path fill="none" stroke="#63b8ff" d="M583.5,-54.75C583.5,-47.8 583.5,-37.85 583.5,-29.13"/>
<polygon fill="#63b8ff" stroke="#63b8ff" points="587,-29.09 583.5,-19.09 580,-29.09 587,-29.09"/>
</a>
</g>
</g>
<!-- Node18&#45;&gt;Node3 -->
<g id="edge20_Node000018_Node000003" class="edge">
<title>Node18&#45;&gt;Node3</title>
<g id="a_edge20_Node000018_Node000003"><a xlink:title=" ">
<path fill="none" stroke="#63b8ff" d="M623.87,-219.98C584.01,-210.72 520.27,-195.9 477.42,-185.94"/>
<polygon fill="#63b8ff" stroke="#63b8ff" points="478.08,-182.5 467.54,-183.65 476.49,-189.32 478.08,-182.5"/>
</a>
</g>
</g>
<!-- Node18&#45;&gt;Node4 -->
<g id="edge26_Node000018_Node000004" class="edge">
<title>Node18&#45;&gt;Node4</title>
<g id="a_edge26_Node000018_Node000004"><a xlink:title=" ">
<path fill="none" stroke="#63b8ff" d="M709.53,-220.05C771.88,-209.08 872.16,-190.55 877.5,-184 882.84,-177.46 883.11,-171.31 877.5,-165 855.31,-140.02 630.11,-126.56 540.25,-122.15"/>
<polygon fill="#63b8ff" stroke="#63b8ff" points="540.38,-118.65 530.23,-121.67 540.05,-125.64 540.38,-118.65"/>
</a>
</g>
</g>
<!-- Node19 -->
<g id="Node000019" class="node">
<title>Node19</title>
<g id="a_Node000019"><a xlink:title=" ">
<polygon fill="#e0e0e0" stroke="#999999" points="970.5,-184 924.5,-184 924.5,-165 970.5,-165 970.5,-184"/>
<text text-anchor="middle" x="947.5" y="-172" font-family="Helvetica,sans-Serif" font-size="10.00">cstdio</text>
</a>
</g>
</g>
<!-- Node18&#45;&gt;Node19 -->
<g id="edge21_Node000018_Node000019" class="edge">
<title>Node18&#45;&gt;Node19</title>
<g id="a_edge21_Node000018_Node000019"><a xlink:title=" ">
<path fill="none" stroke="#63b8ff" d="M709.97,-220.44C760.5,-212.03 841.17,-198.13 910.5,-184 911.77,-183.74 913.07,-183.47 914.37,-183.19"/>
<polygon fill="#63b8ff" stroke="#63b8ff" points="915.43,-186.55 924.45,-180.98 913.93,-179.71 915.43,-186.55"/>
</a>
</g>
</g>
<!-- Node20 -->
<g id="Node000020" class="node">
<title>Node20</title>
<g id="a_Node000020"><a xlink:title=" ">
<polygon fill="#e0e0e0" stroke="#999999" points="571,-184 524,-184 524,-165 571,-165 571,-184"/>
<text text-anchor="middle" x="547.5" y="-172" font-family="Helvetica,sans-Serif" font-size="10.00">vector</text>
</a>
</g>
</g>
<!-- Node18&#45;&gt;Node20 -->
<g id="edge22_Node000018_Node000020" class="edge">
<title>Node18&#45;&gt;Node20</title>
<g id="a_edge22_Node000018_Node000020"><a xlink:title=" ">
<path fill="none" stroke="#63b8ff" d="M642.34,-219.98C624.25,-211.5 596.22,-198.35 575.31,-188.54"/>
<polygon fill="#63b8ff" stroke="#63b8ff" points="576.53,-185.25 565.99,-184.17 573.55,-191.59 576.53,-185.25"/>
</a>
</g>
</g>
<!-- Node21 -->
<g id="Node000021" class="node">
<title>Node21</title>
<g id="a_Node000021"><a xlink:title=" ">
<polygon fill="#e0e0e0" stroke="#999999" points="654,-184 589,-184 589,-165 654,-165 654,-184"/>
<text text-anchor="middle" x="621.5" y="-172" font-family="Helvetica,sans-Serif" font-size="10.00">exception</text>
</a>
</g>
</g>
<!-- Node18&#45;&gt;Node21 -->
<g id="edge23_Node000018_Node000021" class="edge">
<title>Node18&#45;&gt;Node21</title>
<g id="a_edge23_Node000018_Node000021"><a xlink:title=" ">
<path fill="none" stroke="#63b8ff" d="M654.06,-219.75C648.61,-212.34 640.64,-201.5 633.94,-192.41"/>
<polygon fill="#63b8ff" stroke="#63b8ff" points="636.57,-190.07 627.82,-184.09 630.93,-194.22 636.57,-190.07"/>
</a>
</g>
</g>
<!-- Node22 -->
<g id="Node000022" class="node">
<title>Node22</title>
<g id="a_Node000022"><a xlink:title=" ">
<polygon fill="#e0e0e0" stroke="#999999" points="728.5,-184 672.5,-184 672.5,-165 728.5,-165 728.5,-184"/>
<text text-anchor="middle" x="700.5" y="-172" font-family="Helvetica,sans-Serif" font-size="10.00">sstream</text>
</a>
</g>
</g>
<!-- Node18&#45;&gt;Node22 -->
<g id="edge24_Node000018_Node000022" class="edge">
<title>Node18&#45;&gt;Node22</title>
<g id="a_edge24_Node000018_Node000022"><a xlink:title=" ">
<path fill="none" stroke="#63b8ff" d="M667.11,-219.75C672.76,-212.26 681.04,-201.28 687.95,-192.13"/>
<polygon fill="#63b8ff" stroke="#63b8ff" points="690.79,-194.18 694.02,-184.09 685.2,-189.96 690.79,-194.18"/>
</a>
</g>
</g>
<!-- Node23 -->
<g id="Node000023" class="node">
<title>Node23</title>
<g id="a_Node000023"><a xlink:title=" ">
<polygon fill="#e0e0e0" stroke="#999999" points="806.5,-184 746.5,-184 746.5,-165 806.5,-165 806.5,-184"/>
<text text-anchor="middle" x="776.5" y="-172" font-family="Helvetica,sans-Serif" font-size="10.00">iostream</text>
</a>
</g>
</g>
<!-- Node18&#45;&gt;Node23 -->
<g id="edge25_Node000018_Node000023" class="edge">
<title>Node18&#45;&gt;Node23</title>
<g id="a_edge25_Node000018_Node000023"><a xlink:title=" ">
<path fill="none" stroke="#63b8ff" d="M679.14,-219.98C697.8,-211.46 726.75,-198.23 748.24,-188.41"/>
<polygon fill="#63b8ff" stroke="#63b8ff" points="749.88,-191.51 757.52,-184.17 746.97,-185.14 749.88,-191.51"/>
</a>
</g>
</g>
<!-- Node24 -->
<g id="Node000024" class="node">
<title>Node24</title>
<g id="a_Node000024"><a xlink:title=" ">
<polygon fill="#e0e0e0" stroke="#999999" points="868,-184 825,-184 825,-165 868,-165 868,-184"/>
<text text-anchor="middle" x="846.5" y="-172" font-family="Helvetica,sans-Serif" font-size="10.00">stack</text>
</a>
</g>
</g>
<!-- Node18&#45;&gt;Node24 -->
<g id="edge27_Node000018_Node000024" class="edge">
<title>Node18&#45;&gt;Node24</title>
<g id="a_edge27_Node000018_Node000024"><a xlink:title=" ">
<path fill="none" stroke="#63b8ff" d="M690.38,-219.98C724.59,-210.24 780.37,-194.34 815.17,-184.43"/>
<polygon fill="#63b8ff" stroke="#63b8ff" points="816.17,-187.78 824.83,-181.68 814.25,-181.05 816.17,-187.78"/>
</a>
</g>
</g>
</g>
</svg>
