<?xml version="1.0" encoding="UTF-8" standalone="no"?>
<!DOCTYPE svg PUBLIC "-//W3C//DTD SVG 1.1//EN"
 "http://www.w3.org/Graphics/SVG/1.1/DTD/svg11.dtd">
<!-- Generated by graphviz version 2.43.0 (0)
 -->
<!-- Title: graphics/Ncurses/src/Ncurses.cpp Pages: 1 -->
<svg width="902pt" height="368pt"
 viewBox="0.00 0.00 902.00 368.00" xmlns="http://www.w3.org/2000/svg" xmlns:xlink="http://www.w3.org/1999/xlink">
<g id="graph0" class="graph" transform="scale(1 1) rotate(0) translate(4 364)">
<title>graphics/Ncurses/src/Ncurses.cpp</title>
<!-- Node1 -->
<g id="Node000001" class="node">
<title>Node1</title>
<g id="a_Node000001"><a xlink:title=" ">
<polygon fill="#999999" stroke="#666666" points="669,-360 552,-360 552,-330 669,-330 669,-360"/>
<text text-anchor="start" x="560" y="-348" font-family="Helvetica,sans-Serif" font-size="10.00">graphics/Ncurses/src</text>
<text text-anchor="middle" x="610.5" y="-337" font-family="Helvetica,sans-Serif" font-size="10.00">/Ncurses.cpp</text>
</a>
</g>
</g>
<!-- Node2 -->
<g id="Node000002" class="node">
<title>Node2</title>
<g id="a_Node000002"><a xlink:title=" ">
<polygon fill="#e0e0e0" stroke="#999999" points="543,-19 480,-19 480,0 543,0 543,-19"/>
<text text-anchor="middle" x="511.5" y="-7" font-family="Helvetica,sans-Serif" font-size="10.00">ncurses.h</text>
</a>
</g>
</g>
<!-- Node1&#45;&gt;Node2 -->
<g id="edge1_Node000001_Node000002" class="edge">
<title>Node1&#45;&gt;Node2</title>
<g id="a_edge1_Node000001_Node000002"><a xlink:title=" ">
<path fill="none" stroke="#63b8ff" d="M551.88,-332.41C470.32,-314.57 332.5,-277.48 332.5,-230.5 332.5,-230.5 332.5,-230.5 332.5,-118.5 332.5,-83.12 351.82,-75.71 380.5,-55 395.06,-44.49 437.3,-31.07 469.93,-21.73"/>
<polygon fill="#63b8ff" stroke="#63b8ff" points="471.03,-25.06 479.7,-18.97 469.12,-18.32 471.03,-25.06"/>
</a>
</g>
</g>
<!-- Node3 -->
<g id="Node000003" class="node">
<title>Node3</title>
<g id="a_Node000003"><a xlink:href="Ncurses_8hpp.html" target="_top" xlink:title=" ">
<polygon fill="white" stroke="#666666" points="649,-294 572,-294 572,-275 649,-275 649,-294"/>
<text text-anchor="middle" x="610.5" y="-282" font-family="Helvetica,sans-Serif" font-size="10.00">Ncurses.hpp</text>
</a>
</g>
</g>
<!-- Node1&#45;&gt;Node3 -->
<g id="edge2_Node000001_Node000003" class="edge">
<title>Node1&#45;&gt;Node3</title>
<g id="a_edge2_Node000001_Node000003"><a xlink:title=" ">
<path fill="none" stroke="#63b8ff" d="M610.5,-329.84C610.5,-322.21 610.5,-312.7 610.5,-304.45"/>
<polygon fill="#63b8ff" stroke="#63b8ff" points="614,-304.27 610.5,-294.27 607,-304.27 614,-304.27"/>
</a>
</g>
</g>
<!-- Node4 -->
<g id="Node000004" class="node">
<title>Node4</title>
<g id="a_Node000004"><a xlink:href="DisplayVariable_8hpp.html" target="_top" xlink:title=" ">
<polygon fill="white" stroke="#666666" points="790.5,-239 676.5,-239 676.5,-220 790.5,-220 790.5,-239"/>
<text text-anchor="middle" x="733.5" y="-227" font-family="Helvetica,sans-Serif" font-size="10.00">DisplayVariable.hpp</text>
</a>
</g>
</g>
<!-- Node1&#45;&gt;Node4 -->
<g id="edge26_Node000001_Node000004" class="edge">
<title>Node1&#45;&gt;Node4</title>
<g id="a_edge26_Node000001_Node000004"><a xlink:title=" ">
<path fill="none" stroke="#63b8ff" d="M625.83,-329.85C648.87,-308.59 692.29,-268.52 716.36,-246.32"/>
<polygon fill="#63b8ff" stroke="#63b8ff" points="719.02,-248.62 724,-239.27 714.27,-243.48 719.02,-248.62"/>
</a>
</g>
</g>
<!-- Node7 -->
<g id="Node000007" class="node">
<title>Node7</title>
<g id="a_Node000007"><a xlink:href="gfx_8hpp.html" target="_top" xlink:title=" ">
<polygon fill="white" stroke="#666666" points="473,-129 420,-129 420,-110 473,-110 473,-129"/>
<text text-anchor="middle" x="446.5" y="-117" font-family="Helvetica,sans-Serif" font-size="10.00">gfx.hpp</text>
</a>
</g>
</g>
<!-- Node1&#45;&gt;Node7 -->
<g id="edge28_Node000001_Node000007" class="edge">
<title>Node1&#45;&gt;Node7</title>
<g id="a_edge28_Node000001_Node000007"><a xlink:title=" ">
<path fill="none" stroke="#63b8ff" d="M580.29,-329.96C546.86,-312.94 493.62,-281.23 462.5,-239 440.82,-209.58 441.39,-164.59 443.86,-139.35"/>
<polygon fill="#63b8ff" stroke="#63b8ff" points="447.36,-139.61 445.06,-129.27 440.4,-138.79 447.36,-139.61"/>
</a>
</g>
</g>
<!-- Node9 -->
<g id="Node000009" class="node">
<title>Node9</title>
<g id="a_Node000009"><a xlink:href="Keys_8hpp.html" target="_top" xlink:title=" ">
<polygon fill="white" stroke="#666666" points="304,-74 243,-74 243,-55 304,-55 304,-74"/>
<text text-anchor="middle" x="273.5" y="-62" font-family="Helvetica,sans-Serif" font-size="10.00">Keys.hpp</text>
</a>
</g>
</g>
<!-- Node1&#45;&gt;Node9 -->
<g id="edge27_Node000001_Node000009" class="edge">
<title>Node1&#45;&gt;Node9</title>
<g id="a_edge27_Node000001_Node000009"><a xlink:title=" ">
<path fill="none" stroke="#63b8ff" d="M551.95,-340.03C477.71,-333.97 354.96,-320.27 318.5,-294 292.53,-275.28 284.5,-262.51 284.5,-230.5 284.5,-230.5 284.5,-230.5 284.5,-173.5 284.5,-142.03 279.82,-105.66 276.56,-84.18"/>
<polygon fill="#63b8ff" stroke="#63b8ff" points="280,-83.48 274.98,-74.15 273.08,-84.57 280,-83.48"/>
</a>
</g>
</g>
<!-- Node18 -->
<g id="Node000018" class="node">
<title>Node18</title>
<g id="a_Node000018"><a xlink:title=" ">
<polygon fill="#e0e0e0" stroke="#999999" points="829,-74 778,-74 778,-55 829,-55 829,-74"/>
<text text-anchor="middle" x="803.5" y="-62" font-family="Helvetica,sans-Serif" font-size="10.00">variant</text>
</a>
</g>
</g>
<!-- Node1&#45;&gt;Node18 -->
<g id="edge30_Node000001_Node000018" class="edge">
<title>Node1&#45;&gt;Node18</title>
<g id="a_edge30_Node000001_Node000018"><a xlink:title=" ">
<path fill="none" stroke="#63b8ff" d="M669.27,-337.15C730.78,-326.32 818.5,-298.89 818.5,-230.5 818.5,-230.5 818.5,-230.5 818.5,-173.5 818.5,-141.89 812.12,-105.56 807.68,-84.13"/>
<polygon fill="#63b8ff" stroke="#63b8ff" points="811.05,-83.16 805.52,-74.12 804.21,-84.64 811.05,-83.16"/>
</a>
</g>
</g>
<!-- Node21 -->
<g id="Node000021" class="node">
<title>Node21</title>
<g id="a_Node000021"><a xlink:title=" ">
<polygon fill="#e0e0e0" stroke="#999999" points="894,-294 847,-294 847,-275 894,-275 894,-294"/>
<text text-anchor="middle" x="870.5" y="-282" font-family="Helvetica,sans-Serif" font-size="10.00">cmath</text>
</a>
</g>
</g>
<!-- Node1&#45;&gt;Node21 -->
<g id="edge29_Node000001_Node000021" class="edge">
<title>Node1&#45;&gt;Node21</title>
<g id="a_edge29_Node000001_Node000021"><a xlink:title=" ">
<path fill="none" stroke="#63b8ff" d="M669.17,-330.8C720.92,-319.16 794.51,-302.6 836.9,-293.06"/>
<polygon fill="#63b8ff" stroke="#63b8ff" points="837.73,-296.46 846.71,-290.85 836.19,-289.63 837.73,-296.46"/>
</a>
</g>
</g>
<!-- Node3&#45;&gt;Node2 -->
<g id="edge3_Node000003_Node000002" class="edge">
<title>Node3&#45;&gt;Node2</title>
<g id="a_edge3_Node000003_Node000002"><a xlink:title=" ">
<path fill="none" stroke="#63b8ff" d="M615.78,-274.9C626.23,-257.07 648.5,-214.46 648.5,-175.5 648.5,-175.5 648.5,-175.5 648.5,-118.5 648.5,-68.28 591.02,-37.8 550.52,-22.57"/>
<polygon fill="#63b8ff" stroke="#63b8ff" points="551.48,-19.19 540.89,-19.1 549.12,-25.78 551.48,-19.19"/>
</a>
</g>
</g>
<!-- Node3&#45;&gt;Node4 -->
<g id="edge4_Node000003_Node000004" class="edge">
<title>Node3&#45;&gt;Node4</title>
<g id="a_edge4_Node000003_Node000004"><a xlink:title=" ">
<path fill="none" stroke="#63b8ff" d="M630.26,-274.98C650.23,-266.38 681.3,-252.99 704.15,-243.15"/>
<polygon fill="#63b8ff" stroke="#63b8ff" points="705.58,-246.34 713.38,-239.17 702.81,-239.91 705.58,-246.34"/>
</a>
</g>
</g>
<!-- Node6 -->
<g id="Node000006" class="node">
<title>Node6</title>
<g id="a_Node000006"><a xlink:href="IDisplay_8hpp.html" target="_top" xlink:title=" ">
<polygon fill="white" stroke="#666666" points="565.5,-239 489.5,-239 489.5,-220 565.5,-220 565.5,-239"/>
<text text-anchor="middle" x="527.5" y="-227" font-family="Helvetica,sans-Serif" font-size="10.00">IDisplay.hpp</text>
</a>
</g>
</g>
<!-- Node3&#45;&gt;Node6 -->
<g id="edge6_Node000003_Node000006" class="edge">
<title>Node3&#45;&gt;Node6</title>
<g id="a_edge6_Node000003_Node000006"><a xlink:title=" ">
<path fill="none" stroke="#63b8ff" d="M597.16,-274.98C584.41,-266.84 564.95,-254.41 549.83,-244.76"/>
<polygon fill="#63b8ff" stroke="#63b8ff" points="551.39,-241.6 541.08,-239.17 547.62,-247.5 551.39,-241.6"/>
</a>
</g>
</g>
<!-- Node3&#45;&gt;Node7 -->
<g id="edge24_Node000003_Node000007" class="edge">
<title>Node3&#45;&gt;Node7</title>
<g id="a_edge24_Node000003_Node000007"><a xlink:title=" ">
<path fill="none" stroke="#63b8ff" d="M571.93,-278.21C543.81,-272.63 506.26,-261.36 480.5,-239 451.64,-213.95 446.5,-166.19 446.03,-139.59"/>
<polygon fill="#63b8ff" stroke="#63b8ff" points="449.53,-139.32 446.07,-129.31 442.53,-139.3 449.53,-139.32"/>
</a>
</g>
</g>
<!-- Node19 -->
<g id="Node000019" class="node">
<title>Node19</title>
<g id="a_Node000019"><a xlink:title=" ">
<polygon fill="#e0e0e0" stroke="#999999" points="596,-129 549,-129 549,-110 596,-110 596,-129"/>
<text text-anchor="middle" x="572.5" y="-117" font-family="Helvetica,sans-Serif" font-size="10.00">queue</text>
</a>
</g>
</g>
<!-- Node3&#45;&gt;Node19 -->
<g id="edge25_Node000003_Node000019" class="edge">
<title>Node3&#45;&gt;Node19</title>
<g id="a_edge25_Node000003_Node000019"><a xlink:title=" ">
<path fill="none" stroke="#63b8ff" d="M608.46,-274.74C602.5,-249.2 585.07,-174.43 576.87,-139.23"/>
<polygon fill="#63b8ff" stroke="#63b8ff" points="580.23,-138.25 574.55,-129.31 573.42,-139.84 580.23,-138.25"/>
</a>
</g>
</g>
<!-- Node5 -->
<g id="Node000005" class="node">
<title>Node5</title>
<g id="a_Node000005"><a xlink:title=" ">
<polygon fill="#e0e0e0" stroke="#999999" points="761.5,-184 705.5,-184 705.5,-165 761.5,-165 761.5,-184"/>
<text text-anchor="middle" x="733.5" y="-172" font-family="Helvetica,sans-Serif" font-size="10.00">stddef.h</text>
</a>
</g>
</g>
<!-- Node4&#45;&gt;Node5 -->
<g id="edge5_Node000004_Node000005" class="edge">
<title>Node4&#45;&gt;Node5</title>
<g id="a_edge5_Node000004_Node000005"><a xlink:title=" ">
<path fill="none" stroke="#63b8ff" d="M733.5,-219.75C733.5,-212.8 733.5,-202.85 733.5,-194.13"/>
<polygon fill="#63b8ff" stroke="#63b8ff" points="737,-194.09 733.5,-184.09 730,-194.09 737,-194.09"/>
</a>
</g>
</g>
<!-- Node6&#45;&gt;Node7 -->
<g id="edge7_Node000006_Node000007" class="edge">
<title>Node6&#45;&gt;Node7</title>
<g id="a_edge7_Node000006_Node000007"><a xlink:title=" ">
<path fill="none" stroke="#63b8ff" d="M509.79,-219.95C495.83,-212.34 476.89,-199.97 465.5,-184 456,-170.68 451.19,-152.57 448.79,-139.09"/>
<polygon fill="#63b8ff" stroke="#63b8ff" points="452.24,-138.45 447.3,-129.08 445.31,-139.48 452.24,-138.45"/>
</a>
</g>
</g>
<!-- Node6&#45;&gt;Node19 -->
<g id="edge20_Node000006_Node000019" class="edge">
<title>Node6&#45;&gt;Node19</title>
<g id="a_edge20_Node000006_Node000019"><a xlink:title=" ">
<path fill="none" stroke="#63b8ff" d="M533.32,-219.96C539.07,-211.23 547.8,-197.13 553.5,-184 559.81,-169.47 564.83,-152.2 568.12,-139.34"/>
<polygon fill="#63b8ff" stroke="#63b8ff" points="571.59,-139.91 570.56,-129.36 564.79,-138.25 571.59,-139.91"/>
</a>
</g>
</g>
<!-- Node20 -->
<g id="Node000020" class="node">
<title>Node20</title>
<g id="a_Node000020"><a xlink:href="IGame_8hpp.html" target="_top" xlink:title=" ">
<polygon fill="white" stroke="#666666" points="544.5,-184 474.5,-184 474.5,-165 544.5,-165 544.5,-184"/>
<text text-anchor="middle" x="509.5" y="-172" font-family="Helvetica,sans-Serif" font-size="10.00">IGame.hpp</text>
</a>
</g>
</g>
<!-- Node6&#45;&gt;Node20 -->
<g id="edge21_Node000006_Node000020" class="edge">
<title>Node6&#45;&gt;Node20</title>
<g id="a_edge21_Node000006_Node000020"><a xlink:title=" ">
<path fill="none" stroke="#63b8ff" d="M524.53,-219.75C522.14,-212.72 518.71,-202.62 515.73,-193.84"/>
<polygon fill="#63b8ff" stroke="#63b8ff" points="518.95,-192.43 512.42,-184.09 512.32,-194.68 518.95,-192.43"/>
</a>
</g>
</g>
<!-- Node8 -->
<g id="Node000008" class="node">
<title>Node8</title>
<g id="a_Node000008"><a xlink:title=" ">
<polygon fill="#e0e0e0" stroke="#999999" points="517,-74 464,-74 464,-55 517,-55 517,-74"/>
<text text-anchor="middle" x="490.5" y="-62" font-family="Helvetica,sans-Serif" font-size="10.00">cstddef</text>
</a>
</g>
</g>
<!-- Node7&#45;&gt;Node8 -->
<g id="edge8_Node000007_Node000008" class="edge">
<title>Node7&#45;&gt;Node8</title>
<g id="a_edge8_Node000007_Node000008"><a xlink:title=" ">
<path fill="none" stroke="#63b8ff" d="M453.77,-109.75C460.04,-102.18 469.29,-91.05 476.93,-81.84"/>
<polygon fill="#63b8ff" stroke="#63b8ff" points="479.67,-84.02 483.37,-74.09 474.29,-79.55 479.67,-84.02"/>
</a>
</g>
</g>
<!-- Node7&#45;&gt;Node9 -->
<g id="edge9_Node000007_Node000009" class="edge">
<title>Node7&#45;&gt;Node9</title>
<g id="a_edge9_Node000007_Node000009"><a xlink:title=" ">
<path fill="none" stroke="#63b8ff" d="M419.85,-110.33C390.73,-101.41 343.86,-87.06 311.03,-77"/>
<polygon fill="#63b8ff" stroke="#63b8ff" points="311.92,-73.61 301.33,-74.03 309.87,-80.3 311.92,-73.61"/>
</a>
</g>
</g>
<!-- Node14 -->
<g id="Node000014" class="node">
<title>Node14</title>
<g id="a_Node000014"><a xlink:href="shape_8hpp.html" target="_top" xlink:title=" ">
<polygon fill="white" stroke="#666666" points="744,-74 677,-74 677,-55 744,-55 744,-74"/>
<text text-anchor="middle" x="710.5" y="-62" font-family="Helvetica,sans-Serif" font-size="10.00">shape.hpp</text>
</a>
</g>
</g>
<!-- Node7&#45;&gt;Node14 -->
<g id="edge15_Node000007_Node000014" class="edge">
<title>Node7&#45;&gt;Node14</title>
<g id="a_edge15_Node000007_Node000014"><a xlink:title=" ">
<path fill="none" stroke="#63b8ff" d="M473.27,-113.13C518.8,-103.98 611.75,-85.32 666.82,-74.27"/>
<polygon fill="#63b8ff" stroke="#63b8ff" points="667.52,-77.7 676.64,-72.3 666.15,-70.83 667.52,-77.7"/>
</a>
</g>
</g>
<!-- Node17 -->
<g id="Node000017" class="node">
<title>Node17</title>
<g id="a_Node000017"><a xlink:title=" ">
<polygon fill="#e0e0e0" stroke="#999999" points="445.5,-74 389.5,-74 389.5,-55 445.5,-55 445.5,-74"/>
<text text-anchor="middle" x="417.5" y="-62" font-family="Helvetica,sans-Serif" font-size="10.00">optional</text>
</a>
</g>
</g>
<!-- Node7&#45;&gt;Node17 -->
<g id="edge18_Node000007_Node000017" class="edge">
<title>Node7&#45;&gt;Node17</title>
<g id="a_edge18_Node000007_Node000017"><a xlink:title=" ">
<path fill="none" stroke="#63b8ff" d="M441.71,-109.75C437.74,-102.49 431.97,-91.95 427.07,-82.98"/>
<polygon fill="#63b8ff" stroke="#63b8ff" points="430.07,-81.18 422.2,-74.09 423.93,-84.54 430.07,-81.18"/>
</a>
</g>
</g>
<!-- Node7&#45;&gt;Node18 -->
<g id="edge19_Node000007_Node000018" class="edge">
<title>Node7&#45;&gt;Node18</title>
<g id="a_edge19_Node000007_Node000018"><a xlink:title=" ">
<path fill="none" stroke="#63b8ff" d="M473.23,-114.85C526.57,-107.52 650.03,-90.29 753.5,-74 758.08,-73.28 762.88,-72.5 767.63,-71.71"/>
<polygon fill="#63b8ff" stroke="#63b8ff" points="768.55,-75.1 777.83,-69.99 767.38,-68.2 768.55,-75.1"/>
</a>
</g>
</g>
<!-- Node9&#45;&gt;Node2 -->
<g id="edge14_Node000009_Node000002" class="edge">
<title>Node9&#45;&gt;Node2</title>
<g id="a_edge14_Node000009_Node000002"><a xlink:title=" ">
<path fill="none" stroke="#63b8ff" d="M304.13,-56.68C346.35,-47.28 422.58,-30.3 469.92,-19.76"/>
<polygon fill="#63b8ff" stroke="#63b8ff" points="470.85,-23.14 479.85,-17.55 469.33,-16.3 470.85,-23.14"/>
</a>
</g>
</g>
<!-- Node10 -->
<g id="Node000010" class="node">
<title>Node10</title>
<g id="a_Node000010"><a xlink:title=" ">
<polygon fill="#e0e0e0" stroke="#999999" points="462,-19 369,-19 369,0 462,0 462,-19"/>
<text text-anchor="middle" x="415.5" y="-7" font-family="Helvetica,sans-Serif" font-size="10.00">unordered_map</text>
</a>
</g>
</g>
<!-- Node9&#45;&gt;Node10 -->
<g id="edge10_Node000009_Node000010" class="edge">
<title>Node9&#45;&gt;Node10</title>
<g id="a_edge10_Node000009_Node000010"><a xlink:title=" ">
<path fill="none" stroke="#63b8ff" d="M296.31,-54.98C319.67,-46.27 356.2,-32.63 382.67,-22.75"/>
<polygon fill="#63b8ff" stroke="#63b8ff" points="384.13,-25.95 392.27,-19.17 381.68,-19.39 384.13,-25.95"/>
</a>
</g>
</g>
<!-- Node11 -->
<g id="Node000011" class="node">
<title>Node11</title>
<g id="a_Node000011"><a xlink:title=" ">
<polygon fill="#e0e0e0" stroke="#999999" points="41,-19 0,-19 0,0 41,0 41,-19"/>
<text text-anchor="middle" x="20.5" y="-7" font-family="Helvetica,sans-Serif" font-size="10.00">tuple</text>
</a>
</g>
</g>
<!-- Node9&#45;&gt;Node11 -->
<g id="edge11_Node000009_Node000011" class="edge">
<title>Node9&#45;&gt;Node11</title>
<g id="a_edge11_Node000009_Node000011"><a xlink:title=" ">
<path fill="none" stroke="#63b8ff" d="M242.67,-58.15C201.34,-50.79 125.5,-36.7 51.11,-18.98"/>
<polygon fill="#63b8ff" stroke="#63b8ff" points="51.64,-15.51 41.1,-16.57 50,-22.31 51.64,-15.51"/>
</a>
</g>
</g>
<!-- Node12 -->
<g id="Node000012" class="node">
<title>Node12</title>
<g id="a_Node000012"><a xlink:title=" ">
<polygon fill="#e0e0e0" stroke="#999999" points="177.5,-19 59.5,-19 59.5,0 177.5,0 177.5,-19"/>
<text text-anchor="middle" x="118.5" y="-7" font-family="Helvetica,sans-Serif" font-size="10.00">SDL2/SDL_keycode.h</text>
</a>
</g>
</g>
<!-- Node9&#45;&gt;Node12 -->
<g id="edge12_Node000009_Node000012" class="edge">
<title>Node9&#45;&gt;Node12</title>
<g id="a_edge12_Node000009_Node000012"><a xlink:title=" ">
<path fill="none" stroke="#63b8ff" d="M248.6,-54.98C222.8,-46.16 182.28,-32.31 153.32,-22.41"/>
<polygon fill="#63b8ff" stroke="#63b8ff" points="154.19,-19.01 143.6,-19.08 151.93,-25.63 154.19,-19.01"/>
</a>
</g>
</g>
<!-- Node13 -->
<g id="Node000013" class="node">
<title>Node13</title>
<g id="a_Node000013"><a xlink:title=" ">
<polygon fill="#e0e0e0" stroke="#999999" points="351,-19 196,-19 196,0 351,0 351,-19"/>
<text text-anchor="middle" x="273.5" y="-7" font-family="Helvetica,sans-Serif" font-size="10.00">SFML/Window/Keyboard.hpp</text>
</a>
</g>
</g>
<!-- Node9&#45;&gt;Node13 -->
<g id="edge13_Node000009_Node000013" class="edge">
<title>Node9&#45;&gt;Node13</title>
<g id="a_edge13_Node000009_Node000013"><a xlink:title=" ">
<path fill="none" stroke="#63b8ff" d="M273.5,-54.75C273.5,-47.8 273.5,-37.85 273.5,-29.13"/>
<polygon fill="#63b8ff" stroke="#63b8ff" points="277,-29.09 273.5,-19.09 270,-29.09 277,-29.09"/>
</a>
</g>
</g>
<!-- Node15 -->
<g id="Node000015" class="node">
<title>Node15</title>
<g id="a_Node000015"><a xlink:title=" ">
<polygon fill="#e0e0e0" stroke="#999999" points="780,-19 715,-19 715,0 780,0 780,-19"/>
<text text-anchor="middle" x="747.5" y="-7" font-family="Helvetica,sans-Serif" font-size="10.00">functional</text>
</a>
</g>
</g>
<!-- Node14&#45;&gt;Node15 -->
<g id="edge16_Node000014_Node000015" class="edge">
<title>Node14&#45;&gt;Node15</title>
<g id="a_edge16_Node000014_Node000015"><a xlink:title=" ">
<path fill="none" stroke="#63b8ff" d="M716.61,-54.75C721.78,-47.34 729.35,-36.5 735.69,-27.41"/>
<polygon fill="#63b8ff" stroke="#63b8ff" points="738.65,-29.29 741.5,-19.09 732.91,-25.29 738.65,-29.29"/>
</a>
</g>
</g>
<!-- Node16 -->
<g id="Node000016" class="node">
<title>Node16</title>
<g id="a_Node000016"><a xlink:title=" ">
<polygon fill="#e0e0e0" stroke="#999999" points="696.5,-19 652.5,-19 652.5,0 696.5,0 696.5,-19"/>
<text text-anchor="middle" x="674.5" y="-7" font-family="Helvetica,sans-Serif" font-size="10.00">string</text>
</a>
</g>
</g>
<!-- Node14&#45;&gt;Node16 -->
<g id="edge17_Node000014_Node000016" class="edge">
<title>Node14&#45;&gt;Node16</title>
<g id="a_edge17_Node000014_Node000016"><a xlink:title=" ">
<path fill="none" stroke="#63b8ff" d="M704.56,-54.75C699.52,-47.34 692.16,-36.5 685.99,-27.41"/>
<polygon fill="#63b8ff" stroke="#63b8ff" points="688.85,-25.39 680.33,-19.09 683.06,-29.33 688.85,-25.39"/>
</a>
</g>
</g>
<!-- Node20&#45;&gt;Node7 -->
<g id="edge22_Node000020_Node000007" class="edge">
<title>Node20&#45;&gt;Node7</title>
<g id="a_edge22_Node000020_Node000007"><a xlink:title=" ">
<path fill="none" stroke="#63b8ff" d="M499.38,-164.98C490.06,-157.15 476.03,-145.34 464.76,-135.86"/>
<polygon fill="#63b8ff" stroke="#63b8ff" points="466.71,-132.93 456.81,-129.17 462.21,-138.29 466.71,-132.93"/>
</a>
</g>
</g>
<!-- Node20&#45;&gt;Node19 -->
<g id="edge23_Node000020_Node000019" class="edge">
<title>Node20&#45;&gt;Node19</title>
<g id="a_edge23_Node000020_Node000019"><a xlink:title=" ">
<path fill="none" stroke="#63b8ff" d="M519.62,-164.98C528.94,-157.15 542.97,-145.34 554.24,-135.86"/>
<polygon fill="#63b8ff" stroke="#63b8ff" points="556.79,-138.29 562.19,-129.17 552.29,-132.93 556.79,-138.29"/>
</a>
</g>
</g>
</g>
</svg>
