<?xml version="1.0" encoding="UTF-8" standalone="no"?>
<!DOCTYPE svg PUBLIC "-//W3C//DTD SVG 1.1//EN"
 "http://www.w3.org/Graphics/SVG/1.1/DTD/svg11.dtd">
<!-- Generated by graphviz version 2.43.0 (0)
 -->
<!-- Title: graphics/Ncurses/include/Ncurses.hpp Pages: 1 -->
<svg width="781pt" height="313pt"
 viewBox="0.00 0.00 781.00 313.00" xmlns="http://www.w3.org/2000/svg" xmlns:xlink="http://www.w3.org/1999/xlink">
<g id="graph0" class="graph" transform="scale(1 1) rotate(0) translate(4 309)">
<title>graphics/Ncurses/include/Ncurses.hpp</title>
<!-- Node1 -->
<g id="Node000001" class="node">
<title>Node1</title>
<g id="a_Node000001"><a xlink:title=" ">
<polygon fill="#999999" stroke="#666666" points="450.5,-305 312.5,-305 312.5,-275 450.5,-275 450.5,-305"/>
<text text-anchor="start" x="320.5" y="-293" font-family="Helvetica,sans-Serif" font-size="10.00">graphics/Ncurses/include</text>
<text text-anchor="middle" x="381.5" y="-282" font-family="Helvetica,sans-Serif" font-size="10.00">/Ncurses.hpp</text>
</a>
</g>
</g>
<!-- Node2 -->
<g id="Node000002" class="node">
<title>Node2</title>
<g id="a_Node000002"><a xlink:title=" ">
<polygon fill="#e0e0e0" stroke="#999999" points="63,-19 0,-19 0,0 63,0 63,-19"/>
<text text-anchor="middle" x="31.5" y="-7" font-family="Helvetica,sans-Serif" font-size="10.00">ncurses.h</text>
</a>
</g>
</g>
<!-- Node1&#45;&gt;Node2 -->
<g id="edge1_Node000001_Node000002" class="edge">
<title>Node1&#45;&gt;Node2</title>
<g id="a_edge1_Node000001_Node000002"><a xlink:title=" ">
<path fill="none" stroke="#63b8ff" d="M312.37,-278.94C284.15,-271.81 252.95,-259.67 230.5,-239 207.94,-218.22 203.5,-206.17 203.5,-175.5 203.5,-175.5 203.5,-175.5 203.5,-118.5 203.5,-85.69 112.61,-43.51 62.97,-22.92"/>
<polygon fill="#63b8ff" stroke="#63b8ff" points="64.21,-19.65 53.63,-19.1 61.56,-26.13 64.21,-19.65"/>
</a>
</g>
</g>
<!-- Node3 -->
<g id="Node000003" class="node">
<title>Node3</title>
<g id="a_Node000003"><a xlink:href="DisplayVariable_8hpp.html" target="_top" xlink:title=" ">
<polygon fill="white" stroke="#666666" points="353.5,-239 239.5,-239 239.5,-220 353.5,-220 353.5,-239"/>
<text text-anchor="middle" x="296.5" y="-227" font-family="Helvetica,sans-Serif" font-size="10.00">DisplayVariable.hpp</text>
</a>
</g>
</g>
<!-- Node1&#45;&gt;Node3 -->
<g id="edge2_Node000001_Node000003" class="edge">
<title>Node1&#45;&gt;Node3</title>
<g id="a_edge2_Node000001_Node000003"><a xlink:title=" ">
<path fill="none" stroke="#63b8ff" d="M360.92,-274.84C347.83,-265.83 330.91,-254.18 317.7,-245.09"/>
<polygon fill="#63b8ff" stroke="#63b8ff" points="319.46,-242.05 309.24,-239.27 315.49,-247.82 319.46,-242.05"/>
</a>
</g>
</g>
<!-- Node5 -->
<g id="Node000005" class="node">
<title>Node5</title>
<g id="a_Node000005"><a xlink:href="IDisplay_8hpp.html" target="_top" xlink:title=" ">
<polygon fill="white" stroke="#666666" points="503.5,-239 427.5,-239 427.5,-220 503.5,-220 503.5,-239"/>
<text text-anchor="middle" x="465.5" y="-227" font-family="Helvetica,sans-Serif" font-size="10.00">IDisplay.hpp</text>
</a>
</g>
</g>
<!-- Node1&#45;&gt;Node5 -->
<g id="edge4_Node000001_Node000005" class="edge">
<title>Node1&#45;&gt;Node5</title>
<g id="a_edge4_Node000001_Node000005"><a xlink:title=" ">
<path fill="none" stroke="#63b8ff" d="M401.83,-274.84C414.77,-265.83 431.49,-254.18 444.55,-245.09"/>
<polygon fill="#63b8ff" stroke="#63b8ff" points="446.71,-247.85 452.91,-239.27 442.71,-242.11 446.71,-247.85"/>
</a>
</g>
</g>
<!-- Node6 -->
<g id="Node000006" class="node">
<title>Node6</title>
<g id="a_Node000006"><a xlink:href="gfx_8hpp.html" target="_top" xlink:title=" ">
<polygon fill="white" stroke="#666666" points="591,-129 538,-129 538,-110 591,-110 591,-129"/>
<text text-anchor="middle" x="564.5" y="-117" font-family="Helvetica,sans-Serif" font-size="10.00">gfx.hpp</text>
</a>
</g>
</g>
<!-- Node1&#45;&gt;Node6 -->
<g id="edge22_Node000001_Node000006" class="edge">
<title>Node1&#45;&gt;Node6</title>
<g id="a_edge22_Node000001_Node000006"><a xlink:title=" ">
<path fill="none" stroke="#63b8ff" d="M441.91,-274.99C465.76,-267.27 492.24,-255.75 512.5,-239 543.42,-213.44 556.51,-165.88 561.59,-139.45"/>
<polygon fill="#63b8ff" stroke="#63b8ff" points="565.1,-139.69 563.36,-129.24 558.2,-138.5 565.1,-139.69"/>
</a>
</g>
</g>
<!-- Node18 -->
<g id="Node000018" class="node">
<title>Node18</title>
<g id="a_Node000018"><a xlink:title=" ">
<polygon fill="#e0e0e0" stroke="#999999" points="443,-129 396,-129 396,-110 443,-110 443,-129"/>
<text text-anchor="middle" x="419.5" y="-117" font-family="Helvetica,sans-Serif" font-size="10.00">queue</text>
</a>
</g>
</g>
<!-- Node1&#45;&gt;Node18 -->
<g id="edge23_Node000001_Node000018" class="edge">
<title>Node1&#45;&gt;Node18</title>
<g id="a_edge23_Node000001_Node000018"><a xlink:title=" ">
<path fill="none" stroke="#63b8ff" d="M384.67,-274.92C391.5,-244.65 407.58,-173.35 415.27,-139.27"/>
<polygon fill="#63b8ff" stroke="#63b8ff" points="418.74,-139.78 417.53,-129.25 411.91,-138.24 418.74,-139.78"/>
</a>
</g>
</g>
<!-- Node4 -->
<g id="Node000004" class="node">
<title>Node4</title>
<g id="a_Node000004"><a xlink:title=" ">
<polygon fill="#e0e0e0" stroke="#999999" points="324.5,-184 268.5,-184 268.5,-165 324.5,-165 324.5,-184"/>
<text text-anchor="middle" x="296.5" y="-172" font-family="Helvetica,sans-Serif" font-size="10.00">stddef.h</text>
</a>
</g>
</g>
<!-- Node3&#45;&gt;Node4 -->
<g id="edge3_Node000003_Node000004" class="edge">
<title>Node3&#45;&gt;Node4</title>
<g id="a_edge3_Node000003_Node000004"><a xlink:title=" ">
<path fill="none" stroke="#63b8ff" d="M296.5,-219.75C296.5,-212.8 296.5,-202.85 296.5,-194.13"/>
<polygon fill="#63b8ff" stroke="#63b8ff" points="300,-194.09 296.5,-184.09 293,-194.09 300,-194.09"/>
</a>
</g>
</g>
<!-- Node5&#45;&gt;Node6 -->
<g id="edge5_Node000005_Node000006" class="edge">
<title>Node5&#45;&gt;Node6</title>
<g id="a_edge5_Node000005_Node000006"><a xlink:title=" ">
<path fill="none" stroke="#63b8ff" d="M480.61,-219.88C493.83,-211.81 512.98,-198.81 526.5,-184 539.06,-170.24 549.59,-151.69 556.35,-138.19"/>
<polygon fill="#63b8ff" stroke="#63b8ff" points="559.58,-139.55 560.76,-129.02 553.27,-136.52 559.58,-139.55"/>
</a>
</g>
</g>
<!-- Node5&#45;&gt;Node18 -->
<g id="edge18_Node000005_Node000018" class="edge">
<title>Node5&#45;&gt;Node18</title>
<g id="a_edge18_Node000005_Node000018"><a xlink:title=" ">
<path fill="none" stroke="#63b8ff" d="M459.43,-219.99C453.45,-211.29 444.37,-197.21 438.5,-184 432.07,-169.52 427.06,-152.25 423.8,-139.38"/>
<polygon fill="#63b8ff" stroke="#63b8ff" points="427.14,-138.29 421.4,-129.38 420.33,-139.92 427.14,-138.29"/>
</a>
</g>
</g>
<!-- Node19 -->
<g id="Node000019" class="node">
<title>Node19</title>
<g id="a_Node000019"><a xlink:href="IGame_8hpp.html" target="_top" xlink:title=" ">
<polygon fill="white" stroke="#666666" points="517.5,-184 447.5,-184 447.5,-165 517.5,-165 517.5,-184"/>
<text text-anchor="middle" x="482.5" y="-172" font-family="Helvetica,sans-Serif" font-size="10.00">IGame.hpp</text>
</a>
</g>
</g>
<!-- Node5&#45;&gt;Node19 -->
<g id="edge19_Node000005_Node000019" class="edge">
<title>Node5&#45;&gt;Node19</title>
<g id="a_edge19_Node000005_Node000019"><a xlink:title=" ">
<path fill="none" stroke="#63b8ff" d="M468.31,-219.75C470.56,-212.72 473.8,-202.62 476.62,-193.84"/>
<polygon fill="#63b8ff" stroke="#63b8ff" points="480.02,-194.68 479.75,-184.09 473.36,-192.54 480.02,-194.68"/>
</a>
</g>
</g>
<!-- Node7 -->
<g id="Node000007" class="node">
<title>Node7</title>
<g id="a_Node000007"><a xlink:title=" ">
<polygon fill="#e0e0e0" stroke="#999999" points="773,-74 720,-74 720,-55 773,-55 773,-74"/>
<text text-anchor="middle" x="746.5" y="-62" font-family="Helvetica,sans-Serif" font-size="10.00">cstddef</text>
</a>
</g>
</g>
<!-- Node6&#45;&gt;Node7 -->
<g id="edge6_Node000006_Node000007" class="edge">
<title>Node6&#45;&gt;Node7</title>
<g id="a_edge6_Node000006_Node000007"><a xlink:title=" ">
<path fill="none" stroke="#63b8ff" d="M591.35,-110.68C622.76,-101.53 674.91,-86.35 709.98,-76.13"/>
<polygon fill="#63b8ff" stroke="#63b8ff" points="711.21,-79.42 719.83,-73.27 709.25,-72.7 711.21,-79.42"/>
</a>
</g>
</g>
<!-- Node8 -->
<g id="Node000008" class="node">
<title>Node8</title>
<g id="a_Node000008"><a xlink:href="Keys_8hpp.html" target="_top" xlink:title=" ">
<polygon fill="white" stroke="#666666" points="373,-74 312,-74 312,-55 373,-55 373,-74"/>
<text text-anchor="middle" x="342.5" y="-62" font-family="Helvetica,sans-Serif" font-size="10.00">Keys.hpp</text>
</a>
</g>
</g>
<!-- Node6&#45;&gt;Node8 -->
<g id="edge7_Node000006_Node000008" class="edge">
<title>Node6&#45;&gt;Node8</title>
<g id="a_edge7_Node000006_Node000008"><a xlink:title=" ">
<path fill="none" stroke="#63b8ff" d="M537.72,-112.11C499.31,-102.94 428.27,-85.98 383.3,-75.24"/>
<polygon fill="#63b8ff" stroke="#63b8ff" points="383.83,-71.77 373.29,-72.85 382.2,-78.58 383.83,-71.77"/>
</a>
</g>
</g>
<!-- Node13 -->
<g id="Node000013" class="node">
<title>Node13</title>
<g id="a_Node000013"><a xlink:href="shape_8hpp.html" target="_top" xlink:title=" ">
<polygon fill="white" stroke="#666666" points="558,-74 491,-74 491,-55 558,-55 558,-74"/>
<text text-anchor="middle" x="524.5" y="-62" font-family="Helvetica,sans-Serif" font-size="10.00">shape.hpp</text>
</a>
</g>
</g>
<!-- Node6&#45;&gt;Node13 -->
<g id="edge13_Node000006_Node000013" class="edge">
<title>Node6&#45;&gt;Node13</title>
<g id="a_edge13_Node000006_Node000013"><a xlink:title=" ">
<path fill="none" stroke="#63b8ff" d="M557.89,-109.75C552.24,-102.26 543.96,-91.28 537.05,-82.13"/>
<polygon fill="#63b8ff" stroke="#63b8ff" points="539.8,-79.96 530.98,-74.09 534.21,-84.18 539.8,-79.96"/>
</a>
</g>
</g>
<!-- Node16 -->
<g id="Node000016" class="node">
<title>Node16</title>
<g id="a_Node000016"><a xlink:title=" ">
<polygon fill="#e0e0e0" stroke="#999999" points="632.5,-74 576.5,-74 576.5,-55 632.5,-55 632.5,-74"/>
<text text-anchor="middle" x="604.5" y="-62" font-family="Helvetica,sans-Serif" font-size="10.00">optional</text>
</a>
</g>
</g>
<!-- Node6&#45;&gt;Node16 -->
<g id="edge16_Node000006_Node000016" class="edge">
<title>Node6&#45;&gt;Node16</title>
<g id="a_edge16_Node000006_Node000016"><a xlink:title=" ">
<path fill="none" stroke="#63b8ff" d="M571.11,-109.75C576.76,-102.26 585.04,-91.28 591.95,-82.13"/>
<polygon fill="#63b8ff" stroke="#63b8ff" points="594.79,-84.18 598.02,-74.09 589.2,-79.96 594.79,-84.18"/>
</a>
</g>
</g>
<!-- Node17 -->
<g id="Node000017" class="node">
<title>Node17</title>
<g id="a_Node000017"><a xlink:title=" ">
<polygon fill="#e0e0e0" stroke="#999999" points="702,-74 651,-74 651,-55 702,-55 702,-74"/>
<text text-anchor="middle" x="676.5" y="-62" font-family="Helvetica,sans-Serif" font-size="10.00">variant</text>
</a>
</g>
</g>
<!-- Node6&#45;&gt;Node17 -->
<g id="edge17_Node000006_Node000017" class="edge">
<title>Node6&#45;&gt;Node17</title>
<g id="a_edge17_Node000006_Node000017"><a xlink:title=" ">
<path fill="none" stroke="#63b8ff" d="M582.49,-109.98C600.43,-101.5 628.22,-88.35 648.93,-78.54"/>
<polygon fill="#63b8ff" stroke="#63b8ff" points="650.64,-81.61 658.18,-74.17 647.64,-75.28 650.64,-81.61"/>
</a>
</g>
</g>
<!-- Node8&#45;&gt;Node2 -->
<g id="edge12_Node000008_Node000002" class="edge">
<title>Node8&#45;&gt;Node2</title>
<g id="a_edge12_Node000008_Node000002"><a xlink:title=" ">
<path fill="none" stroke="#63b8ff" d="M311.94,-58.96C263.43,-51.64 165.61,-36.48 73.4,-19.29"/>
<polygon fill="#63b8ff" stroke="#63b8ff" points="73.82,-15.81 63.35,-17.41 72.53,-22.69 73.82,-15.81"/>
</a>
</g>
</g>
<!-- Node9 -->
<g id="Node000009" class="node">
<title>Node9</title>
<g id="a_Node000009"><a xlink:title=" ">
<polygon fill="#e0e0e0" stroke="#999999" points="347,-19 254,-19 254,0 347,0 347,-19"/>
<text text-anchor="middle" x="300.5" y="-7" font-family="Helvetica,sans-Serif" font-size="10.00">unordered_map</text>
</a>
</g>
</g>
<!-- Node8&#45;&gt;Node9 -->
<g id="edge8_Node000008_Node000009" class="edge">
<title>Node8&#45;&gt;Node9</title>
<g id="a_edge8_Node000008_Node000009"><a xlink:title=" ">
<path fill="none" stroke="#63b8ff" d="M335.56,-54.75C329.63,-47.26 320.93,-36.28 313.68,-27.13"/>
<polygon fill="#63b8ff" stroke="#63b8ff" points="316.26,-24.75 307.31,-19.09 310.77,-29.1 316.26,-24.75"/>
</a>
</g>
</g>
<!-- Node10 -->
<g id="Node000010" class="node">
<title>Node10</title>
<g id="a_Node000010"><a xlink:title=" ">
<polygon fill="#e0e0e0" stroke="#999999" points="406,-19 365,-19 365,0 406,0 406,-19"/>
<text text-anchor="middle" x="385.5" y="-7" font-family="Helvetica,sans-Serif" font-size="10.00">tuple</text>
</a>
</g>
</g>
<!-- Node8&#45;&gt;Node10 -->
<g id="edge9_Node000008_Node000010" class="edge">
<title>Node8&#45;&gt;Node10</title>
<g id="a_edge9_Node000008_Node000010"><a xlink:title=" ">
<path fill="none" stroke="#63b8ff" d="M349.6,-54.75C355.67,-47.26 364.59,-36.28 372.01,-27.13"/>
<polygon fill="#63b8ff" stroke="#63b8ff" points="374.95,-29.06 378.53,-19.09 369.51,-24.65 374.95,-29.06"/>
</a>
</g>
</g>
<!-- Node11 -->
<g id="Node000011" class="node">
<title>Node11</title>
<g id="a_Node000011"><a xlink:title=" ">
<polygon fill="#e0e0e0" stroke="#999999" points="542.5,-19 424.5,-19 424.5,0 542.5,0 542.5,-19"/>
<text text-anchor="middle" x="483.5" y="-7" font-family="Helvetica,sans-Serif" font-size="10.00">SDL2/SDL_keycode.h</text>
</a>
</g>
</g>
<!-- Node8&#45;&gt;Node11 -->
<g id="edge10_Node000008_Node000011" class="edge">
<title>Node8&#45;&gt;Node11</title>
<g id="a_edge10_Node000008_Node000011"><a xlink:title=" ">
<path fill="none" stroke="#63b8ff" d="M365.15,-54.98C388.35,-46.27 424.62,-32.63 450.9,-22.75"/>
<polygon fill="#63b8ff" stroke="#63b8ff" points="452.3,-25.97 460.43,-19.17 449.84,-19.41 452.3,-25.97"/>
</a>
</g>
</g>
<!-- Node12 -->
<g id="Node000012" class="node">
<title>Node12</title>
<g id="a_Node000012"><a xlink:title=" ">
<polygon fill="#e0e0e0" stroke="#999999" points="236,-19 81,-19 81,0 236,0 236,-19"/>
<text text-anchor="middle" x="158.5" y="-7" font-family="Helvetica,sans-Serif" font-size="10.00">SFML/Window/Keyboard.hpp</text>
</a>
</g>
</g>
<!-- Node8&#45;&gt;Node12 -->
<g id="edge11_Node000008_Node000012" class="edge">
<title>Node8&#45;&gt;Node12</title>
<g id="a_edge11_Node000008_Node000012"><a xlink:title=" ">
<path fill="none" stroke="#63b8ff" d="M312.94,-54.98C281.78,-46.01 232.53,-31.82 198.04,-21.89"/>
<polygon fill="#63b8ff" stroke="#63b8ff" points="198.87,-18.49 188.29,-19.08 196.93,-25.21 198.87,-18.49"/>
</a>
</g>
</g>
<!-- Node14 -->
<g id="Node000014" class="node">
<title>Node14</title>
<g id="a_Node000014"><a xlink:title=" ">
<polygon fill="#e0e0e0" stroke="#999999" points="688,-19 623,-19 623,0 688,0 688,-19"/>
<text text-anchor="middle" x="655.5" y="-7" font-family="Helvetica,sans-Serif" font-size="10.00">functional</text>
</a>
</g>
</g>
<!-- Node13&#45;&gt;Node14 -->
<g id="edge14_Node000013_Node000014" class="edge">
<title>Node13&#45;&gt;Node14</title>
<g id="a_edge14_Node000013_Node000014"><a xlink:title=" ">
<path fill="none" stroke="#63b8ff" d="M545.55,-54.98C566.91,-46.34 600.2,-32.87 624.56,-23.02"/>
<polygon fill="#63b8ff" stroke="#63b8ff" points="626.11,-26.17 634.07,-19.17 623.49,-19.68 626.11,-26.17"/>
</a>
</g>
</g>
<!-- Node15 -->
<g id="Node000015" class="node">
<title>Node15</title>
<g id="a_Node000015"><a xlink:title=" ">
<polygon fill="#e0e0e0" stroke="#999999" points="604.5,-19 560.5,-19 560.5,0 604.5,0 604.5,-19"/>
<text text-anchor="middle" x="582.5" y="-7" font-family="Helvetica,sans-Serif" font-size="10.00">string</text>
</a>
</g>
</g>
<!-- Node13&#45;&gt;Node15 -->
<g id="edge15_Node000013_Node000015" class="edge">
<title>Node13&#45;&gt;Node15</title>
<g id="a_edge15_Node000013_Node000015"><a xlink:title=" ">
<path fill="none" stroke="#63b8ff" d="M533.82,-54.98C542.31,-47.23 555.06,-35.58 565.38,-26.14"/>
<polygon fill="#63b8ff" stroke="#63b8ff" points="567.99,-28.5 573.01,-19.17 563.27,-23.33 567.99,-28.5"/>
</a>
</g>
</g>
<!-- Node19&#45;&gt;Node6 -->
<g id="edge20_Node000019_Node000006" class="edge">
<title>Node19&#45;&gt;Node6</title>
<g id="a_edge20_Node000019_Node000006"><a xlink:title=" ">
<path fill="none" stroke="#63b8ff" d="M495.67,-164.98C508.27,-156.84 527.5,-144.41 542.44,-134.76"/>
<polygon fill="#63b8ff" stroke="#63b8ff" points="544.59,-137.54 551.09,-129.17 540.79,-131.66 544.59,-137.54"/>
</a>
</g>
</g>
<!-- Node19&#45;&gt;Node18 -->
<g id="edge21_Node000019_Node000018" class="edge">
<title>Node19&#45;&gt;Node18</title>
<g id="a_edge21_Node000019_Node000018"><a xlink:title=" ">
<path fill="none" stroke="#63b8ff" d="M472.38,-164.98C463.06,-157.15 449.03,-145.34 437.76,-135.86"/>
<polygon fill="#63b8ff" stroke="#63b8ff" points="439.71,-132.93 429.81,-129.17 435.21,-138.29 439.71,-132.93"/>
</a>
</g>
</g>
</g>
</svg>
