<?xml version="1.0" encoding="UTF-8" standalone="no"?>
<!DOCTYPE svg PUBLIC "-//W3C//DTD SVG 1.1//EN"
 "http://www.w3.org/Graphics/SVG/1.1/DTD/svg11.dtd">
<!-- Generated by graphviz version 2.43.0 (0)
 -->
<!-- Title: graphics/SDL2/src/SDL2.cpp Pages: 1 -->
<svg width="1811pt" height="357pt"
 viewBox="0.00 0.00 1810.50 357.00" xmlns="http://www.w3.org/2000/svg" xmlns:xlink="http://www.w3.org/1999/xlink">
<g id="graph0" class="graph" transform="scale(1 1) rotate(0) translate(4 353)">
<title>graphics/SDL2/src/SDL2.cpp</title>
<!-- Node1 -->
<g id="Node000001" class="node">
<title>Node1</title>
<g id="a_Node000001"><a xlink:title=" ">
<polygon fill="#999999" stroke="#666666" points="995,-349 844,-349 844,-330 995,-330 995,-349"/>
<text text-anchor="middle" x="919.5" y="-337" font-family="Helvetica,sans-Serif" font-size="10.00">graphics/SDL2/src/SDL2.cpp</text>
</a>
</g>
</g>
<!-- Node2 -->
<g id="Node000002" class="node">
<title>Node2</title>
<g id="a_Node000002"><a xlink:href="SDL2_8hpp.html" target="_top" xlink:title=" ">
<polygon fill="white" stroke="#666666" points="445.5,-294 383.5,-294 383.5,-275 445.5,-275 445.5,-294"/>
<text text-anchor="middle" x="414.5" y="-282" font-family="Helvetica,sans-Serif" font-size="10.00">SDL2.hpp</text>
</a>
</g>
</g>
<!-- Node1&#45;&gt;Node2 -->
<g id="edge1_Node000001_Node000002" class="edge">
<title>Node1&#45;&gt;Node2</title>
<g id="a_edge1_Node000001_Node000002"><a xlink:title=" ">
<path fill="none" stroke="#63b8ff" d="M843.9,-330.57C735.73,-319.21 540.54,-298.73 455.71,-289.83"/>
<polygon fill="#63b8ff" stroke="#63b8ff" points="456,-286.34 445.69,-288.77 455.27,-293.3 456,-286.34"/>
</a>
</g>
</g>
<!-- Node3 -->
<g id="Node000003" class="node">
<title>Node3</title>
<g id="a_Node000003"><a xlink:href="IDisplay_8hpp.html" target="_top" xlink:title=" ">
<polygon fill="white" stroke="#666666" points="109.5,-239 33.5,-239 33.5,-220 109.5,-220 109.5,-239"/>
<text text-anchor="middle" x="71.5" y="-227" font-family="Helvetica,sans-Serif" font-size="10.00">IDisplay.hpp</text>
</a>
</g>
</g>
<!-- Node1&#45;&gt;Node3 -->
<g id="edge29_Node000001_Node000003" class="edge">
<title>Node1&#45;&gt;Node3</title>
<g id="a_edge29_Node000001_Node000003"><a xlink:title=" ">
<path fill="none" stroke="#63b8ff" d="M843.79,-335.31C738.22,-330.19 541.03,-318.15 374.5,-294 281.42,-280.5 174.01,-255.79 115.36,-241.5"/>
<polygon fill="#63b8ff" stroke="#63b8ff" points="115.88,-238.02 105.33,-239.04 114.21,-244.82 115.88,-238.02"/>
</a>
</g>
</g>
<!-- Node4 -->
<g id="Node000004" class="node">
<title>Node4</title>
<g id="a_Node000004"><a xlink:href="gfx_8hpp.html" target="_top" xlink:title=" ">
<polygon fill="white" stroke="#666666" points="638,-129 585,-129 585,-110 638,-110 638,-129"/>
<text text-anchor="middle" x="611.5" y="-117" font-family="Helvetica,sans-Serif" font-size="10.00">gfx.hpp</text>
</a>
</g>
</g>
<!-- Node1&#45;&gt;Node4 -->
<g id="edge30_Node000001_Node000004" class="edge">
<title>Node1&#45;&gt;Node4</title>
<g id="a_edge30_Node000001_Node000004"><a xlink:title=" ">
<path fill="none" stroke="#63b8ff" d="M843.87,-330.18C814.58,-323.94 782.23,-313.04 757.5,-294 727.36,-270.79 737.96,-249.94 714.5,-220 688.51,-186.83 651.78,-153.96 629.93,-135.54"/>
<polygon fill="#63b8ff" stroke="#63b8ff" points="632,-132.71 622.07,-129 627.52,-138.09 632,-132.71"/>
</a>
</g>
</g>
<!-- Node5 -->
<g id="Node000005" class="node">
<title>Node5</title>
<g id="a_Node000005"><a xlink:title=" ">
<polygon fill="#e0e0e0" stroke="#999999" points="716,-74 663,-74 663,-55 716,-55 716,-74"/>
<text text-anchor="middle" x="689.5" y="-62" font-family="Helvetica,sans-Serif" font-size="10.00">cstddef</text>
</a>
</g>
</g>
<!-- Node1&#45;&gt;Node5 -->
<g id="edge37_Node000001_Node000005" class="edge">
<title>Node1&#45;&gt;Node5</title>
<g id="a_edge37_Node000001_Node000005"><a xlink:title=" ">
<path fill="none" stroke="#63b8ff" d="M885.55,-329.97C841.85,-316.71 771.5,-286.64 771.5,-230.5 771.5,-230.5 771.5,-230.5 771.5,-173.5 771.5,-133.45 735.29,-98.94 711,-80.29"/>
<polygon fill="#63b8ff" stroke="#63b8ff" points="712.8,-77.27 702.67,-74.16 708.65,-82.91 712.8,-77.27"/>
</a>
</g>
</g>
<!-- Node6 -->
<g id="Node000006" class="node">
<title>Node6</title>
<g id="a_Node000006"><a xlink:href="Keys_8hpp.html" target="_top" xlink:title=" ">
<polygon fill="white" stroke="#666666" points="804,-74 743,-74 743,-55 804,-55 804,-74"/>
<text text-anchor="middle" x="773.5" y="-62" font-family="Helvetica,sans-Serif" font-size="10.00">Keys.hpp</text>
</a>
</g>
</g>
<!-- Node1&#45;&gt;Node6 -->
<g id="edge45_Node000001_Node000006" class="edge">
<title>Node1&#45;&gt;Node6</title>
<g id="a_edge45_Node000001_Node000006"><a xlink:title=" ">
<path fill="none" stroke="#63b8ff" d="M899.58,-329.98C867.88,-314.92 809.5,-280.41 809.5,-230.5 809.5,-230.5 809.5,-230.5 809.5,-173.5 809.5,-140.21 793.92,-103.97 783.25,-83.08"/>
<polygon fill="#63b8ff" stroke="#63b8ff" points="786.29,-81.32 778.51,-74.13 780.1,-84.61 786.29,-81.32"/>
</a>
</g>
</g>
<!-- Node16 -->
<g id="Node000016" class="node">
<title>Node16</title>
<g id="a_Node000016"><a xlink:title=" ">
<polygon fill="#e0e0e0" stroke="#999999" points="873,-74 822,-74 822,-55 873,-55 873,-74"/>
<text text-anchor="middle" x="847.5" y="-62" font-family="Helvetica,sans-Serif" font-size="10.00">variant</text>
</a>
</g>
</g>
<!-- Node1&#45;&gt;Node16 -->
<g id="edge43_Node000001_Node000016" class="edge">
<title>Node1&#45;&gt;Node16</title>
<g id="a_edge43_Node000001_Node000016"><a xlink:title=" ">
<path fill="none" stroke="#63b8ff" d="M905.33,-329.99C893.34,-322.09 876.53,-309.26 866.5,-294 850.32,-269.38 847.5,-259.96 847.5,-230.5 847.5,-230.5 847.5,-230.5 847.5,-173.5 847.5,-142.19 847.5,-105.77 847.5,-84.23"/>
<polygon fill="#63b8ff" stroke="#63b8ff" points="851,-84.18 847.5,-74.18 844,-84.18 851,-84.18"/>
</a>
</g>
</g>
<!-- Node21 -->
<g id="Node000021" class="node">
<title>Node21</title>
<g id="a_Node000021"><a xlink:href="DisplayVariable_8hpp.html" target="_top" xlink:title=" ">
<polygon fill="white" stroke="#666666" points="565.5,-239 451.5,-239 451.5,-220 565.5,-220 565.5,-239"/>
<text text-anchor="middle" x="508.5" y="-227" font-family="Helvetica,sans-Serif" font-size="10.00">DisplayVariable.hpp</text>
</a>
</g>
</g>
<!-- Node1&#45;&gt;Node21 -->
<g id="edge28_Node000001_Node000021" class="edge">
<title>Node1&#45;&gt;Node21</title>
<g id="a_edge28_Node000001_Node000021"><a xlink:title=" ">
<path fill="none" stroke="#63b8ff" d="M843.9,-330.43C790.99,-323.63 719.03,-312.07 657.5,-294 612.66,-280.83 563.23,-258 534.08,-243.6"/>
<polygon fill="#63b8ff" stroke="#63b8ff" points="535.52,-240.4 525.01,-239.06 532.39,-246.66 535.52,-240.4"/>
</a>
</g>
</g>
<!-- Node23 -->
<g id="Node000023" class="node">
<title>Node23</title>
<g id="a_Node000023"><a xlink:title=" ">
<polygon fill="#e0e0e0" stroke="#999999" points="629.5,-239 583.5,-239 583.5,-220 629.5,-220 629.5,-239"/>
<text text-anchor="middle" x="606.5" y="-227" font-family="Helvetica,sans-Serif" font-size="10.00">cstdio</text>
</a>
</g>
</g>
<!-- Node1&#45;&gt;Node23 -->
<g id="edge38_Node000001_Node000023" class="edge">
<title>Node1&#45;&gt;Node23</title>
<g id="a_edge38_Node000001_Node000023"><a xlink:title=" ">
<path fill="none" stroke="#63b8ff" d="M843.99,-331.56C799.4,-325.52 742.63,-314.37 695.5,-294 667.9,-282.07 640.39,-260.6 623.41,-245.95"/>
<polygon fill="#63b8ff" stroke="#63b8ff" points="625.36,-243.01 615.55,-239.01 620.73,-248.25 625.36,-243.01"/>
</a>
</g>
</g>
<!-- Node25 -->
<g id="Node000025" class="node">
<title>Node25</title>
<g id="a_Node000025"><a xlink:title=" ">
<polygon fill="#e0e0e0" stroke="#999999" points="705.5,-239 647.5,-239 647.5,-220 705.5,-220 705.5,-239"/>
<text text-anchor="middle" x="676.5" y="-227" font-family="Helvetica,sans-Serif" font-size="10.00">memory</text>
</a>
</g>
</g>
<!-- Node1&#45;&gt;Node25 -->
<g id="edge39_Node000001_Node000025" class="edge">
<title>Node1&#45;&gt;Node25</title>
<g id="a_edge39_Node000001_Node000025"><a xlink:title=" ">
<path fill="none" stroke="#63b8ff" d="M843.9,-334.99C804.04,-330.02 755.97,-318.81 719.5,-294 703.02,-282.79 691.11,-262.99 684.06,-248.46"/>
<polygon fill="#63b8ff" stroke="#63b8ff" points="687.1,-246.69 679.79,-239.02 680.73,-249.58 687.1,-246.69"/>
</a>
</g>
</g>
<!-- Node26 -->
<g id="Node000026" class="node">
<title>Node26</title>
<g id="a_Node000026"><a xlink:title=" ">
<polygon fill="#e0e0e0" stroke="#999999" points="963.5,-294 875.5,-294 875.5,-275 963.5,-275 963.5,-294"/>
<text text-anchor="middle" x="919.5" y="-282" font-family="Helvetica,sans-Serif" font-size="10.00">SDL2/SDL_ttf.h</text>
</a>
</g>
</g>
<!-- Node1&#45;&gt;Node26 -->
<g id="edge31_Node000001_Node000026" class="edge">
<title>Node1&#45;&gt;Node26</title>
<g id="a_edge31_Node000001_Node000026"><a xlink:title=" ">
<path fill="none" stroke="#63b8ff" d="M919.5,-329.75C919.5,-322.8 919.5,-312.85 919.5,-304.13"/>
<polygon fill="#63b8ff" stroke="#63b8ff" points="923,-304.09 919.5,-294.09 916,-304.09 923,-304.09"/>
</a>
</g>
</g>
<!-- Node27 -->
<g id="Node000027" class="node">
<title>Node27</title>
<g id="a_Node000027"><a xlink:title=" ">
<polygon fill="#e0e0e0" stroke="#999999" points="1089.5,-294 981.5,-294 981.5,-275 1089.5,-275 1089.5,-294"/>
<text text-anchor="middle" x="1035.5" y="-282" font-family="Helvetica,sans-Serif" font-size="10.00">SDL2/SDL_image.h</text>
</a>
</g>
</g>
<!-- Node1&#45;&gt;Node27 -->
<g id="edge32_Node000001_Node000027" class="edge">
<title>Node1&#45;&gt;Node27</title>
<g id="a_edge32_Node000001_Node000027"><a xlink:title=" ">
<path fill="none" stroke="#63b8ff" d="M938.14,-329.98C956.8,-321.46 985.75,-308.23 1007.24,-298.41"/>
<polygon fill="#63b8ff" stroke="#63b8ff" points="1008.88,-301.51 1016.52,-294.17 1005.97,-295.14 1008.88,-301.51"/>
</a>
</g>
</g>
<!-- Node28 -->
<g id="Node000028" class="node">
<title>Node28</title>
<g id="a_Node000028"><a xlink:title=" ">
<polygon fill="#e0e0e0" stroke="#999999" points="1191,-294 1108,-294 1108,-275 1191,-275 1191,-294"/>
<text text-anchor="middle" x="1149.5" y="-282" font-family="Helvetica,sans-Serif" font-size="10.00">SDL_events.h</text>
</a>
</g>
</g>
<!-- Node1&#45;&gt;Node28 -->
<g id="edge33_Node000001_Node000028" class="edge">
<title>Node1&#45;&gt;Node28</title>
<g id="a_edge33_Node000001_Node000028"><a xlink:title=" ">
<path fill="none" stroke="#63b8ff" d="M956.45,-329.98C996.07,-320.86 1059.09,-306.33 1102.27,-296.38"/>
<polygon fill="#63b8ff" stroke="#63b8ff" points="1103.3,-299.74 1112.26,-294.08 1101.73,-292.92 1103.3,-299.74"/>
</a>
</g>
</g>
<!-- Node29 -->
<g id="Node000029" class="node">
<title>Node29</title>
<g id="a_Node000029"><a xlink:title=" ">
<polygon fill="#e0e0e0" stroke="#999999" points="1289.5,-294 1209.5,-294 1209.5,-275 1289.5,-275 1289.5,-294"/>
<text text-anchor="middle" x="1249.5" y="-282" font-family="Helvetica,sans-Serif" font-size="10.00">SDL_render.h</text>
</a>
</g>
</g>
<!-- Node1&#45;&gt;Node29 -->
<g id="edge34_Node000001_Node000029" class="edge">
<title>Node1&#45;&gt;Node29</title>
<g id="a_edge34_Node000001_Node000029"><a xlink:title=" ">
<path fill="none" stroke="#63b8ff" d="M974.72,-330C1029.26,-321.55 1115.31,-308.07 1199.42,-294.16"/>
<polygon fill="#63b8ff" stroke="#63b8ff" points="1200.1,-297.59 1209.4,-292.51 1198.96,-290.69 1200.1,-297.59"/>
</a>
</g>
</g>
<!-- Node30 -->
<g id="Node000030" class="node">
<title>Node30</title>
<g id="a_Node000030"><a xlink:title=" ">
<polygon fill="#e0e0e0" stroke="#999999" points="1393.5,-294 1307.5,-294 1307.5,-275 1393.5,-275 1393.5,-294"/>
<text text-anchor="middle" x="1350.5" y="-282" font-family="Helvetica,sans-Serif" font-size="10.00">SDL_surface.h</text>
</a>
</g>
</g>
<!-- Node1&#45;&gt;Node30 -->
<g id="edge35_Node000001_Node000030" class="edge">
<title>Node1&#45;&gt;Node30</title>
<g id="a_edge35_Node000001_Node000030"><a xlink:title=" ">
<path fill="none" stroke="#63b8ff" d="M995.13,-330.64C1069.48,-322.67 1186.43,-309.53 1297.37,-294.1"/>
<polygon fill="#63b8ff" stroke="#63b8ff" points="1297.97,-297.55 1307.39,-292.7 1297,-290.62 1297.97,-297.55"/>
</a>
</g>
</g>
<!-- Node31 -->
<g id="Node000031" class="node">
<title>Node31</title>
<g id="a_Node000031"><a xlink:title=" ">
<polygon fill="#e0e0e0" stroke="#999999" points="1489,-294 1412,-294 1412,-275 1489,-275 1489,-294"/>
<text text-anchor="middle" x="1450.5" y="-282" font-family="Helvetica,sans-Serif" font-size="10.00">SDL_video.h</text>
</a>
</g>
</g>
<!-- Node1&#45;&gt;Node31 -->
<g id="edge36_Node000001_Node000031" class="edge">
<title>Node1&#45;&gt;Node31</title>
<g id="a_edge36_Node000001_Node000031"><a xlink:title=" ">
<path fill="none" stroke="#63b8ff" d="M995.01,-333.5C1088.12,-326.9 1251.41,-313.89 1401.45,-294.02"/>
<polygon fill="#63b8ff" stroke="#63b8ff" points="1402.32,-297.44 1411.77,-292.64 1401.39,-290.5 1402.32,-297.44"/>
</a>
</g>
</g>
<!-- Node32 -->
<g id="Node000032" class="node">
<title>Node32</title>
<g id="a_Node000032"><a xlink:title=" ">
<polygon fill="#e0e0e0" stroke="#999999" points="1566,-294 1507,-294 1507,-275 1566,-275 1566,-294"/>
<text text-anchor="middle" x="1536.5" y="-282" font-family="Helvetica,sans-Serif" font-size="10.00">numbers</text>
</a>
</g>
</g>
<!-- Node1&#45;&gt;Node32 -->
<g id="edge40_Node000001_Node000032" class="edge">
<title>Node1&#45;&gt;Node32</title>
<g id="a_edge40_Node000001_Node000032"><a xlink:title=" ">
<path fill="none" stroke="#63b8ff" d="M995.3,-336.14C1104.33,-331.97 1311.82,-321.18 1496.8,-294.06"/>
<polygon fill="#63b8ff" stroke="#63b8ff" points="1497.33,-297.52 1506.71,-292.59 1496.3,-290.6 1497.33,-297.52"/>
</a>
</g>
</g>
<!-- Node33 -->
<g id="Node000033" class="node">
<title>Node33</title>
<g id="a_Node000033"><a xlink:title=" ">
<polygon fill="#e0e0e0" stroke="#999999" points="1641,-294 1584,-294 1584,-275 1641,-275 1641,-294"/>
<text text-anchor="middle" x="1612.5" y="-282" font-family="Helvetica,sans-Serif" font-size="10.00">ostream</text>
</a>
</g>
</g>
<!-- Node1&#45;&gt;Node33 -->
<g id="edge41_Node000001_Node000033" class="edge">
<title>Node1&#45;&gt;Node33</title>
<g id="a_edge41_Node000001_Node000033"><a xlink:title=" ">
<path fill="none" stroke="#63b8ff" d="M995.18,-337.24C1115.8,-334.39 1359.12,-325.14 1573.71,-294.04"/>
<polygon fill="#63b8ff" stroke="#63b8ff" points="1574.52,-297.46 1583.9,-292.54 1573.5,-290.53 1574.52,-297.46"/>
</a>
</g>
</g>
<!-- Node34 -->
<g id="Node000034" class="node">
<title>Node34</title>
<g id="a_Node000034"><a xlink:title=" ">
<polygon fill="#e0e0e0" stroke="#999999" points="1724,-294 1659,-294 1659,-275 1724,-275 1724,-294"/>
<text text-anchor="middle" x="1691.5" y="-282" font-family="Helvetica,sans-Serif" font-size="10.00">stdexcept</text>
</a>
</g>
</g>
<!-- Node1&#45;&gt;Node34 -->
<g id="edge42_Node000001_Node000034" class="edge">
<title>Node1&#45;&gt;Node34</title>
<g id="a_edge42_Node000001_Node000034"><a xlink:title=" ">
<path fill="none" stroke="#63b8ff" d="M995.09,-337.47C1126.32,-334.9 1404.87,-325.98 1648.78,-294.04"/>
<polygon fill="#63b8ff" stroke="#63b8ff" points="1649.45,-297.48 1658.9,-292.7 1648.53,-290.54 1649.45,-297.48"/>
</a>
</g>
</g>
<!-- Node35 -->
<g id="Node000035" class="node">
<title>Node35</title>
<g id="a_Node000035"><a xlink:title=" ">
<polygon fill="#e0e0e0" stroke="#999999" points="1802.5,-294 1742.5,-294 1742.5,-275 1802.5,-275 1802.5,-294"/>
<text text-anchor="middle" x="1772.5" y="-282" font-family="Helvetica,sans-Serif" font-size="10.00">iostream</text>
</a>
</g>
</g>
<!-- Node1&#45;&gt;Node35 -->
<g id="edge44_Node000001_Node000035" class="edge">
<title>Node1&#45;&gt;Node35</title>
<g id="a_edge44_Node000001_Node000035"><a xlink:title=" ">
<path fill="none" stroke="#63b8ff" d="M995.07,-338.39C1137.54,-337.31 1455.63,-330.73 1732.12,-293.95"/>
<polygon fill="#63b8ff" stroke="#63b8ff" points="1732.91,-297.37 1742.35,-292.57 1731.97,-290.44 1732.91,-297.37"/>
</a>
</g>
</g>
<!-- Node2&#45;&gt;Node3 -->
<g id="edge2_Node000002_Node000003" class="edge">
<title>Node2&#45;&gt;Node3</title>
<g id="a_edge2_Node000002_Node000003"><a xlink:title=" ">
<path fill="none" stroke="#63b8ff" d="M383.48,-278.86C330.26,-270.88 218.15,-253.97 123.5,-239 122.23,-238.8 120.94,-238.59 119.64,-238.39"/>
<polygon fill="#63b8ff" stroke="#63b8ff" points="119.98,-234.9 109.55,-236.77 118.87,-241.81 119.98,-234.9"/>
</a>
</g>
</g>
<!-- Node2&#45;&gt;Node4 -->
<g id="edge20_Node000002_Node000004" class="edge">
<title>Node2&#45;&gt;Node4</title>
<g id="a_edge20_Node000002_Node000004"><a xlink:title=" ">
<path fill="none" stroke="#63b8ff" d="M383.41,-279.22C316.41,-269.85 163.8,-247.67 156.5,-239 151.06,-232.54 151.2,-226.58 156.5,-220 209.15,-154.59 475.83,-129.82 574.62,-122.81"/>
<polygon fill="#63b8ff" stroke="#63b8ff" points="575,-126.29 584.73,-122.11 574.51,-119.3 575,-126.29"/>
</a>
</g>
</g>
<!-- Node19 -->
<g id="Node000019" class="node">
<title>Node19</title>
<g id="a_Node000019"><a xlink:title=" ">
<polygon fill="#e0e0e0" stroke="#999999" points="237.5,-239 165.5,-239 165.5,-220 237.5,-220 237.5,-239"/>
<text text-anchor="middle" x="201.5" y="-227" font-family="Helvetica,sans-Serif" font-size="10.00">SDL2/SDL.h</text>
</a>
</g>
</g>
<!-- Node2&#45;&gt;Node19 -->
<g id="edge21_Node000002_Node000019" class="edge">
<title>Node2&#45;&gt;Node19</title>
<g id="a_edge21_Node000002_Node000019"><a xlink:title=" ">
<path fill="none" stroke="#63b8ff" d="M383.07,-275.68C346.72,-266.64 286.64,-251.68 245.62,-241.48"/>
<polygon fill="#63b8ff" stroke="#63b8ff" points="246.43,-238.07 235.88,-239.06 244.74,-244.87 246.43,-238.07"/>
</a>
</g>
</g>
<!-- Node20 -->
<g id="Node000020" class="node">
<title>Node20</title>
<g id="a_Node000020"><a xlink:title=" ">
<polygon fill="#e0e0e0" stroke="#999999" points="377,-239 256,-239 256,-220 377,-220 377,-239"/>
<text text-anchor="middle" x="316.5" y="-227" font-family="Helvetica,sans-Serif" font-size="10.00">SDL2/SDL_test_font.h</text>
</a>
</g>
</g>
<!-- Node2&#45;&gt;Node20 -->
<g id="edge22_Node000002_Node000020" class="edge">
<title>Node2&#45;&gt;Node20</title>
<g id="a_edge22_Node000002_Node000020"><a xlink:title=" ">
<path fill="none" stroke="#63b8ff" d="M398.75,-274.98C383.27,-266.61 359.41,-253.7 341.36,-243.95"/>
<polygon fill="#63b8ff" stroke="#63b8ff" points="342.99,-240.85 332.53,-239.17 339.66,-247.01 342.99,-240.85"/>
</a>
</g>
</g>
<!-- Node2&#45;&gt;Node21 -->
<g id="edge23_Node000002_Node000021" class="edge">
<title>Node2&#45;&gt;Node21</title>
<g id="a_edge23_Node000002_Node000021"><a xlink:title=" ">
<path fill="none" stroke="#63b8ff" d="M429.6,-274.98C444.32,-266.69 466.92,-253.94 484.17,-244.22"/>
<polygon fill="#63b8ff" stroke="#63b8ff" points="486.13,-247.13 493.12,-239.17 482.69,-241.03 486.13,-247.13"/>
</a>
</g>
</g>
<!-- Node2&#45;&gt;Node23 -->
<g id="edge25_Node000002_Node000023" class="edge">
<title>Node2&#45;&gt;Node23</title>
<g id="a_edge25_Node000002_Node000023"><a xlink:title=" ">
<path fill="none" stroke="#63b8ff" d="M445.35,-274.98C480.37,-265.32 537.3,-249.6 573.28,-239.67"/>
<polygon fill="#63b8ff" stroke="#63b8ff" points="574.57,-242.95 583.28,-236.91 572.71,-236.2 574.57,-242.95"/>
</a>
</g>
</g>
<!-- Node24 -->
<g id="Node000024" class="node">
<title>Node24</title>
<g id="a_Node000024"><a xlink:title=" ">
<polygon fill="#e0e0e0" stroke="#999999" points="433.5,-239 395.5,-239 395.5,-220 433.5,-220 433.5,-239"/>
<text text-anchor="middle" x="414.5" y="-227" font-family="Helvetica,sans-Serif" font-size="10.00">map</text>
</a>
</g>
</g>
<!-- Node2&#45;&gt;Node24 -->
<g id="edge26_Node000002_Node000024" class="edge">
<title>Node2&#45;&gt;Node24</title>
<g id="a_edge26_Node000002_Node000024"><a xlink:title=" ">
<path fill="none" stroke="#63b8ff" d="M414.5,-274.75C414.5,-267.8 414.5,-257.85 414.5,-249.13"/>
<polygon fill="#63b8ff" stroke="#63b8ff" points="418,-249.09 414.5,-239.09 411,-249.09 418,-249.09"/>
</a>
</g>
</g>
<!-- Node2&#45;&gt;Node25 -->
<g id="edge27_Node000002_Node000025" class="edge">
<title>Node2&#45;&gt;Node25</title>
<g id="a_edge27_Node000002_Node000025"><a xlink:title=" ">
<path fill="none" stroke="#63b8ff" d="M445.71,-277.54C487.18,-269.58 562.96,-254.84 637.45,-239.18"/>
<polygon fill="#63b8ff" stroke="#63b8ff" points="638.41,-242.56 647.47,-237.07 636.96,-235.71 638.41,-242.56"/>
</a>
</g>
</g>
<!-- Node3&#45;&gt;Node4 -->
<g id="edge3_Node000003_Node000004" class="edge">
<title>Node3&#45;&gt;Node4</title>
<g id="a_edge3_Node000003_Node000004"><a xlink:title=" ">
<path fill="none" stroke="#63b8ff" d="M78.08,-219.62C89.28,-205.26 113.58,-177.32 141.5,-165 219.02,-130.79 477.88,-122.81 574.61,-121.01"/>
<polygon fill="#63b8ff" stroke="#63b8ff" points="574.85,-124.51 584.79,-120.83 574.73,-117.51 574.85,-124.51"/>
</a>
</g>
</g>
<!-- Node17 -->
<g id="Node000017" class="node">
<title>Node17</title>
<g id="a_Node000017"><a xlink:title=" ">
<polygon fill="#e0e0e0" stroke="#999999" points="47,-129 0,-129 0,-110 47,-110 47,-129"/>
<text text-anchor="middle" x="23.5" y="-117" font-family="Helvetica,sans-Serif" font-size="10.00">queue</text>
</a>
</g>
</g>
<!-- Node3&#45;&gt;Node17 -->
<g id="edge16_Node000003_Node000017" class="edge">
<title>Node3&#45;&gt;Node17</title>
<g id="a_edge16_Node000003_Node000017"><a xlink:title=" ">
<path fill="none" stroke="#63b8ff" d="M51.3,-219.91C37.03,-212.64 18.99,-200.71 10.5,-184 3.19,-169.61 8.15,-151.41 13.93,-138.19"/>
<polygon fill="#63b8ff" stroke="#63b8ff" points="17.08,-139.71 18.32,-129.19 10.79,-136.65 17.08,-139.71"/>
</a>
</g>
</g>
<!-- Node18 -->
<g id="Node000018" class="node">
<title>Node18</title>
<g id="a_Node000018"><a xlink:href="IGame_8hpp.html" target="_top" xlink:title=" ">
<polygon fill="white" stroke="#666666" points="89.5,-184 19.5,-184 19.5,-165 89.5,-165 89.5,-184"/>
<text text-anchor="middle" x="54.5" y="-172" font-family="Helvetica,sans-Serif" font-size="10.00">IGame.hpp</text>
</a>
</g>
</g>
<!-- Node3&#45;&gt;Node18 -->
<g id="edge17_Node000003_Node000018" class="edge">
<title>Node3&#45;&gt;Node18</title>
<g id="a_edge17_Node000003_Node000018"><a xlink:title=" ">
<path fill="none" stroke="#63b8ff" d="M68.69,-219.75C66.44,-212.72 63.2,-202.62 60.38,-193.84"/>
<polygon fill="#63b8ff" stroke="#63b8ff" points="63.64,-192.54 57.25,-184.09 56.98,-194.68 63.64,-192.54"/>
</a>
</g>
</g>
<!-- Node4&#45;&gt;Node5 -->
<g id="edge4_Node000004_Node000005" class="edge">
<title>Node4&#45;&gt;Node5</title>
<g id="a_edge4_Node000004_Node000005"><a xlink:title=" ">
<path fill="none" stroke="#63b8ff" d="M624.03,-109.98C635.9,-101.92 653.96,-89.65 668.11,-80.03"/>
<polygon fill="#63b8ff" stroke="#63b8ff" points="670.44,-82.69 676.74,-74.17 666.5,-76.9 670.44,-82.69"/>
</a>
</g>
</g>
<!-- Node4&#45;&gt;Node6 -->
<g id="edge5_Node000004_Node000006" class="edge">
<title>Node4&#45;&gt;Node6</title>
<g id="a_edge5_Node000004_Node000006"><a xlink:title=" ">
<path fill="none" stroke="#63b8ff" d="M637.53,-109.98C664.61,-101.13 707.21,-87.19 737.51,-77.28"/>
<polygon fill="#63b8ff" stroke="#63b8ff" points="738.85,-80.52 747.27,-74.08 736.68,-73.87 738.85,-80.52"/>
</a>
</g>
</g>
<!-- Node12 -->
<g id="Node000012" class="node">
<title>Node12</title>
<g id="a_Node000012"><a xlink:href="shape_8hpp.html" target="_top" xlink:title=" ">
<polygon fill="white" stroke="#666666" points="548,-74 481,-74 481,-55 548,-55 548,-74"/>
<text text-anchor="middle" x="514.5" y="-62" font-family="Helvetica,sans-Serif" font-size="10.00">shape.hpp</text>
</a>
</g>
</g>
<!-- Node4&#45;&gt;Node12 -->
<g id="edge11_Node000004_Node000012" class="edge">
<title>Node4&#45;&gt;Node12</title>
<g id="a_edge11_Node000004_Node000012"><a xlink:title=" ">
<path fill="none" stroke="#63b8ff" d="M595.92,-109.98C580.73,-101.69 557.4,-88.94 539.6,-79.22"/>
<polygon fill="#63b8ff" stroke="#63b8ff" points="540.82,-75.89 530.37,-74.17 537.47,-82.04 540.82,-75.89"/>
</a>
</g>
</g>
<!-- Node15 -->
<g id="Node000015" class="node">
<title>Node15</title>
<g id="a_Node000015"><a xlink:title=" ">
<polygon fill="#e0e0e0" stroke="#999999" points="639.5,-74 583.5,-74 583.5,-55 639.5,-55 639.5,-74"/>
<text text-anchor="middle" x="611.5" y="-62" font-family="Helvetica,sans-Serif" font-size="10.00">optional</text>
</a>
</g>
</g>
<!-- Node4&#45;&gt;Node15 -->
<g id="edge14_Node000004_Node000015" class="edge">
<title>Node4&#45;&gt;Node15</title>
<g id="a_edge14_Node000004_Node000015"><a xlink:title=" ">
<path fill="none" stroke="#63b8ff" d="M611.5,-109.75C611.5,-102.8 611.5,-92.85 611.5,-84.13"/>
<polygon fill="#63b8ff" stroke="#63b8ff" points="615,-84.09 611.5,-74.09 608,-84.09 615,-84.09"/>
</a>
</g>
</g>
<!-- Node4&#45;&gt;Node16 -->
<g id="edge15_Node000004_Node000016" class="edge">
<title>Node4&#45;&gt;Node16</title>
<g id="a_edge15_Node000004_Node000016"><a xlink:title=" ">
<path fill="none" stroke="#63b8ff" d="M638.02,-112.91C674.87,-105.08 743.89,-90.23 811.88,-74.33"/>
<polygon fill="#63b8ff" stroke="#63b8ff" points="812.96,-77.67 821.9,-71.98 811.36,-70.86 812.96,-77.67"/>
</a>
</g>
</g>
<!-- Node7 -->
<g id="Node000007" class="node">
<title>Node7</title>
<g id="a_Node000007"><a xlink:title=" ">
<polygon fill="#e0e0e0" stroke="#999999" points="739,-19 646,-19 646,0 739,0 739,-19"/>
<text text-anchor="middle" x="692.5" y="-7" font-family="Helvetica,sans-Serif" font-size="10.00">unordered_map</text>
</a>
</g>
</g>
<!-- Node6&#45;&gt;Node7 -->
<g id="edge6_Node000006_Node000007" class="edge">
<title>Node6&#45;&gt;Node7</title>
<g id="a_edge6_Node000006_Node000007"><a xlink:title=" ">
<path fill="none" stroke="#63b8ff" d="M760.49,-54.98C748.04,-46.84 729.04,-34.41 714.29,-24.76"/>
<polygon fill="#63b8ff" stroke="#63b8ff" points="716.04,-21.72 705.75,-19.17 712.2,-27.57 716.04,-21.72"/>
</a>
</g>
</g>
<!-- Node8 -->
<g id="Node000008" class="node">
<title>Node8</title>
<g id="a_Node000008"><a xlink:title=" ">
<polygon fill="#e0e0e0" stroke="#999999" points="798,-19 757,-19 757,0 798,0 798,-19"/>
<text text-anchor="middle" x="777.5" y="-7" font-family="Helvetica,sans-Serif" font-size="10.00">tuple</text>
</a>
</g>
</g>
<!-- Node6&#45;&gt;Node8 -->
<g id="edge7_Node000006_Node000008" class="edge">
<title>Node6&#45;&gt;Node8</title>
<g id="a_edge7_Node000006_Node000008"><a xlink:title=" ">
<path fill="none" stroke="#63b8ff" d="M774.16,-54.75C774.68,-47.8 775.44,-37.85 776.09,-29.13"/>
<polygon fill="#63b8ff" stroke="#63b8ff" points="779.59,-29.32 776.85,-19.09 772.61,-28.8 779.59,-29.32"/>
</a>
</g>
</g>
<!-- Node9 -->
<g id="Node000009" class="node">
<title>Node9</title>
<g id="a_Node000009"><a xlink:title=" ">
<polygon fill="#e0e0e0" stroke="#999999" points="934.5,-19 816.5,-19 816.5,0 934.5,0 934.5,-19"/>
<text text-anchor="middle" x="875.5" y="-7" font-family="Helvetica,sans-Serif" font-size="10.00">SDL2/SDL_keycode.h</text>
</a>
</g>
</g>
<!-- Node6&#45;&gt;Node9 -->
<g id="edge8_Node000006_Node000009" class="edge">
<title>Node6&#45;&gt;Node9</title>
<g id="a_edge8_Node000006_Node000009"><a xlink:title=" ">
<path fill="none" stroke="#63b8ff" d="M789.89,-54.98C806.07,-46.57 831.07,-33.59 849.88,-23.81"/>
<polygon fill="#63b8ff" stroke="#63b8ff" points="851.55,-26.89 858.81,-19.17 848.33,-20.68 851.55,-26.89"/>
</a>
</g>
</g>
<!-- Node10 -->
<g id="Node000010" class="node">
<title>Node10</title>
<g id="a_Node000010"><a xlink:title=" ">
<polygon fill="#e0e0e0" stroke="#999999" points="1108,-19 953,-19 953,0 1108,0 1108,-19"/>
<text text-anchor="middle" x="1030.5" y="-7" font-family="Helvetica,sans-Serif" font-size="10.00">SFML/Window/Keyboard.hpp</text>
</a>
</g>
</g>
<!-- Node6&#45;&gt;Node10 -->
<g id="edge9_Node000006_Node000010" class="edge">
<title>Node6&#45;&gt;Node10</title>
<g id="a_edge9_Node000006_Node000010"><a xlink:title=" ">
<path fill="none" stroke="#63b8ff" d="M804.07,-56.98C807.25,-56.31 810.44,-55.64 813.5,-55 869.9,-43.22 934.62,-29.99 978.59,-21.04"/>
<polygon fill="#63b8ff" stroke="#63b8ff" points="979.37,-24.45 988.48,-19.03 977.98,-17.59 979.37,-24.45"/>
</a>
</g>
</g>
<!-- Node11 -->
<g id="Node000011" class="node">
<title>Node11</title>
<g id="a_Node000011"><a xlink:title=" ">
<polygon fill="#e0e0e0" stroke="#999999" points="628,-19 565,-19 565,0 628,0 628,-19"/>
<text text-anchor="middle" x="596.5" y="-7" font-family="Helvetica,sans-Serif" font-size="10.00">ncurses.h</text>
</a>
</g>
</g>
<!-- Node6&#45;&gt;Node11 -->
<g id="edge10_Node000006_Node000011" class="edge">
<title>Node6&#45;&gt;Node11</title>
<g id="a_edge10_Node000006_Node000011"><a xlink:title=" ">
<path fill="none" stroke="#63b8ff" d="M745.06,-54.98C715.22,-46.05 668.12,-31.94 634.97,-22.02"/>
<polygon fill="#63b8ff" stroke="#63b8ff" points="635.74,-18.6 625.16,-19.08 633.74,-25.3 635.74,-18.6"/>
</a>
</g>
</g>
<!-- Node13 -->
<g id="Node000013" class="node">
<title>Node13</title>
<g id="a_Node000013"><a xlink:title=" ">
<polygon fill="#e0e0e0" stroke="#999999" points="547,-19 482,-19 482,0 547,0 547,-19"/>
<text text-anchor="middle" x="514.5" y="-7" font-family="Helvetica,sans-Serif" font-size="10.00">functional</text>
</a>
</g>
</g>
<!-- Node12&#45;&gt;Node13 -->
<g id="edge12_Node000012_Node000013" class="edge">
<title>Node12&#45;&gt;Node13</title>
<g id="a_edge12_Node000012_Node000013"><a xlink:title=" ">
<path fill="none" stroke="#63b8ff" d="M514.5,-54.75C514.5,-47.8 514.5,-37.85 514.5,-29.13"/>
<polygon fill="#63b8ff" stroke="#63b8ff" points="518,-29.09 514.5,-19.09 511,-29.09 518,-29.09"/>
</a>
</g>
</g>
<!-- Node14 -->
<g id="Node000014" class="node">
<title>Node14</title>
<g id="a_Node000014"><a xlink:title=" ">
<polygon fill="#e0e0e0" stroke="#999999" points="463.5,-19 419.5,-19 419.5,0 463.5,0 463.5,-19"/>
<text text-anchor="middle" x="441.5" y="-7" font-family="Helvetica,sans-Serif" font-size="10.00">string</text>
</a>
</g>
</g>
<!-- Node12&#45;&gt;Node14 -->
<g id="edge13_Node000012_Node000014" class="edge">
<title>Node12&#45;&gt;Node14</title>
<g id="a_edge13_Node000012_Node000014"><a xlink:title=" ">
<path fill="none" stroke="#63b8ff" d="M502.77,-54.98C491.77,-47 475.08,-34.88 461.9,-25.31"/>
<polygon fill="#63b8ff" stroke="#63b8ff" points="463.59,-22.21 453.44,-19.17 459.48,-27.88 463.59,-22.21"/>
</a>
</g>
</g>
<!-- Node18&#45;&gt;Node4 -->
<g id="edge18_Node000018_Node000004" class="edge">
<title>Node18&#45;&gt;Node4</title>
<g id="a_edge18_Node000018_Node000004"><a xlink:title=" ">
<path fill="none" stroke="#63b8ff" d="M89.51,-167.06C94.2,-166.3 98.96,-165.59 103.5,-165 279.46,-142.07 491.28,-127.77 574.95,-122.64"/>
<polygon fill="#63b8ff" stroke="#63b8ff" points="575.2,-126.13 584.97,-122.03 574.78,-119.14 575.2,-126.13"/>
</a>
</g>
</g>
<!-- Node18&#45;&gt;Node17 -->
<g id="edge19_Node000018_Node000017" class="edge">
<title>Node18&#45;&gt;Node17</title>
<g id="a_edge19_Node000018_Node000017"><a xlink:title=" ">
<path fill="none" stroke="#63b8ff" d="M49.38,-164.75C45.14,-157.49 38.97,-146.95 33.72,-137.98"/>
<polygon fill="#63b8ff" stroke="#63b8ff" points="36.59,-135.95 28.52,-129.09 30.55,-139.49 36.59,-135.95"/>
</a>
</g>
</g>
<!-- Node22 -->
<g id="Node000022" class="node">
<title>Node22</title>
<g id="a_Node000022"><a xlink:title=" ">
<polygon fill="#e0e0e0" stroke="#999999" points="536.5,-184 480.5,-184 480.5,-165 536.5,-165 536.5,-184"/>
<text text-anchor="middle" x="508.5" y="-172" font-family="Helvetica,sans-Serif" font-size="10.00">stddef.h</text>
</a>
</g>
</g>
<!-- Node21&#45;&gt;Node22 -->
<g id="edge24_Node000021_Node000022" class="edge">
<title>Node21&#45;&gt;Node22</title>
<g id="a_edge24_Node000021_Node000022"><a xlink:title=" ">
<path fill="none" stroke="#63b8ff" d="M508.5,-219.75C508.5,-212.8 508.5,-202.85 508.5,-194.13"/>
<polygon fill="#63b8ff" stroke="#63b8ff" points="512,-194.09 508.5,-184.09 505,-194.09 512,-194.09"/>
</a>
</g>
</g>
</g>
</svg>
