<?xml version="1.0" encoding="UTF-8" standalone="no"?>
<!DOCTYPE svg PUBLIC "-//W3C//DTD SVG 1.1//EN"
 "http://www.w3.org/Graphics/SVG/1.1/DTD/svg11.dtd">
<!-- Generated by graphviz version 2.43.0 (0)
 -->
<!-- Title: graphics/SFML/src/SFML.cpp Pages: 1 -->
<svg width="2153pt" height="357pt"
 viewBox="0.00 0.00 2153.00 357.00" xmlns="http://www.w3.org/2000/svg" xmlns:xlink="http://www.w3.org/1999/xlink">
<g id="graph0" class="graph" transform="scale(1 1) rotate(0) translate(4 353)">
<title>graphics/SFML/src/SFML.cpp</title>
<!-- Node1 -->
<g id="Node000001" class="node">
<title>Node1</title>
<g id="a_Node000001"><a xlink:title=" ">
<polygon fill="#999999" stroke="#666666" points="1423.5,-349 1269.5,-349 1269.5,-330 1423.5,-330 1423.5,-349"/>
<text text-anchor="middle" x="1346.5" y="-337" font-family="Helvetica,sans-Serif" font-size="10.00">graphics/SFML/src/SFML.cpp</text>
</a>
</g>
</g>
<!-- Node2 -->
<g id="Node000002" class="node">
<title>Node2</title>
<g id="a_Node000002"><a xlink:href="DisplayVariable_8hpp.html" target="_top" xlink:title=" ">
<polygon fill="white" stroke="#666666" points="227.5,-239 113.5,-239 113.5,-220 227.5,-220 227.5,-239"/>
<text text-anchor="middle" x="170.5" y="-227" font-family="Helvetica,sans-Serif" font-size="10.00">DisplayVariable.hpp</text>
</a>
</g>
</g>
<!-- Node1&#45;&gt;Node2 -->
<g id="edge1_Node000001_Node000002" class="edge">
<title>Node1&#45;&gt;Node2</title>
<g id="a_edge1_Node000001_Node000002"><a xlink:title=" ">
<path fill="none" stroke="#63b8ff" d="M1269.33,-335.56C1138.35,-330.14 864.28,-317 633.5,-294 489.68,-279.67 321.83,-254.54 233.03,-240.57"/>
<polygon fill="#63b8ff" stroke="#63b8ff" points="233.54,-237.11 223.12,-239.01 232.45,-244.03 233.54,-237.11"/>
</a>
</g>
</g>
<!-- Node4 -->
<g id="Node000004" class="node">
<title>Node4</title>
<g id="a_Node000004"><a xlink:href="IDisplay_8hpp.html" target="_top" xlink:title=" ">
<polygon fill="white" stroke="#666666" points="321.5,-239 245.5,-239 245.5,-220 321.5,-220 321.5,-239"/>
<text text-anchor="middle" x="283.5" y="-227" font-family="Helvetica,sans-Serif" font-size="10.00">IDisplay.hpp</text>
</a>
</g>
</g>
<!-- Node1&#45;&gt;Node4 -->
<g id="edge3_Node000001_Node000004" class="edge">
<title>Node1&#45;&gt;Node4</title>
<g id="a_edge3_Node000001_Node000004"><a xlink:title=" ">
<path fill="none" stroke="#63b8ff" d="M1269.45,-333.16C1101.02,-321.02 687.32,-288.58 331.66,-239.06"/>
<polygon fill="#63b8ff" stroke="#63b8ff" points="332.07,-235.58 321.68,-237.67 331.1,-242.52 332.07,-235.58"/>
</a>
</g>
</g>
<!-- Node5 -->
<g id="Node000005" class="node">
<title>Node5</title>
<g id="a_Node000005"><a xlink:href="gfx_8hpp.html" target="_top" xlink:title=" ">
<polygon fill="white" stroke="#666666" points="340,-129 287,-129 287,-110 340,-110 340,-129"/>
<text text-anchor="middle" x="313.5" y="-117" font-family="Helvetica,sans-Serif" font-size="10.00">gfx.hpp</text>
</a>
</g>
</g>
<!-- Node1&#45;&gt;Node5 -->
<g id="edge33_Node000001_Node000005" class="edge">
<title>Node1&#45;&gt;Node5</title>
<g id="a_edge33_Node000001_Node000005"><a xlink:title=" ">
<path fill="none" stroke="#63b8ff" d="M1269.25,-338.44C1009.66,-337.44 180.69,-327.28 104.5,-239 84.69,-216.04 111.26,-182.4 133.5,-165 175.07,-132.47 237.23,-123.36 276.55,-121.01"/>
<polygon fill="#63b8ff" stroke="#63b8ff" points="276.94,-124.49 286.76,-120.52 276.6,-117.5 276.94,-124.49"/>
</a>
</g>
</g>
<!-- Node17 -->
<g id="Node000017" class="node">
<title>Node17</title>
<g id="a_Node000017"><a xlink:title=" ">
<polygon fill="#e0e0e0" stroke="#999999" points="904,-74 853,-74 853,-55 904,-55 904,-74"/>
<text text-anchor="middle" x="878.5" y="-62" font-family="Helvetica,sans-Serif" font-size="10.00">variant</text>
</a>
</g>
</g>
<!-- Node1&#45;&gt;Node17 -->
<g id="edge43_Node000001_Node000017" class="edge">
<title>Node1&#45;&gt;Node17</title>
<g id="a_edge43_Node000001_Node000017"><a xlink:title=" ">
<path fill="none" stroke="#63b8ff" d="M1349.33,-329.61C1354.21,-315.75 1365.55,-289.13 1384.5,-275 1438.42,-234.79 1567.18,-272.8 1525.5,-220 1447.98,-121.79 1038.16,-79.15 914.11,-68.36"/>
<polygon fill="#63b8ff" stroke="#63b8ff" points="914.27,-64.86 904,-67.5 913.67,-71.84 914.27,-64.86"/>
</a>
</g>
</g>
<!-- Node20 -->
<g id="Node000020" class="node">
<title>Node20</title>
<g id="a_Node000020"><a xlink:href="SFML_8hpp.html" target="_top" xlink:title=" ">
<polygon fill="white" stroke="#666666" points="952.5,-294 888.5,-294 888.5,-275 952.5,-275 952.5,-294"/>
<text text-anchor="middle" x="920.5" y="-282" font-family="Helvetica,sans-Serif" font-size="10.00">SFML.hpp</text>
</a>
</g>
</g>
<!-- Node1&#45;&gt;Node20 -->
<g id="edge21_Node000001_Node000020" class="edge">
<title>Node1&#45;&gt;Node20</title>
<g id="a_edge21_Node000001_Node000020"><a xlink:title=" ">
<path fill="none" stroke="#63b8ff" d="M1278.06,-329.98C1189.17,-318.93 1036.7,-299.96 962.94,-290.78"/>
<polygon fill="#63b8ff" stroke="#63b8ff" points="963,-287.26 952.64,-289.5 962.13,-294.21 963,-287.26"/>
</a>
</g>
</g>
<!-- Node24 -->
<g id="Node000024" class="node">
<title>Node24</title>
<g id="a_Node000024"><a xlink:title=" ">
<polygon fill="#e0e0e0" stroke="#999999" points="1200,-239 1063,-239 1063,-220 1200,-220 1200,-239"/>
<text text-anchor="middle" x="1131.5" y="-227" font-family="Helvetica,sans-Serif" font-size="10.00">SFML/Graphics/Color.hpp</text>
</a>
</g>
</g>
<!-- Node1&#45;&gt;Node24 -->
<g id="edge34_Node000001_Node000024" class="edge">
<title>Node1&#45;&gt;Node24</title>
<g id="a_edge34_Node000001_Node000024"><a xlink:title=" ">
<path fill="none" stroke="#63b8ff" d="M1329.27,-329.84C1291.67,-310.96 1202.08,-265.96 1157.55,-243.59"/>
<polygon fill="#63b8ff" stroke="#63b8ff" points="1159.02,-240.41 1148.51,-239.05 1155.88,-246.66 1159.02,-240.41"/>
</a>
</g>
</g>
<!-- Node26 -->
<g id="Node000026" class="node">
<title>Node26</title>
<g id="a_Node000026"><a xlink:title=" ">
<polygon fill="#e0e0e0" stroke="#999999" points="1361,-239 1218,-239 1218,-220 1361,-220 1361,-239"/>
<text text-anchor="middle" x="1289.5" y="-227" font-family="Helvetica,sans-Serif" font-size="10.00">SFML/System/Vector2.hpp</text>
</a>
</g>
</g>
<!-- Node1&#45;&gt;Node26 -->
<g id="edge39_Node000001_Node000026" class="edge">
<title>Node1&#45;&gt;Node26</title>
<g id="a_edge39_Node000001_Node000026"><a xlink:title=" ">
<path fill="none" stroke="#63b8ff" d="M1338.9,-329.79C1331.65,-321.16 1320.78,-307.34 1313.5,-294 1305.56,-279.45 1299.1,-261.73 1294.89,-248.7"/>
<polygon fill="#63b8ff" stroke="#63b8ff" points="1298.2,-247.56 1291.9,-239.04 1291.51,-249.63 1298.2,-247.56"/>
</a>
</g>
</g>
<!-- Node27 -->
<g id="Node000027" class="node">
<title>Node27</title>
<g id="a_Node000027"><a xlink:title=" ">
<polygon fill="#e0e0e0" stroke="#999999" points="1516,-239 1379,-239 1379,-220 1516,-220 1516,-239"/>
<text text-anchor="middle" x="1447.5" y="-227" font-family="Helvetica,sans-Serif" font-size="10.00">SFML/Window/Event.hpp</text>
</a>
</g>
</g>
<!-- Node1&#45;&gt;Node27 -->
<g id="edge40_Node000001_Node000027" class="edge">
<title>Node1&#45;&gt;Node27</title>
<g id="a_edge40_Node000001_Node000027"><a xlink:title=" ">
<path fill="none" stroke="#63b8ff" d="M1344.63,-329.79C1342.33,-316.65 1340.01,-291.52 1351.5,-275 1362.38,-259.35 1380.22,-249.07 1397.58,-242.39"/>
<polygon fill="#63b8ff" stroke="#63b8ff" points="1398.86,-245.65 1407.14,-239.03 1396.54,-239.05 1398.86,-245.65"/>
</a>
</g>
</g>
<!-- Node29 -->
<g id="Node000029" class="node">
<title>Node29</title>
<g id="a_Node000029"><a xlink:title=" ">
<polygon fill="#e0e0e0" stroke="#999999" points="1527.5,-294 1393.5,-294 1393.5,-275 1527.5,-275 1527.5,-294"/>
<text text-anchor="middle" x="1460.5" y="-282" font-family="Helvetica,sans-Serif" font-size="10.00">SFML/Graphics/Rect.hpp</text>
</a>
</g>
</g>
<!-- Node1&#45;&gt;Node29 -->
<g id="edge35_Node000001_Node000029" class="edge">
<title>Node1&#45;&gt;Node29</title>
<g id="a_edge35_Node000001_Node000029"><a xlink:title=" ">
<path fill="none" stroke="#63b8ff" d="M1364.82,-329.98C1383.16,-321.46 1411.61,-308.23 1432.73,-298.41"/>
<polygon fill="#63b8ff" stroke="#63b8ff" points="1434.26,-301.56 1441.85,-294.17 1431.31,-295.21 1434.26,-301.56"/>
</a>
</g>
</g>
<!-- Node30 -->
<g id="Node000030" class="node">
<title>Node30</title>
<g id="a_Node000030"><a xlink:title=" ">
<polygon fill="#e0e0e0" stroke="#999999" points="1687,-294 1546,-294 1546,-275 1687,-275 1687,-294"/>
<text text-anchor="middle" x="1616.5" y="-282" font-family="Helvetica,sans-Serif" font-size="10.00">SFML/Graphics/Sprite.hpp</text>
</a>
</g>
</g>
<!-- Node1&#45;&gt;Node30 -->
<g id="edge36_Node000001_Node000030" class="edge">
<title>Node1&#45;&gt;Node30</title>
<g id="a_edge36_Node000001_Node000030"><a xlink:title=" ">
<path fill="none" stroke="#63b8ff" d="M1389.88,-329.98C1436.88,-320.76 1511.93,-306.03 1562.66,-296.07"/>
<polygon fill="#63b8ff" stroke="#63b8ff" points="1563.64,-299.44 1572.78,-294.08 1562.29,-292.57 1563.64,-299.44"/>
</a>
</g>
</g>
<!-- Node31 -->
<g id="Node000031" class="node">
<title>Node31</title>
<g id="a_Node000031"><a xlink:title=" ">
<polygon fill="#e0e0e0" stroke="#999999" points="1838,-294 1705,-294 1705,-275 1838,-275 1838,-294"/>
<text text-anchor="middle" x="1771.5" y="-282" font-family="Helvetica,sans-Serif" font-size="10.00">SFML/Graphics/Text.hpp</text>
</a>
</g>
</g>
<!-- Node1&#45;&gt;Node31 -->
<g id="edge37_Node000001_Node000031" class="edge">
<title>Node1&#45;&gt;Node31</title>
<g id="a_edge37_Node000001_Node000031"><a xlink:title=" ">
<path fill="none" stroke="#63b8ff" d="M1414.78,-329.98C1491.29,-320.44 1615.02,-305.01 1694.8,-295.07"/>
<polygon fill="#63b8ff" stroke="#63b8ff" points="1695.3,-298.53 1704.79,-293.82 1694.43,-291.58 1695.3,-298.53"/>
</a>
</g>
</g>
<!-- Node32 -->
<g id="Node000032" class="node">
<title>Node32</title>
<g id="a_Node000032"><a xlink:title=" ">
<polygon fill="#e0e0e0" stroke="#999999" points="1991,-294 1856,-294 1856,-275 1991,-275 1991,-294"/>
<text text-anchor="middle" x="1923.5" y="-282" font-family="Helvetica,sans-Serif" font-size="10.00">SFML/System/String.hpp</text>
</a>
</g>
</g>
<!-- Node1&#45;&gt;Node32 -->
<g id="edge38_Node000001_Node000032" class="edge">
<title>Node1&#45;&gt;Node32</title>
<g id="a_edge38_Node000001_Node000032"><a xlink:title=" ">
<path fill="none" stroke="#63b8ff" d="M1423.8,-332.18C1520.14,-324.19 1690.12,-309.68 1845.74,-294.16"/>
<polygon fill="#63b8ff" stroke="#63b8ff" points="1846.36,-297.61 1855.96,-293.13 1845.66,-290.65 1846.36,-297.61"/>
</a>
</g>
</g>
<!-- Node33 -->
<g id="Node000033" class="node">
<title>Node33</title>
<g id="a_Node000033"><a xlink:title=" ">
<polygon fill="#e0e0e0" stroke="#999999" points="2069.5,-294 2009.5,-294 2009.5,-275 2069.5,-275 2069.5,-294"/>
<text text-anchor="middle" x="2039.5" y="-282" font-family="Helvetica,sans-Serif" font-size="10.00">iostream</text>
</a>
</g>
</g>
<!-- Node1&#45;&gt;Node33 -->
<g id="edge41_Node000001_Node000033" class="edge">
<title>Node1&#45;&gt;Node33</title>
<g id="a_edge41_Node000001_Node000033"><a xlink:title=" ">
<path fill="none" stroke="#63b8ff" d="M1423.65,-336.91C1544.45,-333.61 1785.64,-323.78 1999.2,-293.96"/>
<polygon fill="#63b8ff" stroke="#63b8ff" points="1999.93,-297.4 2009.35,-292.53 1998.95,-290.46 1999.93,-297.4"/>
</a>
</g>
</g>
<!-- Node34 -->
<g id="Node000034" class="node">
<title>Node34</title>
<g id="a_Node000034"><a xlink:title=" ">
<polygon fill="#e0e0e0" stroke="#999999" points="2145,-294 2088,-294 2088,-275 2145,-275 2145,-294"/>
<text text-anchor="middle" x="2116.5" y="-282" font-family="Helvetica,sans-Serif" font-size="10.00">ostream</text>
</a>
</g>
</g>
<!-- Node1&#45;&gt;Node34 -->
<g id="edge42_Node000001_Node000034" class="edge">
<title>Node1&#45;&gt;Node34</title>
<g id="a_edge42_Node000001_Node000034"><a xlink:title=" ">
<path fill="none" stroke="#63b8ff" d="M1423.57,-337.84C1555.61,-335.83 1833.6,-327.74 2077.82,-293.82"/>
<polygon fill="#63b8ff" stroke="#63b8ff" points="2078.54,-297.26 2087.96,-292.4 2077.57,-290.32 2078.54,-297.26"/>
</a>
</g>
</g>
<!-- Node3 -->
<g id="Node000003" class="node">
<title>Node3</title>
<g id="a_Node000003"><a xlink:title=" ">
<polygon fill="#e0e0e0" stroke="#999999" points="198.5,-184 142.5,-184 142.5,-165 198.5,-165 198.5,-184"/>
<text text-anchor="middle" x="170.5" y="-172" font-family="Helvetica,sans-Serif" font-size="10.00">stddef.h</text>
</a>
</g>
</g>
<!-- Node2&#45;&gt;Node3 -->
<g id="edge2_Node000002_Node000003" class="edge">
<title>Node2&#45;&gt;Node3</title>
<g id="a_edge2_Node000002_Node000003"><a xlink:title=" ">
<path fill="none" stroke="#63b8ff" d="M170.5,-219.75C170.5,-212.8 170.5,-202.85 170.5,-194.13"/>
<polygon fill="#63b8ff" stroke="#63b8ff" points="174,-194.09 170.5,-184.09 167,-194.09 174,-194.09"/>
</a>
</g>
</g>
<!-- Node4&#45;&gt;Node5 -->
<g id="edge4_Node000004_Node000005" class="edge">
<title>Node4&#45;&gt;Node5</title>
<g id="a_edge4_Node000004_Node000005"><a xlink:title=" ">
<path fill="none" stroke="#63b8ff" d="M279.73,-219.99C274.76,-207.53 267.44,-183.76 274.5,-165 278.68,-153.89 287.02,-143.75 294.93,-135.96"/>
<polygon fill="#63b8ff" stroke="#63b8ff" points="297.51,-138.35 302.51,-129.01 292.78,-133.19 297.51,-138.35"/>
</a>
</g>
</g>
<!-- Node18 -->
<g id="Node000018" class="node">
<title>Node18</title>
<g id="a_Node000018"><a xlink:title=" ">
<polygon fill="#e0e0e0" stroke="#999999" points="405,-129 358,-129 358,-110 405,-110 405,-129"/>
<text text-anchor="middle" x="381.5" y="-117" font-family="Helvetica,sans-Serif" font-size="10.00">queue</text>
</a>
</g>
</g>
<!-- Node4&#45;&gt;Node18 -->
<g id="edge17_Node000004_Node000018" class="edge">
<title>Node4&#45;&gt;Node18</title>
<g id="a_edge17_Node000004_Node000018"><a xlink:title=" ">
<path fill="none" stroke="#63b8ff" d="M308.99,-219.97C326.4,-212.91 348.74,-201.22 362.5,-184 372.72,-171.22 377.44,-153.05 379.63,-139.41"/>
<polygon fill="#63b8ff" stroke="#63b8ff" points="383.13,-139.61 380.93,-129.25 376.19,-138.72 383.13,-139.61"/>
</a>
</g>
</g>
<!-- Node19 -->
<g id="Node000019" class="node">
<title>Node19</title>
<g id="a_Node000019"><a xlink:href="IGame_8hpp.html" target="_top" xlink:title=" ">
<polygon fill="white" stroke="#666666" points="353.5,-184 283.5,-184 283.5,-165 353.5,-165 353.5,-184"/>
<text text-anchor="middle" x="318.5" y="-172" font-family="Helvetica,sans-Serif" font-size="10.00">IGame.hpp</text>
</a>
</g>
</g>
<!-- Node4&#45;&gt;Node19 -->
<g id="edge18_Node000004_Node000019" class="edge">
<title>Node4&#45;&gt;Node19</title>
<g id="a_edge18_Node000004_Node000019"><a xlink:title=" ">
<path fill="none" stroke="#63b8ff" d="M289.28,-219.75C294.12,-212.42 301.18,-201.73 307.14,-192.7"/>
<polygon fill="#63b8ff" stroke="#63b8ff" points="310.24,-194.36 312.83,-184.09 304.4,-190.5 310.24,-194.36"/>
</a>
</g>
</g>
<!-- Node6 -->
<g id="Node000006" class="node">
<title>Node6</title>
<g id="a_Node000006"><a xlink:title=" ">
<polygon fill="#e0e0e0" stroke="#999999" points="265,-74 212,-74 212,-55 265,-55 265,-74"/>
<text text-anchor="middle" x="238.5" y="-62" font-family="Helvetica,sans-Serif" font-size="10.00">cstddef</text>
</a>
</g>
</g>
<!-- Node5&#45;&gt;Node6 -->
<g id="edge5_Node000005_Node000006" class="edge">
<title>Node5&#45;&gt;Node6</title>
<g id="a_edge5_Node000005_Node000006"><a xlink:title=" ">
<path fill="none" stroke="#63b8ff" d="M301.45,-109.98C290.04,-101.92 272.67,-89.65 259.07,-80.03"/>
<polygon fill="#63b8ff" stroke="#63b8ff" points="260.96,-77.08 250.77,-74.17 256.92,-82.8 260.96,-77.08"/>
</a>
</g>
</g>
<!-- Node7 -->
<g id="Node000007" class="node">
<title>Node7</title>
<g id="a_Node000007"><a xlink:href="Keys_8hpp.html" target="_top" xlink:title=" ">
<polygon fill="white" stroke="#666666" points="344,-74 283,-74 283,-55 344,-55 344,-74"/>
<text text-anchor="middle" x="313.5" y="-62" font-family="Helvetica,sans-Serif" font-size="10.00">Keys.hpp</text>
</a>
</g>
</g>
<!-- Node5&#45;&gt;Node7 -->
<g id="edge6_Node000005_Node000007" class="edge">
<title>Node5&#45;&gt;Node7</title>
<g id="a_edge6_Node000005_Node000007"><a xlink:title=" ">
<path fill="none" stroke="#63b8ff" d="M313.5,-109.75C313.5,-102.8 313.5,-92.85 313.5,-84.13"/>
<polygon fill="#63b8ff" stroke="#63b8ff" points="317,-84.09 313.5,-74.09 310,-84.09 317,-84.09"/>
</a>
</g>
</g>
<!-- Node13 -->
<g id="Node000013" class="node">
<title>Node13</title>
<g id="a_Node000013"><a xlink:href="shape_8hpp.html" target="_top" xlink:title=" ">
<polygon fill="white" stroke="#666666" points="495,-74 428,-74 428,-55 495,-55 495,-74"/>
<text text-anchor="middle" x="461.5" y="-62" font-family="Helvetica,sans-Serif" font-size="10.00">shape.hpp</text>
</a>
</g>
</g>
<!-- Node5&#45;&gt;Node13 -->
<g id="edge12_Node000005_Node000013" class="edge">
<title>Node5&#45;&gt;Node13</title>
<g id="a_edge12_Node000005_Node000013"><a xlink:title=" ">
<path fill="none" stroke="#63b8ff" d="M337.28,-109.98C361.73,-101.23 400.03,-87.51 427.65,-77.62"/>
<polygon fill="#63b8ff" stroke="#63b8ff" points="429.05,-80.84 437.29,-74.17 426.69,-74.25 429.05,-80.84"/>
</a>
</g>
</g>
<!-- Node16 -->
<g id="Node000016" class="node">
<title>Node16</title>
<g id="a_Node000016"><a xlink:title=" ">
<polygon fill="#e0e0e0" stroke="#999999" points="569.5,-74 513.5,-74 513.5,-55 569.5,-55 569.5,-74"/>
<text text-anchor="middle" x="541.5" y="-62" font-family="Helvetica,sans-Serif" font-size="10.00">optional</text>
</a>
</g>
</g>
<!-- Node5&#45;&gt;Node16 -->
<g id="edge15_Node000005_Node000016" class="edge">
<title>Node5&#45;&gt;Node16</title>
<g id="a_edge15_Node000005_Node000016"><a xlink:title=" ">
<path fill="none" stroke="#63b8ff" d="M340.25,-111.97C343.03,-111.3 345.82,-110.63 348.5,-110 402.25,-97.28 464.54,-83 503.49,-74.13"/>
<polygon fill="#63b8ff" stroke="#63b8ff" points="504.37,-77.51 513.35,-71.88 502.82,-70.69 504.37,-77.51"/>
</a>
</g>
</g>
<!-- Node5&#45;&gt;Node17 -->
<g id="edge16_Node000005_Node000017" class="edge">
<title>Node5&#45;&gt;Node17</title>
<g id="a_edge16_Node000005_Node000017"><a xlink:title=" ">
<path fill="none" stroke="#63b8ff" d="M340.17,-111.57C342.97,-110.98 345.78,-110.44 348.5,-110 532.92,-80.05 756.92,-69.64 842.72,-66.6"/>
<polygon fill="#63b8ff" stroke="#63b8ff" points="843.08,-70.09 852.95,-66.25 842.84,-63.09 843.08,-70.09"/>
</a>
</g>
</g>
<!-- Node8 -->
<g id="Node000008" class="node">
<title>Node8</title>
<g id="a_Node000008"><a xlink:title=" ">
<polygon fill="#e0e0e0" stroke="#999999" points="93,-19 0,-19 0,0 93,0 93,-19"/>
<text text-anchor="middle" x="46.5" y="-7" font-family="Helvetica,sans-Serif" font-size="10.00">unordered_map</text>
</a>
</g>
</g>
<!-- Node7&#45;&gt;Node8 -->
<g id="edge7_Node000007_Node000008" class="edge">
<title>Node7&#45;&gt;Node8</title>
<g id="a_edge7_Node000007_Node000008"><a xlink:title=" ">
<path fill="none" stroke="#63b8ff" d="M282.94,-56.95C279.75,-56.29 276.56,-55.63 273.5,-55 214.79,-43.01 147.4,-29.88 101.39,-21.01"/>
<polygon fill="#63b8ff" stroke="#63b8ff" points="101.82,-17.53 91.34,-19.07 100.49,-24.4 101.82,-17.53"/>
</a>
</g>
</g>
<!-- Node9 -->
<g id="Node000009" class="node">
<title>Node9</title>
<g id="a_Node000009"><a xlink:title=" ">
<polygon fill="#e0e0e0" stroke="#999999" points="152,-19 111,-19 111,0 152,0 152,-19"/>
<text text-anchor="middle" x="131.5" y="-7" font-family="Helvetica,sans-Serif" font-size="10.00">tuple</text>
</a>
</g>
</g>
<!-- Node7&#45;&gt;Node9 -->
<g id="edge8_Node000007_Node000009" class="edge">
<title>Node7&#45;&gt;Node9</title>
<g id="a_edge8_Node000007_Node000009"><a xlink:title=" ">
<path fill="none" stroke="#63b8ff" d="M284.16,-54.99C255.29,-46.6 209.67,-33.35 161.71,-19.35"/>
<polygon fill="#63b8ff" stroke="#63b8ff" points="162.67,-15.98 152.09,-16.54 160.71,-22.7 162.67,-15.98"/>
</a>
</g>
</g>
<!-- Node10 -->
<g id="Node000010" class="node">
<title>Node10</title>
<g id="a_Node000010"><a xlink:title=" ">
<polygon fill="#e0e0e0" stroke="#999999" points="461.5,-19 343.5,-19 343.5,0 461.5,0 461.5,-19"/>
<text text-anchor="middle" x="402.5" y="-7" font-family="Helvetica,sans-Serif" font-size="10.00">SDL2/SDL_keycode.h</text>
</a>
</g>
</g>
<!-- Node7&#45;&gt;Node10 -->
<g id="edge9_Node000007_Node000010" class="edge">
<title>Node7&#45;&gt;Node10</title>
<g id="a_edge9_Node000007_Node000010"><a xlink:title=" ">
<path fill="none" stroke="#63b8ff" d="M327.8,-54.98C341.6,-46.77 362.74,-34.18 379.01,-24.49"/>
<polygon fill="#63b8ff" stroke="#63b8ff" points="381.14,-27.29 387.94,-19.17 377.56,-21.28 381.14,-27.29"/>
</a>
</g>
</g>
<!-- Node11 -->
<g id="Node000011" class="node">
<title>Node11</title>
<g id="a_Node000011"><a xlink:title=" ">
<polygon fill="#e0e0e0" stroke="#999999" points="325,-19 170,-19 170,0 325,0 325,-19"/>
<text text-anchor="middle" x="247.5" y="-7" font-family="Helvetica,sans-Serif" font-size="10.00">SFML/Window/Keyboard.hpp</text>
</a>
</g>
</g>
<!-- Node7&#45;&gt;Node11 -->
<g id="edge10_Node000007_Node000011" class="edge">
<title>Node7&#45;&gt;Node11</title>
<g id="a_edge10_Node000007_Node000011"><a xlink:title=" ">
<path fill="none" stroke="#63b8ff" d="M302.9,-54.98C293.04,-47.07 278.15,-35.11 266.28,-25.58"/>
<polygon fill="#63b8ff" stroke="#63b8ff" points="268.29,-22.7 258.3,-19.17 263.9,-28.16 268.29,-22.7"/>
</a>
</g>
</g>
<!-- Node12 -->
<g id="Node000012" class="node">
<title>Node12</title>
<g id="a_Node000012"><a xlink:title=" ">
<polygon fill="#e0e0e0" stroke="#999999" points="543,-19 480,-19 480,0 543,0 543,-19"/>
<text text-anchor="middle" x="511.5" y="-7" font-family="Helvetica,sans-Serif" font-size="10.00">ncurses.h</text>
</a>
</g>
</g>
<!-- Node7&#45;&gt;Node12 -->
<g id="edge11_Node000007_Node000012" class="edge">
<title>Node7&#45;&gt;Node12</title>
<g id="a_edge11_Node000007_Node000012"><a xlink:title=" ">
<path fill="none" stroke="#63b8ff" d="M344,-55.33C377.72,-46.31 432.22,-31.72 469.84,-21.65"/>
<polygon fill="#63b8ff" stroke="#63b8ff" points="471.22,-24.9 479.98,-18.94 469.41,-18.14 471.22,-24.9"/>
</a>
</g>
</g>
<!-- Node14 -->
<g id="Node000014" class="node">
<title>Node14</title>
<g id="a_Node000014"><a xlink:title=" ">
<polygon fill="#e0e0e0" stroke="#999999" points="626,-19 561,-19 561,0 626,0 626,-19"/>
<text text-anchor="middle" x="593.5" y="-7" font-family="Helvetica,sans-Serif" font-size="10.00">functional</text>
</a>
</g>
</g>
<!-- Node13&#45;&gt;Node14 -->
<g id="edge13_Node000013_Node000014" class="edge">
<title>Node13&#45;&gt;Node14</title>
<g id="a_edge13_Node000013_Node000014"><a xlink:title=" ">
<path fill="none" stroke="#63b8ff" d="M482.71,-54.98C504.23,-46.34 537.78,-32.87 562.33,-23.02"/>
<polygon fill="#63b8ff" stroke="#63b8ff" points="563.93,-26.14 571.91,-19.17 561.32,-19.65 563.93,-26.14"/>
</a>
</g>
</g>
<!-- Node15 -->
<g id="Node000015" class="node">
<title>Node15</title>
<g id="a_Node000015"><a xlink:title=" ">
<polygon fill="#e0e0e0" stroke="#999999" points="840.5,-19 796.5,-19 796.5,0 840.5,0 840.5,-19"/>
<text text-anchor="middle" x="818.5" y="-7" font-family="Helvetica,sans-Serif" font-size="10.00">string</text>
</a>
</g>
</g>
<!-- Node13&#45;&gt;Node15 -->
<g id="edge14_Node000013_Node000015" class="edge">
<title>Node13&#45;&gt;Node15</title>
<g id="a_edge14_Node000013_Node000015"><a xlink:title=" ">
<path fill="none" stroke="#63b8ff" d="M495.27,-56.64C498.39,-56.07 501.5,-55.51 504.5,-55 607,-37.62 729.13,-21.67 786.16,-14.49"/>
<polygon fill="#63b8ff" stroke="#63b8ff" points="786.87,-17.93 796.36,-13.22 786,-10.99 786.87,-17.93"/>
</a>
</g>
</g>
<!-- Node19&#45;&gt;Node5 -->
<g id="edge19_Node000019_Node000005" class="edge">
<title>Node19&#45;&gt;Node5</title>
<g id="a_edge19_Node000019_Node000005"><a xlink:title=" ">
<path fill="none" stroke="#63b8ff" d="M317.67,-164.75C317.02,-157.8 316.08,-147.85 315.26,-139.13"/>
<polygon fill="#63b8ff" stroke="#63b8ff" points="318.73,-138.72 314.31,-129.09 311.77,-139.37 318.73,-138.72"/>
</a>
</g>
</g>
<!-- Node19&#45;&gt;Node18 -->
<g id="edge20_Node000019_Node000018" class="edge">
<title>Node19&#45;&gt;Node18</title>
<g id="a_edge20_Node000019_Node000018"><a xlink:title=" ">
<path fill="none" stroke="#63b8ff" d="M328.62,-164.98C337.94,-157.15 351.97,-145.34 363.24,-135.86"/>
<polygon fill="#63b8ff" stroke="#63b8ff" points="365.79,-138.29 371.19,-129.17 361.29,-132.93 365.79,-138.29"/>
</a>
</g>
</g>
<!-- Node20&#45;&gt;Node2 -->
<g id="edge32_Node000020_Node000002" class="edge">
<title>Node20&#45;&gt;Node2</title>
<g id="a_edge32_Node000020_Node000002"><a xlink:title=" ">
<path fill="none" stroke="#63b8ff" d="M888.39,-282.13C791.76,-277.86 494.98,-263.64 237.99,-239.08"/>
<polygon fill="#63b8ff" stroke="#63b8ff" points="238,-235.57 227.71,-238.09 237.33,-242.54 238,-235.57"/>
</a>
</g>
</g>
<!-- Node20&#45;&gt;Node4 -->
<g id="edge22_Node000020_Node000004" class="edge">
<title>Node20&#45;&gt;Node4</title>
<g id="a_edge22_Node000020_Node000004"><a xlink:title=" ">
<path fill="none" stroke="#63b8ff" d="M888.4,-282.25C800.81,-278.59 550.18,-266.46 331.72,-239.02"/>
<polygon fill="#63b8ff" stroke="#63b8ff" points="332.03,-235.53 321.67,-237.74 331.15,-242.48 332.03,-235.53"/>
</a>
</g>
</g>
<!-- Node20&#45;&gt;Node15 -->
<g id="edge31_Node000020_Node000015" class="edge">
<title>Node20&#45;&gt;Node15</title>
<g id="a_edge31_Node000020_Node000015"><a xlink:title=" ">
<path fill="none" stroke="#63b8ff" d="M927.66,-274.89C941.49,-257.36 970.5,-215.79 970.5,-175.5 970.5,-175.5 970.5,-175.5 970.5,-118.5 970.5,-60.09 894.98,-30.36 850.41,-17.91"/>
<polygon fill="#63b8ff" stroke="#63b8ff" points="851.17,-14.49 840.6,-15.3 849.37,-21.25 851.17,-14.49"/>
</a>
</g>
</g>
<!-- Node21 -->
<g id="Node000021" class="node">
<title>Node21</title>
<g id="a_Node000021"><a xlink:title=" ">
<polygon fill="#e0e0e0" stroke="#999999" points="942,-239 801,-239 801,-220 942,-220 942,-239"/>
<text text-anchor="middle" x="871.5" y="-227" font-family="Helvetica,sans-Serif" font-size="10.00">SFML/Window/Mouse.hpp</text>
</a>
</g>
</g>
<!-- Node20&#45;&gt;Node21 -->
<g id="edge23_Node000020_Node000021" class="edge">
<title>Node20&#45;&gt;Node21</title>
<g id="a_edge23_Node000020_Node000021"><a xlink:title=" ">
<path fill="none" stroke="#63b8ff" d="M912.41,-274.75C905.34,-267.11 894.91,-255.82 886.35,-246.56"/>
<polygon fill="#63b8ff" stroke="#63b8ff" points="888.8,-244.06 879.44,-239.09 883.66,-248.81 888.8,-244.06"/>
</a>
</g>
</g>
<!-- Node22 -->
<g id="Node000022" class="node">
<title>Node22</title>
<g id="a_Node000022"><a xlink:title=" ">
<polygon fill="#e0e0e0" stroke="#999999" points="1044.5,-239 998.5,-239 998.5,-220 1044.5,-220 1044.5,-239"/>
<text text-anchor="middle" x="1021.5" y="-227" font-family="Helvetica,sans-Serif" font-size="10.00">cstdio</text>
</a>
</g>
</g>
<!-- Node20&#45;&gt;Node22 -->
<g id="edge24_Node000020_Node000022" class="edge">
<title>Node20&#45;&gt;Node22</title>
<g id="a_edge24_Node000020_Node000022"><a xlink:title=" ">
<path fill="none" stroke="#63b8ff" d="M936.73,-274.98C952.68,-266.61 977.28,-253.7 995.88,-243.95"/>
<polygon fill="#63b8ff" stroke="#63b8ff" points="997.75,-246.92 1004.98,-239.17 994.5,-240.72 997.75,-246.92"/>
</a>
</g>
</g>
<!-- Node23 -->
<g id="Node000023" class="node">
<title>Node23</title>
<g id="a_Node000023"><a xlink:title=" ">
<polygon fill="#e0e0e0" stroke="#999999" points="445,-239 340,-239 340,-220 445,-220 445,-239"/>
<text text-anchor="middle" x="392.5" y="-227" font-family="Helvetica,sans-Serif" font-size="10.00">SFML/Window.hpp</text>
</a>
</g>
</g>
<!-- Node20&#45;&gt;Node23 -->
<g id="edge25_Node000020_Node000023" class="edge">
<title>Node20&#45;&gt;Node23</title>
<g id="a_edge25_Node000020_Node000023"><a xlink:title=" ">
<path fill="none" stroke="#63b8ff" d="M888.46,-280.93C814.19,-274.87 624.31,-258.78 455.14,-239.15"/>
<polygon fill="#63b8ff" stroke="#63b8ff" points="455.39,-235.65 445.05,-237.97 454.58,-242.61 455.39,-235.65"/>
</a>
</g>
</g>
<!-- Node20&#45;&gt;Node24 -->
<g id="edge26_Node000020_Node000024" class="edge">
<title>Node20&#45;&gt;Node24</title>
<g id="a_edge26_Node000020_Node000024"><a xlink:title=" ">
<path fill="none" stroke="#63b8ff" d="M952.55,-275.45C988.58,-266.4 1047.29,-251.65 1087.58,-241.53"/>
<polygon fill="#63b8ff" stroke="#63b8ff" points="1088.55,-244.9 1097.4,-239.07 1086.85,-238.11 1088.55,-244.9"/>
</a>
</g>
</g>
<!-- Node25 -->
<g id="Node000025" class="node">
<title>Node25</title>
<g id="a_Node000025"><a xlink:title=" ">
<polygon fill="#e0e0e0" stroke="#999999" points="654,-239 463,-239 463,-220 654,-220 654,-239"/>
<text text-anchor="middle" x="558.5" y="-227" font-family="Helvetica,sans-Serif" font-size="10.00">SFML/Graphics/RectangleShape.hpp</text>
</a>
</g>
</g>
<!-- Node20&#45;&gt;Node25 -->
<g id="edge27_Node000020_Node000025" class="edge">
<title>Node20&#45;&gt;Node25</title>
<g id="a_edge27_Node000020_Node000025"><a xlink:title=" ">
<path fill="none" stroke="#63b8ff" d="M888.37,-278.8C830,-270.25 705.34,-252 627.09,-240.54"/>
<polygon fill="#63b8ff" stroke="#63b8ff" points="627.24,-237.03 616.84,-239.04 626.22,-243.95 627.24,-237.03"/>
</a>
</g>
</g>
<!-- Node20&#45;&gt;Node26 -->
<g id="edge28_Node000020_Node000026" class="edge">
<title>Node20&#45;&gt;Node26</title>
<g id="a_edge28_Node000020_Node000026"><a xlink:title=" ">
<path fill="none" stroke="#63b8ff" d="M952.6,-278.89C1011.96,-270.36 1140.1,-251.96 1220.12,-240.46"/>
<polygon fill="#63b8ff" stroke="#63b8ff" points="1220.72,-243.92 1230.12,-239.03 1219.72,-236.99 1220.72,-243.92"/>
</a>
</g>
</g>
<!-- Node20&#45;&gt;Node27 -->
<g id="edge29_Node000020_Node000027" class="edge">
<title>Node20&#45;&gt;Node27</title>
<g id="a_edge29_Node000020_Node000027"><a xlink:title=" ">
<path fill="none" stroke="#63b8ff" d="M952.71,-280.44C1025.07,-273.54 1206.31,-256.12 1368.5,-239.2"/>
<polygon fill="#63b8ff" stroke="#63b8ff" points="1369.08,-242.66 1378.66,-238.14 1368.35,-235.7 1369.08,-242.66"/>
</a>
</g>
</g>
<!-- Node28 -->
<g id="Node000028" class="node">
<title>Node28</title>
<g id="a_Node000028"><a xlink:title=" ">
<polygon fill="#e0e0e0" stroke="#999999" points="782.5,-239 672.5,-239 672.5,-220 782.5,-220 782.5,-239"/>
<text text-anchor="middle" x="727.5" y="-227" font-family="Helvetica,sans-Serif" font-size="10.00">SFML/Graphics.hpp</text>
</a>
</g>
</g>
<!-- Node20&#45;&gt;Node28 -->
<g id="edge30_Node000020_Node000028" class="edge">
<title>Node20&#45;&gt;Node28</title>
<g id="a_edge30_Node000020_Node000028"><a xlink:title=" ">
<path fill="none" stroke="#63b8ff" d="M889.49,-274.98C856.67,-265.97 804.7,-251.7 768.51,-241.76"/>
<polygon fill="#63b8ff" stroke="#63b8ff" points="769.32,-238.36 758.75,-239.08 767.47,-245.11 769.32,-238.36"/>
</a>
</g>
</g>
</g>
</svg>
