<?xml version="1.0" encoding="UTF-8" standalone="no"?>
<!DOCTYPE svg PUBLIC "-//W3C//DTD SVG 1.1//EN"
 "http://www.w3.org/Graphics/SVG/1.1/DTD/svg11.dtd">
<!-- Generated by graphviz version 2.43.0 (0)
 -->
<!-- Title: graphics/SFML/include/SFML.hpp Pages: 1 -->
<svg width="1977pt" height="313pt"
 viewBox="0.00 0.00 1976.50 313.00" xmlns="http://www.w3.org/2000/svg" xmlns:xlink="http://www.w3.org/1999/xlink">
<g id="graph0" class="graph" transform="scale(1 1) rotate(0) translate(4 309)">
<title>graphics/SFML/include/SFML.hpp</title>
<!-- Node1 -->
<g id="Node000001" class="node">
<title>Node1</title>
<g id="a_Node000001"><a xlink:title=" ">
<polygon fill="#999999" stroke="#666666" points="1177,-305 1052,-305 1052,-275 1177,-275 1177,-305"/>
<text text-anchor="start" x="1060" y="-293" font-family="Helvetica,sans-Serif" font-size="10.00">graphics/SFML/include</text>
<text text-anchor="middle" x="1114.5" y="-282" font-family="Helvetica,sans-Serif" font-size="10.00">/SFML.hpp</text>
</a>
</g>
</g>
<!-- Node2 -->
<g id="Node000002" class="node">
<title>Node2</title>
<g id="a_Node000002"><a xlink:href="IDisplay_8hpp.html" target="_top" xlink:title=" ">
<polygon fill="white" stroke="#666666" points="625.5,-239 549.5,-239 549.5,-220 625.5,-220 625.5,-239"/>
<text text-anchor="middle" x="587.5" y="-227" font-family="Helvetica,sans-Serif" font-size="10.00">IDisplay.hpp</text>
</a>
</g>
</g>
<!-- Node1&#45;&gt;Node2 -->
<g id="edge1_Node000001_Node000002" class="edge">
<title>Node1&#45;&gt;Node2</title>
<g id="a_edge1_Node000001_Node000002"><a xlink:title=" ">
<path fill="none" stroke="#63b8ff" d="M1051.87,-282.44C963.64,-273.14 797.73,-255.41 656.5,-239 649.81,-238.22 642.77,-237.38 635.83,-236.54"/>
<polygon fill="#63b8ff" stroke="#63b8ff" points="636.16,-233.05 625.81,-235.32 635.31,-240 636.16,-233.05"/>
</a>
</g>
</g>
<!-- Node13 -->
<g id="Node000013" class="node">
<title>Node13</title>
<g id="a_Node000013"><a xlink:title=" ">
<polygon fill="#e0e0e0" stroke="#999999" points="691.5,-19 647.5,-19 647.5,0 691.5,0 691.5,-19"/>
<text text-anchor="middle" x="669.5" y="-7" font-family="Helvetica,sans-Serif" font-size="10.00">string</text>
</a>
</g>
</g>
<!-- Node1&#45;&gt;Node13 -->
<g id="edge27_Node000001_Node000013" class="edge">
<title>Node1&#45;&gt;Node13</title>
<g id="a_edge27_Node000001_Node000013"><a xlink:title=" ">
<path fill="none" stroke="#63b8ff" d="M1051.79,-289.8C947.12,-289.83 742.98,-283.91 689.5,-239 666.94,-220.05 670.5,-204.96 670.5,-175.5 670.5,-175.5 670.5,-175.5 670.5,-118.5 670.5,-87.19 670.07,-50.77 669.78,-29.23"/>
<polygon fill="#63b8ff" stroke="#63b8ff" points="673.28,-29.13 669.63,-19.18 666.28,-29.23 673.28,-29.13"/>
</a>
</g>
</g>
<!-- Node18 -->
<g id="Node000018" class="node">
<title>Node18</title>
<g id="a_Node000018"><a xlink:title=" ">
<polygon fill="#e0e0e0" stroke="#999999" points="840,-239 699,-239 699,-220 840,-220 840,-239"/>
<text text-anchor="middle" x="769.5" y="-227" font-family="Helvetica,sans-Serif" font-size="10.00">SFML/Window/Mouse.hpp</text>
</a>
</g>
</g>
<!-- Node1&#45;&gt;Node18 -->
<g id="edge19_Node000001_Node000018" class="edge">
<title>Node1&#45;&gt;Node18</title>
<g id="a_edge19_Node000001_Node000018"><a xlink:title=" ">
<path fill="none" stroke="#63b8ff" d="M1051.62,-278.34C988.47,-267.63 891.86,-251.25 829.68,-240.71"/>
<polygon fill="#63b8ff" stroke="#63b8ff" points="830.08,-237.22 819.63,-239 828.91,-244.12 830.08,-237.22"/>
</a>
</g>
</g>
<!-- Node19 -->
<g id="Node000019" class="node">
<title>Node19</title>
<g id="a_Node000019"><a xlink:title=" ">
<polygon fill="#e0e0e0" stroke="#999999" points="904.5,-239 858.5,-239 858.5,-220 904.5,-220 904.5,-239"/>
<text text-anchor="middle" x="881.5" y="-227" font-family="Helvetica,sans-Serif" font-size="10.00">cstdio</text>
</a>
</g>
</g>
<!-- Node1&#45;&gt;Node19 -->
<g id="edge20_Node000001_Node000019" class="edge">
<title>Node1&#45;&gt;Node19</title>
<g id="a_edge20_Node000001_Node000019"><a xlink:title=" ">
<path fill="none" stroke="#63b8ff" d="M1056.82,-274.91C1018.89,-265.58 967.9,-252.94 914.25,-239.16"/>
<polygon fill="#63b8ff" stroke="#63b8ff" points="915.12,-235.77 904.56,-236.67 913.37,-242.55 915.12,-235.77"/>
</a>
</g>
</g>
<!-- Node20 -->
<g id="Node000020" class="node">
<title>Node20</title>
<g id="a_Node000020"><a xlink:title=" ">
<polygon fill="#e0e0e0" stroke="#999999" points="1028,-239 923,-239 923,-220 1028,-220 1028,-239"/>
<text text-anchor="middle" x="975.5" y="-227" font-family="Helvetica,sans-Serif" font-size="10.00">SFML/Window.hpp</text>
</a>
</g>
</g>
<!-- Node1&#45;&gt;Node20 -->
<g id="edge21_Node000001_Node000020" class="edge">
<title>Node1&#45;&gt;Node20</title>
<g id="a_edge21_Node000001_Node000020"><a xlink:title=" ">
<path fill="none" stroke="#63b8ff" d="M1081.21,-274.99C1058.12,-265.27 1027.63,-252.44 1005.34,-243.06"/>
<polygon fill="#63b8ff" stroke="#63b8ff" points="1006.6,-239.79 996.03,-239.14 1003.89,-246.24 1006.6,-239.79"/>
</a>
</g>
</g>
<!-- Node21 -->
<g id="Node000021" class="node">
<title>Node21</title>
<g id="a_Node000021"><a xlink:title=" ">
<polygon fill="#e0e0e0" stroke="#999999" points="1183,-239 1046,-239 1046,-220 1183,-220 1183,-239"/>
<text text-anchor="middle" x="1114.5" y="-227" font-family="Helvetica,sans-Serif" font-size="10.00">SFML/Graphics/Color.hpp</text>
</a>
</g>
</g>
<!-- Node1&#45;&gt;Node21 -->
<g id="edge22_Node000001_Node000021" class="edge">
<title>Node1&#45;&gt;Node21</title>
<g id="a_edge22_Node000001_Node000021"><a xlink:title=" ">
<path fill="none" stroke="#63b8ff" d="M1114.5,-274.84C1114.5,-267.21 1114.5,-257.7 1114.5,-249.45"/>
<polygon fill="#63b8ff" stroke="#63b8ff" points="1118,-249.27 1114.5,-239.27 1111,-249.27 1118,-249.27"/>
</a>
</g>
</g>
<!-- Node22 -->
<g id="Node000022" class="node">
<title>Node22</title>
<g id="a_Node000022"><a xlink:title=" ">
<polygon fill="#e0e0e0" stroke="#999999" points="1392,-239 1201,-239 1201,-220 1392,-220 1392,-239"/>
<text text-anchor="middle" x="1296.5" y="-227" font-family="Helvetica,sans-Serif" font-size="10.00">SFML/Graphics/RectangleShape.hpp</text>
</a>
</g>
</g>
<!-- Node1&#45;&gt;Node22 -->
<g id="edge23_Node000001_Node000022" class="edge">
<title>Node1&#45;&gt;Node22</title>
<g id="a_edge23_Node000001_Node000022"><a xlink:title=" ">
<path fill="none" stroke="#63b8ff" d="M1158.09,-274.99C1189.23,-264.98 1230.64,-251.67 1260.03,-242.22"/>
<polygon fill="#63b8ff" stroke="#63b8ff" points="1261.44,-245.45 1269.89,-239.05 1259.3,-238.78 1261.44,-245.45"/>
</a>
</g>
</g>
<!-- Node23 -->
<g id="Node000023" class="node">
<title>Node23</title>
<g id="a_Node000023"><a xlink:title=" ">
<polygon fill="#e0e0e0" stroke="#999999" points="1553,-239 1410,-239 1410,-220 1553,-220 1553,-239"/>
<text text-anchor="middle" x="1481.5" y="-227" font-family="Helvetica,sans-Serif" font-size="10.00">SFML/System/Vector2.hpp</text>
</a>
</g>
</g>
<!-- Node1&#45;&gt;Node23 -->
<g id="edge24_Node000001_Node000023" class="edge">
<title>Node1&#45;&gt;Node23</title>
<g id="a_edge24_Node000001_Node000023"><a xlink:title=" ">
<path fill="none" stroke="#63b8ff" d="M1177.17,-279.01C1244.35,-268.3 1350.43,-251.39 1417.95,-240.63"/>
<polygon fill="#63b8ff" stroke="#63b8ff" points="1418.71,-244.05 1428.03,-239.02 1417.61,-237.14 1418.71,-244.05"/>
</a>
</g>
</g>
<!-- Node24 -->
<g id="Node000024" class="node">
<title>Node24</title>
<g id="a_Node000024"><a xlink:title=" ">
<polygon fill="#e0e0e0" stroke="#999999" points="1708,-239 1571,-239 1571,-220 1708,-220 1708,-239"/>
<text text-anchor="middle" x="1639.5" y="-227" font-family="Helvetica,sans-Serif" font-size="10.00">SFML/Window/Event.hpp</text>
</a>
</g>
</g>
<!-- Node1&#45;&gt;Node24 -->
<g id="edge25_Node000001_Node000024" class="edge">
<title>Node1&#45;&gt;Node24</title>
<g id="a_edge25_Node000001_Node000024"><a xlink:title=" ">
<path fill="none" stroke="#63b8ff" d="M1177.05,-282.03C1272.83,-271.36 1455.72,-250.98 1560.52,-239.3"/>
<polygon fill="#63b8ff" stroke="#63b8ff" points="1561.17,-242.75 1570.72,-238.16 1560.4,-235.79 1561.17,-242.75"/>
</a>
</g>
</g>
<!-- Node25 -->
<g id="Node000025" class="node">
<title>Node25</title>
<g id="a_Node000025"><a xlink:title=" ">
<polygon fill="#e0e0e0" stroke="#999999" points="1836.5,-239 1726.5,-239 1726.5,-220 1836.5,-220 1836.5,-239"/>
<text text-anchor="middle" x="1781.5" y="-227" font-family="Helvetica,sans-Serif" font-size="10.00">SFML/Graphics.hpp</text>
</a>
</g>
</g>
<!-- Node1&#45;&gt;Node25 -->
<g id="edge26_Node000001_Node000025" class="edge">
<title>Node1&#45;&gt;Node25</title>
<g id="a_edge26_Node000001_Node000025"><a xlink:title=" ">
<path fill="none" stroke="#63b8ff" d="M1177.43,-284.76C1285.3,-277.26 1512.71,-260.53 1716.22,-238.97"/>
<polygon fill="#63b8ff" stroke="#63b8ff" points="1716.63,-242.45 1726.2,-237.91 1715.89,-235.49 1716.63,-242.45"/>
</a>
</g>
</g>
<!-- Node26 -->
<g id="Node000026" class="node">
<title>Node26</title>
<g id="a_Node000026"><a xlink:href="DisplayVariable_8hpp.html" target="_top" xlink:title=" ">
<polygon fill="white" stroke="#666666" points="1968.5,-239 1854.5,-239 1854.5,-220 1968.5,-220 1968.5,-239"/>
<text text-anchor="middle" x="1911.5" y="-227" font-family="Helvetica,sans-Serif" font-size="10.00">DisplayVariable.hpp</text>
</a>
</g>
</g>
<!-- Node1&#45;&gt;Node26 -->
<g id="edge28_Node000001_Node000026" class="edge">
<title>Node1&#45;&gt;Node26</title>
<g id="a_edge28_Node000001_Node000026"><a xlink:title=" ">
<path fill="none" stroke="#63b8ff" d="M1177.19,-285.98C1302.05,-279.68 1590.9,-263.74 1844.16,-239.07"/>
<polygon fill="#63b8ff" stroke="#63b8ff" points="1844.68,-242.54 1854.29,-238.08 1843.99,-235.57 1844.68,-242.54"/>
</a>
</g>
</g>
<!-- Node3 -->
<g id="Node000003" class="node">
<title>Node3</title>
<g id="a_Node000003"><a xlink:href="gfx_8hpp.html" target="_top" xlink:title=" ">
<polygon fill="white" stroke="#666666" points="526,-129 473,-129 473,-110 526,-110 526,-129"/>
<text text-anchor="middle" x="499.5" y="-117" font-family="Helvetica,sans-Serif" font-size="10.00">gfx.hpp</text>
</a>
</g>
</g>
<!-- Node2&#45;&gt;Node3 -->
<g id="edge2_Node000002_Node000003" class="edge">
<title>Node2&#45;&gt;Node3</title>
<g id="a_edge2_Node000002_Node000003"><a xlink:title=" ">
<path fill="none" stroke="#63b8ff" d="M566.84,-219.98C551.4,-212.61 530.92,-200.52 518.5,-184 508.67,-170.92 503.9,-152.78 501.6,-139.24"/>
<polygon fill="#63b8ff" stroke="#63b8ff" points="505.04,-138.57 500.19,-129.15 498.11,-139.54 505.04,-138.57"/>
</a>
</g>
</g>
<!-- Node16 -->
<g id="Node000016" class="node">
<title>Node16</title>
<g id="a_Node000016"><a xlink:title=" ">
<polygon fill="#e0e0e0" stroke="#999999" points="617,-129 570,-129 570,-110 617,-110 617,-129"/>
<text text-anchor="middle" x="593.5" y="-117" font-family="Helvetica,sans-Serif" font-size="10.00">queue</text>
</a>
</g>
</g>
<!-- Node2&#45;&gt;Node16 -->
<g id="edge15_Node000002_Node000016" class="edge">
<title>Node2&#45;&gt;Node16</title>
<g id="a_edge15_Node000002_Node000016"><a xlink:title=" ">
<path fill="none" stroke="#63b8ff" d="M592.38,-219.98C597.06,-211.26 603.81,-197.17 606.5,-184 609.64,-168.67 605.53,-151.26 601.12,-138.55"/>
<polygon fill="#63b8ff" stroke="#63b8ff" points="604.36,-137.21 597.5,-129.13 597.82,-139.72 604.36,-137.21"/>
</a>
</g>
</g>
<!-- Node17 -->
<g id="Node000017" class="node">
<title>Node17</title>
<g id="a_Node000017"><a xlink:href="IGame_8hpp.html" target="_top" xlink:title=" ">
<polygon fill="white" stroke="#666666" points="597.5,-184 527.5,-184 527.5,-165 597.5,-165 597.5,-184"/>
<text text-anchor="middle" x="562.5" y="-172" font-family="Helvetica,sans-Serif" font-size="10.00">IGame.hpp</text>
</a>
</g>
</g>
<!-- Node2&#45;&gt;Node17 -->
<g id="edge16_Node000002_Node000017" class="edge">
<title>Node2&#45;&gt;Node17</title>
<g id="a_edge16_Node000002_Node000017"><a xlink:title=" ">
<path fill="none" stroke="#63b8ff" d="M583.37,-219.75C579.99,-212.57 575.08,-202.18 570.88,-193.27"/>
<polygon fill="#63b8ff" stroke="#63b8ff" points="573.98,-191.64 566.55,-184.09 567.65,-194.63 573.98,-191.64"/>
</a>
</g>
</g>
<!-- Node4 -->
<g id="Node000004" class="node">
<title>Node4</title>
<g id="a_Node000004"><a xlink:title=" ">
<polygon fill="#e0e0e0" stroke="#999999" points="334,-74 281,-74 281,-55 334,-55 334,-74"/>
<text text-anchor="middle" x="307.5" y="-62" font-family="Helvetica,sans-Serif" font-size="10.00">cstddef</text>
</a>
</g>
</g>
<!-- Node3&#45;&gt;Node4 -->
<g id="edge3_Node000003_Node000004" class="edge">
<title>Node3&#45;&gt;Node4</title>
<g id="a_edge3_Node000003_Node000004"><a xlink:title=" ">
<path fill="none" stroke="#63b8ff" d="M472.8,-111.13C439.37,-101.9 381.92,-86.04 344.32,-75.66"/>
<polygon fill="#63b8ff" stroke="#63b8ff" points="344.85,-72.18 334.28,-72.89 342.99,-78.93 344.85,-72.18"/>
</a>
</g>
</g>
<!-- Node5 -->
<g id="Node000005" class="node">
<title>Node5</title>
<g id="a_Node000005"><a xlink:href="Keys_8hpp.html" target="_top" xlink:title=" ">
<polygon fill="white" stroke="#666666" points="413,-74 352,-74 352,-55 413,-55 413,-74"/>
<text text-anchor="middle" x="382.5" y="-62" font-family="Helvetica,sans-Serif" font-size="10.00">Keys.hpp</text>
</a>
</g>
</g>
<!-- Node3&#45;&gt;Node5 -->
<g id="edge4_Node000003_Node000005" class="edge">
<title>Node3&#45;&gt;Node5</title>
<g id="a_edge4_Node000003_Node000005"><a xlink:title=" ">
<path fill="none" stroke="#63b8ff" d="M480.7,-109.98C461.88,-101.46 432.68,-88.23 411,-78.41"/>
<polygon fill="#63b8ff" stroke="#63b8ff" points="412.19,-75.11 401.64,-74.17 409.3,-81.48 412.19,-75.11"/>
</a>
</g>
</g>
<!-- Node11 -->
<g id="Node000011" class="node">
<title>Node11</title>
<g id="a_Node000011"><a xlink:href="shape_8hpp.html" target="_top" xlink:title=" ">
<polygon fill="white" stroke="#666666" points="498,-74 431,-74 431,-55 498,-55 498,-74"/>
<text text-anchor="middle" x="464.5" y="-62" font-family="Helvetica,sans-Serif" font-size="10.00">shape.hpp</text>
</a>
</g>
</g>
<!-- Node3&#45;&gt;Node11 -->
<g id="edge10_Node000003_Node000011" class="edge">
<title>Node3&#45;&gt;Node11</title>
<g id="a_edge10_Node000003_Node000011"><a xlink:title=" ">
<path fill="none" stroke="#63b8ff" d="M493.72,-109.75C488.88,-102.42 481.82,-91.73 475.86,-82.7"/>
<polygon fill="#63b8ff" stroke="#63b8ff" points="478.6,-80.5 470.17,-74.09 472.76,-84.36 478.6,-80.5"/>
</a>
</g>
</g>
<!-- Node14 -->
<g id="Node000014" class="node">
<title>Node14</title>
<g id="a_Node000014"><a xlink:title=" ">
<polygon fill="#e0e0e0" stroke="#999999" points="572.5,-74 516.5,-74 516.5,-55 572.5,-55 572.5,-74"/>
<text text-anchor="middle" x="544.5" y="-62" font-family="Helvetica,sans-Serif" font-size="10.00">optional</text>
</a>
</g>
</g>
<!-- Node3&#45;&gt;Node14 -->
<g id="edge13_Node000003_Node000014" class="edge">
<title>Node3&#45;&gt;Node14</title>
<g id="a_edge13_Node000003_Node000014"><a xlink:title=" ">
<path fill="none" stroke="#63b8ff" d="M506.93,-109.75C513.35,-102.18 522.81,-91.05 530.62,-81.84"/>
<polygon fill="#63b8ff" stroke="#63b8ff" points="533.4,-83.98 537.21,-74.09 528.07,-79.45 533.4,-83.98"/>
</a>
</g>
</g>
<!-- Node15 -->
<g id="Node000015" class="node">
<title>Node15</title>
<g id="a_Node000015"><a xlink:title=" ">
<polygon fill="#e0e0e0" stroke="#999999" points="642,-74 591,-74 591,-55 642,-55 642,-74"/>
<text text-anchor="middle" x="616.5" y="-62" font-family="Helvetica,sans-Serif" font-size="10.00">variant</text>
</a>
</g>
</g>
<!-- Node3&#45;&gt;Node15 -->
<g id="edge14_Node000003_Node000015" class="edge">
<title>Node3&#45;&gt;Node15</title>
<g id="a_edge14_Node000003_Node000015"><a xlink:title=" ">
<path fill="none" stroke="#63b8ff" d="M518.3,-109.98C537.12,-101.46 566.32,-88.23 588,-78.41"/>
<polygon fill="#63b8ff" stroke="#63b8ff" points="589.7,-81.48 597.36,-74.17 586.81,-75.11 589.7,-81.48"/>
</a>
</g>
</g>
<!-- Node6 -->
<g id="Node000006" class="node">
<title>Node6</title>
<g id="a_Node000006"><a xlink:title=" ">
<polygon fill="#e0e0e0" stroke="#999999" points="93,-19 0,-19 0,0 93,0 93,-19"/>
<text text-anchor="middle" x="46.5" y="-7" font-family="Helvetica,sans-Serif" font-size="10.00">unordered_map</text>
</a>
</g>
</g>
<!-- Node5&#45;&gt;Node6 -->
<g id="edge5_Node000005_Node000006" class="edge">
<title>Node5&#45;&gt;Node6</title>
<g id="a_edge5_Node000005_Node000006"><a xlink:title=" ">
<path fill="none" stroke="#63b8ff" d="M351.96,-56.81C348.77,-56.17 345.57,-55.56 342.5,-55 239.05,-36.3 210.24,-35.31 102.94,-19.21"/>
<polygon fill="#63b8ff" stroke="#63b8ff" points="103.42,-15.74 93.01,-17.7 102.37,-22.66 103.42,-15.74"/>
</a>
</g>
</g>
<!-- Node7 -->
<g id="Node000007" class="node">
<title>Node7</title>
<g id="a_Node000007"><a xlink:title=" ">
<polygon fill="#e0e0e0" stroke="#999999" points="152,-19 111,-19 111,0 152,0 152,-19"/>
<text text-anchor="middle" x="131.5" y="-7" font-family="Helvetica,sans-Serif" font-size="10.00">tuple</text>
</a>
</g>
</g>
<!-- Node5&#45;&gt;Node7 -->
<g id="edge6_Node000005_Node000007" class="edge">
<title>Node5&#45;&gt;Node7</title>
<g id="a_edge6_Node000005_Node000007"><a xlink:title=" ">
<path fill="none" stroke="#63b8ff" d="M351.93,-56.96C348.75,-56.29 345.56,-55.63 342.5,-55 265.3,-39.12 242.97,-38.24 162.24,-19.01"/>
<polygon fill="#63b8ff" stroke="#63b8ff" points="162.64,-15.51 152.1,-16.57 161,-22.31 162.64,-15.51"/>
</a>
</g>
</g>
<!-- Node8 -->
<g id="Node000008" class="node">
<title>Node8</title>
<g id="a_Node000008"><a xlink:title=" ">
<polygon fill="#e0e0e0" stroke="#999999" points="288.5,-19 170.5,-19 170.5,0 288.5,0 288.5,-19"/>
<text text-anchor="middle" x="229.5" y="-7" font-family="Helvetica,sans-Serif" font-size="10.00">SDL2/SDL_keycode.h</text>
</a>
</g>
</g>
<!-- Node5&#45;&gt;Node8 -->
<g id="edge7_Node000005_Node000008" class="edge">
<title>Node5&#45;&gt;Node8</title>
<g id="a_edge7_Node000005_Node000008"><a xlink:title=" ">
<path fill="none" stroke="#63b8ff" d="M357.92,-54.98C332.45,-46.16 292.46,-32.31 263.87,-22.41"/>
<polygon fill="#63b8ff" stroke="#63b8ff" points="264.87,-19.05 254.27,-19.08 262.58,-25.66 264.87,-19.05"/>
</a>
</g>
</g>
<!-- Node9 -->
<g id="Node000009" class="node">
<title>Node9</title>
<g id="a_Node000009"><a xlink:title=" ">
<polygon fill="#e0e0e0" stroke="#999999" points="462,-19 307,-19 307,0 462,0 462,-19"/>
<text text-anchor="middle" x="384.5" y="-7" font-family="Helvetica,sans-Serif" font-size="10.00">SFML/Window/Keyboard.hpp</text>
</a>
</g>
</g>
<!-- Node5&#45;&gt;Node9 -->
<g id="edge8_Node000005_Node000009" class="edge">
<title>Node5&#45;&gt;Node9</title>
<g id="a_edge8_Node000005_Node000009"><a xlink:title=" ">
<path fill="none" stroke="#63b8ff" d="M382.83,-54.75C383.09,-47.8 383.47,-37.85 383.8,-29.13"/>
<polygon fill="#63b8ff" stroke="#63b8ff" points="387.3,-29.21 384.18,-19.09 380.3,-28.95 387.3,-29.21"/>
</a>
</g>
</g>
<!-- Node10 -->
<g id="Node000010" class="node">
<title>Node10</title>
<g id="a_Node000010"><a xlink:title=" ">
<polygon fill="#e0e0e0" stroke="#999999" points="543,-19 480,-19 480,0 543,0 543,-19"/>
<text text-anchor="middle" x="511.5" y="-7" font-family="Helvetica,sans-Serif" font-size="10.00">ncurses.h</text>
</a>
</g>
</g>
<!-- Node5&#45;&gt;Node10 -->
<g id="edge9_Node000005_Node000010" class="edge">
<title>Node5&#45;&gt;Node10</title>
<g id="a_edge9_Node000005_Node000010"><a xlink:title=" ">
<path fill="none" stroke="#63b8ff" d="M403.23,-54.98C424.26,-46.34 457.05,-32.87 481.04,-23.02"/>
<polygon fill="#63b8ff" stroke="#63b8ff" points="482.48,-26.21 490.4,-19.17 479.82,-19.73 482.48,-26.21"/>
</a>
</g>
</g>
<!-- Node12 -->
<g id="Node000012" class="node">
<title>Node12</title>
<g id="a_Node000012"><a xlink:title=" ">
<polygon fill="#e0e0e0" stroke="#999999" points="626,-19 561,-19 561,0 626,0 626,-19"/>
<text text-anchor="middle" x="593.5" y="-7" font-family="Helvetica,sans-Serif" font-size="10.00">functional</text>
</a>
</g>
</g>
<!-- Node11&#45;&gt;Node12 -->
<g id="edge11_Node000011_Node000012" class="edge">
<title>Node11&#45;&gt;Node12</title>
<g id="a_edge11_Node000011_Node000012"><a xlink:title=" ">
<path fill="none" stroke="#63b8ff" d="M485.23,-54.98C506.26,-46.34 539.05,-32.87 563.04,-23.02"/>
<polygon fill="#63b8ff" stroke="#63b8ff" points="564.48,-26.21 572.4,-19.17 561.82,-19.73 564.48,-26.21"/>
</a>
</g>
</g>
<!-- Node11&#45;&gt;Node13 -->
<g id="edge12_Node000011_Node000013" class="edge">
<title>Node11&#45;&gt;Node13</title>
<g id="a_edge12_Node000011_Node000013"><a xlink:title=" ">
<path fill="none" stroke="#63b8ff" d="M497.44,-54.98C535.92,-45.03 599.18,-28.68 637.33,-18.82"/>
<polygon fill="#63b8ff" stroke="#63b8ff" points="638.58,-22.11 647.38,-16.22 636.83,-15.33 638.58,-22.11"/>
</a>
</g>
</g>
<!-- Node17&#45;&gt;Node3 -->
<g id="edge17_Node000017_Node000003" class="edge">
<title>Node17&#45;&gt;Node3</title>
<g id="a_edge17_Node000017_Node000003"><a xlink:title=" ">
<path fill="none" stroke="#63b8ff" d="M552.38,-164.98C543.06,-157.15 529.03,-145.34 517.76,-135.86"/>
<polygon fill="#63b8ff" stroke="#63b8ff" points="519.71,-132.93 509.81,-129.17 515.21,-138.29 519.71,-132.93"/>
</a>
</g>
</g>
<!-- Node17&#45;&gt;Node16 -->
<g id="edge18_Node000017_Node000016" class="edge">
<title>Node17&#45;&gt;Node16</title>
<g id="a_edge18_Node000017_Node000016"><a xlink:title=" ">
<path fill="none" stroke="#63b8ff" d="M567.62,-164.75C571.86,-157.49 578.03,-146.95 583.28,-137.98"/>
<polygon fill="#63b8ff" stroke="#63b8ff" points="586.45,-139.49 588.48,-129.09 580.41,-135.95 586.45,-139.49"/>
</a>
</g>
</g>
<!-- Node27 -->
<g id="Node000027" class="node">
<title>Node27</title>
<g id="a_Node000027"><a xlink:title=" ">
<polygon fill="#e0e0e0" stroke="#999999" points="1939.5,-184 1883.5,-184 1883.5,-165 1939.5,-165 1939.5,-184"/>
<text text-anchor="middle" x="1911.5" y="-172" font-family="Helvetica,sans-Serif" font-size="10.00">stddef.h</text>
</a>
</g>
</g>
<!-- Node26&#45;&gt;Node27 -->
<g id="edge29_Node000026_Node000027" class="edge">
<title>Node26&#45;&gt;Node27</title>
<g id="a_edge29_Node000026_Node000027"><a xlink:title=" ">
<path fill="none" stroke="#63b8ff" d="M1911.5,-219.75C1911.5,-212.8 1911.5,-202.85 1911.5,-194.13"/>
<polygon fill="#63b8ff" stroke="#63b8ff" points="1915,-194.09 1911.5,-184.09 1908,-194.09 1915,-194.09"/>
</a>
</g>
</g>
</g>
</svg>
