<?xml version="1.0" encoding="UTF-8" standalone="no"?>
<!DOCTYPE svg PUBLIC "-//W3C//DTD SVG 1.1//EN"
 "http://www.w3.org/Graphics/SVG/1.1/DTD/svg11.dtd">
<!-- Generated by graphviz version 2.43.0 (0)
 -->
<!-- Title: shared/include/shape.hpp Pages: 1 -->
<svg width="2118pt" height="401pt"
 viewBox="0.00 0.00 2117.88 401.00" xmlns="http://www.w3.org/2000/svg" xmlns:xlink="http://www.w3.org/1999/xlink">
<g id="graph0" class="graph" transform="scale(1 1) rotate(0) translate(4 397)">
<title>shared/include/shape.hpp</title>
<!-- Node1 -->
<g id="Node000001" class="node">
<title>Node1</title>
<g id="a_Node000001"><a xlink:title=" ">
<polygon fill="#999999" stroke="#666666" points="977,-393 836,-393 836,-374 977,-374 977,-393"/>
<text text-anchor="middle" x="906.5" y="-381" font-family="Helvetica,sans-Serif" font-size="10.00">shared/include/shape.hpp</text>
</a>
</g>
</g>
<!-- Node2 -->
<g id="Node000002" class="node">
<title>Node2</title>
<g id="a_Node000002"><a xlink:href="gfx_8hpp.html" target="_top" xlink:title=" ">
<polygon fill="white" stroke="#666666" points="970.5,-338 842.5,-338 842.5,-319 970.5,-319 970.5,-338"/>
<text text-anchor="middle" x="906.5" y="-326" font-family="Helvetica,sans-Serif" font-size="10.00">shared/include/gfx.hpp</text>
</a>
</g>
</g>
<!-- Node1&#45;&gt;Node2 -->
<g id="edge1_Node000001_Node000002" class="edge">
<title>Node1&#45;&gt;Node2</title>
<g id="a_edge1_Node000001_Node000002"><a xlink:title=" ">
<path fill="none" stroke="#63b8ff" d="M906.5,-363.66C906.5,-354.93 906.5,-344.99 906.5,-338.09"/>
<polygon fill="#63b8ff" stroke="#63b8ff" points="903,-363.75 906.5,-373.75 910,-363.75 903,-363.75"/>
</a>
</g>
</g>
<!-- Node3 -->
<g id="Node000003" class="node">
<title>Node3</title>
<g id="a_Node000003"><a xlink:href="Arcade_8hpp.html" target="_top" xlink:title=" ">
<polygon fill="white" stroke="#666666" points="1161.5,-79.5 1027.5,-79.5 1027.5,-60.5 1161.5,-60.5 1161.5,-79.5"/>
<text text-anchor="middle" x="1094.5" y="-67.5" font-family="Helvetica,sans-Serif" font-size="10.00">core/include/Arcade.hpp</text>
</a>
</g>
</g>
<!-- Node2&#45;&gt;Node3 -->
<g id="edge2_Node000002_Node000003" class="edge">
<title>Node2&#45;&gt;Node3</title>
<g id="a_edge2_Node000002_Node000003"><a xlink:title=" ">
<path fill="none" stroke="#63b8ff" d="M889.8,-311.37C882.81,-303.53 875.41,-293.53 871.5,-283 846.22,-215 837.85,-169.84 891.5,-121 912.17,-102.19 981.43,-87.91 1033.34,-79.53"/>
<polygon fill="#63b8ff" stroke="#63b8ff" points="887.34,-313.86 896.77,-318.69 892.41,-309.04 887.34,-313.86"/>
</a>
</g>
</g>
<!-- Node4 -->
<g id="Node000004" class="node">
<title>Node4</title>
<g id="a_Node000004"><a xlink:href="Arcade_8cpp.html" target="_top" xlink:title=" ">
<polygon fill="white" stroke="#666666" points="1039.5,-19 927.5,-19 927.5,0 1039.5,0 1039.5,-19"/>
<text text-anchor="middle" x="983.5" y="-7" font-family="Helvetica,sans-Serif" font-size="10.00">core/src/Arcade.cpp</text>
</a>
</g>
</g>
<!-- Node2&#45;&gt;Node4 -->
<g id="edge5_Node000002_Node000004" class="edge">
<title>Node2&#45;&gt;Node4</title>
<g id="a_edge5_Node000002_Node000004"><a xlink:title=" ">
<path fill="none" stroke="#63b8ff" d="M884.22,-312.68C874.45,-304.99 863.8,-294.75 857.5,-283 823.48,-219.52 825.59,-183.43 861.5,-121 888.71,-73.68 943.23,-35.46 969.16,-19.1"/>
<polygon fill="#63b8ff" stroke="#63b8ff" points="882.32,-315.62 892.44,-318.74 886.47,-309.99 882.32,-315.62"/>
</a>
</g>
</g>
<!-- Node6 -->
<g id="Node000006" class="node">
<title>Node6</title>
<g id="a_Node000006"><a xlink:href="Menu_8hpp.html" target="_top" xlink:title=" ">
<polygon fill="white" stroke="#666666" points="1009.5,-217 891.5,-217 891.5,-187 1009.5,-187 1009.5,-217"/>
<text text-anchor="start" x="899.5" y="-205" font-family="Helvetica,sans-Serif" font-size="10.00">games/Menu/include</text>
<text text-anchor="middle" x="950.5" y="-194" font-family="Helvetica,sans-Serif" font-size="10.00">/Menu.hpp</text>
</a>
</g>
</g>
<!-- Node2&#45;&gt;Node6 -->
<g id="edge6_Node000002_Node000006" class="edge">
<title>Node2&#45;&gt;Node6</title>
<g id="a_edge6_Node000002_Node000006"><a xlink:title=" ">
<path fill="none" stroke="#63b8ff" d="M912.95,-309.24C921.79,-284.23 937.49,-239.82 945.5,-217.16"/>
<polygon fill="#63b8ff" stroke="#63b8ff" points="909.56,-308.35 909.52,-318.94 916.16,-310.68 909.56,-308.35"/>
</a>
</g>
</g>
<!-- Node7 -->
<g id="Node000007" class="node">
<title>Node7</title>
<g id="a_Node000007"><a xlink:href="Menu_8cpp.html" target="_top" xlink:title=" ">
<polygon fill="white" stroke="#666666" points="1047,-145.5 900,-145.5 900,-126.5 1047,-126.5 1047,-145.5"/>
<text text-anchor="middle" x="973.5" y="-133.5" font-family="Helvetica,sans-Serif" font-size="10.00">games/Menu/src/Menu.cpp</text>
</a>
</g>
</g>
<!-- Node2&#45;&gt;Node7 -->
<g id="edge10_Node000002_Node000007" class="edge">
<title>Node2&#45;&gt;Node7</title>
<g id="a_edge10_Node000002_Node000007"><a xlink:title=" ">
<path fill="none" stroke="#63b8ff" d="M896.46,-309.87C881.95,-281.84 859.27,-226.27 882.5,-187 895.07,-165.74 920.25,-152.92 940.94,-145.59"/>
<polygon fill="#63b8ff" stroke="#63b8ff" points="893.49,-311.75 901.33,-318.87 899.65,-308.41 893.49,-311.75"/>
</a>
</g>
</g>
<!-- Node8 -->
<g id="Node000008" class="node">
<title>Node8</title>
<g id="a_Node000008"><a xlink:href="MenuUtils_8hpp.html" target="_top" xlink:title=" ">
<polygon fill="white" stroke="#666666" points="2045.5,-283 1927.5,-283 1927.5,-253 2045.5,-253 2045.5,-283"/>
<text text-anchor="start" x="1935.5" y="-271" font-family="Helvetica,sans-Serif" font-size="10.00">games/Menu/include</text>
<text text-anchor="middle" x="1986.5" y="-260" font-family="Helvetica,sans-Serif" font-size="10.00">/MenuUtils.hpp</text>
</a>
</g>
</g>
<!-- Node2&#45;&gt;Node8 -->
<g id="edge8_Node000002_Node000008" class="edge">
<title>Node2&#45;&gt;Node8</title>
<g id="a_edge8_Node000002_Node000008"><a xlink:title=" ">
<path fill="none" stroke="#63b8ff" d="M980.95,-328.27C1148.89,-329.11 1569.77,-326.29 1918.5,-283 1921.37,-282.64 1924.3,-282.23 1927.25,-281.78"/>
<polygon fill="#63b8ff" stroke="#63b8ff" points="980.75,-324.76 970.73,-328.21 980.71,-331.76 980.75,-324.76"/>
</a>
</g>
</g>
<!-- Node9 -->
<g id="Node000009" class="node">
<title>Node9</title>
<g id="a_Node000009"><a xlink:href="MenuUtils_8cpp.html" target="_top" xlink:title=" ">
<polygon fill="white" stroke="#666666" points="2087.5,-211.5 1917.5,-211.5 1917.5,-192.5 2087.5,-192.5 2087.5,-211.5"/>
<text text-anchor="middle" x="2002.5" y="-199.5" font-family="Helvetica,sans-Serif" font-size="10.00">games/Menu/src/MenuUtils.cpp</text>
</a>
</g>
</g>
<!-- Node2&#45;&gt;Node9 -->
<g id="edge11_Node000002_Node000009" class="edge">
<title>Node2&#45;&gt;Node9</title>
<g id="a_edge11_Node000002_Node000009"><a xlink:title=" ">
<path fill="none" stroke="#63b8ff" d="M980.77,-327.42C1229.12,-326.79 2017.25,-321.72 2054.5,-283 2076.32,-260.32 2037.11,-227.24 2015.44,-211.69"/>
<polygon fill="#63b8ff" stroke="#63b8ff" points="980.74,-323.92 970.75,-327.44 980.76,-330.92 980.74,-323.92"/>
</a>
</g>
</g>
<!-- Node10 -->
<g id="Node000010" class="node">
<title>Node10</title>
<g id="a_Node000010"><a xlink:href="MineSweeper_8hpp.html" target="_top" xlink:title=" ">
<polygon fill="white" stroke="#666666" points="1577,-151 1420,-151 1420,-121 1577,-121 1577,-151"/>
<text text-anchor="start" x="1428" y="-139" font-family="Helvetica,sans-Serif" font-size="10.00">games/MineSweeper/include</text>
<text text-anchor="middle" x="1498.5" y="-128" font-family="Helvetica,sans-Serif" font-size="10.00">/MineSweeper.hpp</text>
</a>
</g>
</g>
<!-- Node2&#45;&gt;Node10 -->
<g id="edge12_Node000002_Node000010" class="edge">
<title>Node2&#45;&gt;Node10</title>
<g id="a_edge12_Node000002_Node000010"><a xlink:title=" ">
<path fill="none" stroke="#63b8ff" d="M980.97,-325.96C1058.82,-322.7 1183.82,-312.79 1287.5,-283 1353.23,-264.11 1371.67,-257.88 1426.5,-217 1452.12,-197.9 1475.64,-168.62 1488.43,-151.29"/>
<polygon fill="#63b8ff" stroke="#63b8ff" points="980.64,-322.47 970.78,-326.36 980.91,-329.46 980.64,-322.47"/>
</a>
</g>
</g>
<!-- Node13 -->
<g id="Node000013" class="node">
<title>Node13</title>
<g id="a_Node000013"><a xlink:href="Snake_8hpp.html" target="_top" xlink:title=" ">
<polygon fill="white" stroke="#666666" points="1773.5,-151 1653.5,-151 1653.5,-121 1773.5,-121 1773.5,-151"/>
<text text-anchor="start" x="1661.5" y="-139" font-family="Helvetica,sans-Serif" font-size="10.00">games/Snake/include</text>
<text text-anchor="middle" x="1713.5" y="-128" font-family="Helvetica,sans-Serif" font-size="10.00">/Snake.hpp</text>
</a>
</g>
</g>
<!-- Node2&#45;&gt;Node13 -->
<g id="edge15_Node000002_Node000013" class="edge">
<title>Node2&#45;&gt;Node13</title>
<g id="a_edge15_Node000002_Node000013"><a xlink:title=" ">
<path fill="none" stroke="#63b8ff" d="M980.73,-324.92C1124.59,-319.48 1436.43,-305.47 1541.5,-283 1624.82,-265.18 1672.71,-286.86 1721.5,-217 1735.17,-197.43 1727.01,-168.31 1720.08,-151.13"/>
<polygon fill="#63b8ff" stroke="#63b8ff" points="980.53,-321.42 970.67,-325.29 980.79,-328.42 980.53,-321.42"/>
</a>
</g>
</g>
<!-- Node14 -->
<g id="Node000014" class="node">
<title>Node14</title>
<g id="a_Node000014"><a xlink:href="Snake_8cpp.html" target="_top" xlink:title=" ">
<polygon fill="white" stroke="#666666" points="1780.5,-79.5 1628.5,-79.5 1628.5,-60.5 1780.5,-60.5 1780.5,-79.5"/>
<text text-anchor="middle" x="1704.5" y="-67.5" font-family="Helvetica,sans-Serif" font-size="10.00">games/Snake/src/Snake.cpp</text>
</a>
</g>
</g>
<!-- Node2&#45;&gt;Node14 -->
<g id="edge17_Node000002_Node000014" class="edge">
<title>Node2&#45;&gt;Node14</title>
<g id="a_edge17_Node000002_Node000014"><a xlink:title=" ">
<path fill="none" stroke="#63b8ff" d="M980.95,-326.91C1230.95,-324.62 2027.21,-314.85 2071.5,-283 2107.3,-257.26 2122.88,-222.32 2096.5,-187 2056.26,-133.12 1860.8,-95.45 1761.97,-79.51"/>
<polygon fill="#63b8ff" stroke="#63b8ff" points="980.84,-323.41 970.87,-327 980.9,-330.41 980.84,-323.41"/>
</a>
</g>
</g>
<!-- Node15 -->
<g id="Node000015" class="node">
<title>Node15</title>
<g id="a_Node000015"><a xlink:href="Ncurses_8hpp.html" target="_top" xlink:title=" ">
<polygon fill="white" stroke="#666666" points="175.5,-151 37.5,-151 37.5,-121 175.5,-121 175.5,-151"/>
<text text-anchor="start" x="45.5" y="-139" font-family="Helvetica,sans-Serif" font-size="10.00">graphics/Ncurses/include</text>
<text text-anchor="middle" x="106.5" y="-128" font-family="Helvetica,sans-Serif" font-size="10.00">/Ncurses.hpp</text>
</a>
</g>
</g>
<!-- Node2&#45;&gt;Node15 -->
<g id="edge18_Node000002_Node000015" class="edge">
<title>Node2&#45;&gt;Node15</title>
<g id="a_edge18_Node000002_Node000015"><a xlink:title=" ">
<path fill="none" stroke="#63b8ff" d="M832.27,-326.86C659.88,-324.8 243.02,-316.4 189.5,-283 140.52,-252.44 117.66,-181.81 109.81,-151.38"/>
<polygon fill="#63b8ff" stroke="#63b8ff" points="832.23,-330.36 842.27,-326.97 832.31,-323.36 832.23,-330.36"/>
</a>
</g>
</g>
<!-- Node16 -->
<g id="Node000016" class="node">
<title>Node16</title>
<g id="a_Node000016"><a xlink:href="Ncurses_8cpp.html" target="_top" xlink:title=" ">
<polygon fill="white" stroke="#666666" points="117,-85 0,-85 0,-55 117,-55 117,-85"/>
<text text-anchor="start" x="8" y="-73" font-family="Helvetica,sans-Serif" font-size="10.00">graphics/Ncurses/src</text>
<text text-anchor="middle" x="58.5" y="-62" font-family="Helvetica,sans-Serif" font-size="10.00">/Ncurses.cpp</text>
</a>
</g>
</g>
<!-- Node2&#45;&gt;Node16 -->
<g id="edge20_Node000002_Node000016" class="edge">
<title>Node2&#45;&gt;Node16</title>
<g id="a_edge20_Node000002_Node000016"><a xlink:title=" ">
<path fill="none" stroke="#63b8ff" d="M832.44,-326.17C655.02,-322.53 215.86,-310.82 155.5,-283 81.57,-248.92 58.93,-226.51 28.5,-151 19.3,-128.16 34.64,-101.3 46.57,-85.24"/>
<polygon fill="#63b8ff" stroke="#63b8ff" points="832.4,-329.67 842.47,-326.37 832.55,-322.67 832.4,-329.67"/>
</a>
</g>
</g>
<!-- Node17 -->
<g id="Node000017" class="node">
<title>Node17</title>
<g id="a_Node000017"><a xlink:href="SDL2_8hpp.html" target="_top" xlink:title=" ">
<polygon fill="white" stroke="#666666" points="355.5,-151 231.5,-151 231.5,-121 355.5,-121 355.5,-151"/>
<text text-anchor="start" x="239.5" y="-139" font-family="Helvetica,sans-Serif" font-size="10.00">graphics/SDL2/include</text>
<text text-anchor="middle" x="293.5" y="-128" font-family="Helvetica,sans-Serif" font-size="10.00">/SDL2.hpp</text>
</a>
</g>
</g>
<!-- Node2&#45;&gt;Node17 -->
<g id="edge21_Node000002_Node000017" class="edge">
<title>Node2&#45;&gt;Node17</title>
<g id="a_edge21_Node000002_Node000017"><a xlink:title=" ">
<path fill="none" stroke="#63b8ff" d="M832.01,-328.01C711.17,-327.67 478.76,-321.78 407.5,-283 351.57,-252.56 313.96,-181.87 299.79,-151.4"/>
<polygon fill="#63b8ff" stroke="#63b8ff" points="832.28,-331.51 842.28,-328.03 832.29,-324.51 832.28,-331.51"/>
</a>
</g>
</g>
<!-- Node18 -->
<g id="Node000018" class="node">
<title>Node18</title>
<g id="a_Node000018"><a xlink:href="SDL2_8cpp.html" target="_top" xlink:title=" ">
<polygon fill="white" stroke="#666666" points="369,-79.5 218,-79.5 218,-60.5 369,-60.5 369,-79.5"/>
<text text-anchor="middle" x="293.5" y="-67.5" font-family="Helvetica,sans-Serif" font-size="10.00">graphics/SDL2/src/SDL2.cpp</text>
</a>
</g>
</g>
<!-- Node2&#45;&gt;Node18 -->
<g id="edge23_Node000002_Node000018" class="edge">
<title>Node2&#45;&gt;Node18</title>
<g id="a_edge23_Node000002_Node000018"><a xlink:title=" ">
<path fill="none" stroke="#63b8ff" d="M832.39,-327.28C704.47,-325.92 448.11,-318.67 366.5,-283 286.95,-248.23 257.46,-230.47 222.5,-151 217.13,-138.8 216.36,-132.84 222.5,-121 232.78,-101.19 254.9,-87.58 271.74,-79.61"/>
<polygon fill="#63b8ff" stroke="#63b8ff" points="832.46,-330.78 842.49,-327.37 832.53,-323.78 832.46,-330.78"/>
</a>
</g>
</g>
<!-- Node19 -->
<g id="Node000019" class="node">
<title>Node19</title>
<g id="a_Node000019"><a xlink:href="SFML_8cpp.html" target="_top" xlink:title=" ">
<polygon fill="white" stroke="#666666" points="589.5,-79.5 435.5,-79.5 435.5,-60.5 589.5,-60.5 589.5,-79.5"/>
<text text-anchor="middle" x="512.5" y="-67.5" font-family="Helvetica,sans-Serif" font-size="10.00">graphics/SFML/src/SFML.cpp</text>
</a>
</g>
</g>
<!-- Node2&#45;&gt;Node19 -->
<g id="edge24_Node000002_Node000019" class="edge">
<title>Node2&#45;&gt;Node19</title>
<g id="a_edge24_Node000002_Node000019"><a xlink:title=" ">
<path fill="none" stroke="#63b8ff" d="M832.76,-317.31C751.69,-303.71 619.65,-274.37 519.5,-217 471.55,-189.54 414.89,-169.96 440.5,-121 450.94,-101.04 473.37,-87.45 490.44,-79.53"/>
<polygon fill="#63b8ff" stroke="#63b8ff" points="832.44,-320.8 842.88,-318.97 833.57,-313.89 832.44,-320.8"/>
</a>
</g>
</g>
<!-- Node20 -->
<g id="Node000020" class="node">
<title>Node20</title>
<g id="a_Node000020"><a xlink:href="GameMatrix_8hpp.html" target="_top" xlink:title=" ">
<polygon fill="white" stroke="#666666" points="1691,-211.5 1518,-211.5 1518,-192.5 1691,-192.5 1691,-211.5"/>
<text text-anchor="middle" x="1604.5" y="-199.5" font-family="Helvetica,sans-Serif" font-size="10.00">shared/include/GameMatrix.hpp</text>
</a>
</g>
</g>
<!-- Node2&#45;&gt;Node20 -->
<g id="edge25_Node000002_Node000020" class="edge">
<title>Node2&#45;&gt;Node20</title>
<g id="a_edge25_Node000002_Node000020"><a xlink:title=" ">
<path fill="none" stroke="#63b8ff" d="M980.63,-327.36C1118.8,-326.23 1410.17,-319.43 1503.5,-283 1544.13,-267.14 1581.47,-229.02 1596.95,-211.76"/>
<polygon fill="#63b8ff" stroke="#63b8ff" points="980.52,-323.86 970.55,-327.44 980.57,-330.86 980.52,-323.86"/>
</a>
</g>
</g>
<!-- Node21 -->
<g id="Node000021" class="node">
<title>Node21</title>
<g id="a_Node000021"><a xlink:href="IDisplay_8hpp.html" target="_top" xlink:title=" ">
<polygon fill="white" stroke="#666666" points="678.5,-211.5 528.5,-211.5 528.5,-192.5 678.5,-192.5 678.5,-211.5"/>
<text text-anchor="middle" x="603.5" y="-199.5" font-family="Helvetica,sans-Serif" font-size="10.00">shared/include/IDisplay.hpp</text>
</a>
</g>
</g>
<!-- Node2&#45;&gt;Node21 -->
<g id="edge29_Node000002_Node000021" class="edge">
<title>Node2&#45;&gt;Node21</title>
<g id="a_edge29_Node000002_Node000021"><a xlink:title=" ">
<path fill="none" stroke="#63b8ff" d="M868.1,-315.96C841.3,-307.59 804.86,-295.58 773.5,-283 715.98,-259.93 650.2,-227.04 620.1,-211.61"/>
<polygon fill="#63b8ff" stroke="#63b8ff" points="867.28,-319.37 877.87,-318.99 869.35,-312.69 867.28,-319.37"/>
</a>
</g>
</g>
<!-- Node25 -->
<g id="Node000025" class="node">
<title>Node25</title>
<g id="a_Node000025"><a xlink:href="IGame_8hpp.html" target="_top" xlink:title=" ">
<polygon fill="white" stroke="#666666" points="1278.5,-277.5 1134.5,-277.5 1134.5,-258.5 1278.5,-258.5 1278.5,-277.5"/>
<text text-anchor="middle" x="1206.5" y="-265.5" font-family="Helvetica,sans-Serif" font-size="10.00">shared/include/IGame.hpp</text>
</a>
</g>
</g>
<!-- Node2&#45;&gt;Node25 -->
<g id="edge41_Node000002_Node000025" class="edge">
<title>Node2&#45;&gt;Node25</title>
<g id="a_edge41_Node000002_Node000025"><a xlink:title=" ">
<path fill="none" stroke="#63b8ff" d="M960.18,-317.03C1018.07,-305.74 1109.14,-287.98 1162.82,-277.52"/>
<polygon fill="#63b8ff" stroke="#63b8ff" points="959.27,-313.64 950.12,-318.99 960.61,-320.51 959.27,-313.64"/>
</a>
</g>
</g>
<!-- Node28 -->
<g id="Node000028" class="node">
<title>Node28</title>
<g id="a_Node000028"><a xlink:href="Utils_8hpp.html" target="_top" xlink:title=" ">
<polygon fill="white" stroke="#666666" points="1909.5,-277.5 1775.5,-277.5 1775.5,-258.5 1909.5,-258.5 1909.5,-277.5"/>
<text text-anchor="middle" x="1842.5" y="-265.5" font-family="Helvetica,sans-Serif" font-size="10.00">shared/include/Utils.hpp</text>
</a>
</g>
</g>
<!-- Node2&#45;&gt;Node28 -->
<g id="edge57_Node000002_Node000028" class="edge">
<title>Node2&#45;&gt;Node28</title>
<g id="a_edge57_Node000002_Node000028"><a xlink:title=" ">
<path fill="none" stroke="#63b8ff" d="M980.9,-326.61C1129.63,-324.16 1474.08,-315.2 1761.5,-283 1773.7,-281.63 1786.84,-279.61 1798.92,-277.51"/>
<polygon fill="#63b8ff" stroke="#63b8ff" points="980.47,-323.11 970.53,-326.77 980.58,-330.11 980.47,-323.11"/>
</a>
</g>
</g>
<!-- Node3&#45;&gt;Node4 -->
<g id="edge3_Node000003_Node000004" class="edge">
<title>Node3&#45;&gt;Node4</title>
<g id="a_edge3_Node000003_Node000004"><a xlink:title=" ">
<path fill="none" stroke="#63b8ff" d="M1069.03,-55.58C1047.79,-44.38 1018.17,-28.77 999.95,-19.17"/>
<polygon fill="#63b8ff" stroke="#63b8ff" points="1067.64,-58.8 1078.12,-60.37 1070.91,-52.61 1067.64,-58.8"/>
</a>
</g>
</g>
<!-- Node5 -->
<g id="Node000005" class="node">
<title>Node5</title>
<g id="a_Node000005"><a xlink:href="main_8cpp.html" target="_top" xlink:title=" ">
<polygon fill="white" stroke="#666666" points="1161,-19 1058,-19 1058,0 1161,0 1161,-19"/>
<text text-anchor="middle" x="1109.5" y="-7" font-family="Helvetica,sans-Serif" font-size="10.00">core/src/main.cpp</text>
</a>
</g>
</g>
<!-- Node3&#45;&gt;Node5 -->
<g id="edge4_Node000003_Node000005" class="edge">
<title>Node3&#45;&gt;Node5</title>
<g id="a_edge4_Node000003_Node000005"><a xlink:title=" ">
<path fill="none" stroke="#63b8ff" d="M1099.25,-50.49C1101.93,-40.01 1105.17,-27.39 1107.28,-19.17"/>
<polygon fill="#63b8ff" stroke="#63b8ff" points="1095.81,-49.81 1096.71,-60.37 1102.59,-51.55 1095.81,-49.81"/>
</a>
</g>
</g>
<!-- Node6&#45;&gt;Node7 -->
<g id="edge7_Node000006_Node000007" class="edge">
<title>Node6&#45;&gt;Node7</title>
<g id="a_edge7_Node000006_Node000007"><a xlink:title=" ">
<path fill="none" stroke="#63b8ff" d="M959.03,-177.28C962.97,-166.31 967.41,-153.94 970.32,-145.84"/>
<polygon fill="#63b8ff" stroke="#63b8ff" points="955.69,-176.2 955.6,-186.8 962.28,-178.57 955.69,-176.2"/>
</a>
</g>
</g>
<!-- Node8&#45;&gt;Node9 -->
<g id="edge9_Node000008_Node000009" class="edge">
<title>Node8&#45;&gt;Node9</title>
<g id="a_edge9_Node000008_Node000009"><a xlink:title=" ">
<path fill="none" stroke="#63b8ff" d="M1992.51,-242.94C1995.24,-232.06 1998.28,-219.86 2000.29,-211.84"/>
<polygon fill="#63b8ff" stroke="#63b8ff" points="1989.08,-242.25 1990.05,-252.8 1995.87,-243.94 1989.08,-242.25"/>
</a>
</g>
</g>
<!-- Node11 -->
<g id="Node000011" class="node">
<title>Node11</title>
<g id="a_Node000011"><a xlink:href="MineSweeper_8cpp.html" target="_top" xlink:title=" ">
<polygon fill="white" stroke="#666666" points="1581.5,-85 1445.5,-85 1445.5,-55 1581.5,-55 1581.5,-85"/>
<text text-anchor="start" x="1453.5" y="-73" font-family="Helvetica,sans-Serif" font-size="10.00">games/MineSweeper/src</text>
<text text-anchor="middle" x="1513.5" y="-62" font-family="Helvetica,sans-Serif" font-size="10.00">/MineSweeper.cpp</text>
</a>
</g>
</g>
<!-- Node10&#45;&gt;Node11 -->
<g id="edge13_Node000010_Node000011" class="edge">
<title>Node10&#45;&gt;Node11</title>
<g id="a_edge13_Node000010_Node000011"><a xlink:title=" ">
<path fill="none" stroke="#63b8ff" d="M1504.17,-110.83C1506.19,-102.17 1508.41,-92.7 1510.18,-85.16"/>
<polygon fill="#63b8ff" stroke="#63b8ff" points="1500.7,-110.26 1501.83,-120.8 1507.52,-111.86 1500.7,-110.26"/>
</a>
</g>
</g>
<!-- Node12 -->
<g id="Node000012" class="node">
<title>Node12</title>
<g id="a_Node000012"><a xlink:href="symEntry_8cpp.html" target="_top" xlink:title=" ">
<polygon fill="white" stroke="#666666" points="1427.5,-85 1291.5,-85 1291.5,-55 1427.5,-55 1427.5,-85"/>
<text text-anchor="start" x="1299.5" y="-73" font-family="Helvetica,sans-Serif" font-size="10.00">games/MineSweeper/src</text>
<text text-anchor="middle" x="1359.5" y="-62" font-family="Helvetica,sans-Serif" font-size="10.00">/symEntry.cpp</text>
</a>
</g>
</g>
<!-- Node10&#45;&gt;Node12 -->
<g id="edge14_Node000010_Node000012" class="edge">
<title>Node10&#45;&gt;Node12</title>
<g id="a_edge14_Node000010_Node000012"><a xlink:title=" ">
<path fill="none" stroke="#63b8ff" d="M1458.64,-116.65C1436.78,-106.58 1410.11,-94.3 1389.93,-85.01"/>
<polygon fill="#63b8ff" stroke="#63b8ff" points="1457.45,-119.95 1468,-120.95 1460.38,-113.59 1457.45,-119.95"/>
</a>
</g>
</g>
<!-- Node13&#45;&gt;Node14 -->
<g id="edge16_Node000013_Node000014" class="edge">
<title>Node13&#45;&gt;Node14</title>
<g id="a_edge16_Node000013_Node000014"><a xlink:title=" ">
<path fill="none" stroke="#63b8ff" d="M1710.07,-110.6C1708.55,-99.8 1706.86,-87.78 1705.74,-79.84"/>
<polygon fill="#63b8ff" stroke="#63b8ff" points="1706.64,-111.38 1711.5,-120.8 1713.58,-110.41 1706.64,-111.38"/>
</a>
</g>
</g>
<!-- Node15&#45;&gt;Node16 -->
<g id="edge19_Node000015_Node000016" class="edge">
<title>Node15&#45;&gt;Node16</title>
<g id="a_edge19_Node000015_Node000016"><a xlink:title=" ">
<path fill="none" stroke="#63b8ff" d="M89.64,-112.53C82.82,-103.43 75.15,-93.19 69.12,-85.16"/>
<polygon fill="#63b8ff" stroke="#63b8ff" points="87.05,-114.9 95.85,-120.8 92.65,-110.7 87.05,-114.9"/>
</a>
</g>
</g>
<!-- Node17&#45;&gt;Node18 -->
<g id="edge22_Node000017_Node000018" class="edge">
<title>Node17&#45;&gt;Node18</title>
<g id="a_edge22_Node000017_Node000018"><a xlink:title=" ">
<path fill="none" stroke="#63b8ff" d="M293.5,-110.6C293.5,-99.8 293.5,-87.78 293.5,-79.84"/>
<polygon fill="#63b8ff" stroke="#63b8ff" points="290,-110.8 293.5,-120.8 297,-110.8 290,-110.8"/>
</a>
</g>
</g>
<!-- Node20&#45;&gt;Node10 -->
<g id="edge26_Node000020_Node000010" class="edge">
<title>Node20&#45;&gt;Node10</title>
<g id="a_edge26_Node000020_Node000010"><a xlink:title=" ">
<path fill="none" stroke="#63b8ff" d="M1581.17,-186.91C1563.56,-176.28 1539.5,-161.75 1521.88,-151.12"/>
<polygon fill="#63b8ff" stroke="#63b8ff" points="1579.83,-190.2 1590.2,-192.37 1583.45,-184.2 1579.83,-190.2"/>
</a>
</g>
</g>
<!-- Node20&#45;&gt;Node13 -->
<g id="edge27_Node000020_Node000013" class="edge">
<title>Node20&#45;&gt;Node13</title>
<g id="a_edge27_Node000020_Node000013"><a xlink:title=" ">
<path fill="none" stroke="#63b8ff" d="M1627.99,-187.21C1646.14,-176.55 1671.17,-161.85 1689.46,-151.12"/>
<polygon fill="#63b8ff" stroke="#63b8ff" points="1626.05,-184.29 1619.2,-192.37 1629.6,-190.32 1626.05,-184.29"/>
</a>
</g>
</g>
<!-- Node20&#45;&gt;Node14 -->
<g id="edge28_Node000020_Node000014" class="edge">
<title>Node20&#45;&gt;Node14</title>
<g id="a_edge28_Node000020_Node000014"><a xlink:title=" ">
<path fill="none" stroke="#63b8ff" d="M1611.18,-182.56C1617.92,-165.5 1629.47,-139.97 1644.5,-121 1657.97,-103.99 1678.04,-88.71 1691.2,-79.65"/>
<polygon fill="#63b8ff" stroke="#63b8ff" points="1607.72,-181.81 1607.45,-192.4 1614.27,-184.29 1607.72,-181.81"/>
</a>
</g>
</g>
<!-- Node21&#45;&gt;Node15 -->
<g id="edge35_Node000021_Node000015" class="edge">
<title>Node21&#45;&gt;Node15</title>
<g id="a_edge35_Node000021_Node000015"><a xlink:title=" ">
<path fill="none" stroke="#63b8ff" d="M527.04,-191.15C431.2,-178.81 268.3,-157.84 175.89,-145.94"/>
<polygon fill="#63b8ff" stroke="#63b8ff" points="526.88,-194.66 537.25,-192.47 527.77,-187.72 526.88,-194.66"/>
</a>
</g>
</g>
<!-- Node21&#45;&gt;Node17 -->
<g id="edge36_Node000021_Node000017" class="edge">
<title>Node21&#45;&gt;Node17</title>
<g id="a_edge36_Node000021_Node000017"><a xlink:title=" ">
<path fill="none" stroke="#63b8ff" d="M551.98,-190.36C498.01,-179.22 413.24,-161.72 355.61,-149.82"/>
<polygon fill="#63b8ff" stroke="#63b8ff" points="551.51,-193.84 562.01,-192.44 552.93,-186.99 551.51,-193.84"/>
</a>
</g>
</g>
<!-- Node21&#45;&gt;Node18 -->
<g id="edge37_Node000021_Node000018" class="edge">
<title>Node21&#45;&gt;Node18</title>
<g id="a_edge37_Node000021_Node000018"><a xlink:title=" ">
<path fill="none" stroke="#63b8ff" d="M558.57,-189.83C525.34,-180.95 479.32,-167.32 440.5,-151 389.34,-129.49 332.69,-95.54 307.22,-79.69"/>
<polygon fill="#63b8ff" stroke="#63b8ff" points="557.88,-193.27 568.44,-192.43 559.67,-186.5 557.88,-193.27"/>
</a>
</g>
</g>
<!-- Node21&#45;&gt;Node19 -->
<g id="edge40_Node000021_Node000019" class="edge">
<title>Node21&#45;&gt;Node19</title>
<g id="a_edge40_Node000021_Node000019"><a xlink:title=" ">
<path fill="none" stroke="#63b8ff" d="M602.46,-181.81C600.7,-164.56 596,-139.23 583.5,-121 570.45,-101.98 547.64,-87.83 531.4,-79.53"/>
<polygon fill="#63b8ff" stroke="#63b8ff" points="599,-182.56 603.26,-192.26 605.98,-182.02 599,-182.56"/>
</a>
</g>
</g>
<!-- Node22 -->
<g id="Node000022" class="node">
<title>Node22</title>
<g id="a_Node000022"><a xlink:href="Display_8hpp.html" target="_top" xlink:title=" ">
<polygon fill="white" stroke="#666666" points="805,-145.5 670,-145.5 670,-126.5 805,-126.5 805,-145.5"/>
<text text-anchor="middle" x="737.5" y="-133.5" font-family="Helvetica,sans-Serif" font-size="10.00">core/include/Display.hpp</text>
</a>
</g>
</g>
<!-- Node21&#45;&gt;Node22 -->
<g id="edge30_Node000021_Node000022" class="edge">
<title>Node21&#45;&gt;Node22</title>
<g id="a_edge30_Node000021_Node000022"><a xlink:title=" ">
<path fill="none" stroke="#63b8ff" d="M630.66,-188.03C657.07,-175.42 696.44,-156.61 719.29,-145.7"/>
<polygon fill="#63b8ff" stroke="#63b8ff" points="629.09,-184.9 621.57,-192.37 632.1,-191.22 629.09,-184.9"/>
</a>
</g>
</g>
<!-- Node23 -->
<g id="Node000023" class="node">
<title>Node23</title>
<g id="a_Node000023"><a xlink:href="Display_8cpp.html" target="_top" xlink:title=" ">
<polygon fill="white" stroke="#666666" points="805,-79.5 692,-79.5 692,-60.5 805,-60.5 805,-79.5"/>
<text text-anchor="middle" x="748.5" y="-67.5" font-family="Helvetica,sans-Serif" font-size="10.00">core/src/Display.cpp</text>
</a>
</g>
</g>
<!-- Node21&#45;&gt;Node23 -->
<g id="edge34_Node000021_Node000023" class="edge">
<title>Node21&#45;&gt;Node23</title>
<g id="a_edge34_Node000021_Node000023"><a xlink:title=" ">
<path fill="none" stroke="#63b8ff" d="M613.05,-183.29C623.11,-165.85 640.29,-139.24 660.5,-121 680.85,-102.63 709.08,-88.08 728.02,-79.52"/>
<polygon fill="#63b8ff" stroke="#63b8ff" points="609.8,-181.93 607.98,-192.37 615.91,-185.34 609.8,-181.93"/>
</a>
</g>
</g>
<!-- Node24 -->
<g id="Node000024" class="node">
<title>Node24</title>
<g id="a_Node000024"><a xlink:href="SFML_8hpp.html" target="_top" xlink:title=" ">
<polygon fill="white" stroke="#666666" points="575,-151 450,-151 450,-121 575,-121 575,-151"/>
<text text-anchor="start" x="458" y="-139" font-family="Helvetica,sans-Serif" font-size="10.00">graphics/SFML/include</text>
<text text-anchor="middle" x="512.5" y="-128" font-family="Helvetica,sans-Serif" font-size="10.00">/SFML.hpp</text>
</a>
</g>
</g>
<!-- Node21&#45;&gt;Node24 -->
<g id="edge38_Node000021_Node000024" class="edge">
<title>Node21&#45;&gt;Node24</title>
<g id="a_edge38_Node000021_Node000024"><a xlink:title=" ">
<path fill="none" stroke="#63b8ff" d="M583.05,-186.62C567.97,-176.01 547.56,-161.66 532.57,-151.12"/>
<polygon fill="#63b8ff" stroke="#63b8ff" points="581.03,-189.48 591.23,-192.37 585.06,-183.75 581.03,-189.48"/>
</a>
</g>
</g>
<!-- Node22&#45;&gt;Node3 -->
<g id="edge31_Node000022_Node000003" class="edge">
<title>Node22&#45;&gt;Node3</title>
<g id="a_edge31_Node000022_Node000003"><a xlink:title=" ">
<path fill="none" stroke="#63b8ff" d="M795.26,-124.65C865.28,-112.09 981.96,-91.17 1047.01,-79.51"/>
<polygon fill="#63b8ff" stroke="#63b8ff" points="794.5,-121.23 785.28,-126.44 795.74,-128.12 794.5,-121.23"/>
</a>
</g>
</g>
<!-- Node22&#45;&gt;Node4 -->
<g id="edge32_Node000022_Node000004" class="edge">
<title>Node22&#45;&gt;Node4</title>
<g id="a_edge32_Node000022_Node000004"><a xlink:title=" ">
<path fill="none" stroke="#63b8ff" d="M715.45,-120.4C693.07,-103.81 664.13,-76.29 682.5,-55 713.48,-19.11 849,-11.67 927.23,-10.43"/>
<polygon fill="#63b8ff" stroke="#63b8ff" points="713.71,-123.45 723.89,-126.38 717.76,-117.74 713.71,-123.45"/>
</a>
</g>
</g>
<!-- Node22&#45;&gt;Node23 -->
<g id="edge33_Node000022_Node000023" class="edge">
<title>Node22&#45;&gt;Node23</title>
<g id="a_edge33_Node000022_Node000023"><a xlink:title=" ">
<path fill="none" stroke="#63b8ff" d="M740.69,-116.45C742.75,-104.43 745.35,-89.32 746.97,-79.91"/>
<polygon fill="#63b8ff" stroke="#63b8ff" points="737.23,-115.92 738.98,-126.37 744.13,-117.11 737.23,-115.92"/>
</a>
</g>
</g>
<!-- Node24&#45;&gt;Node19 -->
<g id="edge39_Node000024_Node000019" class="edge">
<title>Node24&#45;&gt;Node19</title>
<g id="a_edge39_Node000024_Node000019"><a xlink:title=" ">
<path fill="none" stroke="#63b8ff" d="M512.5,-110.6C512.5,-99.8 512.5,-87.78 512.5,-79.84"/>
<polygon fill="#63b8ff" stroke="#63b8ff" points="509,-110.8 512.5,-120.8 516,-110.8 509,-110.8"/>
</a>
</g>
</g>
<!-- Node25&#45;&gt;Node3 -->
<g id="edge42_Node000025_Node000003" class="edge">
<title>Node25&#45;&gt;Node3</title>
<g id="a_edge42_Node000025_Node000003"><a xlink:title=" ">
<path fill="none" stroke="#63b8ff" d="M1238.65,-254.32C1257.19,-245.83 1280.02,-233.23 1296.5,-217 1329.19,-184.8 1363.45,-156.6 1334.5,-121 1313.05,-94.62 1224.92,-81.7 1161.67,-75.7"/>
<polygon fill="#63b8ff" stroke="#63b8ff" points="1237.15,-251.16 1229.41,-258.39 1239.97,-257.57 1237.15,-251.16"/>
</a>
</g>
</g>
<!-- Node25&#45;&gt;Node4 -->
<g id="edge47_Node000025_Node000004" class="edge">
<title>Node25&#45;&gt;Node4</title>
<g id="a_edge47_Node000025_Node000004"><a xlink:title=" ">
<path fill="none" stroke="#63b8ff" d="M1180.62,-253.33C1165.55,-244.45 1146.93,-231.78 1133.5,-217 1100.73,-180.92 1114.59,-155.83 1080.5,-121 1058.21,-98.23 1040.03,-108.49 1018.5,-85 1000.35,-65.2 989.98,-34.3 985.75,-19.29"/>
<polygon fill="#63b8ff" stroke="#63b8ff" points="1179.04,-256.46 1189.47,-258.36 1182.5,-250.38 1179.04,-256.46"/>
</a>
</g>
</g>
<!-- Node25&#45;&gt;Node6 -->
<g id="edge50_Node000025_Node000006" class="edge">
<title>Node25&#45;&gt;Node6</title>
<g id="a_edge50_Node000025_Node000006"><a xlink:title=" ">
<path fill="none" stroke="#63b8ff" d="M1162.33,-255.96C1119.2,-245.17 1053.41,-228.73 1006.6,-217.02"/>
<polygon fill="#63b8ff" stroke="#63b8ff" points="1161.69,-259.41 1172.24,-258.44 1163.39,-252.61 1161.69,-259.41"/>
</a>
</g>
</g>
<!-- Node25&#45;&gt;Node7 -->
<g id="edge51_Node000025_Node000007" class="edge">
<title>Node25&#45;&gt;Node7</title>
<g id="a_edge51_Node000025_Node000007"><a xlink:title=" ">
<path fill="none" stroke="#63b8ff" d="M1158.64,-255.77C1129.31,-247.64 1091.73,-234.91 1061.5,-217 1027.4,-196.79 994.95,-161.9 980.86,-145.71"/>
<polygon fill="#63b8ff" stroke="#63b8ff" points="1158.08,-259.25 1168.65,-258.46 1159.9,-252.49 1158.08,-259.25"/>
</a>
</g>
</g>
<!-- Node25&#45;&gt;Node10 -->
<g id="edge52_Node000025_Node000010" class="edge">
<title>Node25&#45;&gt;Node10</title>
<g id="a_edge52_Node000025_Node000010"><a xlink:title=" ">
<path fill="none" stroke="#63b8ff" d="M1266.85,-256.33C1303.52,-248.45 1350.6,-235.79 1389.5,-217 1426.07,-199.34 1462.99,-169.01 1483.09,-151.21"/>
<polygon fill="#63b8ff" stroke="#63b8ff" points="1265.88,-252.96 1256.8,-258.43 1267.31,-259.81 1265.88,-252.96"/>
</a>
</g>
</g>
<!-- Node25&#45;&gt;Node13 -->
<g id="edge53_Node000025_Node000013" class="edge">
<title>Node25&#45;&gt;Node13</title>
<g id="a_edge53_Node000025_Node000013"><a xlink:title=" ">
<path fill="none" stroke="#63b8ff" d="M1288.68,-264.07C1421.41,-258.55 1671.18,-244.61 1700.5,-217 1718.33,-200.22 1717.93,-169.29 1715.84,-151.2"/>
<polygon fill="#63b8ff" stroke="#63b8ff" points="1288.39,-260.58 1278.55,-264.49 1288.68,-267.57 1288.39,-260.58"/>
</a>
</g>
</g>
<!-- Node25&#45;&gt;Node14 -->
<g id="edge54_Node000025_Node000014" class="edge">
<title>Node25&#45;&gt;Node14</title>
<g id="a_edge54_Node000025_Node000014"><a xlink:title=" ">
<path fill="none" stroke="#63b8ff" d="M1245.49,-255.28C1269.6,-246.91 1300.43,-234.1 1324.5,-217 1371.44,-183.65 1361.02,-148.7 1411.5,-121 1431.32,-110.13 1561.32,-90.71 1641.35,-79.54"/>
<polygon fill="#63b8ff" stroke="#63b8ff" points="1244.31,-251.98 1235.95,-258.49 1246.54,-258.62 1244.31,-251.98"/>
</a>
</g>
</g>
<!-- Node25&#45;&gt;Node20 -->
<g id="edge55_Node000025_Node000020" class="edge">
<title>Node25&#45;&gt;Node20</title>
<g id="a_edge55_Node000025_Node000020"><a xlink:title=" ">
<path fill="none" stroke="#63b8ff" d="M1269.93,-256.8C1347.89,-244.26 1478.74,-223.22 1551.55,-211.51"/>
<polygon fill="#63b8ff" stroke="#63b8ff" points="1269.08,-253.39 1259.76,-258.44 1270.19,-260.3 1269.08,-253.39"/>
</a>
</g>
</g>
<!-- Node25&#45;&gt;Node21 -->
<g id="edge56_Node000025_Node000021" class="edge">
<title>Node25&#45;&gt;Node21</title>
<g id="a_edge56_Node000025_Node000021"><a xlink:title=" ">
<path fill="none" stroke="#63b8ff" d="M1124.33,-258.28C1006.73,-245.8 792.1,-223.02 678.56,-210.97"/>
<polygon fill="#63b8ff" stroke="#63b8ff" points="1124.05,-261.77 1134.36,-259.34 1124.79,-254.81 1124.05,-261.77"/>
</a>
</g>
</g>
<!-- Node25&#45;&gt;Node23 -->
<g id="edge48_Node000025_Node000023" class="edge">
<title>Node25&#45;&gt;Node23</title>
<g id="a_edge48_Node000025_Node000023"><a xlink:title=" ">
<path fill="none" stroke="#63b8ff" d="M1164.27,-255.12C1142.64,-247.25 1117.21,-235 1099.5,-217 1066.71,-183.68 1093.57,-149.49 1056.5,-121 1018.11,-91.49 883.17,-78.82 805.22,-73.85"/>
<polygon fill="#63b8ff" stroke="#63b8ff" points="1163.3,-258.49 1173.89,-258.43 1165.58,-251.87 1163.3,-258.49"/>
</a>
</g>
</g>
<!-- Node26 -->
<g id="Node000026" class="node">
<title>Node26</title>
<g id="a_Node000026"><a xlink:href="Game_8hpp.html" target="_top" xlink:title=" ">
<polygon fill="white" stroke="#666666" points="1271,-211.5 1142,-211.5 1142,-192.5 1271,-192.5 1271,-211.5"/>
<text text-anchor="middle" x="1206.5" y="-199.5" font-family="Helvetica,sans-Serif" font-size="10.00">core/include/Game.hpp</text>
</a>
</g>
</g>
<!-- Node25&#45;&gt;Node26 -->
<g id="edge43_Node000025_Node000026" class="edge">
<title>Node25&#45;&gt;Node26</title>
<g id="a_edge43_Node000025_Node000026"><a xlink:title=" ">
<path fill="none" stroke="#63b8ff" d="M1206.5,-248.08C1206.5,-236.13 1206.5,-221.22 1206.5,-211.91"/>
<polygon fill="#63b8ff" stroke="#63b8ff" points="1203,-248.37 1206.5,-258.37 1210,-248.37 1203,-248.37"/>
</a>
</g>
</g>
<!-- Node27 -->
<g id="Node000027" class="node">
<title>Node27</title>
<g id="a_Node000027"><a xlink:href="Game_8cpp.html" target="_top" xlink:title=" ">
<polygon fill="white" stroke="#666666" points="1325,-145.5 1218,-145.5 1218,-126.5 1325,-126.5 1325,-145.5"/>
<text text-anchor="middle" x="1271.5" y="-133.5" font-family="Helvetica,sans-Serif" font-size="10.00">core/src/Game.cpp</text>
</a>
</g>
</g>
<!-- Node25&#45;&gt;Node27 -->
<g id="edge49_Node000025_Node000027" class="edge">
<title>Node25&#45;&gt;Node27</title>
<g id="a_edge49_Node000025_Node000027"><a xlink:title=" ">
<path fill="none" stroke="#63b8ff" d="M1238.91,-253.92C1254.48,-245.79 1271.65,-233.67 1280.5,-217 1292.96,-193.55 1281.97,-160.84 1275.47,-145.53"/>
<polygon fill="#63b8ff" stroke="#63b8ff" points="1236.98,-250.96 1229.51,-258.47 1240.03,-257.27 1236.98,-250.96"/>
</a>
</g>
</g>
<!-- Node26&#45;&gt;Node3 -->
<g id="edge44_Node000026_Node000003" class="edge">
<title>Node26&#45;&gt;Node3</title>
<g id="a_edge44_Node000026_Node000003"><a xlink:title=" ">
<path fill="none" stroke="#63b8ff" d="M1192.56,-184.82C1168.64,-157.06 1120.56,-101.24 1102.02,-79.73"/>
<polygon fill="#63b8ff" stroke="#63b8ff" points="1189.97,-187.18 1199.15,-192.47 1195.28,-182.61 1189.97,-187.18"/>
</a>
</g>
</g>
<!-- Node26&#45;&gt;Node4 -->
<g id="edge45_Node000026_Node000004" class="edge">
<title>Node26&#45;&gt;Node4</title>
<g id="a_edge45_Node000026_Node000004"><a xlink:title=" ">
<path fill="none" stroke="#63b8ff" d="M1207.63,-182C1208.37,-150.91 1205.01,-89.23 1170.5,-55 1160.52,-45.1 1082.66,-28.95 1030.61,-19.07"/>
<polygon fill="#63b8ff" stroke="#63b8ff" points="1204.12,-182.16 1207.2,-192.29 1211.11,-182.45 1204.12,-182.16"/>
</a>
</g>
</g>
<!-- Node26&#45;&gt;Node27 -->
<g id="edge46_Node000026_Node000027" class="edge">
<title>Node26&#45;&gt;Node27</title>
<g id="a_edge46_Node000026_Node000027"><a xlink:title=" ">
<path fill="none" stroke="#63b8ff" d="M1222.42,-185.33C1235,-172.94 1252.12,-156.09 1262.46,-145.91"/>
<polygon fill="#63b8ff" stroke="#63b8ff" points="1219.94,-182.86 1215.27,-192.37 1224.85,-187.85 1219.94,-182.86"/>
</a>
</g>
</g>
<!-- Node28&#45;&gt;Node7 -->
<g id="edge58_Node000028_Node000007" class="edge">
<title>Node28&#45;&gt;Node7</title>
<g id="a_edge58_Node000028_Node000007"><a xlink:title=" ">
<path fill="none" stroke="#63b8ff" d="M1775.44,-256.97C1610,-232.22 1184.68,-168.59 1030.44,-145.52"/>
<polygon fill="#63b8ff" stroke="#63b8ff" points="1775.07,-260.45 1785.48,-258.47 1776.11,-253.53 1775.07,-260.45"/>
</a>
</g>
</g>
<!-- Node28&#45;&gt;Node9 -->
<g id="edge59_Node000028_Node000009" class="edge">
<title>Node28&#45;&gt;Node9</title>
<g id="a_edge59_Node000028_Node000009"><a xlink:title=" ">
<path fill="none" stroke="#63b8ff" d="M1873.72,-254.51C1905.35,-241.86 1953.42,-222.63 1981.01,-211.6"/>
<polygon fill="#63b8ff" stroke="#63b8ff" points="1872.06,-251.41 1864.08,-258.37 1874.66,-257.9 1872.06,-251.41"/>
</a>
</g>
</g>
<!-- Node29 -->
<g id="Node000029" class="node">
<title>Node29</title>
<g id="a_Node000029"><a xlink:href="Utils_8cpp.html" target="_top" xlink:title=" ">
<polygon fill="white" stroke="#666666" points="1899,-211.5 1786,-211.5 1786,-192.5 1899,-192.5 1899,-211.5"/>
<text text-anchor="middle" x="1842.5" y="-199.5" font-family="Helvetica,sans-Serif" font-size="10.00">shared/src/Utils.cpp</text>
</a>
</g>
</g>
<!-- Node28&#45;&gt;Node29 -->
<g id="edge60_Node000028_Node000029" class="edge">
<title>Node28&#45;&gt;Node29</title>
<g id="a_edge60_Node000028_Node000029"><a xlink:title=" ">
<path fill="none" stroke="#63b8ff" d="M1842.5,-248.08C1842.5,-236.13 1842.5,-221.22 1842.5,-211.91"/>
<polygon fill="#63b8ff" stroke="#63b8ff" points="1839,-248.37 1842.5,-258.37 1846,-248.37 1839,-248.37"/>
</a>
</g>
</g>
</g>
</svg>
