<?xml version="1.0" encoding="UTF-8" standalone="no"?>
<!DOCTYPE svg PUBLIC "-//W3C//DTD SVG 1.1//EN"
 "http://www.w3.org/Graphics/SVG/1.1/DTD/svg11.dtd">
<!-- Generated by graphviz version 2.43.0 (0)
 -->
<!-- Title: games/Snake/include/Snake.hpp Pages: 1 -->
<svg width="1045pt" height="313pt"
 viewBox="0.00 0.00 1044.50 313.00" xmlns="http://www.w3.org/2000/svg" xmlns:xlink="http://www.w3.org/1999/xlink">
<g id="graph0" class="graph" transform="scale(1 1) rotate(0) translate(4 309)">
<title>games/Snake/include/Snake.hpp</title>
<!-- Node1 -->
<g id="Node000001" class="node">
<title>Node1</title>
<g id="a_Node000001"><a xlink:title=" ">
<polygon fill="#999999" stroke="#666666" points="558.5,-305 438.5,-305 438.5,-275 558.5,-275 558.5,-305"/>
<text text-anchor="start" x="446.5" y="-293" font-family="Helvetica,sans-Serif" font-size="10.00">games/Snake/include</text>
<text text-anchor="middle" x="498.5" y="-282" font-family="Helvetica,sans-Serif" font-size="10.00">/Snake.hpp</text>
</a>
</g>
</g>
<!-- Node2 -->
<g id="Node000002" class="node">
<title>Node2</title>
<g id="a_Node000002"><a xlink:href="IGame_8hpp.html" target="_top" xlink:title=" ">
<polygon fill="white" stroke="#666666" points="838.5,-184 768.5,-184 768.5,-165 838.5,-165 838.5,-184"/>
<text text-anchor="middle" x="803.5" y="-172" font-family="Helvetica,sans-Serif" font-size="10.00">IGame.hpp</text>
</a>
</g>
</g>
<!-- Node1&#45;&gt;Node2 -->
<g id="edge1_Node000001_Node000002" class="edge">
<title>Node1&#45;&gt;Node2</title>
<g id="a_edge1_Node000001_Node000002"><a xlink:title=" ">
<path fill="none" stroke="#63b8ff" d="M536.2,-274.97C596.5,-252.53 713.61,-208.95 770.67,-187.72"/>
<polygon fill="#63b8ff" stroke="#63b8ff" points="772.12,-190.91 780.27,-184.14 769.68,-184.35 772.12,-190.91"/>
</a>
</g>
</g>
<!-- Node3 -->
<g id="Node000003" class="node">
<title>Node3</title>
<g id="a_Node000003"><a xlink:href="gfx_8hpp.html" target="_top" xlink:title=" ">
<polygon fill="white" stroke="#666666" points="581,-129 528,-129 528,-110 581,-110 581,-129"/>
<text text-anchor="middle" x="554.5" y="-117" font-family="Helvetica,sans-Serif" font-size="10.00">gfx.hpp</text>
</a>
</g>
</g>
<!-- Node1&#45;&gt;Node3 -->
<g id="edge17_Node000001_Node000003" class="edge">
<title>Node1&#45;&gt;Node3</title>
<g id="a_edge17_Node000001_Node000003"><a xlink:title=" ">
<path fill="none" stroke="#63b8ff" d="M438.38,-276.81C362.5,-258.78 247.27,-221 294.5,-165 322.61,-131.67 452.73,-123.3 517.57,-121.2"/>
<polygon fill="#63b8ff" stroke="#63b8ff" points="517.87,-124.7 527.76,-120.91 517.67,-117.7 517.87,-124.7"/>
</a>
</g>
</g>
<!-- Node4 -->
<g id="Node000004" class="node">
<title>Node4</title>
<g id="a_Node000004"><a xlink:title=" ">
<polygon fill="#e0e0e0" stroke="#999999" points="151,-74 98,-74 98,-55 151,-55 151,-74"/>
<text text-anchor="middle" x="124.5" y="-62" font-family="Helvetica,sans-Serif" font-size="10.00">cstddef</text>
</a>
</g>
</g>
<!-- Node1&#45;&gt;Node4 -->
<g id="edge18_Node000001_Node000004" class="edge">
<title>Node1&#45;&gt;Node4</title>
<g id="a_edge18_Node000001_Node000004"><a xlink:title=" ">
<path fill="none" stroke="#63b8ff" d="M438.46,-285.2C363.88,-279.4 242.09,-266.02 206.5,-239 155.02,-199.91 134.47,-120.43 127.54,-84.22"/>
<polygon fill="#63b8ff" stroke="#63b8ff" points="130.94,-83.33 125.75,-74.09 124.04,-84.55 130.94,-83.33"/>
</a>
</g>
</g>
<!-- Node5 -->
<g id="Node000005" class="node">
<title>Node5</title>
<g id="a_Node000005"><a xlink:href="Keys_8hpp.html" target="_top" xlink:title=" ">
<polygon fill="white" stroke="#666666" points="230,-74 169,-74 169,-55 230,-55 230,-74"/>
<text text-anchor="middle" x="199.5" y="-62" font-family="Helvetica,sans-Serif" font-size="10.00">Keys.hpp</text>
</a>
</g>
</g>
<!-- Node1&#45;&gt;Node5 -->
<g id="edge16_Node000001_Node000005" class="edge">
<title>Node1&#45;&gt;Node5</title>
<g id="a_edge16_Node000001_Node000005"><a xlink:title=" ">
<path fill="none" stroke="#63b8ff" d="M438.43,-286.11C366.59,-281.34 252.38,-269.13 223.5,-239 182.87,-196.61 189.88,-119.45 195.78,-84.1"/>
<polygon fill="#63b8ff" stroke="#63b8ff" points="199.23,-84.65 197.59,-74.18 192.35,-83.39 199.23,-84.65"/>
</a>
</g>
</g>
<!-- Node10 -->
<g id="Node000010" class="node">
<title>Node10</title>
<g id="a_Node000010"><a xlink:title=" ">
<polygon fill="#e0e0e0" stroke="#999999" points="63,-19 0,-19 0,0 63,0 63,-19"/>
<text text-anchor="middle" x="31.5" y="-7" font-family="Helvetica,sans-Serif" font-size="10.00">ncurses.h</text>
</a>
</g>
</g>
<!-- Node1&#45;&gt;Node10 -->
<g id="edge21_Node000001_Node000010" class="edge">
<title>Node1&#45;&gt;Node10</title>
<g id="a_edge21_Node000001_Node000010"><a xlink:title=" ">
<path fill="none" stroke="#63b8ff" d="M438.08,-286.29C315.8,-279.14 50.5,-254.53 50.5,-175.5 50.5,-175.5 50.5,-175.5 50.5,-118.5 50.5,-86.56 42.34,-50.1 36.72,-28.77"/>
<polygon fill="#63b8ff" stroke="#63b8ff" points="40.08,-27.81 34.06,-19.09 33.33,-29.66 40.08,-27.81"/>
</a>
</g>
</g>
<!-- Node12 -->
<g id="Node000012" class="node">
<title>Node12</title>
<g id="a_Node000012"><a xlink:title=" ">
<polygon fill="#e0e0e0" stroke="#999999" points="626,-19 561,-19 561,0 626,0 626,-19"/>
<text text-anchor="middle" x="593.5" y="-7" font-family="Helvetica,sans-Serif" font-size="10.00">functional</text>
</a>
</g>
</g>
<!-- Node1&#45;&gt;Node12 -->
<g id="edge20_Node000001_Node000012" class="edge">
<title>Node1&#45;&gt;Node12</title>
<g id="a_edge20_Node000001_Node000012"><a xlink:title=" ">
<path fill="none" stroke="#63b8ff" d="M438.08,-280.54C386.82,-272.19 318.51,-257.95 298.5,-239 273.99,-215.8 264.32,-194.05 281.5,-165 312.12,-113.21 483.77,-48.55 558.61,-22.34"/>
<polygon fill="#63b8ff" stroke="#63b8ff" points="559.78,-25.64 568.08,-19.05 557.49,-19.03 559.78,-25.64"/>
</a>
</g>
</g>
<!-- Node13 -->
<g id="Node000013" class="node">
<title>Node13</title>
<g id="a_Node000013"><a xlink:title=" ">
<polygon fill="#e0e0e0" stroke="#999999" points="807.5,-19 763.5,-19 763.5,0 807.5,0 807.5,-19"/>
<text text-anchor="middle" x="785.5" y="-7" font-family="Helvetica,sans-Serif" font-size="10.00">string</text>
</a>
</g>
</g>
<!-- Node1&#45;&gt;Node13 -->
<g id="edge23_Node000001_Node000013" class="edge">
<title>Node1&#45;&gt;Node13</title>
<g id="a_edge23_Node000001_Node000013"><a xlink:title=" ">
<path fill="none" stroke="#63b8ff" d="M558.84,-284.71C671.94,-274.99 904.5,-246.4 904.5,-175.5 904.5,-175.5 904.5,-175.5 904.5,-118.5 904.5,-71.19 852.3,-39.17 817.04,-22.94"/>
<polygon fill="#63b8ff" stroke="#63b8ff" points="818.17,-19.62 807.6,-18.79 815.34,-26.02 818.17,-19.62"/>
</a>
</g>
</g>
<!-- Node16 -->
<g id="Node000016" class="node">
<title>Node16</title>
<g id="a_Node000016"><a xlink:title=" ">
<polygon fill="#e0e0e0" stroke="#999999" points="851,-129 804,-129 804,-110 851,-110 851,-129"/>
<text text-anchor="middle" x="827.5" y="-117" font-family="Helvetica,sans-Serif" font-size="10.00">queue</text>
</a>
</g>
</g>
<!-- Node1&#45;&gt;Node16 -->
<g id="edge22_Node000001_Node000016" class="edge">
<title>Node1&#45;&gt;Node16</title>
<g id="a_edge22_Node000001_Node000016"><a xlink:title=" ">
<path fill="none" stroke="#63b8ff" d="M558.74,-279.72C649.22,-264.4 813.28,-230.79 847.5,-184 857.59,-170.2 849.35,-151.16 840.59,-137.53"/>
<polygon fill="#63b8ff" stroke="#63b8ff" points="843.27,-135.26 834.66,-129.09 837.55,-139.29 843.27,-135.26"/>
</a>
</g>
</g>
<!-- Node17 -->
<g id="Node000017" class="node">
<title>Node17</title>
<g id="a_Node000017"><a xlink:title=" ">
<polygon fill="#e0e0e0" stroke="#999999" points="980,-239 933,-239 933,-220 980,-220 980,-239"/>
<text text-anchor="middle" x="956.5" y="-227" font-family="Helvetica,sans-Serif" font-size="10.00">deque</text>
</a>
</g>
</g>
<!-- Node1&#45;&gt;Node17 -->
<g id="edge19_Node000001_Node000017" class="edge">
<title>Node1&#45;&gt;Node17</title>
<g id="a_edge19_Node000001_Node000017"><a xlink:title=" ">
<path fill="none" stroke="#63b8ff" d="M558.59,-283.78C640.36,-276.24 791.11,-260.77 918.5,-239 919.96,-238.75 921.44,-238.48 922.94,-238.2"/>
<polygon fill="#63b8ff" stroke="#63b8ff" points="923.76,-241.61 932.86,-236.18 922.36,-234.75 923.76,-241.61"/>
</a>
</g>
</g>
<!-- Node18 -->
<g id="Node000018" class="node">
<title>Node18</title>
<g id="a_Node000018"><a xlink:title=" ">
<polygon fill="#e0e0e0" stroke="#999999" points="1036.5,-239 998.5,-239 998.5,-220 1036.5,-220 1036.5,-239"/>
<text text-anchor="middle" x="1017.5" y="-227" font-family="Helvetica,sans-Serif" font-size="10.00">map</text>
</a>
</g>
</g>
<!-- Node1&#45;&gt;Node18 -->
<g id="edge24_Node000001_Node000018" class="edge">
<title>Node1&#45;&gt;Node18</title>
<g id="a_edge24_Node000001_Node000018"><a xlink:title=" ">
<path fill="none" stroke="#63b8ff" d="M558.77,-286.61C650.02,-282.18 828.67,-270.28 988.34,-238.85"/>
<polygon fill="#63b8ff" stroke="#63b8ff" points="989.23,-242.24 998.34,-236.85 987.85,-235.38 989.23,-242.24"/>
</a>
</g>
</g>
<!-- Node19 -->
<g id="Node000019" class="node">
<title>Node19</title>
<g id="a_Node000019"><a xlink:title=" ">
<polygon fill="#e0e0e0" stroke="#999999" points="351,-184 304,-184 304,-165 351,-165 351,-184"/>
<text text-anchor="middle" x="327.5" y="-172" font-family="Helvetica,sans-Serif" font-size="10.00">vector</text>
</a>
</g>
</g>
<!-- Node1&#45;&gt;Node19 -->
<g id="edge25_Node000001_Node000019" class="edge">
<title>Node1&#45;&gt;Node19</title>
<g id="a_edge25_Node000001_Node000019"><a xlink:title=" ">
<path fill="none" stroke="#63b8ff" d="M477.19,-274.85C444.45,-253.13 382.14,-211.77 349.18,-189.89"/>
<polygon fill="#63b8ff" stroke="#63b8ff" points="350.98,-186.88 340.71,-184.27 347.11,-192.72 350.98,-186.88"/>
</a>
</g>
</g>
<!-- Node20 -->
<g id="Node000020" class="node">
<title>Node20</title>
<g id="a_Node000020"><a xlink:href="GameMatrix_8hpp.html" target="_top" xlink:title=" ">
<polygon fill="white" stroke="#666666" points="605.5,-239 507.5,-239 507.5,-220 605.5,-220 605.5,-239"/>
<text text-anchor="middle" x="556.5" y="-227" font-family="Helvetica,sans-Serif" font-size="10.00">GameMatrix.hpp</text>
</a>
</g>
</g>
<!-- Node1&#45;&gt;Node20 -->
<g id="edge26_Node000001_Node000020" class="edge">
<title>Node1&#45;&gt;Node20</title>
<g id="a_edge26_Node000001_Node000020"><a xlink:title=" ">
<path fill="none" stroke="#63b8ff" d="M512.54,-274.84C521.05,-266.26 531.91,-255.3 540.72,-246.42"/>
<polygon fill="#63b8ff" stroke="#63b8ff" points="543.25,-248.83 547.81,-239.27 538.28,-243.9 543.25,-248.83"/>
</a>
</g>
</g>
<!-- Node2&#45;&gt;Node3 -->
<g id="edge2_Node000002_Node000003" class="edge">
<title>Node2&#45;&gt;Node3</title>
<g id="a_edge2_Node000002_Node000003"><a xlink:title=" ">
<path fill="none" stroke="#63b8ff" d="M768.35,-166.02C721.39,-156.02 638.59,-138.4 590.97,-128.26"/>
<polygon fill="#63b8ff" stroke="#63b8ff" points="591.59,-124.82 581.08,-126.16 590.13,-131.66 591.59,-124.82"/>
</a>
</g>
</g>
<!-- Node2&#45;&gt;Node16 -->
<g id="edge15_Node000002_Node000016" class="edge">
<title>Node2&#45;&gt;Node16</title>
<g id="a_edge15_Node000002_Node000016"><a xlink:title=" ">
<path fill="none" stroke="#63b8ff" d="M807.46,-164.75C810.71,-157.57 815.42,-147.18 819.45,-138.27"/>
<polygon fill="#63b8ff" stroke="#63b8ff" points="822.67,-139.64 823.61,-129.09 816.3,-136.75 822.67,-139.64"/>
</a>
</g>
</g>
<!-- Node3&#45;&gt;Node4 -->
<g id="edge3_Node000003_Node000004" class="edge">
<title>Node3&#45;&gt;Node4</title>
<g id="a_edge3_Node000003_Node000004"><a xlink:title=" ">
<path fill="none" stroke="#63b8ff" d="M527.99,-116.67C465.6,-112.13 304.56,-98.97 161.04,-74.08"/>
<polygon fill="#63b8ff" stroke="#63b8ff" points="161.63,-70.63 151.18,-72.35 160.42,-77.53 161.63,-70.63"/>
</a>
</g>
</g>
<!-- Node3&#45;&gt;Node5 -->
<g id="edge4_Node000003_Node000005" class="edge">
<title>Node3&#45;&gt;Node5</title>
<g id="a_edge4_Node000003_Node000005"><a xlink:title=" ">
<path fill="none" stroke="#63b8ff" d="M527.82,-114.52C466.26,-105.33 314,-82.59 240.49,-71.62"/>
<polygon fill="#63b8ff" stroke="#63b8ff" points="240.65,-68.1 230.24,-70.09 239.62,-75.03 240.65,-68.1"/>
</a>
</g>
</g>
<!-- Node11 -->
<g id="Node000011" class="node">
<title>Node11</title>
<g id="a_Node000011"><a xlink:href="shape_8hpp.html" target="_top" xlink:title=" ">
<polygon fill="white" stroke="#666666" points="627,-74 560,-74 560,-55 627,-55 627,-74"/>
<text text-anchor="middle" x="593.5" y="-62" font-family="Helvetica,sans-Serif" font-size="10.00">shape.hpp</text>
</a>
</g>
</g>
<!-- Node3&#45;&gt;Node11 -->
<g id="edge10_Node000003_Node000011" class="edge">
<title>Node3&#45;&gt;Node11</title>
<g id="a_edge10_Node000003_Node000011"><a xlink:title=" ">
<path fill="none" stroke="#63b8ff" d="M560.94,-109.75C566.39,-102.34 574.36,-91.5 581.06,-82.41"/>
<polygon fill="#63b8ff" stroke="#63b8ff" points="584.07,-84.22 587.18,-74.09 578.43,-80.07 584.07,-84.22"/>
</a>
</g>
</g>
<!-- Node14 -->
<g id="Node000014" class="node">
<title>Node14</title>
<g id="a_Node000014"><a xlink:title=" ">
<polygon fill="#e0e0e0" stroke="#999999" points="701.5,-74 645.5,-74 645.5,-55 701.5,-55 701.5,-74"/>
<text text-anchor="middle" x="673.5" y="-62" font-family="Helvetica,sans-Serif" font-size="10.00">optional</text>
</a>
</g>
</g>
<!-- Node3&#45;&gt;Node14 -->
<g id="edge13_Node000003_Node000014" class="edge">
<title>Node3&#45;&gt;Node14</title>
<g id="a_edge13_Node000003_Node000014"><a xlink:title=" ">
<path fill="none" stroke="#63b8ff" d="M573.62,-109.98C592.85,-101.42 622.73,-88.11 644.81,-78.28"/>
<polygon fill="#63b8ff" stroke="#63b8ff" points="646.32,-81.44 654.03,-74.17 643.47,-75.04 646.32,-81.44"/>
</a>
</g>
</g>
<!-- Node15 -->
<g id="Node000015" class="node">
<title>Node15</title>
<g id="a_Node000015"><a xlink:title=" ">
<polygon fill="#e0e0e0" stroke="#999999" points="542,-74 491,-74 491,-55 542,-55 542,-74"/>
<text text-anchor="middle" x="516.5" y="-62" font-family="Helvetica,sans-Serif" font-size="10.00">variant</text>
</a>
</g>
</g>
<!-- Node3&#45;&gt;Node15 -->
<g id="edge14_Node000003_Node000015" class="edge">
<title>Node3&#45;&gt;Node15</title>
<g id="a_edge14_Node000003_Node000015"><a xlink:title=" ">
<path fill="none" stroke="#63b8ff" d="M548.23,-109.75C542.91,-102.34 535.14,-91.5 528.62,-82.41"/>
<polygon fill="#63b8ff" stroke="#63b8ff" points="531.33,-80.18 522.66,-74.09 525.64,-84.26 531.33,-80.18"/>
</a>
</g>
</g>
<!-- Node6 -->
<g id="Node000006" class="node">
<title>Node6</title>
<g id="a_Node000006"><a xlink:title=" ">
<polygon fill="#e0e0e0" stroke="#999999" points="543,-19 450,-19 450,0 543,0 543,-19"/>
<text text-anchor="middle" x="496.5" y="-7" font-family="Helvetica,sans-Serif" font-size="10.00">unordered_map</text>
</a>
</g>
</g>
<!-- Node5&#45;&gt;Node6 -->
<g id="edge5_Node000005_Node000006" class="edge">
<title>Node5&#45;&gt;Node6</title>
<g id="a_edge5_Node000005_Node000006"><a xlink:title=" ">
<path fill="none" stroke="#63b8ff" d="M230.48,-57.6C235.17,-56.72 239.96,-55.83 244.5,-55 311.49,-42.76 388.6,-29.22 439.7,-20.33"/>
<polygon fill="#63b8ff" stroke="#63b8ff" points="440.31,-23.78 449.56,-18.62 439.11,-16.88 440.31,-23.78"/>
</a>
</g>
</g>
<!-- Node7 -->
<g id="Node000007" class="node">
<title>Node7</title>
<g id="a_Node000007"><a xlink:title=" ">
<polygon fill="#e0e0e0" stroke="#999999" points="122,-19 81,-19 81,0 122,0 122,-19"/>
<text text-anchor="middle" x="101.5" y="-7" font-family="Helvetica,sans-Serif" font-size="10.00">tuple</text>
</a>
</g>
</g>
<!-- Node5&#45;&gt;Node7 -->
<g id="edge6_Node000005_Node000007" class="edge">
<title>Node5&#45;&gt;Node7</title>
<g id="a_edge6_Node000005_Node000007"><a xlink:title=" ">
<path fill="none" stroke="#63b8ff" d="M183.75,-54.98C168.27,-46.61 144.41,-33.7 126.36,-23.95"/>
<polygon fill="#63b8ff" stroke="#63b8ff" points="127.99,-20.85 117.53,-19.17 124.66,-27.01 127.99,-20.85"/>
</a>
</g>
</g>
<!-- Node8 -->
<g id="Node000008" class="node">
<title>Node8</title>
<g id="a_Node000008"><a xlink:title=" ">
<polygon fill="#e0e0e0" stroke="#999999" points="258.5,-19 140.5,-19 140.5,0 258.5,0 258.5,-19"/>
<text text-anchor="middle" x="199.5" y="-7" font-family="Helvetica,sans-Serif" font-size="10.00">SDL2/SDL_keycode.h</text>
</a>
</g>
</g>
<!-- Node5&#45;&gt;Node8 -->
<g id="edge7_Node000005_Node000008" class="edge">
<title>Node5&#45;&gt;Node8</title>
<g id="a_edge7_Node000005_Node000008"><a xlink:title=" ">
<path fill="none" stroke="#63b8ff" d="M199.5,-54.75C199.5,-47.8 199.5,-37.85 199.5,-29.13"/>
<polygon fill="#63b8ff" stroke="#63b8ff" points="203,-29.09 199.5,-19.09 196,-29.09 203,-29.09"/>
</a>
</g>
</g>
<!-- Node9 -->
<g id="Node000009" class="node">
<title>Node9</title>
<g id="a_Node000009"><a xlink:title=" ">
<polygon fill="#e0e0e0" stroke="#999999" points="432,-19 277,-19 277,0 432,0 432,-19"/>
<text text-anchor="middle" x="354.5" y="-7" font-family="Helvetica,sans-Serif" font-size="10.00">SFML/Window/Keyboard.hpp</text>
</a>
</g>
</g>
<!-- Node5&#45;&gt;Node9 -->
<g id="edge8_Node000005_Node000009" class="edge">
<title>Node5&#45;&gt;Node9</title>
<g id="a_edge8_Node000005_Node000009"><a xlink:title=" ">
<path fill="none" stroke="#63b8ff" d="M224.4,-54.98C250.2,-46.16 290.72,-32.31 319.68,-22.41"/>
<polygon fill="#63b8ff" stroke="#63b8ff" points="321.07,-25.63 329.4,-19.08 318.81,-19.01 321.07,-25.63"/>
</a>
</g>
</g>
<!-- Node5&#45;&gt;Node10 -->
<g id="edge9_Node000005_Node000010" class="edge">
<title>Node5&#45;&gt;Node10</title>
<g id="a_edge9_Node000005_Node000010"><a xlink:title=" ">
<path fill="none" stroke="#63b8ff" d="M172.51,-54.98C144.3,-46.09 99.86,-32.07 68.42,-22.15"/>
<polygon fill="#63b8ff" stroke="#63b8ff" points="69.29,-18.75 58.7,-19.08 67.19,-25.43 69.29,-18.75"/>
</a>
</g>
</g>
<!-- Node11&#45;&gt;Node12 -->
<g id="edge11_Node000011_Node000012" class="edge">
<title>Node11&#45;&gt;Node12</title>
<g id="a_edge11_Node000011_Node000012"><a xlink:title=" ">
<path fill="none" stroke="#63b8ff" d="M593.5,-54.75C593.5,-47.8 593.5,-37.85 593.5,-29.13"/>
<polygon fill="#63b8ff" stroke="#63b8ff" points="597,-29.09 593.5,-19.09 590,-29.09 597,-29.09"/>
</a>
</g>
</g>
<!-- Node11&#45;&gt;Node13 -->
<g id="edge12_Node000011_Node000013" class="edge">
<title>Node11&#45;&gt;Node13</title>
<g id="a_edge12_Node000011_Node000013"><a xlink:title=" ">
<path fill="none" stroke="#63b8ff" d="M624.35,-54.98C659.76,-45.21 717.55,-29.26 753.46,-19.35"/>
<polygon fill="#63b8ff" stroke="#63b8ff" points="754.7,-22.63 763.41,-16.6 752.84,-15.89 754.7,-22.63"/>
</a>
</g>
</g>
<!-- Node20&#45;&gt;Node2 -->
<g id="edge27_Node000020_Node000002" class="edge">
<title>Node20&#45;&gt;Node2</title>
<g id="a_edge27_Node000020_Node000002"><a xlink:title=" ">
<path fill="none" stroke="#63b8ff" d="M596.18,-219.98C640.52,-210.47 712.16,-195.1 758.53,-185.15"/>
<polygon fill="#63b8ff" stroke="#63b8ff" points="759.27,-188.57 768.31,-183.05 757.8,-181.73 759.27,-188.57"/>
</a>
</g>
</g>
<!-- Node20&#45;&gt;Node3 -->
<g id="edge33_Node000020_Node000003" class="edge">
<title>Node20&#45;&gt;Node3</title>
<g id="a_edge33_Node000020_Node000003"><a xlink:title=" ">
<path fill="none" stroke="#63b8ff" d="M567.97,-219.99C582.24,-208.27 603.78,-186.21 595.5,-165 591.1,-153.73 582.36,-143.59 574.07,-135.85"/>
<polygon fill="#63b8ff" stroke="#63b8ff" points="576.27,-133.12 566.43,-129.2 571.68,-138.4 576.27,-133.12"/>
</a>
</g>
</g>
<!-- Node20&#45;&gt;Node19 -->
<g id="edge29_Node000020_Node000019" class="edge">
<title>Node20&#45;&gt;Node19</title>
<g id="a_edge29_Node000020_Node000019"><a xlink:title=" ">
<path fill="none" stroke="#63b8ff" d="M516.78,-219.99C479.02,-211.79 420.4,-198.8 361.14,-184.34"/>
<polygon fill="#63b8ff" stroke="#63b8ff" points="361.79,-180.9 351.24,-181.91 360.12,-187.69 361.79,-180.9"/>
</a>
</g>
</g>
<!-- Node21 -->
<g id="Node000021" class="node">
<title>Node21</title>
<g id="a_Node000021"><a xlink:title=" ">
<polygon fill="#e0e0e0" stroke="#999999" points="750.5,-184 704.5,-184 704.5,-165 750.5,-165 750.5,-184"/>
<text text-anchor="middle" x="727.5" y="-172" font-family="Helvetica,sans-Serif" font-size="10.00">cstdio</text>
</a>
</g>
</g>
<!-- Node20&#45;&gt;Node21 -->
<g id="edge28_Node000020_Node000021" class="edge">
<title>Node20&#45;&gt;Node21</title>
<g id="a_edge28_Node000020_Node000021"><a xlink:title=" ">
<path fill="none" stroke="#63b8ff" d="M583.97,-219.98C614.13,-210.64 662.52,-195.64 694.66,-185.68"/>
<polygon fill="#63b8ff" stroke="#63b8ff" points="695.96,-188.94 704.48,-182.63 693.89,-182.25 695.96,-188.94"/>
</a>
</g>
</g>
<!-- Node22 -->
<g id="Node000022" class="node">
<title>Node22</title>
<g id="a_Node000022"><a xlink:title=" ">
<polygon fill="#e0e0e0" stroke="#999999" points="434,-184 369,-184 369,-165 434,-165 434,-184"/>
<text text-anchor="middle" x="401.5" y="-172" font-family="Helvetica,sans-Serif" font-size="10.00">exception</text>
</a>
</g>
</g>
<!-- Node20&#45;&gt;Node22 -->
<g id="edge30_Node000020_Node000022" class="edge">
<title>Node20&#45;&gt;Node22</title>
<g id="a_edge30_Node000020_Node000022"><a xlink:title=" ">
<path fill="none" stroke="#63b8ff" d="M531.6,-219.98C505.8,-211.16 465.28,-197.31 436.32,-187.41"/>
<polygon fill="#63b8ff" stroke="#63b8ff" points="437.19,-184.01 426.6,-184.08 434.93,-190.63 437.19,-184.01"/>
</a>
</g>
</g>
<!-- Node23 -->
<g id="Node000023" class="node">
<title>Node23</title>
<g id="a_Node000023"><a xlink:title=" ">
<polygon fill="#e0e0e0" stroke="#999999" points="508.5,-184 452.5,-184 452.5,-165 508.5,-165 508.5,-184"/>
<text text-anchor="middle" x="480.5" y="-172" font-family="Helvetica,sans-Serif" font-size="10.00">sstream</text>
</a>
</g>
</g>
<!-- Node20&#45;&gt;Node23 -->
<g id="edge31_Node000020_Node000023" class="edge">
<title>Node20&#45;&gt;Node23</title>
<g id="a_edge31_Node000020_Node000023"><a xlink:title=" ">
<path fill="none" stroke="#63b8ff" d="M544.29,-219.98C532.72,-211.92 515.12,-199.65 501.34,-190.03"/>
<polygon fill="#63b8ff" stroke="#63b8ff" points="503.14,-187.02 492.93,-184.17 499.13,-192.76 503.14,-187.02"/>
</a>
</g>
</g>
<!-- Node24 -->
<g id="Node000024" class="node">
<title>Node24</title>
<g id="a_Node000024"><a xlink:title=" ">
<polygon fill="#e0e0e0" stroke="#999999" points="586.5,-184 526.5,-184 526.5,-165 586.5,-165 586.5,-184"/>
<text text-anchor="middle" x="556.5" y="-172" font-family="Helvetica,sans-Serif" font-size="10.00">iostream</text>
</a>
</g>
</g>
<!-- Node20&#45;&gt;Node24 -->
<g id="edge32_Node000020_Node000024" class="edge">
<title>Node20&#45;&gt;Node24</title>
<g id="a_edge32_Node000020_Node000024"><a xlink:title=" ">
<path fill="none" stroke="#63b8ff" d="M556.5,-219.75C556.5,-212.8 556.5,-202.85 556.5,-194.13"/>
<polygon fill="#63b8ff" stroke="#63b8ff" points="560,-194.09 556.5,-184.09 553,-194.09 560,-194.09"/>
</a>
</g>
</g>
<!-- Node25 -->
<g id="Node000025" class="node">
<title>Node25</title>
<g id="a_Node000025"><a xlink:title=" ">
<polygon fill="#e0e0e0" stroke="#999999" points="686,-184 643,-184 643,-165 686,-165 686,-184"/>
<text text-anchor="middle" x="664.5" y="-172" font-family="Helvetica,sans-Serif" font-size="10.00">stack</text>
</a>
</g>
</g>
<!-- Node20&#45;&gt;Node25 -->
<g id="edge34_Node000020_Node000025" class="edge">
<title>Node20&#45;&gt;Node25</title>
<g id="a_edge34_Node000020_Node000025"><a xlink:title=" ">
<path fill="none" stroke="#63b8ff" d="M573.85,-219.98C591.07,-211.54 617.7,-198.47 637.65,-188.68"/>
<polygon fill="#63b8ff" stroke="#63b8ff" points="639.4,-191.72 646.83,-184.17 636.31,-185.43 639.4,-191.72"/>
</a>
</g>
</g>
</g>
</svg>
