<?xml version="1.0" encoding="UTF-8" standalone="no"?>
<!DOCTYPE svg PUBLIC "-//W3C//DTD SVG 1.1//EN"
 "http://www.w3.org/Graphics/SVG/1.1/DTD/svg11.dtd">
<!-- Generated by graphviz version 2.43.0 (0)
 -->
<!-- Title: textInstr Pages: 1 -->
<svg width="100pt" height="317pt"
 viewBox="0.00 0.00 100.00 317.00" xmlns="http://www.w3.org/2000/svg" xmlns:xlink="http://www.w3.org/1999/xlink">
<g id="graph0" class="graph" transform="scale(1 1) rotate(0) translate(4 313)">
<title>textInstr</title>
<!-- Node1 -->
<g id="Node000001" class="node">
<title>Node1</title>
<g id="a_Node000001"><a xlink:title=" ">
<polygon fill="#999999" stroke="transparent" points="76.5,-64 15.5,-64 15.5,0 76.5,0 76.5,-64"/>
<text text-anchor="start" x="25.5" y="-52" font-family="Helvetica,sans-Serif" font-size="10.00">textInstr</text>
<text text-anchor="start" x="20" y="-37" font-family="Helvetica,sans-Serif" font-size="10.00">+</text>
<text text-anchor="start" x="33" y="-37" font-family="Helvetica,sans-Serif" font-size="10.00">text</text>
<text text-anchor="start" x="20" y="-22" font-family="Helvetica,sans-Serif" font-size="10.00">+</text>
<text text-anchor="start" x="33" y="-22" font-family="Helvetica,sans-Serif" font-size="10.00">fontSize</text>
<text text-anchor="start" x="44.5" y="-7" font-family="Helvetica,sans-Serif" font-size="10.00"> </text>
<polygon fill="#666666" stroke="#666666" points="16,-47 16,-47 77,-47 77,-47 16,-47"/>
<polygon fill="#666666" stroke="#666666" points="16,-17 16,-17 31,-17 31,-17 16,-17"/>
<polygon fill="#666666" stroke="#666666" points="31,-17 31,-17 77,-17 77,-17 31,-17"/>
<polygon fill="none" stroke="#666666" points="15.5,0 15.5,-64 76.5,-64 76.5,0 15.5,0"/>
</a>
</g>
</g>
<!-- Node2 -->
<g id="Node000002" class="node">
<title>Node2</title>
<g id="a_Node000002"><a xlink:href="structrectInstr.html" target="_top" xlink:title=" ">
<polygon fill="white" stroke="transparent" points="71.5,-164 20.5,-164 20.5,-100 71.5,-100 71.5,-164"/>
<text text-anchor="start" x="26" y="-152" font-family="Helvetica,sans-Serif" font-size="10.00">rectInstr</text>
<text text-anchor="start" x="30" y="-137" font-family="Helvetica,sans-Serif" font-size="10.00">+</text>
<text text-anchor="start" x="48" y="-137" font-family="Helvetica,sans-Serif" font-size="10.00">h</text>
<text text-anchor="start" x="30" y="-122" font-family="Helvetica,sans-Serif" font-size="10.00">+</text>
<text text-anchor="start" x="48" y="-122" font-family="Helvetica,sans-Serif" font-size="10.00">w</text>
<text text-anchor="start" x="44.5" y="-107" font-family="Helvetica,sans-Serif" font-size="10.00"> </text>
<polygon fill="#666666" stroke="#666666" points="21,-147 21,-147 72,-147 72,-147 21,-147"/>
<polygon fill="#666666" stroke="#666666" points="21,-117 21,-117 46,-117 46,-117 21,-117"/>
<polygon fill="#666666" stroke="#666666" points="46,-117 46,-117 72,-117 72,-117 46,-117"/>
<polygon fill="none" stroke="#666666" points="20.5,-100 20.5,-164 71.5,-164 71.5,-100 20.5,-100"/>
</a>
</g>
</g>
<!-- Node2&#45;&gt;Node1 -->
<g id="edge1_Node000001_Node000002" class="edge">
<title>Node2&#45;&gt;Node1</title>
<g id="a_edge1_Node000001_Node000002"><a xlink:title=" ">
<path fill="none" stroke="#63b8ff" d="M46,-89.76C46,-81.19 46,-72.28 46,-64.14"/>
<polygon fill="none" stroke="#63b8ff" points="42.5,-89.99 46,-99.99 49.5,-89.99 42.5,-89.99"/>
</a>
</g>
</g>
<!-- Node3 -->
<g id="Node000003" class="node">
<title>Node3</title>
<g id="a_Node000003"><a xlink:href="structGfxInstruction.html" target="_top" xlink:title=" ">
<polygon fill="white" stroke="transparent" points="92,-309 0,-309 0,-200 92,-200 92,-309"/>
<text text-anchor="start" x="11" y="-296.5" font-family="Helvetica,sans-Serif" font-size="10.00">GfxInstruction</text>
<text text-anchor="start" x="4" y="-281.5" font-family="Helvetica,sans-Serif" font-size="10.00">+</text>
<text text-anchor="start" x="17" y="-281.5" font-family="Helvetica,sans-Serif" font-size="10.00">x</text>
<text text-anchor="start" x="4" y="-266.5" font-family="Helvetica,sans-Serif" font-size="10.00">+</text>
<text text-anchor="start" x="17" y="-266.5" font-family="Helvetica,sans-Serif" font-size="10.00">y</text>
<text text-anchor="start" x="4" y="-251.5" font-family="Helvetica,sans-Serif" font-size="10.00">+</text>
<text text-anchor="start" x="17" y="-251.5" font-family="Helvetica,sans-Serif" font-size="10.00">txt</text>
<text text-anchor="start" x="4" y="-236.5" font-family="Helvetica,sans-Serif" font-size="10.00">+</text>
<text text-anchor="start" x="17" y="-236.5" font-family="Helvetica,sans-Serif" font-size="10.00">asset_location</text>
<text text-anchor="start" x="4" y="-221.5" font-family="Helvetica,sans-Serif" font-size="10.00">+</text>
<text text-anchor="start" x="17" y="-221.5" font-family="Helvetica,sans-Serif" font-size="10.00">color_hex</text>
<text text-anchor="start" x="44" y="-206.5" font-family="Helvetica,sans-Serif" font-size="10.00"> </text>
<polygon fill="#666666" stroke="#666666" points="0,-291.5 0,-291.5 92,-291.5 92,-291.5 0,-291.5"/>
<polygon fill="#666666" stroke="#666666" points="0,-216.5 0,-216.5 15,-216.5 15,-216.5 0,-216.5"/>
<polygon fill="#666666" stroke="#666666" points="15,-216.5 15,-216.5 92,-216.5 92,-216.5 15,-216.5"/>
<polygon fill="none" stroke="#666666" points="0,-200 0,-309 92,-309 92,-200 0,-200"/>
</a>
</g>
</g>
<!-- Node3&#45;&gt;Node2 -->
<g id="edge2_Node000002_Node000003" class="edge">
<title>Node3&#45;&gt;Node2</title>
<g id="a_edge2_Node000002_Node000003"><a xlink:title=" ">
<path fill="none" stroke="#63b8ff" d="M46,-189.9C46,-181 46,-172.2 46,-164.28"/>
<polygon fill="none" stroke="#63b8ff" points="42.5,-189.95 46,-199.95 49.5,-189.95 42.5,-189.95"/>
</a>
</g>
</g>
</g>
</svg>
