<?xml version="1.0" encoding="UTF-8" standalone="no"?>
<!DOCTYPE svg PUBLIC "-//W3C//DTD SVG 1.1//EN"
 "http://www.w3.org/Graphics/SVG/1.1/DTD/svg11.dtd">
<!-- Generated by graphviz version 2.43.0 (0)
 -->
<!-- Title: area_s Pages: 1 -->
<svg width="87pt" height="179pt"
 viewBox="0.00 0.00 87.00 179.00" xmlns="http://www.w3.org/2000/svg" xmlns:xlink="http://www.w3.org/1999/xlink">
<g id="graph0" class="graph" transform="scale(1 1) rotate(0) translate(4 175)">
<title>area_s</title>
<!-- Node1 -->
<g id="Node000001" class="node">
<title>Node1</title>
<g id="a_Node000001"><a xlink:title=" ">
<polygon fill="#999999" stroke="transparent" points="79,-49 0,-49 0,0 79,0 79,-49"/>
<text text-anchor="start" x="23.5" y="-36.5" font-family="Helvetica,sans-Serif" font-size="10.00">area_s</text>
<text text-anchor="start" x="38" y="-21.5" font-family="Helvetica,sans-Serif" font-size="10.00"> </text>
<text text-anchor="start" x="4.5" y="-6.5" font-family="Helvetica,sans-Serif" font-size="10.00">+</text>
<text text-anchor="start" x="17.5" y="-6.5" font-family="Helvetica,sans-Serif" font-size="10.00">operator&lt;()</text>
<polygon fill="#666666" stroke="#666666" points="0.5,-31.5 0.5,-31.5 79.5,-31.5 79.5,-31.5 0.5,-31.5"/>
<polygon fill="#666666" stroke="#666666" points="0.5,-16.5 0.5,-16.5 79.5,-16.5 79.5,-16.5 0.5,-16.5"/>
<polygon fill="none" stroke="#666666" points="0,0 0,-49 79,-49 79,0 0,0"/>
</a>
</g>
</g>
<!-- Node2 -->
<g id="Node000002" class="node">
<title>Node2</title>
<g id="a_Node000002"><a xlink:href="structpoint__s.html" target="_top" xlink:title=" ">
<polygon fill="white" stroke="transparent" points="62.5,-171 16.5,-171 16.5,-107 62.5,-107 62.5,-171"/>
<text text-anchor="start" x="21.5" y="-159" font-family="Helvetica,sans-Serif" font-size="10.00">point_s</text>
<text text-anchor="start" x="25" y="-144" font-family="Helvetica,sans-Serif" font-size="10.00">+</text>
<text text-anchor="start" x="42.5" y="-144" font-family="Helvetica,sans-Serif" font-size="10.00">x</text>
<text text-anchor="start" x="25" y="-129" font-family="Helvetica,sans-Serif" font-size="10.00">+</text>
<text text-anchor="start" x="42.5" y="-129" font-family="Helvetica,sans-Serif" font-size="10.00">y</text>
<text text-anchor="start" x="37.5" y="-114" font-family="Helvetica,sans-Serif" font-size="10.00"> </text>
<polygon fill="#666666" stroke="#666666" points="16.5,-154 16.5,-154 62.5,-154 62.5,-154 16.5,-154"/>
<polygon fill="#666666" stroke="#666666" points="16.5,-124 16.5,-124 40.5,-124 40.5,-124 16.5,-124"/>
<polygon fill="#666666" stroke="#666666" points="40.5,-124 40.5,-124 62.5,-124 62.5,-124 40.5,-124"/>
<polygon fill="none" stroke="#666666" points="16.5,-107 16.5,-171 62.5,-171 62.5,-107 16.5,-107"/>
</a>
</g>
</g>
<!-- Node2&#45;&gt;Node1 -->
<g id="edge1_Node000001_Node000002" class="edge">
<title>Node2&#45;&gt;Node1</title>
<g id="a_edge1_Node000001_Node000002"><a xlink:title=" ">
<path fill="none" stroke="#63b8ff" d="M39.5,-106.96C39.5,-92.88 39.5,-76.13 39.5,-61.5"/>
<polygon fill="none" stroke="#63b8ff" points="39.5,-61.3 35.5,-55.3 39.5,-49.3 43.5,-55.3 39.5,-61.3"/>
</a>
</g>
<text text-anchor="middle" x="48.5" y="-81" font-family="Helvetica,sans-Serif" font-size="10.00" fill="grey"> +a</text>
<text text-anchor="middle" x="48.5" y="-70" font-family="Helvetica,sans-Serif" font-size="10.00" fill="grey">+b</text>
</g>
</g>
</svg>
