<?xml version="1.0" encoding="UTF-8" standalone="no"?>
<!DOCTYPE svg PUBLIC "-//W3C//DTD SVG 1.1//EN"
 "http://www.w3.org/Graphics/SVG/1.1/DTD/svg11.dtd">
<!-- Generated by graphviz version 2.43.0 (0)
 -->
<!-- Title: rectInstr Pages: 1 -->
<svg width="100pt" height="217pt"
 viewBox="0.00 0.00 100.00 217.00" xmlns="http://www.w3.org/2000/svg" xmlns:xlink="http://www.w3.org/1999/xlink">
<g id="graph0" class="graph" transform="scale(1 1) rotate(0) translate(4 213)">
<title>rectInstr</title>
<!-- Node1 -->
<g id="Node000001" class="node">
<title>Node1</title>
<g id="a_Node000001"><a xlink:title=" ">
<polygon fill="#999999" stroke="transparent" points="71.5,-64 20.5,-64 20.5,0 71.5,0 71.5,-64"/>
<text text-anchor="start" x="26" y="-52" font-family="Helvetica,sans-Serif" font-size="10.00">rectInstr</text>
<text text-anchor="start" x="30" y="-37" font-family="Helvetica,sans-Serif" font-size="10.00">+</text>
<text text-anchor="start" x="48" y="-37" font-family="Helvetica,sans-Serif" font-size="10.00">h</text>
<text text-anchor="start" x="30" y="-22" font-family="Helvetica,sans-Serif" font-size="10.00">+</text>
<text text-anchor="start" x="48" y="-22" font-family="Helvetica,sans-Serif" font-size="10.00">w</text>
<text text-anchor="start" x="44.5" y="-7" font-family="Helvetica,sans-Serif" font-size="10.00"> </text>
<polygon fill="#666666" stroke="#666666" points="21,-47 21,-47 72,-47 72,-47 21,-47"/>
<polygon fill="#666666" stroke="#666666" points="21,-17 21,-17 46,-17 46,-17 21,-17"/>
<polygon fill="#666666" stroke="#666666" points="46,-17 46,-17 72,-17 72,-17 46,-17"/>
<polygon fill="none" stroke="#666666" points="20.5,0 20.5,-64 71.5,-64 71.5,0 20.5,0"/>
</a>
</g>
</g>
<!-- Node2 -->
<g id="Node000002" class="node">
<title>Node2</title>
<g id="a_Node000002"><a xlink:href="structGfxInstruction.html" target="_top" xlink:title=" ">
<polygon fill="white" stroke="transparent" points="92,-209 0,-209 0,-100 92,-100 92,-209"/>
<text text-anchor="start" x="11" y="-196.5" font-family="Helvetica,sans-Serif" font-size="10.00">GfxInstruction</text>
<text text-anchor="start" x="4" y="-181.5" font-family="Helvetica,sans-Serif" font-size="10.00">+</text>
<text text-anchor="start" x="17" y="-181.5" font-family="Helvetica,sans-Serif" font-size="10.00">x</text>
<text text-anchor="start" x="4" y="-166.5" font-family="Helvetica,sans-Serif" font-size="10.00">+</text>
<text text-anchor="start" x="17" y="-166.5" font-family="Helvetica,sans-Serif" font-size="10.00">y</text>
<text text-anchor="start" x="4" y="-151.5" font-family="Helvetica,sans-Serif" font-size="10.00">+</text>
<text text-anchor="start" x="17" y="-151.5" font-family="Helvetica,sans-Serif" font-size="10.00">txt</text>
<text text-anchor="start" x="4" y="-136.5" font-family="Helvetica,sans-Serif" font-size="10.00">+</text>
<text text-anchor="start" x="17" y="-136.5" font-family="Helvetica,sans-Serif" font-size="10.00">asset_location</text>
<text text-anchor="start" x="4" y="-121.5" font-family="Helvetica,sans-Serif" font-size="10.00">+</text>
<text text-anchor="start" x="17" y="-121.5" font-family="Helvetica,sans-Serif" font-size="10.00">color_hex</text>
<text text-anchor="start" x="44" y="-106.5" font-family="Helvetica,sans-Serif" font-size="10.00"> </text>
<polygon fill="#666666" stroke="#666666" points="0,-191.5 0,-191.5 92,-191.5 92,-191.5 0,-191.5"/>
<polygon fill="#666666" stroke="#666666" points="0,-116.5 0,-116.5 15,-116.5 15,-116.5 0,-116.5"/>
<polygon fill="#666666" stroke="#666666" points="15,-116.5 15,-116.5 92,-116.5 92,-116.5 15,-116.5"/>
<polygon fill="none" stroke="#666666" points="0,-100 0,-209 92,-209 92,-100 0,-100"/>
</a>
</g>
</g>
<!-- Node2&#45;&gt;Node1 -->
<g id="edge1_Node000001_Node000002" class="edge">
<title>Node2&#45;&gt;Node1</title>
<g id="a_edge1_Node000001_Node000002"><a xlink:title=" ">
<path fill="none" stroke="#63b8ff" d="M46,-89.9C46,-81 46,-72.2 46,-64.28"/>
<polygon fill="none" stroke="#63b8ff" points="42.5,-89.95 46,-99.95 49.5,-89.95 42.5,-89.95"/>
</a>
</g>
</g>
</g>
</svg>
