<?xml version="1.0" encoding="UTF-8" standalone="no"?>
<!DOCTYPE svg PUBLIC "-//W3C//DTD SVG 1.1//EN"
 "http://www.w3.org/Graphics/SVG/1.1/DTD/svg11.dtd">
<!-- Generated by graphviz version 2.43.0 (0)
 -->
<!-- Title: GfxInstruction Pages: 1 -->
<svg width="141pt" height="317pt"
 viewBox="0.00 0.00 141.00 317.00" xmlns="http://www.w3.org/2000/svg" xmlns:xlink="http://www.w3.org/1999/xlink">
<g id="graph0" class="graph" transform="scale(1 1) rotate(0) translate(4 313)">
<title>GfxInstruction</title>
<!-- Node1 -->
<g id="Node000001" class="node">
<title>Node1</title>
<g id="a_Node000001"><a xlink:title=" ">
<polygon fill="#999999" stroke="transparent" points="111.5,-309 19.5,-309 19.5,-200 111.5,-200 111.5,-309"/>
<text text-anchor="start" x="30.5" y="-296.5" font-family="Helvetica,sans-Serif" font-size="10.00">GfxInstruction</text>
<text text-anchor="start" x="23.5" y="-281.5" font-family="Helvetica,sans-Serif" font-size="10.00">+</text>
<text text-anchor="start" x="36.5" y="-281.5" font-family="Helvetica,sans-Serif" font-size="10.00">x</text>
<text text-anchor="start" x="23.5" y="-266.5" font-family="Helvetica,sans-Serif" font-size="10.00">+</text>
<text text-anchor="start" x="36.5" y="-266.5" font-family="Helvetica,sans-Serif" font-size="10.00">y</text>
<text text-anchor="start" x="23.5" y="-251.5" font-family="Helvetica,sans-Serif" font-size="10.00">+</text>
<text text-anchor="start" x="36.5" y="-251.5" font-family="Helvetica,sans-Serif" font-size="10.00">txt</text>
<text text-anchor="start" x="23.5" y="-236.5" font-family="Helvetica,sans-Serif" font-size="10.00">+</text>
<text text-anchor="start" x="36.5" y="-236.5" font-family="Helvetica,sans-Serif" font-size="10.00">asset_location</text>
<text text-anchor="start" x="23.5" y="-221.5" font-family="Helvetica,sans-Serif" font-size="10.00">+</text>
<text text-anchor="start" x="36.5" y="-221.5" font-family="Helvetica,sans-Serif" font-size="10.00">color_hex</text>
<text text-anchor="start" x="63.5" y="-206.5" font-family="Helvetica,sans-Serif" font-size="10.00"> </text>
<polygon fill="#666666" stroke="#666666" points="19.5,-291.5 19.5,-291.5 111.5,-291.5 111.5,-291.5 19.5,-291.5"/>
<polygon fill="#666666" stroke="#666666" points="19.5,-216.5 19.5,-216.5 34.5,-216.5 34.5,-216.5 19.5,-216.5"/>
<polygon fill="#666666" stroke="#666666" points="34.5,-216.5 34.5,-216.5 111.5,-216.5 111.5,-216.5 34.5,-216.5"/>
<polygon fill="none" stroke="#666666" points="19.5,-200 19.5,-309 111.5,-309 111.5,-200 19.5,-200"/>
</a>
</g>
</g>
<!-- Node2 -->
<g id="Node000002" class="node">
<title>Node2</title>
<g id="a_Node000002"><a xlink:href="structcircleInstr.html" target="_top" xlink:title=" ">
<polygon fill="white" stroke="transparent" points="59,-156.5 0,-156.5 0,-107.5 59,-107.5 59,-156.5"/>
<text text-anchor="start" x="5.5" y="-144" font-family="Helvetica,sans-Serif" font-size="10.00">circleInstr</text>
<text text-anchor="start" x="6" y="-129" font-family="Helvetica,sans-Serif" font-size="10.00">+</text>
<text text-anchor="start" x="20.5" y="-129" font-family="Helvetica,sans-Serif" font-size="10.00">radius</text>
<text text-anchor="start" x="28" y="-114" font-family="Helvetica,sans-Serif" font-size="10.00"> </text>
<polygon fill="#666666" stroke="#666666" points="0.5,-139 0.5,-139 59.5,-139 59.5,-139 0.5,-139"/>
<polygon fill="#666666" stroke="#666666" points="0.5,-124 0.5,-124 18.5,-124 18.5,-124 0.5,-124"/>
<polygon fill="#666666" stroke="#666666" points="18.5,-124 18.5,-124 59.5,-124 59.5,-124 18.5,-124"/>
<polygon fill="none" stroke="#666666" points="0,-107.5 0,-156.5 59,-156.5 59,-107.5 0,-107.5"/>
</a>
</g>
</g>
<!-- Node1&#45;&gt;Node2 -->
<g id="edge1_Node000001_Node000002" class="edge">
<title>Node1&#45;&gt;Node2</title>
<g id="a_edge1_Node000001_Node000002"><a xlink:title=" ">
<path fill="none" stroke="#63b8ff" d="M46.61,-190.28C43.01,-178.22 39.46,-166.33 36.53,-156.53"/>
<polygon fill="none" stroke="#63b8ff" points="43.28,-191.37 49.5,-199.95 49.99,-189.36 43.28,-191.37"/>
</a>
</g>
</g>
<!-- Node3 -->
<g id="Node000003" class="node">
<title>Node3</title>
<g id="a_Node000003"><a xlink:href="structrectInstr.html" target="_top" xlink:title=" ">
<polygon fill="white" stroke="transparent" points="128,-164 77,-164 77,-100 128,-100 128,-164"/>
<text text-anchor="start" x="82.5" y="-152" font-family="Helvetica,sans-Serif" font-size="10.00">rectInstr</text>
<text text-anchor="start" x="86.5" y="-137" font-family="Helvetica,sans-Serif" font-size="10.00">+</text>
<text text-anchor="start" x="104.5" y="-137" font-family="Helvetica,sans-Serif" font-size="10.00">h</text>
<text text-anchor="start" x="86.5" y="-122" font-family="Helvetica,sans-Serif" font-size="10.00">+</text>
<text text-anchor="start" x="104.5" y="-122" font-family="Helvetica,sans-Serif" font-size="10.00">w</text>
<text text-anchor="start" x="101" y="-107" font-family="Helvetica,sans-Serif" font-size="10.00"> </text>
<polygon fill="#666666" stroke="#666666" points="77.5,-147 77.5,-147 128.5,-147 128.5,-147 77.5,-147"/>
<polygon fill="#666666" stroke="#666666" points="77.5,-117 77.5,-117 102.5,-117 102.5,-117 77.5,-117"/>
<polygon fill="#666666" stroke="#666666" points="102.5,-117 102.5,-117 128.5,-117 128.5,-117 102.5,-117"/>
<polygon fill="none" stroke="#666666" points="77,-100 77,-164 128,-164 128,-100 77,-100"/>
</a>
</g>
</g>
<!-- Node1&#45;&gt;Node3 -->
<g id="edge2_Node000001_Node000003" class="edge">
<title>Node1&#45;&gt;Node3</title>
<g id="a_edge2_Node000001_Node000003"><a xlink:title=" ">
<path fill="none" stroke="#63b8ff" d="M84.94,-190.19C87.7,-181.19 90.44,-172.29 92.89,-164.28"/>
<polygon fill="none" stroke="#63b8ff" points="81.53,-189.36 81.94,-199.95 88.23,-191.41 81.53,-189.36"/>
</a>
</g>
</g>
<!-- Node4 -->
<g id="Node000004" class="node">
<title>Node4</title>
<g id="a_Node000004"><a xlink:href="structtextInstr.html" target="_top" xlink:title=" ">
<polygon fill="white" stroke="transparent" points="133,-64 72,-64 72,0 133,0 133,-64"/>
<text text-anchor="start" x="82" y="-52" font-family="Helvetica,sans-Serif" font-size="10.00">textInstr</text>
<text text-anchor="start" x="76.5" y="-37" font-family="Helvetica,sans-Serif" font-size="10.00">+</text>
<text text-anchor="start" x="89.5" y="-37" font-family="Helvetica,sans-Serif" font-size="10.00">text</text>
<text text-anchor="start" x="76.5" y="-22" font-family="Helvetica,sans-Serif" font-size="10.00">+</text>
<text text-anchor="start" x="89.5" y="-22" font-family="Helvetica,sans-Serif" font-size="10.00">fontSize</text>
<text text-anchor="start" x="101" y="-7" font-family="Helvetica,sans-Serif" font-size="10.00"> </text>
<polygon fill="#666666" stroke="#666666" points="72.5,-47 72.5,-47 133.5,-47 133.5,-47 72.5,-47"/>
<polygon fill="#666666" stroke="#666666" points="72.5,-17 72.5,-17 87.5,-17 87.5,-17 72.5,-17"/>
<polygon fill="#666666" stroke="#666666" points="87.5,-17 87.5,-17 133.5,-17 133.5,-17 87.5,-17"/>
<polygon fill="none" stroke="#666666" points="72,0 72,-64 133,-64 133,0 72,0"/>
</a>
</g>
</g>
<!-- Node3&#45;&gt;Node4 -->
<g id="edge3_Node000003_Node000004" class="edge">
<title>Node3&#45;&gt;Node4</title>
<g id="a_edge3_Node000003_Node000004"><a xlink:title=" ">
<path fill="none" stroke="#63b8ff" d="M102.5,-89.76C102.5,-81.19 102.5,-72.28 102.5,-64.14"/>
<polygon fill="none" stroke="#63b8ff" points="99,-89.99 102.5,-99.99 106,-89.99 99,-89.99"/>
</a>
</g>
</g>
</g>
</svg>
