<?xml version="1.0" encoding="UTF-8" standalone="no"?>
<!DOCTYPE svg PUBLIC "-//W3C//DTD SVG 1.1//EN"
 "http://www.w3.org/Graphics/SVG/1.1/DTD/svg11.dtd">
<!-- Generated by graphviz version 2.43.0 (0)
 -->
<!-- Title: shared/include/Utils.hpp Pages: 1 -->
<svg width="475pt" height="82pt"
 viewBox="0.00 0.00 475.00 82.00" xmlns="http://www.w3.org/2000/svg" xmlns:xlink="http://www.w3.org/1999/xlink">
<g id="graph0" class="graph" transform="scale(1 1) rotate(0) translate(4 78)">
<title>shared/include/Utils.hpp</title>
<!-- Node1 -->
<g id="Node000001" class="node">
<title>Node1</title>
<g id="a_Node000001"><a xlink:title=" ">
<polygon fill="#999999" stroke="#666666" points="317.5,-74 183.5,-74 183.5,-55 317.5,-55 317.5,-74"/>
<text text-anchor="middle" x="250.5" y="-62" font-family="Helvetica,sans-Serif" font-size="10.00">shared/include/Utils.hpp</text>
</a>
</g>
</g>
<!-- Node2 -->
<g id="Node000002" class="node">
<title>Node2</title>
<g id="a_Node000002"><a xlink:href="Menu_8cpp.html" target="_top" xlink:title=" ">
<polygon fill="white" stroke="#666666" points="147,-19 0,-19 0,0 147,0 147,-19"/>
<text text-anchor="middle" x="73.5" y="-7" font-family="Helvetica,sans-Serif" font-size="10.00">games/Menu/src/Menu.cpp</text>
</a>
</g>
</g>
<!-- Node1&#45;&gt;Node2 -->
<g id="edge1_Node000001_Node000002" class="edge">
<title>Node1&#45;&gt;Node2</title>
<g id="a_edge1_Node000001_Node000002"><a xlink:title=" ">
<path fill="none" stroke="#63b8ff" d="M212.28,-52.06C179.2,-42.15 132.09,-28.04 102.16,-19.08"/>
<polygon fill="#63b8ff" stroke="#63b8ff" points="211.48,-55.47 222.06,-54.98 213.49,-48.76 211.48,-55.47"/>
</a>
</g>
</g>
<!-- Node3 -->
<g id="Node000003" class="node">
<title>Node3</title>
<g id="a_Node000003"><a xlink:href="MenuUtils_8cpp.html" target="_top" xlink:title=" ">
<polygon fill="white" stroke="#666666" points="335.5,-19 165.5,-19 165.5,0 335.5,0 335.5,-19"/>
<text text-anchor="middle" x="250.5" y="-7" font-family="Helvetica,sans-Serif" font-size="10.00">games/Menu/src/MenuUtils.cpp</text>
</a>
</g>
</g>
<!-- Node1&#45;&gt;Node3 -->
<g id="edge2_Node000001_Node000003" class="edge">
<title>Node1&#45;&gt;Node3</title>
<g id="a_edge2_Node000001_Node000003"><a xlink:title=" ">
<path fill="none" stroke="#63b8ff" d="M250.5,-44.66C250.5,-35.93 250.5,-25.99 250.5,-19.09"/>
<polygon fill="#63b8ff" stroke="#63b8ff" points="247,-44.75 250.5,-54.75 254,-44.75 247,-44.75"/>
</a>
</g>
</g>
<!-- Node4 -->
<g id="Node000004" class="node">
<title>Node4</title>
<g id="a_Node000004"><a xlink:href="Utils_8cpp.html" target="_top" xlink:title=" ">
<polygon fill="white" stroke="#666666" points="467,-19 354,-19 354,0 467,0 467,-19"/>
<text text-anchor="middle" x="410.5" y="-7" font-family="Helvetica,sans-Serif" font-size="10.00">shared/src/Utils.cpp</text>
</a>
</g>
</g>
<!-- Node1&#45;&gt;Node4 -->
<g id="edge3_Node000001_Node000004" class="edge">
<title>Node1&#45;&gt;Node4</title>
<g id="a_edge3_Node000001_Node000004"><a xlink:title=" ">
<path fill="none" stroke="#63b8ff" d="M285.83,-51.8C315.69,-41.91 357.77,-27.97 384.59,-19.08"/>
<polygon fill="#63b8ff" stroke="#63b8ff" points="284.6,-48.52 276.21,-54.98 286.8,-55.16 284.6,-48.52"/>
</a>
</g>
</g>
</g>
</svg>
